M48
;Layer_Color=9474304
;FILE_FORMAT=2:5
INCH,LZ
;TYPE=PLATED
T1F00S00C0.01300
T2F00S00C0.01400
T3F00S00C0.03543
T4F00S00C0.03937
T5F00S00C0.04331
T6F00S00C0.14500
;TYPE=NON_PLATED
T7F00S00C0.04331
%
T01
X063Y02435
X0625Y0288
X06475Y02925
X062Y02415
X06215Y0236
X0523Y02395
X0485233Y0267741
X04715Y0268
X0491329Y029368
X0546Y02875
X0571571Y0296364
X04665Y0287
X04105Y02955
X03825Y02865
X033Y02925
X03055Y02875
X0327Y03375
X04005Y03345
X0486
X05625
X064
T02
X06515Y0306
Y03115
X0614Y0312
Y0306
X05335Y0306609
X04555Y0307
X03715Y0306609
Y0312109
X02965Y0306
X0289
X0289001Y0312906
X0296Y03125
X04555Y0313
X05335Y0312609
T03
X0652315Y0253
X0662157
X0672
X0681843
X0605106Y0257067
X0595264
X0585421
X0575579
X0565736
X0555894
T04
X03415Y03175
Y03375
Y03475
Y03575
X03615
Y03475
Y03375
Y03175
X0423
X0443
Y03375
Y03475
Y03575
X0423
Y03475
Y03375
X0504
Y03475
Y03575
X0524
Y03475
Y03375
Y03175
X0504
X05835
Y03375
Y03475
Y03575
X06035
Y03475
Y03375
Y03175
X06615
Y03375
Y03475
Y03575
X06815
Y03475
Y03375
Y03175
T05
X0295422Y0351834
Y0371834
X0341Y04045
X0361
X0423
X0443
X0503
X0523
X0583
X0603
X0661
X0681
T06
X0293Y02485
Y0407
X06335Y0374
T07
X0549594Y0249193
M30
