G04*
G04 #@! TF.GenerationSoftware,Altium Limited,Altium Designer,21.4.1 (30)*
G04*
G04 Layer_Color=16711935*
%FSLAX25Y25*%
%MOIN*%
G70*
G04*
G04 #@! TF.SameCoordinates,1266B52B-6285-4ABA-978B-C55B880163AB*
G04*
G04*
G04 #@! TF.FilePolarity,Negative*
G04*
G01*
G75*
%ADD37C,0.06102*%
%ADD38R,0.06102X0.06102*%
%ADD39C,0.07296*%
%ADD40R,0.07296X0.07296*%
%ADD41C,0.05512*%
%ADD42R,0.05512X0.05512*%
%ADD43C,0.04331*%
%ADD44R,0.07296X0.07296*%
%ADD45C,0.24800*%
%ADD46C,0.03600*%
D37*
X504000Y317500D02*
D03*
X661500D02*
D03*
X341500D02*
D03*
X423000D02*
D03*
X583500D02*
D03*
X443000Y337500D02*
D03*
Y347500D02*
D03*
Y357500D02*
D03*
X423000D02*
D03*
Y347500D02*
D03*
Y337500D02*
D03*
X661500D02*
D03*
Y347500D02*
D03*
Y357500D02*
D03*
X681500D02*
D03*
Y347500D02*
D03*
Y337500D02*
D03*
X504000D02*
D03*
Y347500D02*
D03*
Y357500D02*
D03*
X524000D02*
D03*
Y347500D02*
D03*
Y337500D02*
D03*
X341500D02*
D03*
Y347500D02*
D03*
Y357500D02*
D03*
X361500D02*
D03*
Y347500D02*
D03*
Y337500D02*
D03*
X583500D02*
D03*
Y347500D02*
D03*
Y357500D02*
D03*
X603500D02*
D03*
Y347500D02*
D03*
Y337500D02*
D03*
D38*
X443000Y317500D02*
D03*
X681500D02*
D03*
X524000D02*
D03*
X361500D02*
D03*
X603500D02*
D03*
D39*
X423000Y404500D02*
D03*
X295422Y351834D02*
D03*
X661000Y404500D02*
D03*
X503000D02*
D03*
X341000D02*
D03*
X583000D02*
D03*
D40*
X443000D02*
D03*
X681000D02*
D03*
X523000D02*
D03*
X361000D02*
D03*
X603000D02*
D03*
D41*
X585421Y257067D02*
D03*
X595264D02*
D03*
X605106D02*
D03*
X662157Y253000D02*
D03*
X672000D02*
D03*
X681843D02*
D03*
X575579Y257067D02*
D03*
X565736D02*
D03*
D42*
X652315Y253000D02*
D03*
X555894Y257067D02*
D03*
D43*
X549594Y249193D02*
D03*
D44*
X295422Y371834D02*
D03*
D45*
X633500Y374000D02*
D03*
X293000Y407000D02*
D03*
Y248500D02*
D03*
D46*
X651500Y306000D02*
D03*
Y311500D02*
D03*
X614000Y306000D02*
D03*
Y312000D02*
D03*
X533500Y306609D02*
D03*
Y312609D02*
D03*
X455500Y307000D02*
D03*
Y313000D02*
D03*
X371500Y306609D02*
D03*
Y312109D02*
D03*
X296500Y306000D02*
D03*
X296000Y312500D02*
D03*
X289000Y306000D02*
D03*
X289001Y312906D02*
D03*
X621500Y236000D02*
D03*
X523000Y239500D02*
D03*
X485233Y267741D02*
D03*
X471500Y268000D02*
D03*
X305500Y287500D02*
D03*
X330000Y292500D02*
D03*
X327000Y337500D02*
D03*
X382500Y286500D02*
D03*
X410500Y295500D02*
D03*
X400500Y334500D02*
D03*
X466500Y287000D02*
D03*
X486000Y334500D02*
D03*
X491329Y293680D02*
D03*
X562500Y334500D02*
D03*
X546000Y287500D02*
D03*
X571571Y296364D02*
D03*
X640000Y334500D02*
D03*
X647500Y292500D02*
D03*
X625000Y288000D02*
D03*
X630000Y243500D02*
D03*
X620000Y241500D02*
D03*
M02*
