G04*
G04 #@! TF.GenerationSoftware,Altium Limited,Altium Designer,21.4.1 (30)*
G04*
G04 Layer_Physical_Order=2*
G04 Layer_Color=16711680*
%FSLAX25Y25*%
%MOIN*%
G70*
G04*
G04 #@! TF.SameCoordinates,1266B52B-6285-4ABA-978B-C55B880163AB*
G04*
G04*
G04 #@! TF.FilePolarity,Positive*
G04*
G01*
G75*
%ADD37C,0.06102*%
%ADD38R,0.06102X0.06102*%
%ADD41C,0.05512*%
%ADD42R,0.05512X0.05512*%
%ADD43C,0.04331*%
%ADD50C,0.05000*%
%ADD51C,0.06496*%
%ADD52R,0.06496X0.06496*%
%ADD53R,0.06496X0.06496*%
%ADD54C,0.24000*%
%ADD55C,0.02800*%
G36*
X698726Y230774D02*
X273775D01*
Y425225D01*
X698726D01*
Y230774D01*
D02*
G37*
%LPC*%
G36*
X685248Y408748D02*
X676752D01*
Y400252D01*
X685248D01*
Y408748D01*
D02*
G37*
G36*
X607248D02*
X598752D01*
Y400252D01*
X607248D01*
Y408748D01*
D02*
G37*
G36*
X527248D02*
X518752D01*
Y400252D01*
X527248D01*
Y408748D01*
D02*
G37*
G36*
X447248D02*
X438752D01*
Y400252D01*
X447248D01*
Y408748D01*
D02*
G37*
G36*
X365248D02*
X356752D01*
Y400252D01*
X365248D01*
Y408748D01*
D02*
G37*
G36*
X294023Y420000D02*
X291977D01*
X289956Y419680D01*
X288010Y419048D01*
X286187Y418119D01*
X284531Y416916D01*
X283084Y415469D01*
X281881Y413813D01*
X280952Y411990D01*
X280320Y410044D01*
X280000Y408023D01*
Y405977D01*
X280320Y403956D01*
X280952Y402010D01*
X281881Y400186D01*
X283084Y398531D01*
X284531Y397084D01*
X286187Y395881D01*
X288010Y394952D01*
X289956Y394320D01*
X291977Y394000D01*
X294023D01*
X296044Y394320D01*
X297990Y394952D01*
X299814Y395881D01*
X301469Y397084D01*
X302916Y398531D01*
X304119Y400186D01*
X305048Y402010D01*
X305680Y403956D01*
X306000Y405977D01*
Y408023D01*
X305680Y410044D01*
X305048Y411990D01*
X304119Y413813D01*
X302916Y415469D01*
X301469Y416916D01*
X299814Y418119D01*
X297990Y419048D01*
X296044Y419680D01*
X294023Y420000D01*
D02*
G37*
G36*
X634523Y387000D02*
X632477D01*
X630456Y386680D01*
X628510Y386048D01*
X626686Y385119D01*
X625031Y383916D01*
X623584Y382469D01*
X622381Y380814D01*
X621452Y378990D01*
X620820Y377044D01*
X620500Y375023D01*
Y372977D01*
X620820Y370956D01*
X621452Y369010D01*
X622381Y367186D01*
X623584Y365531D01*
X625031Y364084D01*
X626686Y362881D01*
X628510Y361952D01*
X630456Y361320D01*
X632477Y361000D01*
X634523D01*
X636544Y361320D01*
X638490Y361952D01*
X640313Y362881D01*
X641969Y364084D01*
X643416Y365531D01*
X644619Y367186D01*
X645548Y369010D01*
X646180Y370956D01*
X646500Y372977D01*
Y375023D01*
X646180Y377044D01*
X645548Y378990D01*
X644619Y380814D01*
X643416Y382469D01*
X641969Y383916D01*
X640313Y385119D01*
X638490Y386048D01*
X636544Y386680D01*
X634523Y387000D01*
D02*
G37*
G36*
X682033Y361551D02*
X680967D01*
X679936Y361275D01*
X679012Y360742D01*
X678258Y359987D01*
X677725Y359064D01*
X677449Y358033D01*
Y356967D01*
X677725Y355936D01*
X678258Y355012D01*
X679012Y354258D01*
X679936Y353725D01*
X680967Y353449D01*
X682033D01*
X683064Y353725D01*
X683988Y354258D01*
X684742Y355012D01*
X685275Y355936D01*
X685551Y356967D01*
Y358033D01*
X685275Y359064D01*
X684742Y359987D01*
X683988Y360742D01*
X683064Y361275D01*
X682033Y361551D01*
D02*
G37*
G36*
X661559Y408748D02*
X660441D01*
X659360Y408459D01*
X658392Y407899D01*
X657601Y407108D01*
X657042Y406140D01*
X656752Y405059D01*
Y403941D01*
X657042Y402860D01*
X657601Y401892D01*
X657970Y401523D01*
Y359488D01*
X657725Y359064D01*
X657449Y358033D01*
Y356967D01*
X657725Y355936D01*
X658258Y355012D01*
X659013Y354258D01*
X659936Y353725D01*
X660967Y353449D01*
X662033D01*
X663064Y353725D01*
X663987Y354258D01*
X664742Y355012D01*
X665275Y355936D01*
X665551Y356967D01*
Y358033D01*
X665275Y359064D01*
X665030Y359488D01*
Y403128D01*
X665248Y403941D01*
Y405059D01*
X664958Y406140D01*
X664399Y407108D01*
X663608Y407899D01*
X662640Y408459D01*
X661559Y408748D01*
D02*
G37*
G36*
X583559D02*
X582441D01*
X581360Y408459D01*
X580392Y407899D01*
X579601Y407108D01*
X579041Y406140D01*
X578752Y405059D01*
Y403941D01*
X579041Y402860D01*
X579601Y401892D01*
X579970Y401523D01*
Y359488D01*
X579725Y359064D01*
X579449Y358033D01*
Y356967D01*
X579725Y355936D01*
X580258Y355012D01*
X581012Y354258D01*
X581936Y353725D01*
X582967Y353449D01*
X583749D01*
X583956Y352949D01*
X582409Y351402D01*
X581936Y351275D01*
X581512Y351030D01*
X545462D01*
X529496Y366996D01*
X528765Y367557D01*
X527914Y367910D01*
X527000Y368030D01*
X521000D01*
X520086Y367910D01*
X519235Y367557D01*
X518504Y366996D01*
X508551Y357044D01*
X508051Y357251D01*
Y358033D01*
X507775Y359064D01*
X507242Y359987D01*
X506530Y360699D01*
Y402118D01*
X506958Y402860D01*
X507248Y403941D01*
Y405059D01*
X506958Y406140D01*
X506399Y407108D01*
X505608Y407899D01*
X504640Y408459D01*
X503559Y408748D01*
X502441D01*
X501360Y408459D01*
X500392Y407899D01*
X499601Y407108D01*
X499042Y406140D01*
X498752Y405059D01*
Y403941D01*
X499042Y402860D01*
X499470Y402118D01*
Y358798D01*
X499590Y357885D01*
X499943Y357033D01*
X499949Y357025D01*
Y356967D01*
X500225Y355936D01*
X500758Y355012D01*
X501512Y354258D01*
X502436Y353725D01*
X503467Y353449D01*
X504249D01*
X504456Y352949D01*
X502909Y351402D01*
X502436Y351275D01*
X502012Y351030D01*
X470462D01*
X454996Y366496D01*
X454265Y367057D01*
X453414Y367410D01*
X452500Y367530D01*
X447838D01*
X447449Y367581D01*
X439551D01*
X438637Y367461D01*
X437786Y367108D01*
X437055Y366547D01*
X427551Y357044D01*
X427051Y357251D01*
Y358033D01*
X426775Y359064D01*
X426530Y359488D01*
Y402118D01*
X426959Y402860D01*
X427248Y403941D01*
Y405059D01*
X426959Y406140D01*
X426399Y407108D01*
X425608Y407899D01*
X424640Y408459D01*
X423559Y408748D01*
X422441D01*
X421360Y408459D01*
X420392Y407899D01*
X419601Y407108D01*
X419041Y406140D01*
X418752Y405059D01*
Y403941D01*
X419041Y402860D01*
X419470Y402118D01*
Y359488D01*
X419225Y359064D01*
X418949Y358033D01*
Y356967D01*
X419225Y355936D01*
X419758Y355012D01*
X420512Y354258D01*
X421436Y353725D01*
X422467Y353449D01*
X423249D01*
X423456Y352949D01*
X421909Y351402D01*
X421436Y351275D01*
X421012Y351030D01*
X384962D01*
X368996Y366996D01*
X368265Y367557D01*
X367414Y367910D01*
X366500Y368030D01*
X358500D01*
X357586Y367910D01*
X356735Y367557D01*
X356004Y366996D01*
X346051Y357044D01*
X345551Y357251D01*
Y358033D01*
X345275Y359064D01*
X345030Y359488D01*
Y403128D01*
X345248Y403941D01*
Y405059D01*
X344958Y406140D01*
X344399Y407108D01*
X343608Y407899D01*
X342640Y408459D01*
X341559Y408748D01*
X340441D01*
X339360Y408459D01*
X338392Y407899D01*
X337601Y407108D01*
X337041Y406140D01*
X336752Y405059D01*
Y403941D01*
X337041Y402860D01*
X337601Y401892D01*
X337970Y401523D01*
Y359488D01*
X337725Y359064D01*
X337449Y358033D01*
Y356967D01*
X337725Y355936D01*
X338258Y355012D01*
X339013Y354258D01*
X339936Y353725D01*
X340967Y353449D01*
X341749D01*
X341956Y352949D01*
X340409Y351402D01*
X339936Y351275D01*
X339512Y351030D01*
X321218D01*
X299670Y372579D01*
Y376082D01*
X291174D01*
Y367586D01*
X294677D01*
X317260Y345004D01*
X317260Y345004D01*
X317991Y344443D01*
X318842Y344090D01*
X319756Y343970D01*
X319756Y343970D01*
X339512D01*
X339936Y343725D01*
X340967Y343449D01*
X342033D01*
X343064Y343725D01*
X343987Y344258D01*
X344742Y345012D01*
X345275Y345936D01*
X345402Y346409D01*
X356949Y357956D01*
X357449Y357749D01*
Y356967D01*
X357725Y355936D01*
X358258Y355012D01*
X359013Y354258D01*
X359936Y353725D01*
X360967Y353449D01*
X362033D01*
X363064Y353725D01*
X363987Y354258D01*
X364742Y355012D01*
X365275Y355936D01*
X365551Y356967D01*
Y358033D01*
X365275Y359064D01*
X364742Y359987D01*
X364259Y360470D01*
X364467Y360970D01*
X365038D01*
X381004Y345004D01*
X381735Y344443D01*
X382586Y344090D01*
X383500Y343970D01*
X421012D01*
X421436Y343725D01*
X422467Y343449D01*
X423533D01*
X424564Y343725D01*
X425488Y344258D01*
X426242Y345012D01*
X426775Y345936D01*
X426902Y346409D01*
X438449Y357956D01*
X438949Y357749D01*
Y356967D01*
X439225Y355936D01*
X439758Y355012D01*
X440513Y354258D01*
X441436Y353725D01*
X442467Y353449D01*
X443533D01*
X444564Y353725D01*
X445487Y354258D01*
X446242Y355012D01*
X446775Y355936D01*
X447051Y356967D01*
Y358033D01*
X446775Y359064D01*
X446242Y359987D01*
X446170Y360059D01*
X446361Y360521D01*
X447111D01*
X447500Y360470D01*
X451038D01*
X466504Y345004D01*
X467235Y344443D01*
X468086Y344090D01*
X469000Y343970D01*
X502012D01*
X502436Y343725D01*
X503467Y343449D01*
X504533D01*
X505564Y343725D01*
X506488Y344258D01*
X507242Y345012D01*
X507775Y345936D01*
X507902Y346409D01*
X519449Y357956D01*
X519949Y357749D01*
Y356967D01*
X520225Y355936D01*
X520758Y355012D01*
X521513Y354258D01*
X522436Y353725D01*
X523467Y353449D01*
X524533D01*
X525564Y353725D01*
X526487Y354258D01*
X527242Y355012D01*
X527775Y355936D01*
X528051Y356967D01*
Y357749D01*
X528551Y357956D01*
X541504Y345004D01*
X542235Y344443D01*
X543086Y344090D01*
X544000Y343970D01*
X581512D01*
X581936Y343725D01*
X582967Y343449D01*
X584033D01*
X585064Y343725D01*
X585988Y344258D01*
X586742Y345012D01*
X587275Y345936D01*
X587402Y346409D01*
X598949Y357956D01*
X599449Y357749D01*
Y356967D01*
X599725Y355936D01*
X600258Y355012D01*
X601013Y354258D01*
X601936Y353725D01*
X602967Y353449D01*
X604033D01*
X605064Y353725D01*
X605988Y354258D01*
X606742Y355012D01*
X607275Y355936D01*
X607551Y356967D01*
Y358033D01*
X607275Y359064D01*
X606742Y359987D01*
X605988Y360742D01*
X605064Y361275D01*
X604033Y361551D01*
X603251D01*
X603044Y362051D01*
X603462Y362470D01*
X611038D01*
X628504Y345004D01*
X629235Y344443D01*
X630086Y344090D01*
X631000Y343970D01*
X659512D01*
X659936Y343725D01*
X660967Y343449D01*
X662033D01*
X663064Y343725D01*
X663987Y344258D01*
X664742Y345012D01*
X665275Y345936D01*
X665551Y346967D01*
Y348033D01*
X665275Y349064D01*
X664742Y349988D01*
X663987Y350742D01*
X663064Y351275D01*
X662033Y351551D01*
X660967D01*
X659936Y351275D01*
X659512Y351030D01*
X632462D01*
X614996Y368496D01*
X614265Y369057D01*
X613414Y369410D01*
X612500Y369530D01*
X602000D01*
X601086Y369410D01*
X600235Y369057D01*
X599504Y368496D01*
X588051Y357044D01*
X587551Y357251D01*
Y358033D01*
X587275Y359064D01*
X587030Y359488D01*
Y403128D01*
X587248Y403941D01*
Y405059D01*
X586959Y406140D01*
X586399Y407108D01*
X585608Y407899D01*
X584640Y408459D01*
X583559Y408748D01*
D02*
G37*
G36*
X295981Y356083D02*
X294862D01*
X293782Y355793D01*
X292813Y355234D01*
X292022Y354443D01*
X291463Y353474D01*
X291174Y352394D01*
Y351275D01*
X291463Y350195D01*
X292022Y349226D01*
X292813Y348435D01*
X293782Y347876D01*
X294862Y347586D01*
X295981D01*
X297061Y347876D01*
X298030Y348435D01*
X298821Y349226D01*
X299380Y350195D01*
X299670Y351275D01*
Y352394D01*
X299380Y353474D01*
X298821Y354443D01*
X298030Y355234D01*
X297061Y355793D01*
X295981Y356083D01*
D02*
G37*
G36*
X682033Y351551D02*
X680967D01*
X679936Y351275D01*
X679012Y350742D01*
X678258Y349988D01*
X677725Y349064D01*
X677449Y348033D01*
Y346967D01*
X677725Y345936D01*
X678258Y345012D01*
X679012Y344258D01*
X679936Y343725D01*
X680967Y343449D01*
X682033D01*
X683064Y343725D01*
X683988Y344258D01*
X684742Y345012D01*
X685275Y345936D01*
X685551Y346967D01*
Y348033D01*
X685275Y349064D01*
X684742Y349988D01*
X683988Y350742D01*
X683064Y351275D01*
X682033Y351551D01*
D02*
G37*
G36*
X604033D02*
X602967D01*
X601936Y351275D01*
X601013Y350742D01*
X600258Y349988D01*
X599725Y349064D01*
X599449Y348033D01*
Y346967D01*
X599725Y345936D01*
X600258Y345012D01*
X601013Y344258D01*
X601936Y343725D01*
X602967Y343449D01*
X604033D01*
X605064Y343725D01*
X605988Y344258D01*
X606742Y345012D01*
X607275Y345936D01*
X607551Y346967D01*
Y348033D01*
X607275Y349064D01*
X606742Y349988D01*
X605988Y350742D01*
X605064Y351275D01*
X604033Y351551D01*
D02*
G37*
G36*
X524533D02*
X523467D01*
X522436Y351275D01*
X521513Y350742D01*
X520758Y349988D01*
X520225Y349064D01*
X519949Y348033D01*
Y346967D01*
X520225Y345936D01*
X520758Y345012D01*
X521513Y344258D01*
X522436Y343725D01*
X523467Y343449D01*
X524533D01*
X525564Y343725D01*
X526487Y344258D01*
X527242Y345012D01*
X527775Y345936D01*
X528051Y346967D01*
Y348033D01*
X527775Y349064D01*
X527242Y349988D01*
X526487Y350742D01*
X525564Y351275D01*
X524533Y351551D01*
D02*
G37*
G36*
X443533D02*
X442467D01*
X441436Y351275D01*
X440513Y350742D01*
X439758Y349988D01*
X439225Y349064D01*
X438949Y348033D01*
Y346967D01*
X439225Y345936D01*
X439758Y345012D01*
X440513Y344258D01*
X441436Y343725D01*
X442467Y343449D01*
X443533D01*
X444564Y343725D01*
X445487Y344258D01*
X446242Y345012D01*
X446775Y345936D01*
X447051Y346967D01*
Y348033D01*
X446775Y349064D01*
X446242Y349988D01*
X445487Y350742D01*
X444564Y351275D01*
X443533Y351551D01*
D02*
G37*
G36*
X362033D02*
X360967D01*
X359936Y351275D01*
X359013Y350742D01*
X358258Y349988D01*
X357725Y349064D01*
X357449Y348033D01*
Y346967D01*
X357725Y345936D01*
X358258Y345012D01*
X359013Y344258D01*
X359936Y343725D01*
X360967Y343449D01*
X362033D01*
X363064Y343725D01*
X363987Y344258D01*
X364742Y345012D01*
X365275Y345936D01*
X365551Y346967D01*
Y348033D01*
X365275Y349064D01*
X364742Y349988D01*
X363987Y350742D01*
X363064Y351275D01*
X362033Y351551D01*
D02*
G37*
G36*
X327500Y339891D02*
Y338000D01*
X329391D01*
X329035Y338860D01*
X328360Y339535D01*
X327500Y339891D01*
D02*
G37*
G36*
X326500D02*
X325641Y339535D01*
X324965Y338860D01*
X324609Y338000D01*
X326500D01*
Y339891D01*
D02*
G37*
G36*
X329391Y337000D02*
X327500D01*
Y335109D01*
X328360Y335465D01*
X329035Y336140D01*
X329391Y337000D01*
D02*
G37*
G36*
X326500D02*
X324609D01*
X324965Y336140D01*
X325641Y335465D01*
X326500Y335109D01*
Y337000D01*
D02*
G37*
G36*
X640500Y336891D02*
Y335000D01*
X642391D01*
X642035Y335859D01*
X641360Y336535D01*
X640500Y336891D01*
D02*
G37*
G36*
X639500D02*
X638640Y336535D01*
X637965Y335859D01*
X637609Y335000D01*
X639500D01*
Y336891D01*
D02*
G37*
G36*
X563000D02*
Y335000D01*
X564891D01*
X564535Y335859D01*
X563860Y336535D01*
X563000Y336891D01*
D02*
G37*
G36*
X562000D02*
X561140Y336535D01*
X560465Y335859D01*
X560109Y335000D01*
X562000D01*
Y336891D01*
D02*
G37*
G36*
X486500D02*
Y335000D01*
X488391D01*
X488035Y335859D01*
X487360Y336535D01*
X486500Y336891D01*
D02*
G37*
G36*
X485500D02*
X484641Y336535D01*
X483965Y335859D01*
X483609Y335000D01*
X485500D01*
Y336891D01*
D02*
G37*
G36*
X401000D02*
Y335000D01*
X402891D01*
X402535Y335859D01*
X401860Y336535D01*
X401000Y336891D01*
D02*
G37*
G36*
X400000D02*
X399141Y336535D01*
X398465Y335859D01*
X398109Y335000D01*
X400000D01*
Y336891D01*
D02*
G37*
G36*
X682033Y341551D02*
X680967D01*
X679936Y341275D01*
X679012Y340742D01*
X678258Y339987D01*
X677725Y339064D01*
X677449Y338033D01*
Y336967D01*
X677725Y335936D01*
X678258Y335013D01*
X679012Y334258D01*
X679936Y333725D01*
X680967Y333449D01*
X682033D01*
X683064Y333725D01*
X683988Y334258D01*
X684742Y335013D01*
X685275Y335936D01*
X685551Y336967D01*
Y338033D01*
X685275Y339064D01*
X684742Y339987D01*
X683988Y340742D01*
X683064Y341275D01*
X682033Y341551D01*
D02*
G37*
G36*
X662033D02*
X660967D01*
X659936Y341275D01*
X659013Y340742D01*
X658258Y339987D01*
X657725Y339064D01*
X657449Y338033D01*
Y336967D01*
X657725Y335936D01*
X658258Y335013D01*
X659013Y334258D01*
X659936Y333725D01*
X660967Y333449D01*
X662033D01*
X663064Y333725D01*
X663987Y334258D01*
X664742Y335013D01*
X665275Y335936D01*
X665551Y336967D01*
Y338033D01*
X665275Y339064D01*
X664742Y339987D01*
X663987Y340742D01*
X663064Y341275D01*
X662033Y341551D01*
D02*
G37*
G36*
X604033D02*
X602967D01*
X601936Y341275D01*
X601013Y340742D01*
X600258Y339987D01*
X599725Y339064D01*
X599449Y338033D01*
Y336967D01*
X599725Y335936D01*
X600258Y335013D01*
X601013Y334258D01*
X601936Y333725D01*
X602967Y333449D01*
X604033D01*
X605064Y333725D01*
X605988Y334258D01*
X606742Y335013D01*
X607275Y335936D01*
X607551Y336967D01*
Y338033D01*
X607275Y339064D01*
X606742Y339987D01*
X605988Y340742D01*
X605064Y341275D01*
X604033Y341551D01*
D02*
G37*
G36*
X584033D02*
X582967D01*
X581936Y341275D01*
X581012Y340742D01*
X580258Y339987D01*
X579725Y339064D01*
X579449Y338033D01*
Y336967D01*
X579725Y335936D01*
X580258Y335013D01*
X581012Y334258D01*
X581936Y333725D01*
X582967Y333449D01*
X584033D01*
X585064Y333725D01*
X585988Y334258D01*
X586742Y335013D01*
X587275Y335936D01*
X587551Y336967D01*
Y338033D01*
X587275Y339064D01*
X586742Y339987D01*
X585988Y340742D01*
X585064Y341275D01*
X584033Y341551D01*
D02*
G37*
G36*
X524533D02*
X523467D01*
X522436Y341275D01*
X521513Y340742D01*
X520758Y339987D01*
X520225Y339064D01*
X519949Y338033D01*
Y336967D01*
X520225Y335936D01*
X520758Y335013D01*
X521513Y334258D01*
X522436Y333725D01*
X523467Y333449D01*
X524533D01*
X525564Y333725D01*
X526487Y334258D01*
X527242Y335013D01*
X527775Y335936D01*
X528051Y336967D01*
Y338033D01*
X527775Y339064D01*
X527242Y339987D01*
X526487Y340742D01*
X525564Y341275D01*
X524533Y341551D01*
D02*
G37*
G36*
X504533D02*
X503467D01*
X502436Y341275D01*
X501512Y340742D01*
X500758Y339987D01*
X500225Y339064D01*
X499949Y338033D01*
Y336967D01*
X500225Y335936D01*
X500758Y335013D01*
X501512Y334258D01*
X502436Y333725D01*
X503467Y333449D01*
X504533D01*
X505564Y333725D01*
X506488Y334258D01*
X507242Y335013D01*
X507775Y335936D01*
X508051Y336967D01*
Y338033D01*
X507775Y339064D01*
X507242Y339987D01*
X506488Y340742D01*
X505564Y341275D01*
X504533Y341551D01*
D02*
G37*
G36*
X443533D02*
X442467D01*
X441436Y341275D01*
X440513Y340742D01*
X439758Y339987D01*
X439225Y339064D01*
X438949Y338033D01*
Y336967D01*
X439225Y335936D01*
X439758Y335013D01*
X440513Y334258D01*
X441436Y333725D01*
X442467Y333449D01*
X443533D01*
X444564Y333725D01*
X445487Y334258D01*
X446242Y335013D01*
X446775Y335936D01*
X447051Y336967D01*
Y338033D01*
X446775Y339064D01*
X446242Y339987D01*
X445487Y340742D01*
X444564Y341275D01*
X443533Y341551D01*
D02*
G37*
G36*
X423533D02*
X422467D01*
X421436Y341275D01*
X420512Y340742D01*
X419758Y339987D01*
X419225Y339064D01*
X418949Y338033D01*
Y336967D01*
X419225Y335936D01*
X419758Y335013D01*
X420512Y334258D01*
X421436Y333725D01*
X422467Y333449D01*
X423533D01*
X424564Y333725D01*
X425488Y334258D01*
X426242Y335013D01*
X426775Y335936D01*
X427051Y336967D01*
Y338033D01*
X426775Y339064D01*
X426242Y339987D01*
X425488Y340742D01*
X424564Y341275D01*
X423533Y341551D01*
D02*
G37*
G36*
X362033D02*
X360967D01*
X359936Y341275D01*
X359013Y340742D01*
X358258Y339987D01*
X357725Y339064D01*
X357449Y338033D01*
Y336967D01*
X357725Y335936D01*
X358258Y335013D01*
X359013Y334258D01*
X359936Y333725D01*
X360967Y333449D01*
X362033D01*
X363064Y333725D01*
X363987Y334258D01*
X364742Y335013D01*
X365275Y335936D01*
X365551Y336967D01*
Y338033D01*
X365275Y339064D01*
X364742Y339987D01*
X363987Y340742D01*
X363064Y341275D01*
X362033Y341551D01*
D02*
G37*
G36*
X342033D02*
X340967D01*
X339936Y341275D01*
X339013Y340742D01*
X338258Y339987D01*
X337725Y339064D01*
X337449Y338033D01*
Y336967D01*
X337725Y335936D01*
X338258Y335013D01*
X339013Y334258D01*
X339936Y333725D01*
X340967Y333449D01*
X342033D01*
X343064Y333725D01*
X343987Y334258D01*
X344742Y335013D01*
X345275Y335936D01*
X345551Y336967D01*
Y338033D01*
X345275Y339064D01*
X344742Y339987D01*
X343987Y340742D01*
X343064Y341275D01*
X342033Y341551D01*
D02*
G37*
G36*
X642391Y334000D02*
X640500D01*
Y332109D01*
X641360Y332465D01*
X642035Y333140D01*
X642391Y334000D01*
D02*
G37*
G36*
X639500D02*
X637609D01*
X637965Y333140D01*
X638640Y332465D01*
X639500Y332109D01*
Y334000D01*
D02*
G37*
G36*
X564891D02*
X563000D01*
Y332109D01*
X563860Y332465D01*
X564535Y333140D01*
X564891Y334000D01*
D02*
G37*
G36*
X562000D02*
X560109D01*
X560465Y333140D01*
X561140Y332465D01*
X562000Y332109D01*
Y334000D01*
D02*
G37*
G36*
X488391D02*
X486500D01*
Y332109D01*
X487360Y332465D01*
X488035Y333140D01*
X488391Y334000D01*
D02*
G37*
G36*
X485500D02*
X483609D01*
X483965Y333140D01*
X484641Y332465D01*
X485500Y332109D01*
Y334000D01*
D02*
G37*
G36*
X402891D02*
X401000D01*
Y332109D01*
X401860Y332465D01*
X402535Y333140D01*
X402891Y334000D01*
D02*
G37*
G36*
X400000D02*
X398109D01*
X398465Y333140D01*
X399141Y332465D01*
X400000Y332109D01*
Y334000D01*
D02*
G37*
G36*
X607551Y321551D02*
X599449D01*
Y317568D01*
X599094Y317216D01*
X587551Y317265D01*
Y318033D01*
X587275Y319064D01*
X586742Y319988D01*
X585988Y320742D01*
X585064Y321275D01*
X584033Y321551D01*
X582967D01*
X581936Y321275D01*
X581012Y320742D01*
X580258Y319988D01*
X579725Y319064D01*
X579449Y318033D01*
Y317654D01*
X579095Y317301D01*
X528410Y317517D01*
X528400Y317526D01*
X528051Y317925D01*
Y321551D01*
X519949D01*
Y317908D01*
X519594Y317555D01*
X508051Y317604D01*
Y318033D01*
X507775Y319064D01*
X507242Y319988D01*
X506488Y320742D01*
X505564Y321275D01*
X504533Y321551D01*
X503467D01*
X502436Y321275D01*
X501512Y320742D01*
X500758Y319988D01*
X500225Y319064D01*
X499949Y318033D01*
Y317993D01*
X499594Y317640D01*
X447410Y317863D01*
X447400Y317871D01*
X447051Y318271D01*
Y321551D01*
X438949D01*
Y318253D01*
X438594Y317900D01*
X427051Y317950D01*
Y318033D01*
X426775Y319064D01*
X426242Y319988D01*
X425488Y320742D01*
X424564Y321275D01*
X423533Y321551D01*
X422467D01*
X421436Y321275D01*
X420512Y320742D01*
X419758Y319988D01*
X419225Y319064D01*
X418949Y318033D01*
X418900Y317985D01*
X365910Y318211D01*
X365900Y318219D01*
X365551Y318619D01*
Y321551D01*
X357449D01*
Y318601D01*
X357095Y318248D01*
X345867Y318296D01*
X345866Y318296D01*
X345865Y318296D01*
X345670Y318258D01*
X345500Y318225D01*
X345275Y319064D01*
X344742Y319988D01*
X343987Y320742D01*
X343064Y321275D01*
X342033Y321551D01*
X340967D01*
X339936Y321275D01*
X339013Y320742D01*
X338258Y319988D01*
X337725Y319064D01*
X337525Y318318D01*
X337453Y318332D01*
X284359Y318559D01*
X284358Y318558D01*
X284356Y318559D01*
X284164Y318521D01*
X283968Y318483D01*
X283967Y318482D01*
X283966Y318482D01*
X283803Y318373D01*
X283636Y318263D01*
X283636Y318262D01*
X283635Y318262D01*
X283281Y317909D01*
X283280Y317908D01*
X283279Y317907D01*
X283170Y317743D01*
X283059Y317578D01*
X283059Y317577D01*
X283058Y317576D01*
X283019Y317383D01*
X282980Y317188D01*
X282981Y317187D01*
X282980Y317186D01*
Y300500D01*
X283058Y300110D01*
X283279Y299779D01*
X283610Y299558D01*
X284000Y299480D01*
X654500D01*
X654890Y299558D01*
X655221Y299779D01*
X655442Y300110D01*
X655520Y300500D01*
Y315960D01*
X655481Y316153D01*
X655444Y316346D01*
X655442Y316348D01*
X655442Y316350D01*
X655333Y316514D01*
X655224Y316677D01*
X655222Y316679D01*
X655221Y316681D01*
X655057Y316790D01*
X654894Y316900D01*
X654892Y316900D01*
X654890Y316902D01*
X654697Y316940D01*
X654504Y316979D01*
X607910Y317178D01*
X607900Y317186D01*
X607551Y317586D01*
Y321551D01*
D02*
G37*
G36*
X685551D02*
X677449D01*
Y313449D01*
X685551D01*
Y321551D01*
D02*
G37*
G36*
X662033D02*
X660967D01*
X659936Y321275D01*
X659013Y320742D01*
X658258Y319988D01*
X657725Y319064D01*
X657449Y318033D01*
Y316967D01*
X657725Y315936D01*
X658258Y315013D01*
X659013Y314258D01*
X659936Y313725D01*
X660967Y313449D01*
X662033D01*
X663064Y313725D01*
X663987Y314258D01*
X664742Y315013D01*
X665275Y315936D01*
X665551Y316967D01*
Y318033D01*
X665275Y319064D01*
X664742Y319988D01*
X663987Y320742D01*
X663064Y321275D01*
X662033Y321551D01*
D02*
G37*
G36*
X572071Y298755D02*
Y296864D01*
X573962D01*
X573606Y297724D01*
X572931Y298399D01*
X572071Y298755D01*
D02*
G37*
G36*
X571071D02*
X570212Y298399D01*
X569537Y297724D01*
X569181Y296864D01*
X571071D01*
Y298755D01*
D02*
G37*
G36*
X411000Y297891D02*
Y296000D01*
X412891D01*
X412535Y296860D01*
X411860Y297535D01*
X411000Y297891D01*
D02*
G37*
G36*
X410000D02*
X409140Y297535D01*
X408465Y296860D01*
X408109Y296000D01*
X410000D01*
Y297891D01*
D02*
G37*
G36*
X491829Y296071D02*
Y294180D01*
X493719D01*
X493364Y295039D01*
X492688Y295714D01*
X491829Y296071D01*
D02*
G37*
G36*
X490829D02*
X489969Y295714D01*
X489294Y295039D01*
X488938Y294180D01*
X490829D01*
Y296071D01*
D02*
G37*
G36*
X573962Y295864D02*
X572071D01*
Y293973D01*
X572931Y294329D01*
X573606Y295005D01*
X573962Y295864D01*
D02*
G37*
G36*
X571071D02*
X569181D01*
X569537Y295005D01*
X570212Y294329D01*
X571071Y293973D01*
Y295864D01*
D02*
G37*
G36*
X412891Y295000D02*
X411000D01*
Y293109D01*
X411860Y293465D01*
X412535Y294141D01*
X412891Y295000D01*
D02*
G37*
G36*
X410000D02*
X408109D01*
X408465Y294141D01*
X409140Y293465D01*
X410000Y293109D01*
Y295000D01*
D02*
G37*
G36*
X648000Y294891D02*
Y293000D01*
X649891D01*
X649535Y293860D01*
X648860Y294535D01*
X648000Y294891D01*
D02*
G37*
G36*
X647000D02*
X646140Y294535D01*
X645465Y293860D01*
X645109Y293000D01*
X647000D01*
Y294891D01*
D02*
G37*
G36*
X330500D02*
Y293000D01*
X332391D01*
X332035Y293860D01*
X331360Y294535D01*
X330500Y294891D01*
D02*
G37*
G36*
X329500D02*
X328641Y294535D01*
X327965Y293860D01*
X327609Y293000D01*
X329500D01*
Y294891D01*
D02*
G37*
G36*
X493719Y293180D02*
X491829D01*
Y291289D01*
X492688Y291645D01*
X493364Y292320D01*
X493719Y293180D01*
D02*
G37*
G36*
X490829D02*
X488938D01*
X489294Y292320D01*
X489969Y291645D01*
X490829Y291289D01*
Y293180D01*
D02*
G37*
G36*
X649891Y292000D02*
X648000D01*
Y290109D01*
X648860Y290465D01*
X649535Y291141D01*
X649891Y292000D01*
D02*
G37*
G36*
X647000D02*
X645109D01*
X645465Y291141D01*
X646140Y290465D01*
X647000Y290109D01*
Y292000D01*
D02*
G37*
G36*
X332391D02*
X330500D01*
Y290109D01*
X331360Y290465D01*
X332035Y291141D01*
X332391Y292000D01*
D02*
G37*
G36*
X329500D02*
X327609D01*
X327965Y291141D01*
X328641Y290465D01*
X329500Y290109D01*
Y292000D01*
D02*
G37*
G36*
X625500Y290391D02*
Y288500D01*
X627391D01*
X627035Y289359D01*
X626360Y290035D01*
X625500Y290391D01*
D02*
G37*
G36*
X624500D02*
X623640Y290035D01*
X622965Y289359D01*
X622609Y288500D01*
X624500D01*
Y290391D01*
D02*
G37*
G36*
X546500Y289891D02*
Y288000D01*
X548391D01*
X548035Y288860D01*
X547360Y289535D01*
X546500Y289891D01*
D02*
G37*
G36*
X545500D02*
X544640Y289535D01*
X543965Y288860D01*
X543609Y288000D01*
X545500D01*
Y289891D01*
D02*
G37*
G36*
X306000D02*
Y288000D01*
X307891D01*
X307535Y288860D01*
X306859Y289535D01*
X306000Y289891D01*
D02*
G37*
G36*
X305000D02*
X304140Y289535D01*
X303465Y288860D01*
X303109Y288000D01*
X305000D01*
Y289891D01*
D02*
G37*
G36*
X467000Y289391D02*
Y287500D01*
X468891D01*
X468535Y288359D01*
X467860Y289035D01*
X467000Y289391D01*
D02*
G37*
G36*
X466000D02*
X465140Y289035D01*
X464465Y288359D01*
X464109Y287500D01*
X466000D01*
Y289391D01*
D02*
G37*
G36*
X383000Y288891D02*
Y287000D01*
X384891D01*
X384535Y287860D01*
X383859Y288535D01*
X383000Y288891D01*
D02*
G37*
G36*
X382000D02*
X381140Y288535D01*
X380465Y287860D01*
X380109Y287000D01*
X382000D01*
Y288891D01*
D02*
G37*
G36*
X627391Y287500D02*
X625500D01*
Y285609D01*
X626360Y285965D01*
X627035Y286641D01*
X627391Y287500D01*
D02*
G37*
G36*
X624500D02*
X622609D01*
X622965Y286641D01*
X623640Y285965D01*
X624500Y285609D01*
Y287500D01*
D02*
G37*
G36*
X548391Y287000D02*
X546500D01*
Y285109D01*
X547360Y285465D01*
X548035Y286140D01*
X548391Y287000D01*
D02*
G37*
G36*
X545500D02*
X543609D01*
X543965Y286140D01*
X544640Y285465D01*
X545500Y285109D01*
Y287000D01*
D02*
G37*
G36*
X307891D02*
X306000D01*
Y285109D01*
X306859Y285465D01*
X307535Y286140D01*
X307891Y287000D01*
D02*
G37*
G36*
X305000D02*
X303109D01*
X303465Y286140D01*
X304140Y285465D01*
X305000Y285109D01*
Y287000D01*
D02*
G37*
G36*
X468891Y286500D02*
X467000D01*
Y284609D01*
X467860Y284965D01*
X468535Y285641D01*
X468891Y286500D01*
D02*
G37*
G36*
X466000D02*
X464109D01*
X464465Y285641D01*
X465140Y284965D01*
X466000Y284609D01*
Y286500D01*
D02*
G37*
G36*
X384891Y286000D02*
X383000D01*
Y284109D01*
X383859Y284465D01*
X384535Y285140D01*
X384891Y286000D01*
D02*
G37*
G36*
X382000D02*
X380109D01*
X380465Y285140D01*
X381140Y284465D01*
X382000Y284109D01*
Y286000D01*
D02*
G37*
G36*
X472000Y270391D02*
Y268500D01*
X473891D01*
X473535Y269359D01*
X472859Y270035D01*
X472000Y270391D01*
D02*
G37*
G36*
X471000D02*
X470141Y270035D01*
X469465Y269359D01*
X469109Y268500D01*
X471000D01*
Y270391D01*
D02*
G37*
G36*
X485733Y270131D02*
Y268241D01*
X487623D01*
X487267Y269100D01*
X486592Y269775D01*
X485733Y270131D01*
D02*
G37*
G36*
X484733D02*
X483873Y269775D01*
X483198Y269100D01*
X482842Y268241D01*
X484733D01*
Y270131D01*
D02*
G37*
G36*
X473891Y267500D02*
X472000D01*
Y265609D01*
X472859Y265965D01*
X473535Y266640D01*
X473891Y267500D01*
D02*
G37*
G36*
X471000D02*
X469109D01*
X469465Y266640D01*
X470141Y265965D01*
X471000Y265609D01*
Y267500D01*
D02*
G37*
G36*
X487623Y267241D02*
X485733D01*
Y265350D01*
X486592Y265706D01*
X487267Y266381D01*
X487623Y267241D01*
D02*
G37*
G36*
X484733D02*
X482842D01*
X483198Y266381D01*
X483873Y265706D01*
X484733Y265350D01*
Y267241D01*
D02*
G37*
G36*
X662657Y256754D02*
Y253500D01*
X665912D01*
X665657Y254450D01*
X665163Y255306D01*
X664464Y256006D01*
X663607Y256500D01*
X662657Y256754D01*
D02*
G37*
G36*
X656071Y256756D02*
X652815D01*
Y253500D01*
X656071D01*
Y256756D01*
D02*
G37*
G36*
X661657Y256754D02*
X660708Y256500D01*
X659851Y256006D01*
X659152Y255306D01*
X658658Y254450D01*
X658403Y253500D01*
X661657D01*
Y256754D01*
D02*
G37*
G36*
X651815Y256756D02*
X648559D01*
Y253500D01*
X651815D01*
Y256756D01*
D02*
G37*
G36*
X605601Y260823D02*
X604612D01*
X603657Y260567D01*
X602800Y260072D01*
X602101Y259373D01*
X601606Y258517D01*
X601350Y257561D01*
Y256573D01*
X601606Y255617D01*
X602101Y254761D01*
X602800Y254062D01*
X603657Y253567D01*
X604612Y253311D01*
X605601D01*
X606556Y253567D01*
X607412Y254062D01*
X608112Y254761D01*
X608606Y255617D01*
X608862Y256573D01*
Y257561D01*
X608606Y258517D01*
X608112Y259373D01*
X607412Y260072D01*
X606556Y260567D01*
X605601Y260823D01*
D02*
G37*
G36*
X595758D02*
X594769D01*
X593814Y260567D01*
X592958Y260072D01*
X592258Y259373D01*
X591764Y258517D01*
X591508Y257561D01*
Y256573D01*
X591764Y255617D01*
X592258Y254761D01*
X592958Y254062D01*
X593814Y253567D01*
X594769Y253311D01*
X595758D01*
X596713Y253567D01*
X597570Y254062D01*
X598269Y254761D01*
X598764Y255617D01*
X599020Y256573D01*
Y257561D01*
X598764Y258517D01*
X598269Y259373D01*
X597570Y260072D01*
X596713Y260567D01*
X595758Y260823D01*
D02*
G37*
G36*
X585916D02*
X584927D01*
X583972Y260567D01*
X583115Y260072D01*
X582416Y259373D01*
X581921Y258517D01*
X581665Y257561D01*
Y256573D01*
X581921Y255617D01*
X582416Y254761D01*
X583115Y254062D01*
X583972Y253567D01*
X584927Y253311D01*
X585916D01*
X586871Y253567D01*
X587727Y254062D01*
X588427Y254761D01*
X588921Y255617D01*
X589177Y256573D01*
Y257561D01*
X588921Y258517D01*
X588427Y259373D01*
X587727Y260072D01*
X586871Y260567D01*
X585916Y260823D01*
D02*
G37*
G36*
X576073D02*
X575084D01*
X574129Y260567D01*
X573273Y260072D01*
X572573Y259373D01*
X572079Y258517D01*
X571823Y257561D01*
Y256573D01*
X572079Y255617D01*
X572573Y254761D01*
X573273Y254062D01*
X574129Y253567D01*
X575084Y253311D01*
X576073D01*
X577029Y253567D01*
X577885Y254062D01*
X578584Y254761D01*
X579079Y255617D01*
X579335Y256573D01*
Y257561D01*
X579079Y258517D01*
X578584Y259373D01*
X577885Y260072D01*
X577029Y260567D01*
X576073Y260823D01*
D02*
G37*
G36*
X566231D02*
X565242D01*
X564287Y260567D01*
X563430Y260072D01*
X562731Y259373D01*
X562236Y258517D01*
X561980Y257561D01*
Y256573D01*
X562236Y255617D01*
X562731Y254761D01*
X563430Y254062D01*
X564287Y253567D01*
X565242Y253311D01*
X566231D01*
X567186Y253567D01*
X568042Y254062D01*
X568742Y254761D01*
X569236Y255617D01*
X569492Y256573D01*
Y257561D01*
X569236Y258517D01*
X568742Y259373D01*
X568042Y260072D01*
X567186Y260567D01*
X566231Y260823D01*
D02*
G37*
G36*
X559650D02*
X552138D01*
Y253311D01*
X559650D01*
Y260823D01*
D02*
G37*
G36*
X665912Y252500D02*
X662657D01*
Y249246D01*
X663607Y249500D01*
X664464Y249994D01*
X665163Y250694D01*
X665657Y251550D01*
X665912Y252500D01*
D02*
G37*
G36*
X661657D02*
X658403D01*
X658658Y251550D01*
X659152Y250694D01*
X659851Y249994D01*
X660708Y249500D01*
X661657Y249246D01*
Y252500D01*
D02*
G37*
G36*
X682337Y256756D02*
X681348D01*
X680393Y256500D01*
X679536Y256006D01*
X678837Y255306D01*
X678343Y254450D01*
X678087Y253495D01*
Y252505D01*
X678343Y251550D01*
X678837Y250694D01*
X679536Y249994D01*
X680393Y249500D01*
X681348Y249244D01*
X682337D01*
X683292Y249500D01*
X684149Y249994D01*
X684848Y250694D01*
X685343Y251550D01*
X685598Y252505D01*
Y253495D01*
X685343Y254450D01*
X684848Y255306D01*
X684149Y256006D01*
X683292Y256500D01*
X682337Y256756D01*
D02*
G37*
G36*
X672495D02*
X671505D01*
X670550Y256500D01*
X669694Y256006D01*
X668995Y255306D01*
X668500Y254450D01*
X668244Y253495D01*
Y252505D01*
X668500Y251550D01*
X668995Y250694D01*
X669694Y249994D01*
X670550Y249500D01*
X671505Y249244D01*
X672495D01*
X673450Y249500D01*
X674306Y249994D01*
X675005Y250694D01*
X675500Y251550D01*
X675756Y252505D01*
Y253495D01*
X675500Y254450D01*
X675005Y255306D01*
X674306Y256006D01*
X673450Y256500D01*
X672495Y256756D01*
D02*
G37*
G36*
X656071Y252500D02*
X652815D01*
Y249244D01*
X656071D01*
Y252500D01*
D02*
G37*
G36*
X651815D02*
X648559D01*
Y249244D01*
X651815D01*
Y252500D01*
D02*
G37*
G36*
X550011Y252358D02*
X549178D01*
X548373Y252143D01*
X547651Y251726D01*
X547062Y251136D01*
X546645Y250415D01*
X546429Y249610D01*
Y248776D01*
X546645Y247971D01*
X547062Y247249D01*
X547651Y246660D01*
X548373Y246243D01*
X549178Y246028D01*
X550011D01*
X550816Y246243D01*
X551538Y246660D01*
X552127Y247249D01*
X552544Y247971D01*
X552760Y248776D01*
Y249610D01*
X552544Y250415D01*
X552127Y251136D01*
X551538Y251726D01*
X550816Y252143D01*
X550011Y252358D01*
D02*
G37*
G36*
X630500Y245891D02*
Y244000D01*
X632391D01*
X632035Y244860D01*
X631359Y245535D01*
X630500Y245891D01*
D02*
G37*
G36*
X629500D02*
X628641Y245535D01*
X627965Y244860D01*
X627609Y244000D01*
X629500D01*
Y245891D01*
D02*
G37*
G36*
X620500Y243891D02*
Y242000D01*
X622391D01*
X622035Y242860D01*
X621359Y243535D01*
X620500Y243891D01*
D02*
G37*
G36*
X619500D02*
X618641Y243535D01*
X617965Y242860D01*
X617609Y242000D01*
X619500D01*
Y243891D01*
D02*
G37*
G36*
X632391Y243000D02*
X630500D01*
Y241109D01*
X631359Y241465D01*
X632035Y242141D01*
X632391Y243000D01*
D02*
G37*
G36*
X629500D02*
X627609D01*
X627965Y242141D01*
X628641Y241465D01*
X629500Y241109D01*
Y243000D01*
D02*
G37*
G36*
X523500Y241891D02*
Y240000D01*
X525391D01*
X525035Y240860D01*
X524360Y241535D01*
X523500Y241891D01*
D02*
G37*
G36*
X522500D02*
X521640Y241535D01*
X520965Y240860D01*
X520609Y240000D01*
X522500D01*
Y241891D01*
D02*
G37*
G36*
X622391Y241000D02*
X620500D01*
Y239109D01*
X621359Y239465D01*
X622035Y240141D01*
X622391Y241000D01*
D02*
G37*
G36*
X619500D02*
X617609D01*
X617965Y240141D01*
X618641Y239465D01*
X619500Y239109D01*
Y241000D01*
D02*
G37*
G36*
X525391Y239000D02*
X523500D01*
Y237109D01*
X524360Y237465D01*
X525035Y238141D01*
X525391Y239000D01*
D02*
G37*
G36*
X522500D02*
X520609D01*
X520965Y238141D01*
X521640Y237465D01*
X522500Y237109D01*
Y239000D01*
D02*
G37*
G36*
X294023Y261500D02*
X291977D01*
X289956Y261180D01*
X288010Y260548D01*
X286187Y259619D01*
X284531Y258416D01*
X283084Y256969D01*
X281881Y255313D01*
X280952Y253490D01*
X280320Y251544D01*
X280000Y249523D01*
Y247477D01*
X280320Y245456D01*
X280952Y243510D01*
X281881Y241687D01*
X283084Y240031D01*
X284531Y238584D01*
X286187Y237381D01*
X288010Y236452D01*
X289956Y235820D01*
X291977Y235500D01*
X294023D01*
X296044Y235820D01*
X297990Y236452D01*
X299814Y237381D01*
X301469Y238584D01*
X302916Y240031D01*
X304119Y241687D01*
X305048Y243510D01*
X305680Y245456D01*
X306000Y247477D01*
Y249523D01*
X305680Y251544D01*
X305048Y253490D01*
X304119Y255313D01*
X302916Y256969D01*
X301469Y258416D01*
X299814Y259619D01*
X297990Y260548D01*
X296044Y261180D01*
X294023Y261500D01*
D02*
G37*
G36*
X621977Y238400D02*
X621023D01*
X620141Y238035D01*
X619465Y237359D01*
X619100Y236477D01*
Y235523D01*
X619465Y234641D01*
X620141Y233965D01*
X621023Y233600D01*
X621977D01*
X622859Y233965D01*
X623535Y234641D01*
X623900Y235523D01*
Y236477D01*
X623535Y237359D01*
X622859Y238035D01*
X621977Y238400D01*
D02*
G37*
%LPD*%
G36*
X337449Y317313D02*
Y316967D01*
X337725Y315936D01*
X338258Y315013D01*
X339013Y314258D01*
X339936Y313725D01*
X340967Y313449D01*
X342033D01*
X343064Y313725D01*
X343987Y314258D01*
X344742Y315013D01*
X345275Y315936D01*
X345551Y316967D01*
X345862Y317277D01*
X357449Y317227D01*
Y313449D01*
X365551D01*
Y316838D01*
X365905Y317191D01*
X418949Y316965D01*
X419225Y315936D01*
X419758Y315013D01*
X420512Y314258D01*
X421436Y313725D01*
X422467Y313449D01*
X423533D01*
X424564Y313725D01*
X425488Y314258D01*
X426242Y315013D01*
X426775Y315936D01*
X427041Y316930D01*
X438949Y316879D01*
Y313449D01*
X447051D01*
Y316491D01*
X447405Y316843D01*
X500042Y316619D01*
X500225Y315936D01*
X500758Y315013D01*
X501512Y314258D01*
X502436Y313725D01*
X503467Y313449D01*
X504533D01*
X505564Y313725D01*
X506488Y314258D01*
X507242Y315013D01*
X507775Y315936D01*
X507949Y316585D01*
X519949Y316534D01*
Y313449D01*
X528051D01*
Y316145D01*
X528406Y316498D01*
X579633Y316279D01*
X579725Y315936D01*
X580258Y315013D01*
X581012Y314258D01*
X581936Y313725D01*
X582967Y313449D01*
X584033D01*
X585064Y313725D01*
X585988Y314258D01*
X586742Y315013D01*
X587275Y315936D01*
X587358Y316246D01*
X599449Y316195D01*
Y313449D01*
X607551D01*
Y315806D01*
X607905Y316158D01*
X654500Y315960D01*
Y300500D01*
X284000D01*
Y317186D01*
X284354Y317539D01*
X337449Y317313D01*
D02*
G37*
%LPC*%
G36*
X456000Y315391D02*
Y313500D01*
X457891D01*
X457535Y314359D01*
X456859Y315035D01*
X456000Y315391D01*
D02*
G37*
G36*
X455000D02*
X454141Y315035D01*
X453465Y314359D01*
X453109Y313500D01*
X455000D01*
Y315391D01*
D02*
G37*
G36*
X289501Y315297D02*
Y313406D01*
X291391D01*
X291036Y314266D01*
X290360Y314941D01*
X289501Y315297D01*
D02*
G37*
G36*
X288501D02*
X287641Y314941D01*
X286966Y314266D01*
X286610Y313406D01*
X288501D01*
Y315297D01*
D02*
G37*
G36*
X534000Y315000D02*
Y313109D01*
X535891D01*
X535535Y313969D01*
X534860Y314644D01*
X534000Y315000D01*
D02*
G37*
G36*
X533000D02*
X532140Y314644D01*
X531465Y313969D01*
X531109Y313109D01*
X533000D01*
Y315000D01*
D02*
G37*
G36*
X296500Y314891D02*
Y313000D01*
X298391D01*
X298035Y313860D01*
X297359Y314535D01*
X296500Y314891D01*
D02*
G37*
G36*
X295500D02*
X294640Y314535D01*
X293965Y313860D01*
X293609Y313000D01*
X295500D01*
Y314891D01*
D02*
G37*
G36*
X372000Y314500D02*
Y312609D01*
X373891D01*
X373535Y313469D01*
X372860Y314144D01*
X372000Y314500D01*
D02*
G37*
G36*
X371000D02*
X370141Y314144D01*
X369465Y313469D01*
X369109Y312609D01*
X371000D01*
Y314500D01*
D02*
G37*
G36*
X614500Y314391D02*
Y312500D01*
X616391D01*
X616035Y313359D01*
X615359Y314035D01*
X614500Y314391D01*
D02*
G37*
G36*
X613500D02*
X612640Y314035D01*
X611965Y313359D01*
X611609Y312500D01*
X613500D01*
Y314391D01*
D02*
G37*
G36*
X652000Y313891D02*
Y312000D01*
X653891D01*
X653535Y312860D01*
X652859Y313535D01*
X652000Y313891D01*
D02*
G37*
G36*
X651000D02*
X650140Y313535D01*
X649465Y312860D01*
X649109Y312000D01*
X651000D01*
Y313891D01*
D02*
G37*
G36*
X457891Y312500D02*
X456000D01*
Y310609D01*
X456859Y310965D01*
X457535Y311641D01*
X457891Y312500D01*
D02*
G37*
G36*
X455000D02*
X453109D01*
X453465Y311641D01*
X454141Y310965D01*
X455000Y310609D01*
Y312500D01*
D02*
G37*
G36*
X291391Y312406D02*
X289501D01*
Y310515D01*
X290360Y310872D01*
X291036Y311547D01*
X291391Y312406D01*
D02*
G37*
G36*
X288501D02*
X286610D01*
X286966Y311547D01*
X287641Y310872D01*
X288501Y310515D01*
Y312406D01*
D02*
G37*
G36*
X535891Y312109D02*
X534000D01*
Y310219D01*
X534860Y310575D01*
X535535Y311250D01*
X535891Y312109D01*
D02*
G37*
G36*
X533000D02*
X531109D01*
X531465Y311250D01*
X532140Y310575D01*
X533000Y310219D01*
Y312109D01*
D02*
G37*
G36*
X298391Y312000D02*
X296500D01*
Y310109D01*
X297359Y310465D01*
X298035Y311140D01*
X298391Y312000D01*
D02*
G37*
G36*
X295500D02*
X293609D01*
X293965Y311140D01*
X294640Y310465D01*
X295500Y310109D01*
Y312000D01*
D02*
G37*
G36*
X373891Y311609D02*
X372000D01*
Y309719D01*
X372860Y310075D01*
X373535Y310750D01*
X373891Y311609D01*
D02*
G37*
G36*
X371000D02*
X369109D01*
X369465Y310750D01*
X370141Y310075D01*
X371000Y309719D01*
Y311609D01*
D02*
G37*
G36*
X616391Y311500D02*
X614500D01*
Y309609D01*
X615359Y309965D01*
X616035Y310641D01*
X616391Y311500D01*
D02*
G37*
G36*
X613500D02*
X611609D01*
X611965Y310641D01*
X612640Y309965D01*
X613500Y309609D01*
Y311500D01*
D02*
G37*
G36*
X653891Y311000D02*
X652000D01*
Y309109D01*
X652859Y309465D01*
X653535Y310140D01*
X653891Y311000D01*
D02*
G37*
G36*
X651000D02*
X649109D01*
X649465Y310140D01*
X650140Y309465D01*
X651000Y309109D01*
Y311000D01*
D02*
G37*
G36*
X456000Y309391D02*
Y307500D01*
X457891D01*
X457535Y308360D01*
X456859Y309035D01*
X456000Y309391D01*
D02*
G37*
G36*
X455000D02*
X454141Y309035D01*
X453465Y308360D01*
X453109Y307500D01*
X455000D01*
Y309391D01*
D02*
G37*
G36*
X534000Y309000D02*
Y307109D01*
X535891D01*
X535535Y307969D01*
X534860Y308644D01*
X534000Y309000D01*
D02*
G37*
G36*
X533000D02*
X532140Y308644D01*
X531465Y307969D01*
X531109Y307109D01*
X533000D01*
Y309000D01*
D02*
G37*
G36*
X372000D02*
Y307109D01*
X373891D01*
X373535Y307969D01*
X372860Y308644D01*
X372000Y309000D01*
D02*
G37*
G36*
X371000D02*
X370141Y308644D01*
X369465Y307969D01*
X369109Y307109D01*
X371000D01*
Y309000D01*
D02*
G37*
G36*
X652000Y308391D02*
Y306500D01*
X653891D01*
X653535Y307360D01*
X652859Y308035D01*
X652000Y308391D01*
D02*
G37*
G36*
X651000D02*
X650140Y308035D01*
X649465Y307360D01*
X649109Y306500D01*
X651000D01*
Y308391D01*
D02*
G37*
G36*
X614500D02*
Y306500D01*
X616391D01*
X616035Y307360D01*
X615359Y308035D01*
X614500Y308391D01*
D02*
G37*
G36*
X613500D02*
X612640Y308035D01*
X611965Y307360D01*
X611609Y306500D01*
X613500D01*
Y308391D01*
D02*
G37*
G36*
X297000D02*
Y306500D01*
X298891D01*
X298535Y307360D01*
X297860Y308035D01*
X297000Y308391D01*
D02*
G37*
G36*
X296000D02*
X295141Y308035D01*
X294465Y307360D01*
X294109Y306500D01*
X296000D01*
Y308391D01*
D02*
G37*
G36*
X289500D02*
Y306500D01*
X291391D01*
X291035Y307360D01*
X290359Y308035D01*
X289500Y308391D01*
D02*
G37*
G36*
X288500D02*
X287641Y308035D01*
X286965Y307360D01*
X286609Y306500D01*
X288500D01*
Y308391D01*
D02*
G37*
G36*
X457891Y306500D02*
X456000D01*
Y304609D01*
X456859Y304965D01*
X457535Y305641D01*
X457891Y306500D01*
D02*
G37*
G36*
X455000D02*
X453109D01*
X453465Y305641D01*
X454141Y304965D01*
X455000Y304609D01*
Y306500D01*
D02*
G37*
G36*
X535891Y306109D02*
X534000D01*
Y304219D01*
X534860Y304575D01*
X535535Y305250D01*
X535891Y306109D01*
D02*
G37*
G36*
X533000D02*
X531109D01*
X531465Y305250D01*
X532140Y304575D01*
X533000Y304219D01*
Y306109D01*
D02*
G37*
G36*
X373891D02*
X372000D01*
Y304219D01*
X372860Y304575D01*
X373535Y305250D01*
X373891Y306109D01*
D02*
G37*
G36*
X371000D02*
X369109D01*
X369465Y305250D01*
X370141Y304575D01*
X371000Y304219D01*
Y306109D01*
D02*
G37*
G36*
X653891Y305500D02*
X652000D01*
Y303609D01*
X652859Y303965D01*
X653535Y304641D01*
X653891Y305500D01*
D02*
G37*
G36*
X651000D02*
X649109D01*
X649465Y304641D01*
X650140Y303965D01*
X651000Y303609D01*
Y305500D01*
D02*
G37*
G36*
X616391D02*
X614500D01*
Y303609D01*
X615359Y303965D01*
X616035Y304641D01*
X616391Y305500D01*
D02*
G37*
G36*
X613500D02*
X611609D01*
X611965Y304641D01*
X612640Y303965D01*
X613500Y303609D01*
Y305500D01*
D02*
G37*
G36*
X298891D02*
X297000D01*
Y303609D01*
X297860Y303965D01*
X298535Y304641D01*
X298891Y305500D01*
D02*
G37*
G36*
X296000D02*
X294109D01*
X294465Y304641D01*
X295141Y303965D01*
X296000Y303609D01*
Y305500D01*
D02*
G37*
G36*
X291391D02*
X289500D01*
Y303609D01*
X290359Y303965D01*
X291035Y304641D01*
X291391Y305500D01*
D02*
G37*
G36*
X288500D02*
X286609D01*
X286965Y304641D01*
X287641Y303965D01*
X288500Y303609D01*
Y305500D01*
D02*
G37*
%LPD*%
D37*
X504000Y317500D02*
D03*
X661500D02*
D03*
X341500D02*
D03*
X423000D02*
D03*
X583500D02*
D03*
X443000Y337500D02*
D03*
Y347500D02*
D03*
Y357500D02*
D03*
X423000D02*
D03*
Y347500D02*
D03*
Y337500D02*
D03*
X661500D02*
D03*
Y347500D02*
D03*
Y357500D02*
D03*
X681500D02*
D03*
Y347500D02*
D03*
Y337500D02*
D03*
X504000D02*
D03*
Y347500D02*
D03*
Y357500D02*
D03*
X524000D02*
D03*
Y347500D02*
D03*
Y337500D02*
D03*
X341500D02*
D03*
Y347500D02*
D03*
Y357500D02*
D03*
X361500D02*
D03*
Y347500D02*
D03*
Y337500D02*
D03*
X583500D02*
D03*
Y347500D02*
D03*
Y357500D02*
D03*
X603500D02*
D03*
Y347500D02*
D03*
Y337500D02*
D03*
D38*
X443000Y317500D02*
D03*
X681500D02*
D03*
X524000D02*
D03*
X361500D02*
D03*
X603500D02*
D03*
D41*
X585421Y257067D02*
D03*
X595264D02*
D03*
X605106D02*
D03*
X662157Y253000D02*
D03*
X672000D02*
D03*
X681843D02*
D03*
X575579Y257067D02*
D03*
X565736D02*
D03*
D42*
X652315Y253000D02*
D03*
X555894Y257067D02*
D03*
D43*
X549594Y249193D02*
D03*
D50*
X341000Y404095D02*
X341500Y403595D01*
Y357500D02*
Y403595D01*
X341000Y404095D02*
Y404500D01*
X423000Y357500D02*
Y404500D01*
X503000Y358798D02*
X504000Y357798D01*
X503000Y358798D02*
Y404500D01*
X504000Y357500D02*
Y357798D01*
X583000Y404095D02*
X583500Y403595D01*
Y357500D02*
Y403595D01*
X583000Y404095D02*
Y404500D01*
X661000Y404095D02*
X661500Y403595D01*
X661000Y404095D02*
Y404500D01*
X661500Y357500D02*
Y403595D01*
X631000Y347500D02*
X661500D01*
X612500Y366000D02*
X631000Y347500D01*
X602000Y366000D02*
X612500D01*
X583500Y347500D02*
X602000Y366000D01*
X544000Y347500D02*
X583500D01*
X527000Y364500D02*
X544000Y347500D01*
X521000Y364500D02*
X527000D01*
X504000Y347500D02*
X521000Y364500D01*
X469000Y347500D02*
X504000D01*
X447500Y364000D02*
X452500D01*
X469000Y347500D01*
X447449Y364051D02*
X447500Y364000D01*
X423000Y347500D02*
X439551Y364051D01*
X447449D01*
X366500Y364500D02*
X383500Y347500D01*
X423000D01*
X358500Y364500D02*
X366500D01*
X341500Y347500D02*
X358500Y364500D01*
X319756Y347500D02*
X341500D01*
X295422Y371834D02*
X319756Y347500D01*
D51*
X423000Y404500D02*
D03*
X295422Y351834D02*
D03*
X661000Y404500D02*
D03*
X503000D02*
D03*
X341000D02*
D03*
X583000D02*
D03*
D52*
X443000D02*
D03*
X681000D02*
D03*
X523000D02*
D03*
X361000D02*
D03*
X603000D02*
D03*
D53*
X295422Y371834D02*
D03*
D54*
X633500Y374000D02*
D03*
X293000Y407000D02*
D03*
Y248500D02*
D03*
D55*
X651500Y306000D02*
D03*
Y311500D02*
D03*
X614000Y306000D02*
D03*
Y312000D02*
D03*
X533500Y306609D02*
D03*
Y312609D02*
D03*
X455500Y307000D02*
D03*
Y313000D02*
D03*
X371500Y306609D02*
D03*
Y312109D02*
D03*
X296500Y306000D02*
D03*
X296000Y312500D02*
D03*
X289000Y306000D02*
D03*
X289001Y312906D02*
D03*
X621500Y236000D02*
D03*
X523000Y239500D02*
D03*
X485233Y267741D02*
D03*
X471500Y268000D02*
D03*
X305500Y287500D02*
D03*
X330000Y292500D02*
D03*
X327000Y337500D02*
D03*
X382500Y286500D02*
D03*
X410500Y295500D02*
D03*
X400500Y334500D02*
D03*
X466500Y287000D02*
D03*
X486000Y334500D02*
D03*
X491329Y293680D02*
D03*
X562500Y334500D02*
D03*
X546000Y287500D02*
D03*
X571571Y296364D02*
D03*
X640000Y334500D02*
D03*
X647500Y292500D02*
D03*
X625000Y288000D02*
D03*
X630000Y243500D02*
D03*
X620000Y241500D02*
D03*
M02*
