G04*
G04 #@! TF.GenerationSoftware,Altium Limited,Altium Designer,21.4.1 (30)*
G04*
G04 Layer_Color=8388736*
%FSLAX25Y25*%
%MOIN*%
G70*
G04*
G04 #@! TF.SameCoordinates,1266B52B-6285-4ABA-978B-C55B880163AB*
G04*
G04*
G04 #@! TF.FilePolarity,Negative*
G04*
G01*
G75*
%ADD15R,0.03591X0.03381*%
%ADD16R,0.03985X0.04168*%
%ADD18R,0.03381X0.03591*%
%ADD21R,0.06127X0.06213*%
%ADD23R,0.03543X0.03347*%
%ADD25R,0.04562X0.03985*%
%ADD27R,0.00400X0.00400*%
%ADD28R,0.01900X0.00900*%
%ADD29R,0.00900X0.01900*%
%ADD30R,0.12020X0.13398*%
%ADD31R,0.05524X0.03950*%
%ADD32R,0.04737X0.06312*%
%ADD33R,0.04737X0.03950*%
G04:AMPARAMS|DCode=34|XSize=25.72mil|YSize=70.99mil|CornerRadius=5.95mil|HoleSize=0mil|Usage=FLASHONLY|Rotation=180.000|XOffset=0mil|YOffset=0mil|HoleType=Round|Shape=RoundedRectangle|*
%AMROUNDEDRECTD34*
21,1,0.02572,0.05909,0,0,180.0*
21,1,0.01382,0.07099,0,0,180.0*
1,1,0.01190,-0.00691,0.02955*
1,1,0.01190,0.00691,0.02955*
1,1,0.01190,0.00691,-0.02955*
1,1,0.01190,-0.00691,-0.02955*
%
%ADD34ROUNDEDRECTD34*%
%ADD35R,0.04800X0.05800*%
%ADD36R,0.05800X0.04800*%
%ADD37C,0.06102*%
%ADD38R,0.06102X0.06102*%
%ADD39C,0.07296*%
%ADD40R,0.07296X0.07296*%
%ADD41C,0.05512*%
%ADD42R,0.05512X0.05512*%
%ADD43C,0.04331*%
%ADD44R,0.07296X0.07296*%
%ADD45C,0.24800*%
%ADD46C,0.03600*%
G36*
X632052Y260797D02*
X632104Y260787D01*
X632153Y260770D01*
X632200Y260747D01*
X632244Y260718D01*
X632283Y260683D01*
X632318Y260644D01*
X632347Y260600D01*
X632370Y260553D01*
X632387Y260504D01*
X632397Y260452D01*
X632401Y260400D01*
Y253800D01*
X632397Y253748D01*
X632387Y253696D01*
X632370Y253647D01*
X632347Y253600D01*
X632318Y253556D01*
X632283Y253517D01*
X632244Y253482D01*
X632200Y253453D01*
X632153Y253430D01*
X632104Y253413D01*
X632052Y253403D01*
X632000Y253399D01*
X631948Y253403D01*
X631896Y253413D01*
X631847Y253430D01*
X631828Y253439D01*
X632283Y252983D01*
X632318Y252944D01*
X632347Y252900D01*
X632370Y252853D01*
X632387Y252804D01*
X632397Y252752D01*
X632401Y252700D01*
Y248200D01*
X632397Y248148D01*
X632387Y248096D01*
X632370Y248047D01*
X632347Y248000D01*
X632318Y247956D01*
X632283Y247917D01*
X632244Y247882D01*
X632200Y247853D01*
X632153Y247830D01*
X632104Y247813D01*
X632052Y247803D01*
X632000Y247799D01*
X627000D01*
X626948Y247803D01*
X626896Y247813D01*
X626847Y247830D01*
X626800Y247853D01*
X626756Y247882D01*
X626717Y247917D01*
X626682Y247956D01*
X626653Y248000D01*
X626630Y248047D01*
X626613Y248096D01*
X626603Y248148D01*
X626599Y248200D01*
Y252700D01*
X626603Y252752D01*
X626613Y252804D01*
X626630Y252853D01*
X626653Y252900D01*
X626682Y252944D01*
X626717Y252983D01*
X627172Y253439D01*
X627153Y253430D01*
X627104Y253413D01*
X627052Y253403D01*
X627000Y253399D01*
X626948Y253403D01*
X626896Y253413D01*
X626847Y253430D01*
X626800Y253453D01*
X626756Y253482D01*
X626717Y253517D01*
X626682Y253556D01*
X626653Y253600D01*
X626630Y253647D01*
X626613Y253696D01*
X626603Y253748D01*
X626599Y253800D01*
Y260400D01*
X626603Y260452D01*
X626613Y260504D01*
X626630Y260553D01*
X626653Y260600D01*
X626682Y260644D01*
X626717Y260683D01*
X626756Y260718D01*
X626800Y260747D01*
X626847Y260770D01*
X626896Y260787D01*
X626948Y260797D01*
X627000Y260801D01*
X632000D01*
X632052Y260797D01*
D02*
G37*
G36*
X622552Y259297D02*
X622604Y259287D01*
X622653Y259270D01*
X622700Y259247D01*
X622744Y259218D01*
X622783Y259183D01*
X622818Y259144D01*
X622847Y259100D01*
X622870Y259053D01*
X622887Y259004D01*
X622897Y258952D01*
X622901Y258900D01*
Y252300D01*
X622897Y252248D01*
X622887Y252196D01*
X622870Y252147D01*
X622847Y252100D01*
X622818Y252056D01*
X622783Y252017D01*
X622744Y251982D01*
X622700Y251953D01*
X622653Y251930D01*
X622604Y251913D01*
X622552Y251903D01*
X622500Y251899D01*
X622448Y251903D01*
X622396Y251913D01*
X622347Y251930D01*
X622328Y251939D01*
X622783Y251483D01*
X622818Y251444D01*
X622847Y251400D01*
X622870Y251353D01*
X622887Y251304D01*
X622897Y251252D01*
X622901Y251200D01*
Y246700D01*
X622897Y246648D01*
X622887Y246596D01*
X622870Y246547D01*
X622847Y246500D01*
X622818Y246456D01*
X622783Y246417D01*
X622744Y246382D01*
X622700Y246353D01*
X622653Y246330D01*
X622604Y246313D01*
X622552Y246303D01*
X622500Y246299D01*
X617500D01*
X617448Y246303D01*
X617396Y246313D01*
X617347Y246330D01*
X617300Y246353D01*
X617256Y246382D01*
X617217Y246417D01*
X617182Y246456D01*
X617153Y246500D01*
X617130Y246547D01*
X617113Y246596D01*
X617103Y246648D01*
X617099Y246700D01*
Y251200D01*
X617103Y251252D01*
X617113Y251304D01*
X617130Y251353D01*
X617153Y251400D01*
X617182Y251444D01*
X617217Y251483D01*
X617672Y251939D01*
X617653Y251930D01*
X617604Y251913D01*
X617552Y251903D01*
X617500Y251899D01*
X617448Y251903D01*
X617396Y251913D01*
X617347Y251930D01*
X617300Y251953D01*
X617256Y251982D01*
X617217Y252017D01*
X617182Y252056D01*
X617153Y252100D01*
X617130Y252147D01*
X617113Y252196D01*
X617103Y252248D01*
X617099Y252300D01*
Y258900D01*
X617103Y258952D01*
X617113Y259004D01*
X617130Y259053D01*
X617153Y259100D01*
X617182Y259144D01*
X617217Y259183D01*
X617256Y259218D01*
X617300Y259247D01*
X617347Y259270D01*
X617396Y259287D01*
X617448Y259297D01*
X617500Y259301D01*
X622500D01*
X622552Y259297D01*
D02*
G37*
G36*
X615452Y239897D02*
X615504Y239887D01*
X615553Y239870D01*
X615600Y239847D01*
X615644Y239818D01*
X615683Y239783D01*
X615718Y239744D01*
X615747Y239700D01*
X615770Y239653D01*
X615787Y239604D01*
X615797Y239552D01*
X615801Y239500D01*
Y234500D01*
X615797Y234448D01*
X615787Y234396D01*
X615770Y234347D01*
X615747Y234300D01*
X615718Y234256D01*
X615683Y234217D01*
X615644Y234182D01*
X615600Y234153D01*
X615553Y234130D01*
X615504Y234113D01*
X615452Y234103D01*
X615400Y234099D01*
X608800D01*
X608748Y234103D01*
X608696Y234113D01*
X608647Y234130D01*
X608600Y234153D01*
X608556Y234182D01*
X608517Y234217D01*
X608482Y234256D01*
X608453Y234300D01*
X608430Y234347D01*
X608413Y234396D01*
X608403Y234448D01*
X608399Y234500D01*
X608403Y234552D01*
X608413Y234604D01*
X608430Y234653D01*
X608439Y234672D01*
X607983Y234217D01*
X607944Y234182D01*
X607900Y234153D01*
X607853Y234130D01*
X607804Y234113D01*
X607752Y234103D01*
X607700Y234099D01*
X603200D01*
X603148Y234103D01*
X603096Y234113D01*
X603047Y234130D01*
X603000Y234153D01*
X602956Y234182D01*
X602917Y234217D01*
X602882Y234256D01*
X602853Y234300D01*
X602830Y234347D01*
X602813Y234396D01*
X602803Y234448D01*
X602799Y234500D01*
Y239500D01*
X602803Y239552D01*
X602813Y239604D01*
X602830Y239653D01*
X602853Y239700D01*
X602882Y239744D01*
X602917Y239783D01*
X602956Y239818D01*
X603000Y239847D01*
X603047Y239870D01*
X603096Y239887D01*
X603148Y239897D01*
X603200Y239901D01*
X607700D01*
X607752Y239897D01*
X607804Y239887D01*
X607853Y239870D01*
X607900Y239847D01*
X607944Y239818D01*
X607983Y239783D01*
X608439Y239328D01*
X608430Y239347D01*
X608413Y239396D01*
X608403Y239448D01*
X608399Y239500D01*
X608403Y239552D01*
X608413Y239604D01*
X608430Y239653D01*
X608453Y239700D01*
X608482Y239744D01*
X608517Y239783D01*
X608556Y239818D01*
X608600Y239847D01*
X608647Y239870D01*
X608696Y239887D01*
X608748Y239897D01*
X608800Y239901D01*
X615400D01*
X615452Y239897D01*
D02*
G37*
%LPC*%
G36*
X629500Y255733D02*
X629328Y255561D01*
X629347Y255570D01*
X629396Y255587D01*
X629448Y255597D01*
X629500Y255601D01*
X629552Y255597D01*
X629604Y255587D01*
X629653Y255570D01*
X629672Y255561D01*
X629500Y255733D01*
D02*
G37*
G36*
X620000Y254233D02*
X619828Y254061D01*
X619847Y254070D01*
X619896Y254087D01*
X619948Y254097D01*
X620000Y254101D01*
X620052Y254097D01*
X620104Y254087D01*
X620153Y254070D01*
X620172Y254061D01*
X620000Y254233D01*
D02*
G37*
G36*
X610561Y237172D02*
X610570Y237153D01*
X610587Y237104D01*
X610597Y237052D01*
X610601Y237000D01*
X610597Y236948D01*
X610587Y236896D01*
X610570Y236847D01*
X610561Y236828D01*
X610733Y237000D01*
X610561Y237172D01*
D02*
G37*
%LPD*%
D15*
X491500Y321942D02*
D03*
X648000D02*
D03*
X329500D02*
D03*
X405000D02*
D03*
X570000D02*
D03*
X405000Y328058D02*
D03*
X648000D02*
D03*
X491500D02*
D03*
X329500D02*
D03*
X570000D02*
D03*
D16*
X639500Y283048D02*
D03*
X321500D02*
D03*
X401500D02*
D03*
X563500D02*
D03*
X401500Y289952D02*
D03*
X484000D02*
D03*
Y283048D02*
D03*
X639500Y289952D02*
D03*
X321500D02*
D03*
X563500D02*
D03*
D18*
X385058Y312000D02*
D03*
X378942D02*
D03*
X621442D02*
D03*
X627558D02*
D03*
X463442D02*
D03*
X469558D02*
D03*
X303442D02*
D03*
X309558D02*
D03*
X540442D02*
D03*
X546558D02*
D03*
D21*
X471000Y260500D02*
D03*
Y253696D02*
D03*
D23*
X485500Y261059D02*
D03*
Y255941D02*
D03*
D25*
X672245Y269500D02*
D03*
X678755D02*
D03*
D27*
X610600Y237000D02*
D03*
X620000Y254100D02*
D03*
X629500Y255600D02*
D03*
D28*
X607950Y239450D02*
D03*
X608450Y234550D02*
D03*
D29*
X617550Y251450D02*
D03*
X622450Y251950D02*
D03*
X627050Y252950D02*
D03*
X631950Y253450D02*
D03*
D30*
X524500Y292500D02*
D03*
X683114Y294000D02*
D03*
X364728Y292500D02*
D03*
X445114D02*
D03*
X606614D02*
D03*
X501272D02*
D03*
X659886Y294000D02*
D03*
X341500Y292500D02*
D03*
X421886D02*
D03*
X583386D02*
D03*
D31*
X392374Y327000D02*
D03*
Y334480D02*
D03*
X384500Y330740D02*
D03*
X624500D02*
D03*
X632374Y334480D02*
D03*
Y327000D02*
D03*
X470063Y330740D02*
D03*
X477937Y334480D02*
D03*
Y327000D02*
D03*
X310563Y330740D02*
D03*
X318437Y334480D02*
D03*
Y327000D02*
D03*
X547626Y330740D02*
D03*
X555500Y334480D02*
D03*
Y327000D02*
D03*
D32*
X397760Y300669D02*
D03*
X405240D02*
D03*
X401500Y309331D02*
D03*
X640000D02*
D03*
X643740Y300669D02*
D03*
X636260D02*
D03*
X483000Y309331D02*
D03*
X486740Y300669D02*
D03*
X479260D02*
D03*
X322260Y309331D02*
D03*
X326000Y300669D02*
D03*
X318520D02*
D03*
X561500Y309331D02*
D03*
X565240Y300669D02*
D03*
X557760D02*
D03*
D33*
X382500Y294047D02*
D03*
Y299953D02*
D03*
X625000D02*
D03*
Y294047D02*
D03*
X466500Y299953D02*
D03*
Y294047D02*
D03*
X305500Y299953D02*
D03*
Y294047D02*
D03*
X546000Y299953D02*
D03*
Y294047D02*
D03*
D34*
X496543Y239492D02*
D03*
X499102D02*
D03*
X501661D02*
D03*
X504220D02*
D03*
X506779D02*
D03*
X509339D02*
D03*
X511898D02*
D03*
X514457D02*
D03*
X496543Y263508D02*
D03*
X499102D02*
D03*
X501661D02*
D03*
X504220D02*
D03*
X506779D02*
D03*
X509339D02*
D03*
X511898D02*
D03*
X514457D02*
D03*
D35*
X605500Y237000D02*
D03*
X613400D02*
D03*
D36*
X620000Y249000D02*
D03*
Y256900D02*
D03*
X629500Y250500D02*
D03*
Y258400D02*
D03*
D37*
X504000Y317500D02*
D03*
X661500D02*
D03*
X341500D02*
D03*
X423000D02*
D03*
X583500D02*
D03*
X443000Y337500D02*
D03*
Y347500D02*
D03*
Y357500D02*
D03*
X423000D02*
D03*
Y347500D02*
D03*
Y337500D02*
D03*
X661500D02*
D03*
Y347500D02*
D03*
Y357500D02*
D03*
X681500D02*
D03*
Y347500D02*
D03*
Y337500D02*
D03*
X504000D02*
D03*
Y347500D02*
D03*
Y357500D02*
D03*
X524000D02*
D03*
Y347500D02*
D03*
Y337500D02*
D03*
X341500D02*
D03*
Y347500D02*
D03*
Y357500D02*
D03*
X361500D02*
D03*
Y347500D02*
D03*
Y337500D02*
D03*
X583500D02*
D03*
Y347500D02*
D03*
Y357500D02*
D03*
X603500D02*
D03*
Y347500D02*
D03*
Y337500D02*
D03*
D38*
X443000Y317500D02*
D03*
X681500D02*
D03*
X524000D02*
D03*
X361500D02*
D03*
X603500D02*
D03*
D39*
X423000Y404500D02*
D03*
X295422Y351834D02*
D03*
X661000Y404500D02*
D03*
X503000D02*
D03*
X341000D02*
D03*
X583000D02*
D03*
D40*
X443000D02*
D03*
X681000D02*
D03*
X523000D02*
D03*
X361000D02*
D03*
X603000D02*
D03*
D41*
X585421Y257067D02*
D03*
X595264D02*
D03*
X605106D02*
D03*
X662157Y253000D02*
D03*
X672000D02*
D03*
X681843D02*
D03*
X575579Y257067D02*
D03*
X565736D02*
D03*
D42*
X652315Y253000D02*
D03*
X555894Y257067D02*
D03*
D43*
X549594Y249193D02*
D03*
D44*
X295422Y371834D02*
D03*
D45*
X633500Y374000D02*
D03*
X293000Y407000D02*
D03*
Y248500D02*
D03*
D46*
X651500Y306000D02*
D03*
Y311500D02*
D03*
X614000Y306000D02*
D03*
Y312000D02*
D03*
X533500Y306609D02*
D03*
Y312609D02*
D03*
X455500Y307000D02*
D03*
Y313000D02*
D03*
X371500Y306609D02*
D03*
Y312109D02*
D03*
X296500Y306000D02*
D03*
X296000Y312500D02*
D03*
X289000Y306000D02*
D03*
X289001Y312906D02*
D03*
X621500Y236000D02*
D03*
X523000Y239500D02*
D03*
X485233Y267741D02*
D03*
X471500Y268000D02*
D03*
X305500Y287500D02*
D03*
X330000Y292500D02*
D03*
X327000Y337500D02*
D03*
X382500Y286500D02*
D03*
X410500Y295500D02*
D03*
X400500Y334500D02*
D03*
X466500Y287000D02*
D03*
X486000Y334500D02*
D03*
X491329Y293680D02*
D03*
X562500Y334500D02*
D03*
X546000Y287500D02*
D03*
X571571Y296364D02*
D03*
X640000Y334500D02*
D03*
X647500Y292500D02*
D03*
X625000Y288000D02*
D03*
X630000Y243500D02*
D03*
X620000Y241500D02*
D03*
M02*
