G04*
G04 #@! TF.GenerationSoftware,Altium Limited,Altium Designer,21.4.1 (30)*
G04*
G04 Layer_Color=16711935*
%FSLAX25Y25*%
%MOIN*%
G70*
G04*
G04 #@! TF.SameCoordinates,5141BEB0-0B1F-41B6-A3F9-944F83B17515*
G04*
G04*
G04 #@! TF.FilePolarity,Negative*
G04*
G01*
G75*
%ADD66C,0.09776*%
%ADD67C,0.06800*%
%ADD68C,0.05512*%
%ADD69R,0.05512X0.05512*%
%ADD70R,0.05512X0.05512*%
%ADD71C,0.07099*%
G04:AMPARAMS|DCode=72|XSize=70.99mil|YSize=70.99mil|CornerRadius=19.75mil|HoleSize=0mil|Usage=FLASHONLY|Rotation=0.000|XOffset=0mil|YOffset=0mil|HoleType=Round|Shape=RoundedRectangle|*
%AMROUNDEDRECTD72*
21,1,0.07099,0.03150,0,0,0.0*
21,1,0.03150,0.07099,0,0,0.0*
1,1,0.03950,0.01575,-0.01575*
1,1,0.03950,-0.01575,-0.01575*
1,1,0.03950,-0.01575,0.01575*
1,1,0.03950,0.01575,0.01575*
%
%ADD72ROUNDEDRECTD72*%
G04:AMPARAMS|DCode=73|XSize=70.99mil|YSize=70.99mil|CornerRadius=19.75mil|HoleSize=0mil|Usage=FLASHONLY|Rotation=270.000|XOffset=0mil|YOffset=0mil|HoleType=Round|Shape=RoundedRectangle|*
%AMROUNDEDRECTD73*
21,1,0.07099,0.03150,0,0,270.0*
21,1,0.03150,0.07099,0,0,270.0*
1,1,0.03950,-0.01575,-0.01575*
1,1,0.03950,-0.01575,0.01575*
1,1,0.03950,0.01575,0.01575*
1,1,0.03950,0.01575,-0.01575*
%
%ADD73ROUNDEDRECTD73*%
%ADD74R,0.09068X0.06706*%
%ADD75R,0.06706X0.09068*%
%ADD76R,0.06102X0.06102*%
%ADD77R,0.06102X0.06102*%
%ADD78C,0.24800*%
%ADD79C,0.06102*%
%ADD80C,0.04331*%
%ADD81C,0.03600*%
%ADD82C,0.05800*%
D66*
X417000Y176831D02*
D03*
Y257500D02*
D03*
D67*
X262500Y158500D02*
D03*
Y148500D02*
D03*
X352500Y128500D02*
D03*
Y228500D02*
D03*
Y238500D02*
D03*
Y278500D02*
D03*
Y288500D02*
D03*
Y298500D02*
D03*
X262500Y148500D02*
D03*
Y168500D02*
D03*
Y118500D02*
D03*
Y128500D02*
D03*
Y138500D02*
D03*
Y178500D02*
D03*
Y188500D02*
D03*
Y198500D02*
D03*
Y208500D02*
D03*
Y218500D02*
D03*
Y228500D02*
D03*
Y238500D02*
D03*
Y248500D02*
D03*
Y258500D02*
D03*
Y268500D02*
D03*
Y278500D02*
D03*
Y288500D02*
D03*
Y298500D02*
D03*
X352500Y148500D02*
D03*
D03*
Y138500D02*
D03*
Y158500D02*
D03*
Y168500D02*
D03*
Y178500D02*
D03*
Y188500D02*
D03*
Y198500D02*
D03*
Y208500D02*
D03*
Y218500D02*
D03*
Y248500D02*
D03*
Y258500D02*
D03*
Y268500D02*
D03*
Y118500D02*
D03*
Y108500D02*
D03*
X287000Y89500D02*
D03*
X272500Y90000D02*
D03*
D68*
X682433Y281764D02*
D03*
Y271921D02*
D03*
Y262079D02*
D03*
X356764Y86567D02*
D03*
X346921D02*
D03*
X337079D02*
D03*
X597185Y97000D02*
D03*
X487000Y112500D02*
D03*
X688000Y173972D02*
D03*
Y183815D02*
D03*
Y193658D02*
D03*
Y203500D02*
D03*
Y213342D02*
D03*
X587000Y302500D02*
D03*
X577157D02*
D03*
X567315D02*
D03*
X577500Y97000D02*
D03*
X587343D02*
D03*
X487000Y132185D02*
D03*
Y122343D02*
D03*
D69*
X682433Y252236D02*
D03*
X487000Y142028D02*
D03*
X688000Y223185D02*
D03*
D70*
X327236Y86567D02*
D03*
X596842Y302500D02*
D03*
X567658Y97000D02*
D03*
D71*
X519000Y88500D02*
D03*
X499000D02*
D03*
X479000D02*
D03*
X489000D02*
D03*
X509000D02*
D03*
X529000D02*
D03*
X539000D02*
D03*
X490500Y183500D02*
D03*
Y193500D02*
D03*
Y213500D02*
D03*
Y223500D02*
D03*
Y203500D02*
D03*
D72*
X469000Y88500D02*
D03*
D73*
X490500Y233500D02*
D03*
D74*
X407000Y126122D02*
D03*
Y102500D02*
D03*
D75*
X425504Y114311D02*
D03*
D76*
X638000Y93500D02*
D03*
X679343Y95000D02*
D03*
X604500Y130500D02*
D03*
D77*
X683000Y134158D02*
D03*
X636933Y169079D02*
D03*
Y209079D02*
D03*
D78*
X646500Y126500D02*
D03*
X390548Y149510D02*
D03*
X635000Y301000D02*
D03*
D79*
X628158Y93500D02*
D03*
X669500Y95000D02*
D03*
X683000Y144000D02*
D03*
X614342Y130500D02*
D03*
X636933Y178921D02*
D03*
Y218921D02*
D03*
D80*
X680126Y229484D02*
D03*
D81*
X618500Y237000D02*
D03*
X581535Y188859D02*
D03*
X570623Y189877D02*
D03*
X555500Y278000D02*
D03*
X535000Y269500D02*
D03*
X472500Y252500D02*
D03*
X525500Y267500D02*
D03*
X543000Y228000D02*
D03*
X656000Y259000D02*
D03*
X576000Y170500D02*
D03*
X597500Y177500D02*
D03*
X476500Y199000D02*
D03*
X548000Y201500D02*
D03*
X607000Y153500D02*
D03*
X518500Y164000D02*
D03*
X514500Y210000D02*
D03*
X489000Y173000D02*
D03*
X520000D02*
D03*
X472000Y263500D02*
D03*
X493500D02*
D03*
X518516Y249340D02*
D03*
X510500Y252000D02*
D03*
X505541Y227539D02*
D03*
X470000Y149000D02*
D03*
X503000D02*
D03*
X469000Y173000D02*
D03*
X573368Y126298D02*
D03*
X558000Y138000D02*
D03*
X525500Y126500D02*
D03*
X530000Y306500D02*
D03*
X574049Y288127D02*
D03*
X596500Y286500D02*
D03*
X552374Y185520D02*
D03*
X556500Y149000D02*
D03*
X615500Y274500D02*
D03*
X562500Y250500D02*
D03*
X543500Y260000D02*
D03*
X533500Y258500D02*
D03*
X524000D02*
D03*
X540000Y190500D02*
D03*
X666000Y279000D02*
D03*
Y266500D02*
D03*
X590781Y151466D02*
D03*
X579500Y152000D02*
D03*
X509500Y304500D02*
D03*
X480943Y304584D02*
D03*
X458000Y312500D02*
D03*
X499500Y237000D02*
D03*
X476500Y221500D02*
D03*
X475500Y213500D02*
D03*
X515000Y216000D02*
D03*
X524000Y211000D02*
D03*
X488500Y162000D02*
D03*
X546022Y169623D02*
D03*
X525500Y239000D02*
D03*
X563500Y208000D02*
D03*
X549500Y228000D02*
D03*
X538500Y298000D02*
D03*
X516500Y297000D02*
D03*
X494000Y297500D02*
D03*
X491000Y306000D02*
D03*
X509000Y283500D02*
D03*
X505500Y274500D02*
D03*
X636500Y234500D02*
D03*
X613500Y205500D02*
D03*
D82*
X453000Y116000D02*
D03*
X461500Y156500D02*
D03*
X444500Y157000D02*
D03*
X453000D02*
D03*
X455500Y95000D02*
D03*
X445500Y94500D02*
D03*
M02*
