G04*
G04 #@! TF.GenerationSoftware,Altium Limited,Altium Designer,21.4.1 (30)*
G04*
G04 Layer_Color=8421504*
%FSLAX25Y25*%
%MOIN*%
G70*
G04*
G04 #@! TF.SameCoordinates,5141BEB0-0B1F-41B6-A3F9-944F83B17515*
G04*
G04*
G04 #@! TF.FilePolarity,Positive*
G04*
G01*
G75*
%ADD16R,0.03937X0.03543*%
%ADD17R,0.03150X0.03543*%
%ADD18R,0.03543X0.02953*%
%ADD19O,0.00984X0.06102*%
%ADD20O,0.06102X0.00984*%
%ADD21R,0.03347X0.03543*%
%ADD22R,0.03543X0.03347*%
%ADD23R,0.02953X0.04331*%
%ADD24R,0.03347X0.04331*%
%ADD25R,0.04724X0.03937*%
%ADD26R,0.07480X0.05315*%
%ADD27R,0.04606X0.07087*%
%ADD28R,0.06102X0.05315*%
G04:AMPARAMS|DCode=29|XSize=17.72mil|YSize=55.12mil|CornerRadius=1.95mil|HoleSize=0mil|Usage=FLASHONLY|Rotation=90.000|XOffset=0mil|YOffset=0mil|HoleType=Round|Shape=RoundedRectangle|*
%AMROUNDEDRECTD29*
21,1,0.01772,0.05122,0,0,90.0*
21,1,0.01382,0.05512,0,0,90.0*
1,1,0.00390,0.02561,0.00691*
1,1,0.00390,0.02561,-0.00691*
1,1,0.00390,-0.02561,-0.00691*
1,1,0.00390,-0.02561,0.00691*
%
%ADD29ROUNDEDRECTD29*%
%ADD30R,0.04000X0.05000*%
%ADD31R,0.12795X0.08465*%
%ADD32R,0.03740X0.08465*%
%ADD33R,0.03985X0.04562*%
%ADD34R,0.06213X0.06127*%
%ADD35R,0.03543X0.03937*%
%ADD36R,0.02953X0.03543*%
%ADD37R,0.03591X0.03772*%
%ADD38R,0.03772X0.03591*%
%ADD39R,0.05118X0.05906*%
%ADD40R,0.03197X0.02593*%
%ADD41R,0.04724X0.07087*%
%ADD42R,0.02756X0.02362*%
%ADD43R,0.02593X0.03197*%
%ADD44R,0.05000X0.04000*%
%ADD45R,0.07480X0.05118*%
%ADD46R,0.02756X0.03543*%
D16*
X537000Y312150D02*
D03*
Y305850D02*
D03*
X610000Y160850D02*
D03*
Y167150D02*
D03*
X553000Y157201D02*
D03*
Y163500D02*
D03*
X508000Y218650D02*
D03*
X602000Y160350D02*
D03*
X524500Y252650D02*
D03*
X533500Y253150D02*
D03*
X521000Y185500D02*
D03*
X579500Y157701D02*
D03*
X590500Y158350D02*
D03*
X602000Y166650D02*
D03*
X524500Y246350D02*
D03*
X533500Y246850D02*
D03*
X521000Y179201D02*
D03*
X579500Y164000D02*
D03*
X590500Y164650D02*
D03*
X508000Y212350D02*
D03*
D17*
X514500Y256307D02*
D03*
Y263000D02*
D03*
X497500Y256307D02*
D03*
Y263000D02*
D03*
X534000Y286653D02*
D03*
Y293347D02*
D03*
X544000Y286653D02*
D03*
Y293347D02*
D03*
X489000Y256307D02*
D03*
Y263000D02*
D03*
X506000Y256307D02*
D03*
Y263000D02*
D03*
X466000Y287653D02*
D03*
Y294346D02*
D03*
D18*
X543500Y253500D02*
D03*
Y248776D02*
D03*
X579500Y146000D02*
D03*
Y141276D02*
D03*
D19*
X537815Y178248D02*
D03*
X539783D02*
D03*
X541752D02*
D03*
X543720D02*
D03*
X545689D02*
D03*
X547657D02*
D03*
X549626D02*
D03*
X551594D02*
D03*
X553563D02*
D03*
X559469D02*
D03*
X561437D02*
D03*
X563406D02*
D03*
X565374D02*
D03*
X567343D02*
D03*
X569311D02*
D03*
X571279D02*
D03*
X581122D02*
D03*
X583090D02*
D03*
X585059D02*
D03*
Y237500D02*
D03*
X583090D02*
D03*
X581122D02*
D03*
X579153D02*
D03*
X577185D02*
D03*
X575216D02*
D03*
X573248D02*
D03*
X571279D02*
D03*
X569311D02*
D03*
X567343D02*
D03*
X565374D02*
D03*
X563406D02*
D03*
X561437D02*
D03*
X559469D02*
D03*
X557500D02*
D03*
X555532D02*
D03*
X553563D02*
D03*
X551594D02*
D03*
X549626D02*
D03*
X547657D02*
D03*
X545689D02*
D03*
X543720D02*
D03*
X541752D02*
D03*
X537815D02*
D03*
X579153Y178248D02*
D03*
X577185D02*
D03*
X573248D02*
D03*
X557500D02*
D03*
X539783Y237500D02*
D03*
X575216Y178248D02*
D03*
X555532D02*
D03*
D20*
X591063Y184252D02*
D03*
Y190157D02*
D03*
Y192126D02*
D03*
Y194095D02*
D03*
Y196063D02*
D03*
Y198031D02*
D03*
Y200000D02*
D03*
Y201969D02*
D03*
Y203937D02*
D03*
Y205906D02*
D03*
Y207874D02*
D03*
Y209842D02*
D03*
Y211811D02*
D03*
Y213779D02*
D03*
Y215748D02*
D03*
Y217717D02*
D03*
Y219685D02*
D03*
Y221654D02*
D03*
Y223622D02*
D03*
Y225590D02*
D03*
Y227559D02*
D03*
Y229528D02*
D03*
X531811Y231496D02*
D03*
Y229528D02*
D03*
Y227559D02*
D03*
Y225590D02*
D03*
Y223622D02*
D03*
Y221654D02*
D03*
Y219685D02*
D03*
Y217717D02*
D03*
Y215748D02*
D03*
Y213779D02*
D03*
Y211811D02*
D03*
Y209842D02*
D03*
Y207874D02*
D03*
Y205906D02*
D03*
Y203937D02*
D03*
Y201969D02*
D03*
Y200000D02*
D03*
Y198031D02*
D03*
Y196063D02*
D03*
Y194095D02*
D03*
Y192126D02*
D03*
Y190157D02*
D03*
Y188189D02*
D03*
Y184252D02*
D03*
X591063Y231496D02*
D03*
Y188189D02*
D03*
X531811Y186221D02*
D03*
X591063D02*
D03*
D21*
X568559Y256500D02*
D03*
X563441D02*
D03*
D22*
X566500Y272059D02*
D03*
Y266941D02*
D03*
Y287059D02*
D03*
Y281941D02*
D03*
X466500Y306941D02*
D03*
Y312059D02*
D03*
X603500Y285559D02*
D03*
Y280441D02*
D03*
X580000Y286500D02*
D03*
Y281382D02*
D03*
D23*
X517864Y314309D02*
D03*
D24*
X513730D02*
D03*
X505069D02*
D03*
X496408D02*
D03*
X492077D02*
D03*
X487746D02*
D03*
X500738D02*
D03*
X509400D02*
D03*
D25*
X477372Y275530D02*
D03*
Y290096D02*
D03*
D26*
X491152Y271691D02*
D03*
X514655D02*
D03*
D27*
X522628Y312931D02*
D03*
D28*
X478061Y313817D02*
D03*
D29*
X607614Y256043D02*
D03*
Y258602D02*
D03*
Y261161D02*
D03*
Y263720D02*
D03*
Y266280D02*
D03*
Y268839D02*
D03*
Y271398D02*
D03*
Y273957D02*
D03*
X584386Y256043D02*
D03*
Y258602D02*
D03*
Y261161D02*
D03*
Y263720D02*
D03*
Y266280D02*
D03*
Y268839D02*
D03*
Y271398D02*
D03*
Y273957D02*
D03*
D30*
X665900Y202000D02*
D03*
X658000D02*
D03*
Y213250D02*
D03*
X665900D02*
D03*
X658000Y224500D02*
D03*
X665900D02*
D03*
D31*
X452500Y147917D02*
D03*
D32*
X461555Y125083D02*
D03*
X452500D02*
D03*
X443445D02*
D03*
D33*
X442000Y102990D02*
D03*
Y109500D02*
D03*
D34*
X455098Y106500D02*
D03*
X461902D02*
D03*
D35*
X475350Y173000D02*
D03*
X606150Y239000D02*
D03*
X599850D02*
D03*
X481650Y173000D02*
D03*
D36*
X613362Y232000D02*
D03*
X564138Y138000D02*
D03*
X608638Y232000D02*
D03*
X568862Y138000D02*
D03*
D37*
X525500Y133776D02*
D03*
Y139500D02*
D03*
D38*
X567000Y126500D02*
D03*
X561276D02*
D03*
D39*
X655740Y253500D02*
D03*
X656240Y266500D02*
D03*
X656000Y279000D02*
D03*
X648260Y253500D02*
D03*
X648760Y266500D02*
D03*
X648520Y279000D02*
D03*
D40*
X512000Y164836D02*
D03*
X659500Y145836D02*
D03*
X621500Y182000D02*
D03*
X659500Y151164D02*
D03*
X621500Y187328D02*
D03*
X512000Y170164D02*
D03*
D41*
X561776Y147626D02*
D03*
X571224Y163374D02*
D03*
Y147626D02*
D03*
X561776Y163374D02*
D03*
D42*
X474500Y158520D02*
D03*
Y166000D02*
D03*
X482374Y162260D02*
D03*
D43*
X621336Y148500D02*
D03*
X634836D02*
D03*
X648328Y235000D02*
D03*
X626664Y148500D02*
D03*
X640164D02*
D03*
X643000Y235000D02*
D03*
D44*
X504000Y154600D02*
D03*
Y162500D02*
D03*
D45*
X548799Y147827D02*
D03*
Y126173D02*
D03*
X536201D02*
D03*
Y147827D02*
D03*
D46*
X631547Y254000D02*
D03*
X637453D02*
D03*
X631047Y263000D02*
D03*
X636953D02*
D03*
X631094Y272500D02*
D03*
X637000D02*
D03*
M02*
