G04*
G04 #@! TF.GenerationSoftware,Altium Limited,Altium Designer,21.4.1 (30)*
G04*
G04 Layer_Physical_Order=2*
G04 Layer_Color=16711680*
%FSLAX25Y25*%
%MOIN*%
G70*
G04*
G04 #@! TF.SameCoordinates,5141BEB0-0B1F-41B6-A3F9-944F83B17515*
G04*
G04*
G04 #@! TF.FilePolarity,Positive*
G04*
G01*
G75*
%ADD68C,0.05512*%
%ADD69R,0.05512X0.05512*%
%ADD70R,0.05512X0.05512*%
%ADD76R,0.06102X0.06102*%
%ADD77R,0.06102X0.06102*%
%ADD79C,0.06102*%
%ADD80C,0.04331*%
%ADD83C,0.01000*%
%ADD84C,0.02500*%
%ADD85C,0.05000*%
%ADD87C,0.08976*%
%ADD88C,0.06000*%
%ADD89C,0.06299*%
G04:AMPARAMS|DCode=90|XSize=62.99mil|YSize=62.99mil|CornerRadius=15.75mil|HoleSize=0mil|Usage=FLASHONLY|Rotation=0.000|XOffset=0mil|YOffset=0mil|HoleType=Round|Shape=RoundedRectangle|*
%AMROUNDEDRECTD90*
21,1,0.06299,0.03150,0,0,0.0*
21,1,0.03150,0.06299,0,0,0.0*
1,1,0.03150,0.01575,-0.01575*
1,1,0.03150,-0.01575,-0.01575*
1,1,0.03150,-0.01575,0.01575*
1,1,0.03150,0.01575,0.01575*
%
%ADD90ROUNDEDRECTD90*%
G04:AMPARAMS|DCode=91|XSize=62.99mil|YSize=62.99mil|CornerRadius=15.75mil|HoleSize=0mil|Usage=FLASHONLY|Rotation=270.000|XOffset=0mil|YOffset=0mil|HoleType=Round|Shape=RoundedRectangle|*
%AMROUNDEDRECTD91*
21,1,0.06299,0.03150,0,0,270.0*
21,1,0.03150,0.06299,0,0,270.0*
1,1,0.03150,-0.01575,-0.01575*
1,1,0.03150,-0.01575,0.01575*
1,1,0.03150,0.01575,0.01575*
1,1,0.03150,0.01575,-0.01575*
%
%ADD91ROUNDEDRECTD91*%
%ADD92R,0.08268X0.05906*%
%ADD93R,0.05906X0.08268*%
%ADD94C,0.24000*%
%ADD95C,0.02800*%
%ADD96C,0.05000*%
%ADD97C,0.01500*%
G36*
X704225Y68774D02*
X254275D01*
Y324225D01*
X268000D01*
Y292500D01*
X348500D01*
Y296428D01*
X349000Y296562D01*
X349299Y296044D01*
X350044Y295299D01*
X350956Y294773D01*
X351973Y294500D01*
X352000D01*
Y298500D01*
Y302500D01*
X351973D01*
X350956Y302227D01*
X350044Y301701D01*
X349299Y300956D01*
X349000Y300438D01*
X348500Y300572D01*
Y324225D01*
X704225D01*
Y68774D01*
D02*
G37*
%LPC*%
G36*
X458500Y314891D02*
Y313000D01*
X460391D01*
X460035Y313860D01*
X459360Y314535D01*
X458500Y314891D01*
D02*
G37*
G36*
X457500D02*
X456640Y314535D01*
X455965Y313860D01*
X455609Y313000D01*
X457500D01*
Y314891D01*
D02*
G37*
G36*
X460391Y312000D02*
X458500D01*
Y310109D01*
X459360Y310465D01*
X460035Y311140D01*
X460391Y312000D01*
D02*
G37*
G36*
X457500D02*
X455609D01*
X455965Y311140D01*
X456640Y310465D01*
X457500Y310109D01*
Y312000D01*
D02*
G37*
G36*
X530500Y308891D02*
Y307000D01*
X532391D01*
X532035Y307859D01*
X531359Y308535D01*
X530500Y308891D01*
D02*
G37*
G36*
X529500D02*
X528641Y308535D01*
X527965Y307859D01*
X527609Y307000D01*
X529500D01*
Y308891D01*
D02*
G37*
G36*
X481444Y306975D02*
Y305084D01*
X483334D01*
X482978Y305944D01*
X482303Y306619D01*
X481444Y306975D01*
D02*
G37*
G36*
X480443D02*
X479584Y306619D01*
X478909Y305944D01*
X478553Y305084D01*
X480443D01*
Y306975D01*
D02*
G37*
G36*
X510000Y306891D02*
Y305000D01*
X511891D01*
X511535Y305859D01*
X510859Y306535D01*
X510000Y306891D01*
D02*
G37*
G36*
X509000D02*
X508141Y306535D01*
X507465Y305859D01*
X507109Y305000D01*
X509000D01*
Y306891D01*
D02*
G37*
G36*
X532391Y306000D02*
X530500D01*
Y304109D01*
X531359Y304465D01*
X532035Y305140D01*
X532391Y306000D01*
D02*
G37*
G36*
X529500D02*
X527609D01*
X527965Y305140D01*
X528641Y304465D01*
X529500Y304109D01*
Y306000D01*
D02*
G37*
G36*
X600598Y306256D02*
X597342D01*
Y303000D01*
X600598D01*
Y306256D01*
D02*
G37*
G36*
X596343D02*
X593087D01*
Y303000D01*
X596343D01*
Y306256D01*
D02*
G37*
G36*
X483334Y304084D02*
X481444D01*
Y302193D01*
X482303Y302550D01*
X482978Y303225D01*
X483334Y304084D01*
D02*
G37*
G36*
X480443D02*
X478553D01*
X478909Y303225D01*
X479584Y302550D01*
X480443Y302193D01*
Y304084D01*
D02*
G37*
G36*
X511891Y304000D02*
X510000D01*
Y302109D01*
X510859Y302465D01*
X511535Y303140D01*
X511891Y304000D01*
D02*
G37*
G36*
X509000D02*
X507109D01*
X507465Y303140D01*
X508141Y302465D01*
X509000Y302109D01*
Y304000D01*
D02*
G37*
G36*
X353027Y302500D02*
X353000D01*
Y299000D01*
X356500D01*
Y299027D01*
X356227Y300044D01*
X355701Y300956D01*
X354956Y301701D01*
X354044Y302227D01*
X353027Y302500D01*
D02*
G37*
G36*
X600598Y302000D02*
X597342D01*
Y298744D01*
X600598D01*
Y302000D01*
D02*
G37*
G36*
X596343D02*
X593087D01*
Y298744D01*
X596343D01*
Y302000D01*
D02*
G37*
G36*
X587495Y306256D02*
X586506D01*
X585550Y306000D01*
X584694Y305505D01*
X583994Y304806D01*
X583500Y303950D01*
X583244Y302994D01*
Y302006D01*
X583500Y301050D01*
X583994Y300194D01*
X584694Y299495D01*
X585550Y299000D01*
X586506Y298744D01*
X587495D01*
X588450Y299000D01*
X589306Y299495D01*
X590005Y300194D01*
X590500Y301050D01*
X590756Y302006D01*
Y302994D01*
X590500Y303950D01*
X590005Y304806D01*
X589306Y305505D01*
X588450Y306000D01*
X587495Y306256D01*
D02*
G37*
G36*
X577652D02*
X576663D01*
X575708Y306000D01*
X574851Y305505D01*
X574152Y304806D01*
X573658Y303950D01*
X573402Y302994D01*
Y302006D01*
X573658Y301050D01*
X574152Y300194D01*
X574851Y299495D01*
X575708Y299000D01*
X576663Y298744D01*
X577652D01*
X578607Y299000D01*
X579464Y299495D01*
X580163Y300194D01*
X580657Y301050D01*
X580913Y302006D01*
Y302994D01*
X580657Y303950D01*
X580163Y304806D01*
X579464Y305505D01*
X578607Y306000D01*
X577652Y306256D01*
D02*
G37*
G36*
X567809D02*
X566820D01*
X565865Y306000D01*
X565009Y305505D01*
X564310Y304806D01*
X563815Y303950D01*
X563559Y302994D01*
Y302006D01*
X563815Y301050D01*
X564310Y300194D01*
X565009Y299495D01*
X565865Y299000D01*
X566820Y298744D01*
X567809D01*
X568765Y299000D01*
X569621Y299495D01*
X570320Y300194D01*
X570815Y301050D01*
X571071Y302006D01*
Y302994D01*
X570815Y303950D01*
X570320Y304806D01*
X569621Y305505D01*
X568765Y306000D01*
X567809Y306256D01*
D02*
G37*
G36*
X538977Y300400D02*
X538023D01*
X537141Y300035D01*
X536635Y299529D01*
X517500D01*
X516915Y299413D01*
X516895Y299400D01*
X516023D01*
X515140Y299035D01*
X514465Y298359D01*
X514100Y297477D01*
Y296523D01*
X514465Y295640D01*
X515140Y294965D01*
X516023Y294600D01*
X516977D01*
X517860Y294965D01*
X518535Y295640D01*
X518879Y296471D01*
X536635D01*
X537141Y295965D01*
X538023Y295600D01*
X538977D01*
X539859Y295965D01*
X540535Y296640D01*
X540900Y297523D01*
Y298477D01*
X540535Y299359D01*
X539859Y300035D01*
X538977Y300400D01*
D02*
G37*
G36*
X356500Y298000D02*
X353000D01*
Y294500D01*
X353027D01*
X354044Y294773D01*
X354956Y295299D01*
X355701Y296044D01*
X356227Y296956D01*
X356500Y297973D01*
Y298000D01*
D02*
G37*
G36*
X263027Y302500D02*
X261973D01*
X260956Y302227D01*
X260044Y301701D01*
X259299Y300956D01*
X258773Y300044D01*
X258500Y299026D01*
Y297973D01*
X258773Y296956D01*
X259299Y296044D01*
X260044Y295299D01*
X260956Y294773D01*
X261973Y294500D01*
X263027D01*
X264044Y294773D01*
X264956Y295299D01*
X265701Y296044D01*
X266227Y296956D01*
X266500Y297973D01*
Y299026D01*
X266227Y300044D01*
X265701Y300956D01*
X264956Y301701D01*
X264044Y302227D01*
X263027Y302500D01*
D02*
G37*
G36*
X574549Y290518D02*
Y288627D01*
X576439D01*
X576083Y289487D01*
X575408Y290162D01*
X574549Y290518D01*
D02*
G37*
G36*
X573549D02*
X572689Y290162D01*
X572014Y289487D01*
X571658Y288627D01*
X573549D01*
Y290518D01*
D02*
G37*
G36*
X636023Y314000D02*
X633977D01*
X631956Y313680D01*
X630010Y313048D01*
X628187Y312119D01*
X626531Y310916D01*
X625084Y309469D01*
X623881Y307814D01*
X622952Y305990D01*
X622320Y304044D01*
X622000Y302023D01*
Y299977D01*
X622320Y297956D01*
X622952Y296010D01*
X623881Y294186D01*
X625084Y292531D01*
X626531Y291084D01*
X628187Y289881D01*
X630010Y288952D01*
X631956Y288320D01*
X633977Y288000D01*
X636023D01*
X638044Y288320D01*
X639990Y288952D01*
X641814Y289881D01*
X643469Y291084D01*
X644916Y292531D01*
X646119Y294186D01*
X647048Y296010D01*
X647680Y297956D01*
X648000Y299977D01*
Y302023D01*
X647680Y304044D01*
X647048Y305990D01*
X646119Y307814D01*
X644916Y309469D01*
X643469Y310916D01*
X641814Y312119D01*
X639990Y313048D01*
X638044Y313680D01*
X636023Y314000D01*
D02*
G37*
G36*
X597000Y288891D02*
Y287000D01*
X598891D01*
X598535Y287860D01*
X597859Y288535D01*
X597000Y288891D01*
D02*
G37*
G36*
X596000D02*
X595141Y288535D01*
X594465Y287860D01*
X594109Y287000D01*
X596000D01*
Y288891D01*
D02*
G37*
G36*
X576439Y287627D02*
X574549D01*
Y285737D01*
X575408Y286093D01*
X576083Y286768D01*
X576439Y287627D01*
D02*
G37*
G36*
X573549D02*
X571658D01*
X572014Y286768D01*
X572689Y286093D01*
X573549Y285737D01*
Y287627D01*
D02*
G37*
G36*
X353027Y292500D02*
X351973D01*
X350956Y292227D01*
X350044Y291701D01*
X349299Y290956D01*
X348773Y290044D01*
X348500Y289027D01*
Y287973D01*
X348773Y286956D01*
X349299Y286044D01*
X350044Y285299D01*
X350956Y284773D01*
X351973Y284500D01*
X353027D01*
X354044Y284773D01*
X354956Y285299D01*
X355701Y286044D01*
X356227Y286956D01*
X356500Y287973D01*
Y289027D01*
X356227Y290044D01*
X355701Y290956D01*
X354956Y291701D01*
X354044Y292227D01*
X353027Y292500D01*
D02*
G37*
G36*
X263027Y292500D02*
X261973D01*
X260956Y292227D01*
X260044Y291701D01*
X259299Y290956D01*
X258773Y290044D01*
X258500Y289026D01*
Y287973D01*
X258773Y286956D01*
X259299Y286044D01*
X260044Y285299D01*
X260956Y284772D01*
X261973Y284500D01*
X263027D01*
X264044Y284772D01*
X264956Y285299D01*
X265701Y286044D01*
X266227Y286956D01*
X266500Y287973D01*
Y289026D01*
X266227Y290044D01*
X265701Y290956D01*
X264956Y291701D01*
X264044Y292227D01*
X263027Y292500D01*
D02*
G37*
G36*
X598891Y286000D02*
X597000D01*
Y284109D01*
X597859Y284465D01*
X598535Y285140D01*
X598891Y286000D01*
D02*
G37*
G36*
X596000D02*
X594109D01*
X594465Y285140D01*
X595141Y284465D01*
X596000Y284109D01*
Y286000D01*
D02*
G37*
G36*
X491477Y308400D02*
X490523D01*
X489641Y308035D01*
X488965Y307360D01*
X488600Y306477D01*
Y305523D01*
X488965Y304641D01*
X489471Y304135D01*
Y289000D01*
X489587Y288415D01*
X489919Y287919D01*
X503100Y274737D01*
Y274023D01*
X503465Y273141D01*
X504141Y272465D01*
X505023Y272100D01*
X505977D01*
X506859Y272465D01*
X507535Y273141D01*
X507900Y274023D01*
Y274977D01*
X507535Y275859D01*
X506859Y276535D01*
X505977Y276900D01*
X505263D01*
X492529Y289633D01*
Y294970D01*
X493029Y295304D01*
X493523Y295100D01*
X494237D01*
X506574Y282763D01*
X506759Y282640D01*
X506965Y282140D01*
X507641Y281465D01*
X508523Y281100D01*
X509477D01*
X510359Y281465D01*
X511035Y282140D01*
X511400Y283023D01*
Y283977D01*
X511035Y284859D01*
X510359Y285535D01*
X509477Y285900D01*
X508523D01*
X507985Y285678D01*
X496400Y297263D01*
Y297977D01*
X496035Y298860D01*
X495360Y299535D01*
X494477Y299900D01*
X493523D01*
X493029Y299696D01*
X492529Y300030D01*
Y304135D01*
X493035Y304641D01*
X493400Y305523D01*
Y306477D01*
X493035Y307360D01*
X492359Y308035D01*
X491477Y308400D01*
D02*
G37*
G36*
X666500Y281391D02*
Y279500D01*
X668391D01*
X668035Y280360D01*
X667359Y281035D01*
X666500Y281391D01*
D02*
G37*
G36*
X665500D02*
X664641Y281035D01*
X663965Y280360D01*
X663609Y279500D01*
X665500D01*
Y281391D01*
D02*
G37*
G36*
X682928Y285520D02*
X681939D01*
X680983Y285264D01*
X680127Y284769D01*
X679428Y284070D01*
X678933Y283213D01*
X678677Y282258D01*
Y281269D01*
X678933Y280314D01*
X679428Y279458D01*
X680127Y278758D01*
X680983Y278264D01*
X681939Y278008D01*
X682928D01*
X683883Y278264D01*
X684739Y278758D01*
X685438Y279458D01*
X685933Y280314D01*
X686189Y281269D01*
Y282258D01*
X685933Y283213D01*
X685438Y284070D01*
X684739Y284769D01*
X683883Y285264D01*
X682928Y285520D01*
D02*
G37*
G36*
X668391Y278500D02*
X666500D01*
Y276609D01*
X667359Y276965D01*
X668035Y277641D01*
X668391Y278500D01*
D02*
G37*
G36*
X665500D02*
X663609D01*
X663965Y277641D01*
X664641Y276965D01*
X665500Y276609D01*
Y278500D01*
D02*
G37*
G36*
X616000Y276891D02*
Y275000D01*
X617891D01*
X617535Y275859D01*
X616859Y276535D01*
X616000Y276891D01*
D02*
G37*
G36*
X615000D02*
X614141Y276535D01*
X613465Y275859D01*
X613109Y275000D01*
X615000D01*
Y276891D01*
D02*
G37*
G36*
X353027Y282500D02*
X351973D01*
X350956Y282227D01*
X350044Y281701D01*
X349299Y280956D01*
X348773Y280044D01*
X348500Y279027D01*
Y277973D01*
X348773Y276956D01*
X349299Y276044D01*
X350044Y275299D01*
X350956Y274773D01*
X351973Y274500D01*
X353027D01*
X354044Y274773D01*
X354956Y275299D01*
X355701Y276044D01*
X356227Y276956D01*
X356500Y277973D01*
Y279027D01*
X356227Y280044D01*
X355701Y280956D01*
X354956Y281701D01*
X354044Y282227D01*
X353027Y282500D01*
D02*
G37*
G36*
X263027Y282500D02*
X261973D01*
X260956Y282227D01*
X260044Y281701D01*
X259299Y280956D01*
X258773Y280044D01*
X258500Y279027D01*
Y277973D01*
X258773Y276956D01*
X259299Y276044D01*
X260044Y275299D01*
X260956Y274773D01*
X261973Y274500D01*
X263027D01*
X264044Y274773D01*
X264956Y275299D01*
X265701Y276044D01*
X266227Y276956D01*
X266500Y277973D01*
Y279027D01*
X266227Y280044D01*
X265701Y280956D01*
X264956Y281701D01*
X264044Y282227D01*
X263027Y282500D01*
D02*
G37*
G36*
X617891Y274000D02*
X616000D01*
Y272109D01*
X616859Y272465D01*
X617535Y273141D01*
X617891Y274000D01*
D02*
G37*
G36*
X615000D02*
X613109D01*
X613465Y273141D01*
X614141Y272465D01*
X615000Y272109D01*
Y274000D01*
D02*
G37*
G36*
X555977Y280400D02*
X555023D01*
X554141Y280035D01*
X553465Y279360D01*
X553100Y278477D01*
Y278123D01*
X546261Y271284D01*
X536610D01*
X536360Y271535D01*
X535477Y271900D01*
X534523D01*
X533640Y271535D01*
X532965Y270860D01*
X532600Y269977D01*
Y269023D01*
X532965Y268141D01*
X533640Y267465D01*
X534523Y267100D01*
X535477D01*
X536360Y267465D01*
X536610Y267716D01*
X547000D01*
X547683Y267851D01*
X548262Y268238D01*
X555623Y275600D01*
X555977D01*
X556859Y275965D01*
X557535Y276641D01*
X557900Y277523D01*
Y278477D01*
X557535Y279360D01*
X556859Y280035D01*
X555977Y280400D01*
D02*
G37*
G36*
X682928Y275677D02*
X681939D01*
X680983Y275421D01*
X680127Y274927D01*
X679428Y274227D01*
X678933Y273371D01*
X678677Y272416D01*
Y271427D01*
X678933Y270472D01*
X679428Y269615D01*
X680127Y268916D01*
X680983Y268421D01*
X681939Y268165D01*
X682928D01*
X683883Y268421D01*
X684739Y268916D01*
X685438Y269615D01*
X685933Y270472D01*
X686189Y271427D01*
Y272416D01*
X685933Y273371D01*
X685438Y274227D01*
X684739Y274927D01*
X683883Y275421D01*
X682928Y275677D01*
D02*
G37*
G36*
X666500Y268891D02*
Y267000D01*
X668391D01*
X668035Y267860D01*
X667359Y268535D01*
X666500Y268891D01*
D02*
G37*
G36*
X665500D02*
X664641Y268535D01*
X663965Y267860D01*
X663609Y267000D01*
X665500D01*
Y268891D01*
D02*
G37*
G36*
X525977Y269900D02*
X525023D01*
X524141Y269535D01*
X523890Y269284D01*
X509500D01*
X508817Y269148D01*
X508238Y268762D01*
X508238Y268762D01*
X493761Y254284D01*
X474110D01*
X473860Y254535D01*
X472977Y254900D01*
X472023D01*
X471140Y254535D01*
X470465Y253859D01*
X470100Y252977D01*
Y252023D01*
X470465Y251140D01*
X471140Y250465D01*
X472023Y250100D01*
X472977D01*
X473860Y250465D01*
X474110Y250716D01*
X494500D01*
X495183Y250851D01*
X495762Y251238D01*
X510239Y265716D01*
X523890D01*
X524141Y265465D01*
X525023Y265100D01*
X525977D01*
X526860Y265465D01*
X527535Y266141D01*
X527900Y267023D01*
Y267977D01*
X527535Y268860D01*
X526860Y269535D01*
X525977Y269900D01*
D02*
G37*
G36*
X493977Y265900D02*
X493023D01*
X492140Y265535D01*
X491635Y265029D01*
X473865D01*
X473359Y265535D01*
X472477Y265900D01*
X471523D01*
X470641Y265535D01*
X469965Y264860D01*
X469600Y263977D01*
Y263023D01*
X469965Y262140D01*
X470641Y261465D01*
X471523Y261100D01*
X472477D01*
X473359Y261465D01*
X473865Y261971D01*
X491635D01*
X492140Y261465D01*
X493023Y261100D01*
X493977D01*
X494860Y261465D01*
X495535Y262140D01*
X495900Y263023D01*
Y263977D01*
X495535Y264860D01*
X494860Y265535D01*
X493977Y265900D01*
D02*
G37*
G36*
X353027Y272500D02*
X351973D01*
X350956Y272227D01*
X350044Y271701D01*
X349299Y270956D01*
X348773Y270044D01*
X348500Y269027D01*
Y267973D01*
X348773Y266956D01*
X349299Y266044D01*
X350044Y265299D01*
X350956Y264773D01*
X351973Y264500D01*
X353027D01*
X354044Y264773D01*
X354956Y265299D01*
X355701Y266044D01*
X356227Y266956D01*
X356500Y267973D01*
Y269027D01*
X356227Y270044D01*
X355701Y270956D01*
X354956Y271701D01*
X354044Y272227D01*
X353027Y272500D01*
D02*
G37*
G36*
X263027Y272500D02*
X261973D01*
X260956Y272227D01*
X260044Y271701D01*
X259299Y270956D01*
X258773Y270044D01*
X258500Y269026D01*
Y267973D01*
X258773Y266956D01*
X259299Y266044D01*
X260044Y265299D01*
X260956Y264773D01*
X261973Y264500D01*
X263027D01*
X264044Y264773D01*
X264956Y265299D01*
X265701Y266044D01*
X266227Y266956D01*
X266500Y267973D01*
Y269026D01*
X266227Y270044D01*
X265701Y270956D01*
X264956Y271701D01*
X264044Y272227D01*
X263027Y272500D01*
D02*
G37*
G36*
X668391Y266000D02*
X666500D01*
Y264109D01*
X667359Y264465D01*
X668035Y265141D01*
X668391Y266000D01*
D02*
G37*
G36*
X665500D02*
X663609D01*
X663965Y265141D01*
X664641Y264465D01*
X665500Y264109D01*
Y266000D01*
D02*
G37*
G36*
X544000Y262391D02*
Y260500D01*
X545891D01*
X545535Y261360D01*
X544860Y262035D01*
X544000Y262391D01*
D02*
G37*
G36*
X543000D02*
X542140Y262035D01*
X541465Y261360D01*
X541109Y260500D01*
X543000D01*
Y262391D01*
D02*
G37*
G36*
X656500Y261391D02*
Y259500D01*
X658391D01*
X658035Y260360D01*
X657360Y261035D01*
X656500Y261391D01*
D02*
G37*
G36*
X655500D02*
X654640Y261035D01*
X653965Y260360D01*
X653609Y259500D01*
X655500D01*
Y261391D01*
D02*
G37*
G36*
X534000Y260891D02*
Y259000D01*
X535891D01*
X535535Y259859D01*
X534860Y260535D01*
X534000Y260891D01*
D02*
G37*
G36*
X533000D02*
X532140Y260535D01*
X531465Y259859D01*
X531109Y259000D01*
X533000D01*
Y260891D01*
D02*
G37*
G36*
X524500D02*
Y259000D01*
X526391D01*
X526035Y259859D01*
X525359Y260535D01*
X524500Y260891D01*
D02*
G37*
G36*
X523500D02*
X522641Y260535D01*
X521965Y259859D01*
X521609Y259000D01*
X523500D01*
Y260891D01*
D02*
G37*
G36*
X682928Y265835D02*
X681939D01*
X680983Y265579D01*
X680127Y265084D01*
X679428Y264385D01*
X678933Y263528D01*
X678677Y262573D01*
Y261584D01*
X678933Y260629D01*
X679428Y259773D01*
X680127Y259073D01*
X680983Y258579D01*
X681939Y258323D01*
X682928D01*
X683883Y258579D01*
X684739Y259073D01*
X685438Y259773D01*
X685933Y260629D01*
X686189Y261584D01*
Y262573D01*
X685933Y263528D01*
X685438Y264385D01*
X684739Y265084D01*
X683883Y265579D01*
X682928Y265835D01*
D02*
G37*
G36*
X417723Y262988D02*
X417500D01*
Y258000D01*
X422488D01*
Y258223D01*
X422114Y259618D01*
X421392Y260870D01*
X420370Y261892D01*
X419118Y262614D01*
X417723Y262988D01*
D02*
G37*
G36*
X416500D02*
X416278D01*
X414882Y262614D01*
X413630Y261892D01*
X412608Y260870D01*
X411886Y259618D01*
X411512Y258223D01*
Y258000D01*
X416500D01*
Y262988D01*
D02*
G37*
G36*
X545891Y259500D02*
X544000D01*
Y257609D01*
X544860Y257965D01*
X545535Y258641D01*
X545891Y259500D01*
D02*
G37*
G36*
X543000D02*
X541109D01*
X541465Y258641D01*
X542140Y257965D01*
X543000Y257609D01*
Y259500D01*
D02*
G37*
G36*
X658391Y258500D02*
X656500D01*
Y256609D01*
X657360Y256965D01*
X658035Y257641D01*
X658391Y258500D01*
D02*
G37*
G36*
X655500D02*
X653609D01*
X653965Y257641D01*
X654640Y256965D01*
X655500Y256609D01*
Y258500D01*
D02*
G37*
G36*
X535891Y258000D02*
X534000D01*
Y256109D01*
X534860Y256465D01*
X535535Y257140D01*
X535891Y258000D01*
D02*
G37*
G36*
X533000D02*
X531109D01*
X531465Y257140D01*
X532140Y256465D01*
X533000Y256109D01*
Y258000D01*
D02*
G37*
G36*
X526391D02*
X524500D01*
Y256109D01*
X525359Y256465D01*
X526035Y257140D01*
X526391Y258000D01*
D02*
G37*
G36*
X523500D02*
X521609D01*
X521965Y257140D01*
X522641Y256465D01*
X523500Y256109D01*
Y258000D01*
D02*
G37*
G36*
X353027Y262500D02*
X351973D01*
X350956Y262227D01*
X350044Y261701D01*
X349299Y260956D01*
X348773Y260044D01*
X348500Y259027D01*
Y257973D01*
X348773Y256956D01*
X349299Y256044D01*
X350044Y255299D01*
X350956Y254773D01*
X351973Y254500D01*
X353027D01*
X354044Y254773D01*
X354956Y255299D01*
X355701Y256044D01*
X356227Y256956D01*
X356500Y257973D01*
Y259027D01*
X356227Y260044D01*
X355701Y260956D01*
X354956Y261701D01*
X354044Y262227D01*
X353027Y262500D01*
D02*
G37*
G36*
X263027Y262500D02*
X261973D01*
X260956Y262227D01*
X260044Y261701D01*
X259299Y260956D01*
X258773Y260044D01*
X258500Y259027D01*
Y257973D01*
X258773Y256956D01*
X259299Y256044D01*
X260044Y255299D01*
X260956Y254772D01*
X261973Y254500D01*
X263027D01*
X264044Y254772D01*
X264956Y255299D01*
X265701Y256044D01*
X266227Y256956D01*
X266500Y257973D01*
Y259027D01*
X266227Y260044D01*
X265701Y260956D01*
X264956Y261701D01*
X264044Y262227D01*
X263027Y262500D01*
D02*
G37*
G36*
X686189Y255992D02*
X682933D01*
Y252736D01*
X686189D01*
Y255992D01*
D02*
G37*
G36*
X681933D02*
X678677D01*
Y252736D01*
X681933D01*
Y255992D01*
D02*
G37*
G36*
X422488Y257000D02*
X417500D01*
Y252012D01*
X417723D01*
X419118Y252386D01*
X420370Y253108D01*
X421392Y254130D01*
X422114Y255382D01*
X422488Y256778D01*
Y257000D01*
D02*
G37*
G36*
X416500D02*
X411512D01*
Y256778D01*
X411886Y255382D01*
X412608Y254130D01*
X413630Y253108D01*
X414882Y252386D01*
X416278Y252012D01*
X416500D01*
Y257000D01*
D02*
G37*
G36*
X563000Y252891D02*
Y251000D01*
X564891D01*
X564535Y251859D01*
X563860Y252535D01*
X563000Y252891D01*
D02*
G37*
G36*
X562000D02*
X561140Y252535D01*
X560465Y251859D01*
X560109Y251000D01*
X562000D01*
Y252891D01*
D02*
G37*
G36*
X686189Y251736D02*
X682933D01*
Y248480D01*
X686189D01*
Y251736D01*
D02*
G37*
G36*
X681933D02*
X678677D01*
Y248480D01*
X681933D01*
Y251736D01*
D02*
G37*
G36*
X564891Y250000D02*
X563000D01*
Y248109D01*
X563860Y248465D01*
X564535Y249141D01*
X564891Y250000D01*
D02*
G37*
G36*
X562000D02*
X560109D01*
X560465Y249141D01*
X561140Y248465D01*
X562000Y248109D01*
Y250000D01*
D02*
G37*
G36*
X510977Y254400D02*
X510023D01*
X509140Y254035D01*
X508465Y253360D01*
X508100Y252477D01*
Y251523D01*
X508465Y250641D01*
X509140Y249965D01*
X510023Y249600D01*
X510977D01*
X511860Y249965D01*
X512365Y250471D01*
X515223D01*
X516117Y249577D01*
Y248863D01*
X516482Y247981D01*
X517157Y247305D01*
X518039Y246940D01*
X518994D01*
X519876Y247305D01*
X520551Y247981D01*
X520917Y248863D01*
Y249817D01*
X520551Y250699D01*
X519876Y251375D01*
X518994Y251740D01*
X518279D01*
X516938Y253081D01*
X516442Y253413D01*
X515857Y253529D01*
X512365D01*
X511860Y254035D01*
X510977Y254400D01*
D02*
G37*
G36*
X353027Y252500D02*
X351973D01*
X350956Y252227D01*
X350044Y251701D01*
X349299Y250956D01*
X348773Y250044D01*
X348500Y249027D01*
Y247973D01*
X348773Y246956D01*
X349299Y246044D01*
X350044Y245299D01*
X350956Y244773D01*
X351973Y244500D01*
X353027D01*
X354044Y244773D01*
X354956Y245299D01*
X355701Y246044D01*
X356227Y246956D01*
X356500Y247973D01*
Y249027D01*
X356227Y250044D01*
X355701Y250956D01*
X354956Y251701D01*
X354044Y252227D01*
X353027Y252500D01*
D02*
G37*
G36*
X263027Y252500D02*
X261973D01*
X260956Y252227D01*
X260044Y251701D01*
X259299Y250956D01*
X258773Y250044D01*
X258500Y249026D01*
Y247973D01*
X258773Y246956D01*
X259299Y246044D01*
X260044Y245299D01*
X260956Y244773D01*
X261973Y244500D01*
X263027D01*
X264044Y244773D01*
X264956Y245299D01*
X265701Y246044D01*
X266227Y246956D01*
X266500Y247973D01*
Y249026D01*
X266227Y250044D01*
X265701Y250956D01*
X264956Y251701D01*
X264044Y252227D01*
X263027Y252500D01*
D02*
G37*
G36*
X353027Y242500D02*
X353000D01*
Y239000D01*
X356500D01*
Y239027D01*
X356227Y240044D01*
X355701Y240956D01*
X354956Y241701D01*
X354044Y242227D01*
X353027Y242500D01*
D02*
G37*
G36*
X352000D02*
X351973D01*
X350956Y242227D01*
X350044Y241701D01*
X349299Y240956D01*
X348773Y240044D01*
X348500Y239027D01*
Y239000D01*
X352000D01*
Y242500D01*
D02*
G37*
G36*
X525977Y241400D02*
X525023D01*
X524141Y241035D01*
X523465Y240359D01*
X523100Y239477D01*
Y238864D01*
X522765Y238529D01*
X501365D01*
X500859Y239035D01*
X499977Y239400D01*
X499023D01*
X498140Y239035D01*
X497465Y238359D01*
X497100Y237477D01*
Y236523D01*
X497465Y235641D01*
X498140Y234965D01*
X499023Y234600D01*
X499977D01*
X500859Y234965D01*
X501365Y235471D01*
X523399D01*
X523984Y235587D01*
X524480Y235919D01*
X525162Y236600D01*
X525977D01*
X526860Y236965D01*
X527535Y237641D01*
X527900Y238523D01*
Y239477D01*
X527535Y240359D01*
X526860Y241035D01*
X525977Y241400D01*
D02*
G37*
G36*
X619000Y239391D02*
Y237500D01*
X620891D01*
X620535Y238359D01*
X619860Y239035D01*
X619000Y239391D01*
D02*
G37*
G36*
X618000D02*
X617140Y239035D01*
X616465Y238359D01*
X616109Y237500D01*
X618000D01*
Y239391D01*
D02*
G37*
G36*
X620891Y236500D02*
X619000D01*
Y234609D01*
X619860Y234965D01*
X620535Y235641D01*
X620891Y236500D01*
D02*
G37*
G36*
X618000D02*
X616109D01*
X616465Y235641D01*
X617140Y234965D01*
X618000Y234609D01*
Y236500D01*
D02*
G37*
G36*
X356500Y238000D02*
X353000D01*
Y234500D01*
X353027D01*
X354044Y234773D01*
X354956Y235299D01*
X355701Y236044D01*
X356227Y236956D01*
X356500Y237973D01*
Y238000D01*
D02*
G37*
G36*
X352000D02*
X348500D01*
Y237973D01*
X348773Y236956D01*
X349299Y236044D01*
X350044Y235299D01*
X350956Y234773D01*
X351973Y234500D01*
X352000D01*
Y238000D01*
D02*
G37*
G36*
X263027Y242500D02*
X261973D01*
X260956Y242227D01*
X260044Y241701D01*
X259299Y240956D01*
X258773Y240044D01*
X258500Y239026D01*
Y237973D01*
X258773Y236956D01*
X259299Y236044D01*
X260044Y235299D01*
X260956Y234772D01*
X261973Y234500D01*
X263027D01*
X264044Y234772D01*
X264956Y235299D01*
X265701Y236044D01*
X266227Y236956D01*
X266500Y237973D01*
Y239026D01*
X266227Y240044D01*
X265701Y240956D01*
X264956Y241701D01*
X264044Y242227D01*
X263027Y242500D01*
D02*
G37*
G36*
X492075Y237672D02*
X488925D01*
X488253Y237583D01*
X487627Y237324D01*
X487089Y236911D01*
X486676Y236373D01*
X486417Y235747D01*
X486328Y235075D01*
Y231925D01*
X486417Y231253D01*
X486676Y230627D01*
X487089Y230089D01*
X487627Y229676D01*
X488253Y229417D01*
X488925Y229328D01*
X492075D01*
X492747Y229417D01*
X493373Y229676D01*
X493911Y230089D01*
X494324Y230627D01*
X494583Y231253D01*
X494672Y231925D01*
Y235075D01*
X494583Y235747D01*
X494324Y236373D01*
X493911Y236911D01*
X493373Y237324D01*
X492747Y237583D01*
X492075Y237672D01*
D02*
G37*
G36*
X353027Y232500D02*
X353000D01*
Y229000D01*
X356500D01*
Y229027D01*
X356227Y230044D01*
X355701Y230956D01*
X354956Y231701D01*
X354044Y232227D01*
X353027Y232500D01*
D02*
G37*
G36*
X352000D02*
X351973D01*
X350956Y232227D01*
X350044Y231701D01*
X349299Y230956D01*
X348773Y230044D01*
X348500Y229027D01*
Y229000D01*
X352000D01*
Y232500D01*
D02*
G37*
G36*
X543500Y230391D02*
Y228500D01*
X545391D01*
X545035Y229360D01*
X544359Y230035D01*
X543500Y230391D01*
D02*
G37*
G36*
X542500D02*
X541641Y230035D01*
X540965Y229360D01*
X540609Y228500D01*
X542500D01*
Y230391D01*
D02*
G37*
G36*
X506041Y229930D02*
Y228039D01*
X507932D01*
X507576Y228899D01*
X506901Y229574D01*
X506041Y229930D01*
D02*
G37*
G36*
X505041D02*
X504182Y229574D01*
X503507Y228899D01*
X503151Y228039D01*
X505041D01*
Y229930D01*
D02*
G37*
G36*
X680543Y232650D02*
X679709D01*
X678904Y232434D01*
X678182Y232017D01*
X677593Y231428D01*
X677176Y230706D01*
X676961Y229901D01*
Y229067D01*
X677176Y228262D01*
X677593Y227541D01*
X678182Y226951D01*
X678904Y226535D01*
X679709Y226319D01*
X680543D01*
X681348Y226535D01*
X682069Y226951D01*
X682659Y227541D01*
X683076Y228262D01*
X683291Y229067D01*
Y229901D01*
X683076Y230706D01*
X682659Y231428D01*
X682069Y232017D01*
X681348Y232434D01*
X680543Y232650D01*
D02*
G37*
G36*
X545391Y227500D02*
X543500D01*
Y225609D01*
X544359Y225965D01*
X545035Y226641D01*
X545391Y227500D01*
D02*
G37*
G36*
X542500D02*
X540609D01*
X540965Y226641D01*
X541641Y225965D01*
X542500Y225609D01*
Y227500D01*
D02*
G37*
G36*
X549977Y230400D02*
X549023D01*
X548140Y230035D01*
X547465Y229360D01*
X547100Y228477D01*
Y227763D01*
X544367Y225029D01*
X507060D01*
X506934Y225405D01*
X506925Y225529D01*
X507576Y226180D01*
X507932Y227039D01*
X503151D01*
X503507Y226180D01*
X504157Y225529D01*
X504148Y225405D01*
X504023Y225029D01*
X494386D01*
X494367Y225102D01*
X493820Y226048D01*
X493048Y226820D01*
X492102Y227367D01*
X491046Y227650D01*
X489954D01*
X488898Y227367D01*
X487952Y226820D01*
X487180Y226048D01*
X486633Y225102D01*
X486350Y224046D01*
Y222954D01*
X486633Y221898D01*
X487180Y220952D01*
X487290Y220842D01*
X487099Y220380D01*
X479783D01*
X478900Y221263D01*
Y221977D01*
X478535Y222860D01*
X477859Y223535D01*
X476977Y223900D01*
X476023D01*
X475140Y223535D01*
X474465Y222860D01*
X474100Y221977D01*
Y221023D01*
X474465Y220141D01*
X475140Y219465D01*
X476023Y219100D01*
X476737D01*
X478068Y217769D01*
X478564Y217437D01*
X479150Y217321D01*
X487853D01*
X487982Y216838D01*
X487952Y216821D01*
X487180Y216048D01*
X486633Y215102D01*
X486350Y214046D01*
Y212954D01*
X486633Y211898D01*
X487180Y210952D01*
X487290Y210842D01*
X487099Y210380D01*
X480783D01*
X477900Y213263D01*
Y213977D01*
X477535Y214860D01*
X476860Y215535D01*
X475977Y215900D01*
X475023D01*
X474141Y215535D01*
X473465Y214860D01*
X473100Y213977D01*
Y213023D01*
X473465Y212140D01*
X474141Y211465D01*
X475023Y211100D01*
X475737D01*
X479068Y207769D01*
X479564Y207437D01*
X480150Y207321D01*
X487853D01*
X487982Y206838D01*
X487952Y206821D01*
X487180Y206048D01*
X486633Y205102D01*
X486350Y204046D01*
Y202954D01*
X486633Y201898D01*
X487180Y200952D01*
X487285Y200847D01*
X487094Y200385D01*
X478509D01*
X477859Y201035D01*
X476977Y201400D01*
X476023D01*
X475140Y201035D01*
X474465Y200360D01*
X474100Y199477D01*
Y198523D01*
X474465Y197641D01*
X475140Y196965D01*
X476023Y196600D01*
X476977D01*
X477603Y196859D01*
X477819Y196816D01*
X487294D01*
X487486Y196354D01*
X487180Y196048D01*
X486633Y195102D01*
X486350Y194046D01*
Y194000D01*
X490500D01*
X494650D01*
Y194046D01*
X494367Y195102D01*
X493820Y196048D01*
X493514Y196354D01*
X493706Y196816D01*
X510698D01*
X511381Y196952D01*
X511960Y197339D01*
X514336Y199716D01*
X546390D01*
X546640Y199465D01*
X547523Y199100D01*
X548477D01*
X549360Y199465D01*
X550035Y200141D01*
X550400Y201023D01*
Y201977D01*
X550035Y202859D01*
X549360Y203535D01*
X548477Y203900D01*
X547523D01*
X546640Y203535D01*
X546390Y203284D01*
X513597D01*
X513597Y203284D01*
X512915Y203149D01*
X512336Y202762D01*
X512336Y202762D01*
X509959Y200385D01*
X493906D01*
X493715Y200847D01*
X493820Y200952D01*
X494367Y201898D01*
X494650Y202954D01*
Y204046D01*
X494367Y205102D01*
X493820Y206048D01*
X493048Y206821D01*
X493018Y206838D01*
X493147Y207321D01*
X497969D01*
X498554Y207437D01*
X499050Y207769D01*
X505752Y214471D01*
X513135D01*
X513640Y213965D01*
X514523Y213600D01*
X515477D01*
X516360Y213965D01*
X517035Y214640D01*
X517198Y215034D01*
X517787Y215151D01*
X521600Y211338D01*
Y210523D01*
X521804Y210029D01*
X521470Y209529D01*
X517435D01*
X516900Y210064D01*
Y210477D01*
X516535Y211360D01*
X515860Y212035D01*
X514977Y212400D01*
X514023D01*
X513140Y212035D01*
X512465Y211360D01*
X512100Y210477D01*
Y209523D01*
X512465Y208641D01*
X513140Y207965D01*
X514023Y207600D01*
X514977D01*
X515021Y207618D01*
X515720Y206919D01*
X516216Y206587D01*
X516801Y206471D01*
X561635D01*
X562141Y205965D01*
X563023Y205600D01*
X563977D01*
X564859Y205965D01*
X565535Y206641D01*
X565900Y207523D01*
Y208477D01*
X565535Y209360D01*
X564859Y210035D01*
X563977Y210400D01*
X563023D01*
X562141Y210035D01*
X561635Y209529D01*
X526530D01*
X526196Y210029D01*
X526400Y210523D01*
Y211477D01*
X526035Y212359D01*
X525359Y213035D01*
X524477Y213400D01*
X523864D01*
X517283Y219981D01*
X516786Y220313D01*
X516201Y220429D01*
X497700D01*
X497451Y220380D01*
X493901D01*
X493710Y220842D01*
X493820Y220952D01*
X494367Y221898D01*
X494386Y221971D01*
X545000D01*
X545585Y222087D01*
X546081Y222419D01*
X549263Y225600D01*
X549977D01*
X550859Y225965D01*
X551535Y226641D01*
X551900Y227523D01*
Y228477D01*
X551535Y229360D01*
X550859Y230035D01*
X549977Y230400D01*
D02*
G37*
G36*
X356500Y228000D02*
X353000D01*
Y224500D01*
X353027D01*
X354044Y224773D01*
X354956Y225299D01*
X355701Y226044D01*
X356227Y226956D01*
X356500Y227973D01*
Y228000D01*
D02*
G37*
G36*
X352000D02*
X348500D01*
Y227973D01*
X348773Y226956D01*
X349299Y226044D01*
X350044Y225299D01*
X350956Y224773D01*
X351973Y224500D01*
X352000D01*
Y228000D01*
D02*
G37*
G36*
X263027Y232500D02*
X261973D01*
X260956Y232227D01*
X260044Y231701D01*
X259299Y230956D01*
X258773Y230044D01*
X258500Y229027D01*
Y227973D01*
X258773Y226956D01*
X259299Y226044D01*
X260044Y225299D01*
X260956Y224773D01*
X261973Y224500D01*
X263027D01*
X264044Y224773D01*
X264956Y225299D01*
X265701Y226044D01*
X266227Y226956D01*
X266500Y227973D01*
Y229027D01*
X266227Y230044D01*
X265701Y230956D01*
X264956Y231701D01*
X264044Y232227D01*
X263027Y232500D01*
D02*
G37*
G36*
X691756Y226941D02*
X684244D01*
Y219429D01*
X691756D01*
Y226941D01*
D02*
G37*
G36*
X636977Y236900D02*
X636023D01*
X635141Y236535D01*
X634465Y235859D01*
X634100Y234977D01*
Y234023D01*
X634465Y233140D01*
X635141Y232465D01*
X635187Y232446D01*
Y222591D01*
X634446Y222163D01*
X633691Y221409D01*
X633158Y220485D01*
X632882Y219455D01*
Y218388D01*
X633158Y217358D01*
X633176Y217327D01*
X622878Y207029D01*
X615365D01*
X614859Y207535D01*
X613977Y207900D01*
X613023D01*
X612141Y207535D01*
X611465Y206859D01*
X611100Y205977D01*
Y205023D01*
X611465Y204140D01*
X612141Y203465D01*
X613023Y203100D01*
X613977D01*
X614859Y203465D01*
X615365Y203971D01*
X623512D01*
X624097Y204087D01*
X624593Y204419D01*
X632420Y212245D01*
X632882Y212054D01*
Y209579D01*
X636433D01*
Y213130D01*
X633958D01*
X633767Y213592D01*
X635339Y215164D01*
X635369Y215146D01*
X636400Y214870D01*
X637466D01*
X638497Y215146D01*
X639421Y215680D01*
X640175Y216434D01*
X640708Y217358D01*
X640984Y218388D01*
Y219455D01*
X640708Y220485D01*
X640175Y221409D01*
X639421Y222163D01*
X638497Y222696D01*
X638246Y222764D01*
Y232852D01*
X638535Y233140D01*
X638900Y234023D01*
Y234977D01*
X638535Y235859D01*
X637859Y236535D01*
X636977Y236900D01*
D02*
G37*
G36*
X353027Y222500D02*
X351973D01*
X350956Y222227D01*
X350044Y221701D01*
X349299Y220956D01*
X348773Y220044D01*
X348500Y219027D01*
Y217973D01*
X348773Y216956D01*
X349299Y216044D01*
X350044Y215299D01*
X350956Y214773D01*
X351973Y214500D01*
X353027D01*
X354044Y214773D01*
X354956Y215299D01*
X355701Y216044D01*
X356227Y216956D01*
X356500Y217973D01*
Y219027D01*
X356227Y220044D01*
X355701Y220956D01*
X354956Y221701D01*
X354044Y222227D01*
X353027Y222500D01*
D02*
G37*
G36*
X263027Y222500D02*
X261973D01*
X260956Y222227D01*
X260044Y221701D01*
X259299Y220956D01*
X258773Y220044D01*
X258500Y219026D01*
Y217973D01*
X258773Y216956D01*
X259299Y216044D01*
X260044Y215299D01*
X260956Y214773D01*
X261973Y214500D01*
X263027D01*
X264044Y214773D01*
X264956Y215299D01*
X265701Y216044D01*
X266227Y216956D01*
X266500Y217973D01*
Y219026D01*
X266227Y220044D01*
X265701Y220956D01*
X264956Y221701D01*
X264044Y222227D01*
X263027Y222500D01*
D02*
G37*
G36*
X688494Y217098D02*
X687505D01*
X686550Y216843D01*
X685694Y216348D01*
X684995Y215649D01*
X684500Y214792D01*
X684244Y213837D01*
Y212848D01*
X684500Y211893D01*
X684995Y211036D01*
X685694Y210337D01*
X686550Y209843D01*
X687505Y209587D01*
X688494D01*
X689450Y209843D01*
X690306Y210337D01*
X691006Y211036D01*
X691500Y211893D01*
X691756Y212848D01*
Y213837D01*
X691500Y214792D01*
X691006Y215649D01*
X690306Y216348D01*
X689450Y216843D01*
X688494Y217098D01*
D02*
G37*
G36*
X640984Y213130D02*
X637433D01*
Y209579D01*
X640984D01*
Y213130D01*
D02*
G37*
G36*
Y208579D02*
X637433D01*
Y205028D01*
X640984D01*
Y208579D01*
D02*
G37*
G36*
X636433D02*
X632882D01*
Y205028D01*
X636433D01*
Y208579D01*
D02*
G37*
G36*
X353027Y212500D02*
X351973D01*
X350956Y212227D01*
X350044Y211701D01*
X349299Y210956D01*
X348773Y210044D01*
X348500Y209027D01*
Y207973D01*
X348773Y206956D01*
X349299Y206044D01*
X350044Y205299D01*
X350956Y204773D01*
X351973Y204500D01*
X353027D01*
X354044Y204773D01*
X354956Y205299D01*
X355701Y206044D01*
X356227Y206956D01*
X356500Y207973D01*
Y209027D01*
X356227Y210044D01*
X355701Y210956D01*
X354956Y211701D01*
X354044Y212227D01*
X353027Y212500D01*
D02*
G37*
G36*
X263027Y212500D02*
X261973D01*
X260956Y212227D01*
X260044Y211701D01*
X259299Y210956D01*
X258773Y210044D01*
X258500Y209027D01*
Y207973D01*
X258773Y206956D01*
X259299Y206044D01*
X260044Y205299D01*
X260956Y204772D01*
X261973Y204500D01*
X263027D01*
X264044Y204772D01*
X264956Y205299D01*
X265701Y206044D01*
X266227Y206956D01*
X266500Y207973D01*
Y209027D01*
X266227Y210044D01*
X265701Y210956D01*
X264956Y211701D01*
X264044Y212227D01*
X263027Y212500D01*
D02*
G37*
G36*
X688494Y207256D02*
X687505D01*
X686550Y207000D01*
X685694Y206505D01*
X684995Y205806D01*
X684500Y204950D01*
X684244Y203994D01*
Y203006D01*
X684500Y202050D01*
X684995Y201194D01*
X685694Y200495D01*
X686550Y200000D01*
X687505Y199744D01*
X688494D01*
X689450Y200000D01*
X690306Y200495D01*
X691006Y201194D01*
X691500Y202050D01*
X691756Y203006D01*
Y203994D01*
X691500Y204950D01*
X691006Y205806D01*
X690306Y206505D01*
X689450Y207000D01*
X688494Y207256D01*
D02*
G37*
G36*
X353027Y202500D02*
X351973D01*
X350956Y202227D01*
X350044Y201701D01*
X349299Y200956D01*
X348773Y200044D01*
X348500Y199027D01*
Y197973D01*
X348773Y196956D01*
X349299Y196044D01*
X350044Y195299D01*
X350956Y194773D01*
X351973Y194500D01*
X353027D01*
X354044Y194773D01*
X354956Y195299D01*
X355701Y196044D01*
X356227Y196956D01*
X356500Y197973D01*
Y199027D01*
X356227Y200044D01*
X355701Y200956D01*
X354956Y201701D01*
X354044Y202227D01*
X353027Y202500D01*
D02*
G37*
G36*
X263027Y202500D02*
X261973D01*
X260956Y202227D01*
X260044Y201701D01*
X259299Y200956D01*
X258773Y200044D01*
X258500Y199027D01*
Y197973D01*
X258773Y196956D01*
X259299Y196044D01*
X260044Y195299D01*
X260956Y194773D01*
X261973Y194500D01*
X263027D01*
X264044Y194773D01*
X264956Y195299D01*
X265701Y196044D01*
X266227Y196956D01*
X266500Y197973D01*
Y199027D01*
X266227Y200044D01*
X265701Y200956D01*
X264956Y201701D01*
X264044Y202227D01*
X263027Y202500D01*
D02*
G37*
G36*
X540500Y192891D02*
Y191000D01*
X542391D01*
X542035Y191859D01*
X541360Y192535D01*
X540500Y192891D01*
D02*
G37*
G36*
X539500D02*
X538640Y192535D01*
X537965Y191859D01*
X537609Y191000D01*
X539500D01*
Y192891D01*
D02*
G37*
G36*
X571123Y192268D02*
Y190377D01*
X573013D01*
X572657Y191237D01*
X571982Y191912D01*
X571123Y192268D01*
D02*
G37*
G36*
X570123D02*
X569263Y191912D01*
X568588Y191237D01*
X568232Y190377D01*
X570123D01*
Y192268D01*
D02*
G37*
G36*
X688494Y197413D02*
X687505D01*
X686550Y197157D01*
X685694Y196663D01*
X684995Y195964D01*
X684500Y195107D01*
X684244Y194152D01*
Y193163D01*
X684500Y192208D01*
X684995Y191351D01*
X685694Y190652D01*
X686550Y190157D01*
X687505Y189902D01*
X688494D01*
X689450Y190157D01*
X690306Y190652D01*
X691006Y191351D01*
X691500Y192208D01*
X691756Y193163D01*
Y194152D01*
X691500Y195107D01*
X691006Y195964D01*
X690306Y196663D01*
X689450Y197157D01*
X688494Y197413D01*
D02*
G37*
G36*
X582035Y191250D02*
Y189359D01*
X583925D01*
X583569Y190219D01*
X582894Y190894D01*
X582035Y191250D01*
D02*
G37*
G36*
X581035D02*
X580175Y190894D01*
X579500Y190219D01*
X579144Y189359D01*
X581035D01*
Y191250D01*
D02*
G37*
G36*
X494650Y193000D02*
X491000D01*
Y189350D01*
X491046D01*
X492102Y189633D01*
X493048Y190180D01*
X493820Y190952D01*
X494367Y191898D01*
X494650Y192954D01*
Y193000D01*
D02*
G37*
G36*
X490000D02*
X486350D01*
Y192954D01*
X486633Y191898D01*
X487180Y190952D01*
X487952Y190180D01*
X488898Y189633D01*
X489954Y189350D01*
X490000D01*
Y193000D01*
D02*
G37*
G36*
X542391Y190000D02*
X540500D01*
Y188109D01*
X541360Y188465D01*
X542035Y189140D01*
X542391Y190000D01*
D02*
G37*
G36*
X539500D02*
X537609D01*
X537965Y189140D01*
X538640Y188465D01*
X539500Y188109D01*
Y190000D01*
D02*
G37*
G36*
X573013Y189377D02*
X571123D01*
Y187487D01*
X571982Y187843D01*
X572657Y188518D01*
X573013Y189377D01*
D02*
G37*
G36*
X570123D02*
X568232D01*
X568588Y188518D01*
X569263Y187843D01*
X570123Y187487D01*
Y189377D01*
D02*
G37*
G36*
X583925Y188359D02*
X582035D01*
Y186469D01*
X582894Y186825D01*
X583569Y187500D01*
X583925Y188359D01*
D02*
G37*
G36*
X581035D02*
X579144D01*
X579500Y187500D01*
X580175Y186825D01*
X581035Y186469D01*
Y188359D01*
D02*
G37*
G36*
X552874Y187911D02*
Y186020D01*
X554765D01*
X554409Y186880D01*
X553734Y187555D01*
X552874Y187911D01*
D02*
G37*
G36*
X551874D02*
X551015Y187555D01*
X550340Y186880D01*
X549984Y186020D01*
X551874D01*
Y187911D01*
D02*
G37*
G36*
X353027Y192500D02*
X351973D01*
X350956Y192227D01*
X350044Y191701D01*
X349299Y190956D01*
X348773Y190044D01*
X348500Y189027D01*
Y187973D01*
X348773Y186956D01*
X349299Y186044D01*
X350044Y185299D01*
X350956Y184773D01*
X351973Y184500D01*
X353027D01*
X354044Y184773D01*
X354956Y185299D01*
X355701Y186044D01*
X356227Y186956D01*
X356500Y187973D01*
Y189027D01*
X356227Y190044D01*
X355701Y190956D01*
X354956Y191701D01*
X354044Y192227D01*
X353027Y192500D01*
D02*
G37*
G36*
X263027Y192500D02*
X261973D01*
X260956Y192227D01*
X260044Y191701D01*
X259299Y190956D01*
X258773Y190044D01*
X258500Y189026D01*
Y187973D01*
X258773Y186956D01*
X259299Y186044D01*
X260044Y185299D01*
X260956Y184773D01*
X261973Y184500D01*
X263027D01*
X264044Y184773D01*
X264956Y185299D01*
X265701Y186044D01*
X266227Y186956D01*
X266500Y187973D01*
Y189026D01*
X266227Y190044D01*
X265701Y190956D01*
X264956Y191701D01*
X264044Y192227D01*
X263027Y192500D01*
D02*
G37*
G36*
X554765Y185020D02*
X552874D01*
Y183129D01*
X553734Y183485D01*
X554409Y184161D01*
X554765Y185020D01*
D02*
G37*
G36*
X551874D02*
X549984D01*
X550340Y184161D01*
X551015Y183485D01*
X551874Y183129D01*
Y185020D01*
D02*
G37*
G36*
X688494Y187571D02*
X687505D01*
X686550Y187315D01*
X685694Y186820D01*
X684995Y186121D01*
X684500Y185265D01*
X684244Y184309D01*
Y183320D01*
X684500Y182365D01*
X684995Y181509D01*
X685694Y180809D01*
X686550Y180315D01*
X687505Y180059D01*
X688494D01*
X689450Y180315D01*
X690306Y180809D01*
X691006Y181509D01*
X691500Y182365D01*
X691756Y183320D01*
Y184309D01*
X691500Y185265D01*
X691006Y186121D01*
X690306Y186820D01*
X689450Y187315D01*
X688494Y187571D01*
D02*
G37*
G36*
X491046Y187650D02*
X489954D01*
X488898Y187367D01*
X487952Y186820D01*
X487180Y186048D01*
X486633Y185102D01*
X486350Y184046D01*
Y182954D01*
X486633Y181898D01*
X487180Y180952D01*
X487952Y180180D01*
X488898Y179633D01*
X489954Y179350D01*
X491046D01*
X492102Y179633D01*
X493048Y180180D01*
X493820Y180952D01*
X494367Y181898D01*
X494650Y182954D01*
Y184046D01*
X494367Y185102D01*
X493820Y186048D01*
X493048Y186820D01*
X492102Y187367D01*
X491046Y187650D01*
D02*
G37*
G36*
X637466Y182972D02*
X636400D01*
X635369Y182696D01*
X634446Y182163D01*
X633691Y181409D01*
X633158Y180485D01*
X632882Y179455D01*
Y178388D01*
X633158Y177358D01*
X633691Y176434D01*
X634446Y175680D01*
X635369Y175146D01*
X636400Y174870D01*
X637466D01*
X638497Y175146D01*
X639421Y175680D01*
X640175Y176434D01*
X640708Y177358D01*
X640984Y178388D01*
Y179455D01*
X640708Y180485D01*
X640175Y181409D01*
X639421Y182163D01*
X638497Y182696D01*
X637466Y182972D01*
D02*
G37*
G36*
X520477Y175400D02*
X519523D01*
X518641Y175035D01*
X518390Y174784D01*
X490610D01*
X490359Y175035D01*
X489477Y175400D01*
X488523D01*
X487640Y175035D01*
X486965Y174360D01*
X486600Y173477D01*
Y172523D01*
X486965Y171641D01*
X487640Y170965D01*
X488523Y170600D01*
X489477D01*
X490359Y170965D01*
X490610Y171216D01*
X518390D01*
X518641Y170965D01*
X519523Y170600D01*
X520477D01*
X521359Y170965D01*
X522035Y171641D01*
X522400Y172523D01*
Y173477D01*
X522035Y174360D01*
X521359Y175035D01*
X520477Y175400D01*
D02*
G37*
G36*
X353027Y182500D02*
X351973D01*
X350956Y182227D01*
X350044Y181701D01*
X349299Y180956D01*
X348773Y180044D01*
X348500Y179027D01*
Y177973D01*
X348773Y176956D01*
X349299Y176044D01*
X350044Y175299D01*
X350956Y174773D01*
X351973Y174500D01*
X353027D01*
X354044Y174773D01*
X354956Y175299D01*
X355701Y176044D01*
X356227Y176956D01*
X356500Y177973D01*
Y179027D01*
X356227Y180044D01*
X355701Y180956D01*
X354956Y181701D01*
X354044Y182227D01*
X353027Y182500D01*
D02*
G37*
G36*
X263027Y182500D02*
X261973D01*
X260956Y182227D01*
X260044Y181701D01*
X259299Y180956D01*
X258773Y180044D01*
X258500Y179026D01*
Y177973D01*
X258773Y176956D01*
X259299Y176044D01*
X260044Y175299D01*
X260956Y174773D01*
X261973Y174500D01*
X263027D01*
X264044Y174773D01*
X264956Y175299D01*
X265701Y176044D01*
X266227Y176956D01*
X266500Y177973D01*
Y179026D01*
X266227Y180044D01*
X265701Y180956D01*
X264956Y181701D01*
X264044Y182227D01*
X263027Y182500D01*
D02*
G37*
G36*
X469500Y175391D02*
Y173500D01*
X471391D01*
X471035Y174360D01*
X470360Y175035D01*
X469500Y175391D01*
D02*
G37*
G36*
X468500D02*
X467640Y175035D01*
X466965Y174360D01*
X466609Y173500D01*
X468500D01*
Y175391D01*
D02*
G37*
G36*
X597977Y179900D02*
X597023D01*
X596140Y179535D01*
X595465Y178859D01*
X595100Y177977D01*
Y177263D01*
X589866Y172029D01*
X577865D01*
X577359Y172535D01*
X576477Y172900D01*
X575523D01*
X574641Y172535D01*
X573965Y171860D01*
X573600Y170977D01*
Y170023D01*
X573965Y169141D01*
X574641Y168465D01*
X575523Y168100D01*
X576477D01*
X577359Y168465D01*
X577865Y168971D01*
X590500D01*
X591085Y169087D01*
X591581Y169419D01*
X597263Y175100D01*
X597977D01*
X598860Y175465D01*
X599535Y176140D01*
X599900Y177023D01*
Y177977D01*
X599535Y178859D01*
X598860Y179535D01*
X597977Y179900D01*
D02*
G37*
G36*
X417723Y182319D02*
X416278D01*
X414882Y181945D01*
X413630Y181222D01*
X412608Y180201D01*
X411886Y178949D01*
X411512Y177553D01*
Y176108D01*
X411886Y174712D01*
X412608Y173461D01*
X413630Y172439D01*
X414882Y171716D01*
X416278Y171343D01*
X417723D01*
X419118Y171716D01*
X420370Y172439D01*
X421392Y173461D01*
X422114Y174712D01*
X422488Y176108D01*
Y177553D01*
X422114Y178949D01*
X421392Y180201D01*
X420370Y181222D01*
X419118Y181945D01*
X417723Y182319D01*
D02*
G37*
G36*
X471391Y172500D02*
X469500D01*
Y170609D01*
X470360Y170965D01*
X471035Y171641D01*
X471391Y172500D01*
D02*
G37*
G36*
X468500D02*
X466609D01*
X466965Y171641D01*
X467640Y170965D01*
X468500Y170609D01*
Y172500D01*
D02*
G37*
G36*
X688494Y177728D02*
X687505D01*
X686550Y177472D01*
X685694Y176978D01*
X684995Y176279D01*
X684500Y175422D01*
X684244Y174467D01*
Y173478D01*
X684500Y172523D01*
X684995Y171666D01*
X685694Y170967D01*
X686550Y170473D01*
X687505Y170217D01*
X688494D01*
X689450Y170473D01*
X690306Y170967D01*
X691006Y171666D01*
X691500Y172523D01*
X691756Y173478D01*
Y174467D01*
X691500Y175422D01*
X691006Y176279D01*
X690306Y176978D01*
X689450Y177472D01*
X688494Y177728D01*
D02*
G37*
G36*
X640984Y173130D02*
X637433D01*
Y169579D01*
X640984D01*
Y173130D01*
D02*
G37*
G36*
X636433D02*
X632882D01*
Y169579D01*
X636433D01*
Y173130D01*
D02*
G37*
G36*
X640984Y168579D02*
X637433D01*
Y165028D01*
X640984D01*
Y168579D01*
D02*
G37*
G36*
X636433D02*
X632882D01*
Y165028D01*
X636433D01*
Y168579D01*
D02*
G37*
G36*
X519000Y166391D02*
Y164500D01*
X520891D01*
X520535Y165359D01*
X519860Y166035D01*
X519000Y166391D01*
D02*
G37*
G36*
X518000D02*
X517140Y166035D01*
X516465Y165359D01*
X516109Y164500D01*
X518000D01*
Y166391D01*
D02*
G37*
G36*
X353027Y172500D02*
X351973D01*
X350956Y172227D01*
X350044Y171701D01*
X349299Y170956D01*
X348773Y170044D01*
X348500Y169027D01*
Y167973D01*
X348773Y166956D01*
X349299Y166044D01*
X350044Y165299D01*
X350956Y164773D01*
X351973Y164500D01*
X353027D01*
X354044Y164773D01*
X354956Y165299D01*
X355701Y166044D01*
X356227Y166956D01*
X356500Y167973D01*
Y169027D01*
X356227Y170044D01*
X355701Y170956D01*
X354956Y171701D01*
X354044Y172227D01*
X353027Y172500D01*
D02*
G37*
G36*
X263027Y172500D02*
X261973D01*
X260956Y172227D01*
X260044Y171701D01*
X259299Y170956D01*
X258773Y170044D01*
X258500Y169027D01*
Y167973D01*
X258773Y166956D01*
X259299Y166044D01*
X260044Y165299D01*
X260956Y164772D01*
X261973Y164500D01*
X263027D01*
X264044Y164772D01*
X264956Y165299D01*
X265701Y166044D01*
X266227Y166956D01*
X266500Y167973D01*
Y169027D01*
X266227Y170044D01*
X265701Y170956D01*
X264956Y171701D01*
X264044Y172227D01*
X263027Y172500D01*
D02*
G37*
G36*
X546499Y172023D02*
X545544D01*
X544662Y171657D01*
X543987Y170982D01*
X543622Y170100D01*
Y169386D01*
X536265Y162029D01*
X520577D01*
X520385Y162491D01*
X520535Y162641D01*
X520891Y163500D01*
X516109D01*
X516465Y162641D01*
X516615Y162491D01*
X516423Y162029D01*
X506028D01*
X504976Y163081D01*
X504479Y163413D01*
X503894Y163529D01*
X490365D01*
X489859Y164035D01*
X488977Y164400D01*
X488023D01*
X487141Y164035D01*
X486465Y163359D01*
X486100Y162477D01*
Y161523D01*
X486465Y160641D01*
X487141Y159965D01*
X488023Y159600D01*
X488977D01*
X489859Y159965D01*
X490365Y160471D01*
X503261D01*
X504313Y159419D01*
X504809Y159087D01*
X505394Y158971D01*
X536899D01*
X537484Y159087D01*
X537980Y159419D01*
X545785Y167223D01*
X546499D01*
X547381Y167588D01*
X548056Y168263D01*
X548422Y169145D01*
Y170100D01*
X548056Y170982D01*
X547381Y171657D01*
X546499Y172023D01*
D02*
G37*
G36*
X453500Y160489D02*
Y157500D01*
X456490D01*
X456261Y158351D01*
X455801Y159149D01*
X455149Y159801D01*
X454351Y160261D01*
X453500Y160489D01*
D02*
G37*
G36*
X452500D02*
X451649Y160261D01*
X450851Y159801D01*
X450199Y159149D01*
X449739Y158351D01*
X449510Y157500D01*
X452500D01*
Y160489D01*
D02*
G37*
G36*
X445000D02*
Y157500D01*
X447990D01*
X447761Y158351D01*
X447301Y159149D01*
X446649Y159801D01*
X445851Y160261D01*
X445000Y160489D01*
D02*
G37*
G36*
X444000D02*
X443149Y160261D01*
X442351Y159801D01*
X441699Y159149D01*
X441238Y158351D01*
X441011Y157500D01*
X444000D01*
Y160489D01*
D02*
G37*
G36*
X462000Y159990D02*
Y157000D01*
X464990D01*
X464761Y157851D01*
X464301Y158649D01*
X463649Y159301D01*
X462851Y159762D01*
X462000Y159990D01*
D02*
G37*
G36*
X461000D02*
X460149Y159762D01*
X459351Y159301D01*
X458699Y158649D01*
X458239Y157851D01*
X458010Y157000D01*
X461000D01*
Y159990D01*
D02*
G37*
G36*
X353027Y162500D02*
X351973D01*
X350956Y162227D01*
X350044Y161701D01*
X349299Y160956D01*
X348773Y160044D01*
X348500Y159027D01*
Y157973D01*
X348773Y156956D01*
X349299Y156044D01*
X350044Y155299D01*
X350956Y154773D01*
X351973Y154500D01*
X353027D01*
X354044Y154773D01*
X354956Y155299D01*
X355701Y156044D01*
X356227Y156956D01*
X356500Y157973D01*
Y159027D01*
X356227Y160044D01*
X355701Y160956D01*
X354956Y161701D01*
X354044Y162227D01*
X353027Y162500D01*
D02*
G37*
G36*
X263027Y162500D02*
X261973D01*
X260956Y162227D01*
X260044Y161701D01*
X259299Y160956D01*
X258773Y160044D01*
X258500Y159027D01*
Y157973D01*
X258773Y156956D01*
X259299Y156044D01*
X260044Y155299D01*
X260956Y154772D01*
X261973Y154500D01*
X263027D01*
X264044Y154772D01*
X264956Y155299D01*
X265701Y156044D01*
X266227Y156956D01*
X266500Y157973D01*
Y159027D01*
X266227Y160044D01*
X265701Y160956D01*
X264956Y161701D01*
X264044Y162227D01*
X263027Y162500D01*
D02*
G37*
G36*
X607500Y155891D02*
Y154000D01*
X609391D01*
X609035Y154859D01*
X608359Y155535D01*
X607500Y155891D01*
D02*
G37*
G36*
X606500D02*
X605641Y155535D01*
X604965Y154859D01*
X604609Y154000D01*
X606500D01*
Y155891D01*
D02*
G37*
G36*
X456490Y156500D02*
X453500D01*
Y153510D01*
X454351Y153738D01*
X455149Y154199D01*
X455801Y154851D01*
X456261Y155649D01*
X456490Y156500D01*
D02*
G37*
G36*
X452500D02*
X449510D01*
X449739Y155649D01*
X450199Y154851D01*
X450851Y154199D01*
X451649Y153738D01*
X452500Y153510D01*
Y156500D01*
D02*
G37*
G36*
X447990D02*
X445000D01*
Y153510D01*
X445851Y153738D01*
X446649Y154199D01*
X447301Y154851D01*
X447761Y155649D01*
X447990Y156500D01*
D02*
G37*
G36*
X444000D02*
X441011D01*
X441238Y155649D01*
X441699Y154851D01*
X442351Y154199D01*
X443149Y153738D01*
X444000Y153510D01*
Y156500D01*
D02*
G37*
G36*
X464990Y156000D02*
X462000D01*
Y153010D01*
X462851Y153238D01*
X463649Y153699D01*
X464301Y154351D01*
X464761Y155149D01*
X464990Y156000D01*
D02*
G37*
G36*
X461000D02*
X458010D01*
X458239Y155149D01*
X458699Y154351D01*
X459351Y153699D01*
X460149Y153238D01*
X461000Y153010D01*
Y156000D01*
D02*
G37*
G36*
X580000Y154391D02*
Y152500D01*
X581891D01*
X581535Y153359D01*
X580860Y154035D01*
X580000Y154391D01*
D02*
G37*
G36*
X579000D02*
X578140Y154035D01*
X577465Y153359D01*
X577109Y152500D01*
X579000D01*
Y154391D01*
D02*
G37*
G36*
X591281Y153857D02*
Y151966D01*
X593172D01*
X592816Y152826D01*
X592141Y153501D01*
X591281Y153857D01*
D02*
G37*
G36*
X590281D02*
X589422Y153501D01*
X588747Y152826D01*
X588391Y151966D01*
X590281D01*
Y153857D01*
D02*
G37*
G36*
X609391Y153000D02*
X607500D01*
Y151109D01*
X608359Y151465D01*
X609035Y152140D01*
X609391Y153000D01*
D02*
G37*
G36*
X606500D02*
X604609D01*
X604965Y152140D01*
X605641Y151465D01*
X606500Y151109D01*
Y153000D01*
D02*
G37*
G36*
X503477Y151400D02*
X502523D01*
X501641Y151035D01*
X501135Y150529D01*
X471865D01*
X471359Y151035D01*
X470477Y151400D01*
X469523D01*
X468641Y151035D01*
X467965Y150359D01*
X467600Y149477D01*
Y148523D01*
X467965Y147641D01*
X468641Y146965D01*
X469523Y146600D01*
X470477D01*
X471359Y146965D01*
X471865Y147471D01*
X501135D01*
X501641Y146965D01*
X502523Y146600D01*
X503477D01*
X504359Y146965D01*
X505035Y147641D01*
X505400Y148523D01*
Y149477D01*
X505035Y150359D01*
X504359Y151035D01*
X503477Y151400D01*
D02*
G37*
G36*
X581891Y151500D02*
X580000D01*
Y149609D01*
X580860Y149965D01*
X581535Y150640D01*
X581891Y151500D01*
D02*
G37*
G36*
X579000D02*
X577109D01*
X577465Y150640D01*
X578140Y149965D01*
X579000Y149609D01*
Y151500D01*
D02*
G37*
G36*
X557000Y151391D02*
Y149500D01*
X558891D01*
X558535Y150359D01*
X557860Y151035D01*
X557000Y151391D01*
D02*
G37*
G36*
X556000D02*
X555140Y151035D01*
X554465Y150359D01*
X554109Y149500D01*
X556000D01*
Y151391D01*
D02*
G37*
G36*
X593172Y150966D02*
X591281D01*
Y149075D01*
X592141Y149432D01*
X592816Y150107D01*
X593172Y150966D01*
D02*
G37*
G36*
X590281D02*
X588391D01*
X588747Y150107D01*
X589422Y149432D01*
X590281Y149075D01*
Y150966D01*
D02*
G37*
G36*
X263027Y152500D02*
X263000D01*
Y149000D01*
X266500D01*
Y149027D01*
X266227Y150044D01*
X265701Y150956D01*
X264956Y151701D01*
X264044Y152227D01*
X263027Y152500D01*
D02*
G37*
G36*
X262000D02*
X261973D01*
X260956Y152227D01*
X260044Y151701D01*
X259299Y150956D01*
X258773Y150044D01*
X258500Y149027D01*
Y149000D01*
X262000D01*
Y152500D01*
D02*
G37*
G36*
X558891Y148500D02*
X557000D01*
Y146609D01*
X557860Y146965D01*
X558535Y147641D01*
X558891Y148500D01*
D02*
G37*
G36*
X556000D02*
X554109D01*
X554465Y147641D01*
X555140Y146965D01*
X556000Y146609D01*
Y148500D01*
D02*
G37*
G36*
X353027Y152500D02*
X351973D01*
X350956Y152227D01*
X350044Y151701D01*
X349299Y150956D01*
X348773Y150044D01*
X348500Y149027D01*
Y147973D01*
X348773Y146956D01*
X349299Y146044D01*
X350044Y145299D01*
X350956Y144773D01*
X351973Y144500D01*
X353027D01*
X354044Y144773D01*
X354956Y145299D01*
X355701Y146044D01*
X356227Y146956D01*
X356500Y147973D01*
Y149027D01*
X356227Y150044D01*
X355701Y150956D01*
X354956Y151701D01*
X354044Y152227D01*
X353027Y152500D01*
D02*
G37*
G36*
X266500Y148000D02*
X263000D01*
Y144500D01*
X263027D01*
X264044Y144773D01*
X264956Y145299D01*
X265701Y146044D01*
X266227Y146956D01*
X266500Y147973D01*
Y148000D01*
D02*
G37*
G36*
X262000D02*
X258500D01*
Y147973D01*
X258773Y146956D01*
X259299Y146044D01*
X260044Y145299D01*
X260956Y144773D01*
X261973Y144500D01*
X262000D01*
Y148000D01*
D02*
G37*
G36*
X490756Y145783D02*
X487500D01*
Y142528D01*
X490756D01*
Y145783D01*
D02*
G37*
G36*
X486500D02*
X483244D01*
Y142528D01*
X486500D01*
Y145783D01*
D02*
G37*
G36*
X683533Y148051D02*
X682467D01*
X681436Y147775D01*
X680513Y147242D01*
X679758Y146487D01*
X679225Y145564D01*
X678949Y144533D01*
Y143467D01*
X679225Y142436D01*
X679758Y141513D01*
X680513Y140758D01*
X681436Y140225D01*
X682467Y139949D01*
X683533D01*
X684564Y140225D01*
X685488Y140758D01*
X686242Y141513D01*
X686775Y142436D01*
X687051Y143467D01*
Y144533D01*
X686775Y145564D01*
X686242Y146487D01*
X685488Y147242D01*
X684564Y147775D01*
X683533Y148051D01*
D02*
G37*
G36*
X558500Y140391D02*
Y138500D01*
X560391D01*
X560035Y139359D01*
X559360Y140035D01*
X558500Y140391D01*
D02*
G37*
G36*
X557500D02*
X556640Y140035D01*
X555965Y139359D01*
X555609Y138500D01*
X557500D01*
Y140391D01*
D02*
G37*
G36*
X490756Y141528D02*
X487500D01*
Y138272D01*
X490756D01*
Y141528D01*
D02*
G37*
G36*
X486500D02*
X483244D01*
Y138272D01*
X486500D01*
Y141528D01*
D02*
G37*
G36*
X391571Y162510D02*
X389524D01*
X387503Y162190D01*
X385557Y161557D01*
X383734Y160628D01*
X382079Y159426D01*
X380632Y157979D01*
X379429Y156323D01*
X378500Y154500D01*
X377868Y152554D01*
X377548Y150533D01*
Y148487D01*
X377868Y146466D01*
X378500Y144519D01*
X379429Y142696D01*
X380632Y141041D01*
X382079Y139594D01*
X383734Y138391D01*
X385557Y137462D01*
X387503Y136830D01*
X389524Y136510D01*
X391571D01*
X393592Y136830D01*
X395538Y137462D01*
X397361Y138391D01*
X399016Y139594D01*
X400463Y141041D01*
X401666Y142696D01*
X402595Y144519D01*
X403228Y146466D01*
X403548Y148487D01*
Y150533D01*
X403228Y152554D01*
X402595Y154500D01*
X401666Y156323D01*
X400463Y157979D01*
X399016Y159426D01*
X397361Y160628D01*
X395538Y161557D01*
X393592Y162190D01*
X391571Y162510D01*
D02*
G37*
G36*
X560391Y137500D02*
X558500D01*
Y135609D01*
X559360Y135965D01*
X560035Y136641D01*
X560391Y137500D01*
D02*
G37*
G36*
X557500D02*
X555609D01*
X555965Y136641D01*
X556640Y135965D01*
X557500Y135609D01*
Y137500D01*
D02*
G37*
G36*
X687051Y138209D02*
X683500D01*
Y134658D01*
X687051D01*
Y138209D01*
D02*
G37*
G36*
X682500D02*
X678949D01*
Y134658D01*
X682500D01*
Y138209D01*
D02*
G37*
G36*
X353027Y142500D02*
X351973D01*
X350956Y142227D01*
X350044Y141701D01*
X349299Y140956D01*
X348773Y140044D01*
X348500Y139027D01*
Y137973D01*
X348773Y136956D01*
X349299Y136044D01*
X350044Y135299D01*
X350956Y134773D01*
X351973Y134500D01*
X353027D01*
X354044Y134773D01*
X354956Y135299D01*
X355701Y136044D01*
X356227Y136956D01*
X356500Y137973D01*
Y139027D01*
X356227Y140044D01*
X355701Y140956D01*
X354956Y141701D01*
X354044Y142227D01*
X353027Y142500D01*
D02*
G37*
G36*
X263027Y142500D02*
X261973D01*
X260956Y142227D01*
X260044Y141701D01*
X259299Y140956D01*
X258773Y140044D01*
X258500Y139026D01*
Y137973D01*
X258773Y136956D01*
X259299Y136044D01*
X260044Y135299D01*
X260956Y134773D01*
X261973Y134500D01*
X263027D01*
X264044Y134773D01*
X264956Y135299D01*
X265701Y136044D01*
X266227Y136956D01*
X266500Y137973D01*
Y139026D01*
X266227Y140044D01*
X265701Y140956D01*
X264956Y141701D01*
X264044Y142227D01*
X263027Y142500D01*
D02*
G37*
G36*
X608551Y134551D02*
X605000D01*
Y131000D01*
X608551D01*
Y134551D01*
D02*
G37*
G36*
X604000D02*
X600449D01*
Y131000D01*
X604000D01*
Y134551D01*
D02*
G37*
G36*
X687051Y133658D02*
X683500D01*
Y130106D01*
X687051D01*
Y133658D01*
D02*
G37*
G36*
X682500D02*
X678949D01*
Y130106D01*
X682500D01*
Y133658D01*
D02*
G37*
G36*
X353027Y132500D02*
X353000D01*
Y129000D01*
X356500D01*
Y129027D01*
X356227Y130044D01*
X355701Y130956D01*
X354956Y131701D01*
X354044Y132227D01*
X353027Y132500D01*
D02*
G37*
G36*
X352000D02*
X351973D01*
X350956Y132227D01*
X350044Y131701D01*
X349299Y130956D01*
X348773Y130044D01*
X348500Y129027D01*
Y129000D01*
X352000D01*
Y132500D01*
D02*
G37*
G36*
X487495Y135941D02*
X486506D01*
X485550Y135685D01*
X484694Y135190D01*
X483994Y134491D01*
X483500Y133635D01*
X483244Y132679D01*
Y131691D01*
X483500Y130735D01*
X483994Y129879D01*
X484694Y129180D01*
X485550Y128685D01*
X486506Y128429D01*
X487495D01*
X488450Y128685D01*
X489306Y129180D01*
X490005Y129879D01*
X490500Y130735D01*
X490756Y131691D01*
Y132679D01*
X490500Y133635D01*
X490005Y134491D01*
X489306Y135190D01*
X488450Y135685D01*
X487495Y135941D01*
D02*
G37*
G36*
X526000Y128891D02*
Y127000D01*
X527891D01*
X527535Y127859D01*
X526860Y128535D01*
X526000Y128891D01*
D02*
G37*
G36*
X525000D02*
X524141Y128535D01*
X523465Y127859D01*
X523109Y127000D01*
X525000D01*
Y128891D01*
D02*
G37*
G36*
X573868Y128689D02*
Y126798D01*
X575758D01*
X575402Y127658D01*
X574727Y128333D01*
X573868Y128689D01*
D02*
G37*
G36*
X572868D02*
X572008Y128333D01*
X571333Y127658D01*
X570977Y126798D01*
X572868D01*
Y128689D01*
D02*
G37*
G36*
X614876Y134551D02*
X613809D01*
X612779Y134275D01*
X611855Y133742D01*
X611101Y132987D01*
X610567Y132064D01*
X610291Y131033D01*
Y129967D01*
X610567Y128936D01*
X611101Y128013D01*
X611855Y127258D01*
X612779Y126725D01*
X613809Y126449D01*
X614876D01*
X615906Y126725D01*
X616830Y127258D01*
X617584Y128013D01*
X618118Y128936D01*
X618394Y129967D01*
Y131033D01*
X618118Y132064D01*
X617584Y132987D01*
X616830Y133742D01*
X615906Y134275D01*
X614876Y134551D01*
D02*
G37*
G36*
X608551Y130000D02*
X605000D01*
Y126449D01*
X608551D01*
Y130000D01*
D02*
G37*
G36*
X604000D02*
X600449D01*
Y126449D01*
X604000D01*
Y130000D01*
D02*
G37*
G36*
X356500Y128000D02*
X353000D01*
Y124500D01*
X353027D01*
X354044Y124773D01*
X354956Y125299D01*
X355701Y126044D01*
X356227Y126956D01*
X356500Y127973D01*
Y128000D01*
D02*
G37*
G36*
X352000D02*
X348500D01*
Y127973D01*
X348773Y126956D01*
X349299Y126044D01*
X350044Y125299D01*
X350956Y124773D01*
X351973Y124500D01*
X352000D01*
Y128000D01*
D02*
G37*
G36*
X263027Y132500D02*
X261973D01*
X260956Y132227D01*
X260044Y131701D01*
X259299Y130956D01*
X258773Y130044D01*
X258500Y129026D01*
Y127973D01*
X258773Y126956D01*
X259299Y126044D01*
X260044Y125299D01*
X260956Y124773D01*
X261973Y124500D01*
X263027D01*
X264044Y124773D01*
X264956Y125299D01*
X265701Y126044D01*
X266227Y126956D01*
X266500Y127973D01*
Y129026D01*
X266227Y130044D01*
X265701Y130956D01*
X264956Y131701D01*
X264044Y132227D01*
X263027Y132500D01*
D02*
G37*
G36*
X527891Y126000D02*
X526000D01*
Y124109D01*
X526860Y124465D01*
X527535Y125141D01*
X527891Y126000D01*
D02*
G37*
G36*
X525000D02*
X523109D01*
X523465Y125141D01*
X524141Y124465D01*
X525000Y124109D01*
Y126000D01*
D02*
G37*
G36*
X575758Y125798D02*
X573868D01*
Y123908D01*
X574727Y124264D01*
X575402Y124939D01*
X575758Y125798D01*
D02*
G37*
G36*
X572868D02*
X570977D01*
X571333Y124939D01*
X572008Y124264D01*
X572868Y123908D01*
Y125798D01*
D02*
G37*
G36*
X487495Y126098D02*
X486506D01*
X485550Y125842D01*
X484694Y125348D01*
X483994Y124649D01*
X483500Y123792D01*
X483244Y122837D01*
Y121848D01*
X483500Y120893D01*
X483994Y120036D01*
X484694Y119337D01*
X485550Y118843D01*
X486506Y118587D01*
X487495D01*
X488450Y118843D01*
X489306Y119337D01*
X490005Y120036D01*
X490500Y120893D01*
X490756Y121848D01*
Y122837D01*
X490500Y123792D01*
X490005Y124649D01*
X489306Y125348D01*
X488450Y125842D01*
X487495Y126098D01*
D02*
G37*
G36*
X453500Y119490D02*
Y116500D01*
X456490D01*
X456261Y117351D01*
X455801Y118149D01*
X455149Y118801D01*
X454351Y119262D01*
X453500Y119490D01*
D02*
G37*
G36*
X452500D02*
X451649Y119262D01*
X450851Y118801D01*
X450199Y118149D01*
X449739Y117351D01*
X449510Y116500D01*
X452500D01*
Y119490D01*
D02*
G37*
G36*
X429457Y119445D02*
X426004D01*
Y114811D01*
X429457D01*
Y119445D01*
D02*
G37*
G36*
X425004D02*
X421551D01*
Y114811D01*
X425004D01*
Y119445D01*
D02*
G37*
G36*
X353027Y122500D02*
X351973D01*
X350956Y122227D01*
X350044Y121701D01*
X349299Y120956D01*
X348773Y120044D01*
X348500Y119027D01*
Y117973D01*
X348773Y116956D01*
X349299Y116044D01*
X350044Y115299D01*
X350956Y114773D01*
X351973Y114500D01*
X353027D01*
X354044Y114773D01*
X354956Y115299D01*
X355701Y116044D01*
X356227Y116956D01*
X356500Y117973D01*
Y119027D01*
X356227Y120044D01*
X355701Y120956D01*
X354956Y121701D01*
X354044Y122227D01*
X353027Y122500D01*
D02*
G37*
G36*
X263027Y122500D02*
X261973D01*
X260956Y122227D01*
X260044Y121701D01*
X259299Y120956D01*
X258773Y120044D01*
X258500Y119027D01*
Y117973D01*
X258773Y116956D01*
X259299Y116044D01*
X260044Y115299D01*
X260956Y114772D01*
X261973Y114500D01*
X263027D01*
X264044Y114772D01*
X264956Y115299D01*
X265701Y116044D01*
X266227Y116956D01*
X266500Y117973D01*
Y119027D01*
X266227Y120044D01*
X265701Y120956D01*
X264956Y121701D01*
X264044Y122227D01*
X263027Y122500D01*
D02*
G37*
G36*
X647523Y139500D02*
X645477D01*
X643456Y139180D01*
X641510Y138548D01*
X639686Y137619D01*
X638031Y136416D01*
X636584Y134969D01*
X635381Y133314D01*
X634452Y131490D01*
X633820Y129544D01*
X633500Y127523D01*
Y125477D01*
X633820Y123456D01*
X634452Y121510D01*
X635381Y119686D01*
X636584Y118031D01*
X638031Y116584D01*
X639686Y115381D01*
X641510Y114452D01*
X643456Y113820D01*
X645477Y113500D01*
X647523D01*
X649544Y113820D01*
X651490Y114452D01*
X653313Y115381D01*
X654969Y116584D01*
X656416Y118031D01*
X657619Y119686D01*
X658548Y121510D01*
X659180Y123456D01*
X659500Y125477D01*
Y127523D01*
X659180Y129544D01*
X658548Y131490D01*
X657619Y133314D01*
X656416Y134969D01*
X654969Y136416D01*
X653313Y137619D01*
X651490Y138548D01*
X649544Y139180D01*
X647523Y139500D01*
D02*
G37*
G36*
X456490Y115500D02*
X453500D01*
Y112511D01*
X454351Y112739D01*
X455149Y113199D01*
X455801Y113851D01*
X456261Y114649D01*
X456490Y115500D01*
D02*
G37*
G36*
X452500D02*
X449510D01*
X449739Y114649D01*
X450199Y113851D01*
X450851Y113199D01*
X451649Y112739D01*
X452500Y112511D01*
Y115500D01*
D02*
G37*
G36*
X429457Y113811D02*
X426004D01*
Y109177D01*
X429457D01*
Y113811D01*
D02*
G37*
G36*
X487495Y116256D02*
X486506D01*
X485550Y116000D01*
X484694Y115506D01*
X483994Y114806D01*
X483500Y113950D01*
X483244Y112995D01*
Y112005D01*
X483500Y111050D01*
X483994Y110194D01*
X484694Y109494D01*
X485550Y109000D01*
X486506Y108744D01*
X487495D01*
X488450Y109000D01*
X489306Y109494D01*
X490005Y110194D01*
X490500Y111050D01*
X490756Y112005D01*
Y112995D01*
X490500Y113950D01*
X490005Y114806D01*
X489306Y115506D01*
X488450Y116000D01*
X487495Y116256D01*
D02*
G37*
G36*
X353027Y112500D02*
X351973D01*
X350956Y112227D01*
X350044Y111701D01*
X349299Y110956D01*
X348773Y110044D01*
X348500Y109027D01*
Y107973D01*
X348773Y106956D01*
X349299Y106044D01*
X350044Y105299D01*
X350956Y104773D01*
X351973Y104500D01*
X353027D01*
X354044Y104773D01*
X354956Y105299D01*
X355701Y106044D01*
X356227Y106956D01*
X356500Y107973D01*
Y109027D01*
X356227Y110044D01*
X355701Y110956D01*
X354956Y111701D01*
X354044Y112227D01*
X353027Y112500D01*
D02*
G37*
G36*
X412134Y106453D02*
X407500D01*
Y103000D01*
X412134D01*
Y106453D01*
D02*
G37*
G36*
X406500D02*
X401866D01*
Y103000D01*
X406500D01*
Y106453D01*
D02*
G37*
G36*
X412134Y102000D02*
X407500D01*
Y98547D01*
X412134D01*
Y102000D01*
D02*
G37*
G36*
X406500D02*
X401866D01*
Y98547D01*
X406500D01*
Y102000D01*
D02*
G37*
G36*
X571413Y100756D02*
X568157D01*
Y97500D01*
X571413D01*
Y100756D01*
D02*
G37*
G36*
X567158D02*
X563902D01*
Y97500D01*
X567158D01*
Y100756D01*
D02*
G37*
G36*
X683394Y99051D02*
X679843D01*
Y95500D01*
X683394D01*
Y99051D01*
D02*
G37*
G36*
X456000Y98489D02*
Y95500D01*
X458989D01*
X458762Y96351D01*
X458301Y97149D01*
X457649Y97801D01*
X456851Y98261D01*
X456000Y98489D01*
D02*
G37*
G36*
X455000D02*
X454149Y98261D01*
X453351Y97801D01*
X452699Y97149D01*
X452239Y96351D01*
X452010Y95500D01*
X455000D01*
Y98489D01*
D02*
G37*
G36*
X678843Y99051D02*
X675291D01*
Y95500D01*
X678843D01*
Y99051D01*
D02*
G37*
G36*
X446000Y97989D02*
Y95000D01*
X448989D01*
X448762Y95851D01*
X448301Y96649D01*
X447649Y97301D01*
X446851Y97761D01*
X446000Y97989D01*
D02*
G37*
G36*
X445000D02*
X444149Y97761D01*
X443351Y97301D01*
X442699Y96649D01*
X442239Y95851D01*
X442010Y95000D01*
X445000D01*
Y97989D01*
D02*
G37*
G36*
X642051Y97551D02*
X638500D01*
Y94000D01*
X642051D01*
Y97551D01*
D02*
G37*
G36*
X637500D02*
X633949D01*
Y94000D01*
X637500D01*
Y97551D01*
D02*
G37*
G36*
X412134Y130075D02*
X401866D01*
Y122169D01*
X407141D01*
X412175Y117136D01*
Y112074D01*
X412295Y111160D01*
X412648Y110309D01*
X413209Y109577D01*
X436782Y86004D01*
X437513Y85443D01*
X438365Y85090D01*
X439279Y84970D01*
X465744D01*
X466127Y84676D01*
X466753Y84417D01*
X467425Y84328D01*
X468829D01*
X469077Y83956D01*
X475656Y77378D01*
X476400Y76881D01*
X477278Y76706D01*
X579185D01*
X580063Y76881D01*
X580807Y77378D01*
X596677Y93248D01*
X596691Y93244D01*
X597680D01*
X598635Y93500D01*
X599491Y93994D01*
X600190Y94694D01*
X600685Y95550D01*
X600941Y96505D01*
Y97495D01*
X600685Y98450D01*
X600190Y99306D01*
X599491Y100005D01*
X598635Y100500D01*
X597680Y100756D01*
X596691D01*
X595735Y100500D01*
X594879Y100005D01*
X594180Y99306D01*
X593685Y98450D01*
X593429Y97495D01*
Y96505D01*
X593433Y96492D01*
X578235Y81294D01*
X478228D01*
X473105Y86417D01*
X473172Y86925D01*
Y90075D01*
X473083Y90747D01*
X472824Y91373D01*
X472411Y91911D01*
X471873Y92324D01*
X471247Y92583D01*
X470575Y92672D01*
X467425D01*
X466753Y92583D01*
X466127Y92324D01*
X465744Y92030D01*
X458187D01*
X457980Y92530D01*
X458301Y92851D01*
X458762Y93649D01*
X458989Y94500D01*
X452010D01*
X452239Y93649D01*
X452699Y92851D01*
X453020Y92530D01*
X452813Y92030D01*
X448641D01*
X448404Y92530D01*
X448762Y93149D01*
X448989Y94000D01*
X442010D01*
X442239Y93149D01*
X442596Y92530D01*
X442358Y92030D01*
X440741D01*
X424056Y108715D01*
X424247Y109177D01*
X425004D01*
Y113811D01*
X421551D01*
Y111873D01*
X421089Y111682D01*
X419235Y113536D01*
Y118598D01*
X419115Y119512D01*
X418762Y120363D01*
X418201Y121094D01*
X412134Y127162D01*
Y130075D01*
D02*
G37*
G36*
X587837Y100756D02*
X586848D01*
X585893Y100500D01*
X585036Y100005D01*
X584337Y99306D01*
X583843Y98450D01*
X583587Y97495D01*
Y96505D01*
X583843Y95550D01*
X584337Y94694D01*
X585036Y93994D01*
X585893Y93500D01*
X586848Y93244D01*
X587837D01*
X588792Y93500D01*
X589649Y93994D01*
X590348Y94694D01*
X590842Y95550D01*
X591098Y96505D01*
Y97495D01*
X590842Y98450D01*
X590348Y99306D01*
X589649Y100005D01*
X588792Y100500D01*
X587837Y100756D01*
D02*
G37*
G36*
X577994D02*
X577005D01*
X576050Y100500D01*
X575194Y100005D01*
X574495Y99306D01*
X574000Y98450D01*
X573744Y97495D01*
Y96505D01*
X574000Y95550D01*
X574495Y94694D01*
X575194Y93994D01*
X576050Y93500D01*
X577005Y93244D01*
X577994D01*
X578950Y93500D01*
X579806Y93994D01*
X580506Y94694D01*
X581000Y95550D01*
X581256Y96505D01*
Y97495D01*
X581000Y98450D01*
X580506Y99306D01*
X579806Y100005D01*
X578950Y100500D01*
X577994Y100756D01*
D02*
G37*
G36*
X571413Y96500D02*
X568157D01*
Y93244D01*
X571413D01*
Y96500D01*
D02*
G37*
G36*
X567158D02*
X563902D01*
Y93244D01*
X567158D01*
Y96500D01*
D02*
G37*
G36*
X683394Y94500D02*
X679843D01*
Y90949D01*
X683394D01*
Y94500D01*
D02*
G37*
G36*
X678843D02*
X675291D01*
Y90949D01*
X678843D01*
Y94500D01*
D02*
G37*
G36*
X670033Y99051D02*
X668967D01*
X667936Y98775D01*
X667013Y98242D01*
X666258Y97487D01*
X665725Y96564D01*
X665449Y95533D01*
Y94467D01*
X665725Y93436D01*
X666258Y92513D01*
X667013Y91758D01*
X667936Y91225D01*
X668967Y90949D01*
X670033D01*
X671064Y91225D01*
X671987Y91758D01*
X672742Y92513D01*
X673275Y93436D01*
X673551Y94467D01*
Y95533D01*
X673275Y96564D01*
X672742Y97487D01*
X671987Y98242D01*
X671064Y98775D01*
X670033Y99051D01*
D02*
G37*
G36*
X287527Y93500D02*
X287500D01*
Y90000D01*
X291000D01*
Y90027D01*
X290727Y91044D01*
X290201Y91956D01*
X289456Y92701D01*
X288544Y93227D01*
X287527Y93500D01*
D02*
G37*
G36*
X286500D02*
X286473D01*
X285456Y93227D01*
X284544Y92701D01*
X283799Y91956D01*
X283273Y91044D01*
X283000Y90027D01*
Y90000D01*
X286500D01*
Y93500D01*
D02*
G37*
G36*
X642051Y93000D02*
X638500D01*
Y89449D01*
X642051D01*
Y93000D01*
D02*
G37*
G36*
X637500D02*
X633949D01*
Y89449D01*
X637500D01*
Y93000D01*
D02*
G37*
G36*
X628691Y97551D02*
X627624D01*
X626594Y97275D01*
X625670Y96742D01*
X624916Y95987D01*
X624382Y95064D01*
X624106Y94033D01*
Y92967D01*
X624382Y91936D01*
X624916Y91013D01*
X625670Y90258D01*
X626594Y89725D01*
X627624Y89449D01*
X628691D01*
X629721Y89725D01*
X630645Y90258D01*
X631399Y91013D01*
X631933Y91936D01*
X632209Y92967D01*
Y94033D01*
X631933Y95064D01*
X631399Y95987D01*
X630645Y96742D01*
X629721Y97275D01*
X628691Y97551D01*
D02*
G37*
G36*
X539546Y92650D02*
X539500D01*
Y89000D01*
X543150D01*
Y89046D01*
X542867Y90102D01*
X542320Y91048D01*
X541548Y91821D01*
X540602Y92367D01*
X539546Y92650D01*
D02*
G37*
G36*
X538500D02*
X538454D01*
X537398Y92367D01*
X536452Y91821D01*
X535679Y91048D01*
X535133Y90102D01*
X534850Y89046D01*
Y89000D01*
X538500D01*
Y92650D01*
D02*
G37*
G36*
X330992Y90323D02*
X327736D01*
Y87067D01*
X330992D01*
Y90323D01*
D02*
G37*
G36*
X337579Y90321D02*
Y87067D01*
X340833D01*
X340579Y88017D01*
X340084Y88873D01*
X339385Y89572D01*
X338528Y90067D01*
X337579Y90321D01*
D02*
G37*
G36*
X336579Y90321D02*
X335629Y90067D01*
X334773Y89572D01*
X334073Y88873D01*
X333579Y88017D01*
X333324Y87067D01*
X336579D01*
Y90321D01*
D02*
G37*
G36*
X326736Y90323D02*
X323480D01*
Y87067D01*
X326736D01*
Y90323D01*
D02*
G37*
G36*
X273027Y94000D02*
X271973D01*
X270956Y93727D01*
X270044Y93201D01*
X269299Y92456D01*
X268773Y91544D01*
X268500Y90527D01*
Y89473D01*
X268773Y88456D01*
X269299Y87544D01*
X270044Y86799D01*
X270956Y86273D01*
X271973Y86000D01*
X273027D01*
X274044Y86273D01*
X274956Y86799D01*
X275701Y87544D01*
X276227Y88456D01*
X276500Y89473D01*
Y90527D01*
X276227Y91544D01*
X275701Y92456D01*
X274956Y93201D01*
X274044Y93727D01*
X273027Y94000D01*
D02*
G37*
G36*
X291000Y89000D02*
X287500D01*
Y85500D01*
X287527D01*
X288544Y85773D01*
X289456Y86299D01*
X290201Y87044D01*
X290727Y87956D01*
X291000Y88973D01*
Y89000D01*
D02*
G37*
G36*
X286500D02*
X283000D01*
Y88973D01*
X283273Y87956D01*
X283799Y87044D01*
X284544Y86299D01*
X285456Y85773D01*
X286473Y85500D01*
X286500D01*
Y89000D01*
D02*
G37*
G36*
X543150Y88000D02*
X539500D01*
Y84350D01*
X539546D01*
X540602Y84633D01*
X541548Y85180D01*
X542320Y85952D01*
X542867Y86898D01*
X543150Y87954D01*
Y88000D01*
D02*
G37*
G36*
X538500D02*
X534850D01*
Y87954D01*
X535133Y86898D01*
X535679Y85952D01*
X536452Y85180D01*
X537398Y84633D01*
X538454Y84350D01*
X538500D01*
Y88000D01*
D02*
G37*
G36*
X529546Y92650D02*
X528454D01*
X527398Y92367D01*
X526452Y91821D01*
X525679Y91048D01*
X525133Y90102D01*
X524850Y89046D01*
Y87954D01*
X525133Y86898D01*
X525679Y85952D01*
X526452Y85180D01*
X527398Y84633D01*
X528454Y84350D01*
X529546D01*
X530602Y84633D01*
X531548Y85180D01*
X532320Y85952D01*
X532867Y86898D01*
X533150Y87954D01*
Y89046D01*
X532867Y90102D01*
X532320Y91048D01*
X531548Y91821D01*
X530602Y92367D01*
X529546Y92650D01*
D02*
G37*
G36*
X519546D02*
X518454D01*
X517398Y92367D01*
X516452Y91821D01*
X515680Y91048D01*
X515133Y90102D01*
X514850Y89046D01*
Y87954D01*
X515133Y86898D01*
X515680Y85952D01*
X516452Y85180D01*
X517398Y84633D01*
X518454Y84350D01*
X519546D01*
X520602Y84633D01*
X521548Y85180D01*
X522321Y85952D01*
X522867Y86898D01*
X523150Y87954D01*
Y89046D01*
X522867Y90102D01*
X522321Y91048D01*
X521548Y91821D01*
X520602Y92367D01*
X519546Y92650D01*
D02*
G37*
G36*
X509546D02*
X508454D01*
X507398Y92367D01*
X506452Y91821D01*
X505680Y91048D01*
X505133Y90102D01*
X504850Y89046D01*
Y87954D01*
X505133Y86898D01*
X505680Y85952D01*
X506452Y85180D01*
X507398Y84633D01*
X508454Y84350D01*
X509546D01*
X510602Y84633D01*
X511548Y85180D01*
X512321Y85952D01*
X512867Y86898D01*
X513150Y87954D01*
Y89046D01*
X512867Y90102D01*
X512321Y91048D01*
X511548Y91821D01*
X510602Y92367D01*
X509546Y92650D01*
D02*
G37*
G36*
X499546D02*
X498454D01*
X497398Y92367D01*
X496452Y91821D01*
X495680Y91048D01*
X495133Y90102D01*
X494850Y89046D01*
Y87954D01*
X495133Y86898D01*
X495680Y85952D01*
X496452Y85180D01*
X497398Y84633D01*
X498454Y84350D01*
X499546D01*
X500602Y84633D01*
X501548Y85180D01*
X502320Y85952D01*
X502867Y86898D01*
X503150Y87954D01*
Y89046D01*
X502867Y90102D01*
X502320Y91048D01*
X501548Y91821D01*
X500602Y92367D01*
X499546Y92650D01*
D02*
G37*
G36*
X489546D02*
X488454D01*
X487398Y92367D01*
X486452Y91821D01*
X485679Y91048D01*
X485133Y90102D01*
X484850Y89046D01*
Y87954D01*
X485133Y86898D01*
X485679Y85952D01*
X486452Y85180D01*
X487398Y84633D01*
X488454Y84350D01*
X489546D01*
X490602Y84633D01*
X491548Y85180D01*
X492320Y85952D01*
X492867Y86898D01*
X493150Y87954D01*
Y89046D01*
X492867Y90102D01*
X492320Y91048D01*
X491548Y91821D01*
X490602Y92367D01*
X489546Y92650D01*
D02*
G37*
G36*
X479546D02*
X478454D01*
X477398Y92367D01*
X476452Y91821D01*
X475679Y91048D01*
X475133Y90102D01*
X474850Y89046D01*
Y87954D01*
X475133Y86898D01*
X475679Y85952D01*
X476452Y85180D01*
X477398Y84633D01*
X478454Y84350D01*
X479546D01*
X480602Y84633D01*
X481548Y85180D01*
X482320Y85952D01*
X482867Y86898D01*
X483150Y87954D01*
Y89046D01*
X482867Y90102D01*
X482320Y91048D01*
X481548Y91821D01*
X480602Y92367D01*
X479546Y92650D01*
D02*
G37*
G36*
X336579Y86067D02*
X333324D01*
X333579Y85117D01*
X334073Y84261D01*
X334773Y83561D01*
X335629Y83067D01*
X336579Y82812D01*
Y86067D01*
D02*
G37*
G36*
X340833D02*
X337579D01*
Y82812D01*
X338528Y83067D01*
X339385Y83561D01*
X340084Y84261D01*
X340579Y85117D01*
X340833Y86067D01*
D02*
G37*
G36*
X357258Y90323D02*
X356269D01*
X355314Y90067D01*
X354458Y89572D01*
X353758Y88873D01*
X353264Y88017D01*
X353008Y87061D01*
Y86072D01*
X353264Y85117D01*
X353758Y84261D01*
X354458Y83561D01*
X355314Y83067D01*
X356269Y82811D01*
X357258D01*
X358213Y83067D01*
X359070Y83561D01*
X359769Y84261D01*
X360264Y85117D01*
X360520Y86072D01*
Y87061D01*
X360264Y88017D01*
X359769Y88873D01*
X359070Y89572D01*
X358213Y90067D01*
X357258Y90323D01*
D02*
G37*
G36*
X347416D02*
X346427D01*
X345472Y90067D01*
X344615Y89572D01*
X343916Y88873D01*
X343421Y88017D01*
X343165Y87061D01*
Y86072D01*
X343421Y85117D01*
X343916Y84261D01*
X344615Y83561D01*
X345472Y83067D01*
X346427Y82811D01*
X347416D01*
X348371Y83067D01*
X349227Y83561D01*
X349927Y84261D01*
X350421Y85117D01*
X350677Y86072D01*
Y87061D01*
X350421Y88017D01*
X349927Y88873D01*
X349227Y89572D01*
X348371Y90067D01*
X347416Y90323D01*
D02*
G37*
G36*
X330992Y86067D02*
X327736D01*
Y82811D01*
X330992D01*
Y86067D01*
D02*
G37*
G36*
X326736D02*
X323480D01*
Y82811D01*
X326736D01*
Y86067D01*
D02*
G37*
%LPD*%
D68*
X682433Y281764D02*
D03*
Y271921D02*
D03*
Y262079D02*
D03*
X356764Y86567D02*
D03*
X346921D02*
D03*
X337079D02*
D03*
X597185Y97000D02*
D03*
X487000Y112500D02*
D03*
X688000Y173972D02*
D03*
Y183815D02*
D03*
Y193658D02*
D03*
Y203500D02*
D03*
Y213342D02*
D03*
X587000Y302500D02*
D03*
X577157D02*
D03*
X567315D02*
D03*
X577500Y97000D02*
D03*
X587343D02*
D03*
X487000Y132185D02*
D03*
Y122343D02*
D03*
D69*
X682433Y252236D02*
D03*
X487000Y142028D02*
D03*
X688000Y223185D02*
D03*
D70*
X327236Y86567D02*
D03*
X596842Y302500D02*
D03*
X567658Y97000D02*
D03*
D76*
X638000Y93500D02*
D03*
X679343Y95000D02*
D03*
X604500Y130500D02*
D03*
D77*
X683000Y134158D02*
D03*
X636933Y169079D02*
D03*
Y209079D02*
D03*
D79*
X628158Y93500D02*
D03*
X669500Y95000D02*
D03*
X683000Y144000D02*
D03*
X614342Y130500D02*
D03*
X636933Y178921D02*
D03*
Y218921D02*
D03*
D80*
X680126Y229484D02*
D03*
D83*
X490500Y223500D02*
X545000D01*
X549500Y228000D01*
X576000Y170500D02*
X590500D01*
X597500Y177500D01*
X503894Y162000D02*
X505394Y160500D01*
X536899D02*
X546022Y169623D01*
X505394Y160500D02*
X536899D01*
X488500Y162000D02*
X503894D01*
X514801Y210000D02*
X516801Y208000D01*
X563500D01*
X514500Y210000D02*
X514801D01*
X472000Y263500D02*
X493500D01*
X515857Y252000D02*
X518516Y249340D01*
X510500Y252000D02*
X515857D01*
X470000Y149000D02*
X503000D01*
X523399Y237000D02*
X525399Y239000D01*
X499500Y237000D02*
X523399D01*
X525399Y239000D02*
X525500D01*
X505118Y216000D02*
X515000D01*
X497969Y208850D02*
X505118Y216000D01*
X480150Y208850D02*
X497969D01*
X475500Y213500D02*
X480150Y208850D01*
X497651Y218850D02*
X497700Y218900D01*
X516201D01*
X476500Y221500D02*
X479150Y218850D01*
X524000Y211000D02*
Y211101D01*
X479150Y218850D02*
X497651D01*
X516201Y218900D02*
X524000Y211101D01*
X517500Y298000D02*
X538500D01*
X516500Y297000D02*
X517500Y298000D01*
X494000Y297500D02*
X507656Y283844D01*
X508656D01*
X491000Y289000D02*
Y306000D01*
Y289000D02*
X505500Y274500D01*
X508656Y283844D02*
X509000Y283500D01*
X636717Y219138D02*
Y234283D01*
Y219138D02*
X636933Y218921D01*
X636500Y234500D02*
X636717Y234283D01*
X613500Y205500D02*
X623512D01*
X636933Y218921D01*
D84*
X477278Y79000D02*
X579185D01*
X597185Y97000D01*
X470699Y85579D02*
X477278Y79000D01*
X469000Y88500D02*
X470699Y86801D01*
Y85579D02*
Y86801D01*
D85*
X415705Y112074D02*
Y118598D01*
X439279Y88500D02*
X469000D01*
X407000Y126122D02*
X408181D01*
X415705Y118598D01*
Y112074D02*
X439279Y88500D01*
D87*
X417000Y176831D02*
D03*
Y257500D02*
D03*
D88*
X262500Y158500D02*
D03*
Y148500D02*
D03*
X352500Y128500D02*
D03*
Y228500D02*
D03*
Y238500D02*
D03*
Y278500D02*
D03*
Y288500D02*
D03*
Y298500D02*
D03*
X262500Y148500D02*
D03*
Y168500D02*
D03*
Y118500D02*
D03*
Y128500D02*
D03*
Y138500D02*
D03*
Y178500D02*
D03*
Y188500D02*
D03*
Y198500D02*
D03*
Y208500D02*
D03*
Y218500D02*
D03*
Y228500D02*
D03*
Y238500D02*
D03*
Y248500D02*
D03*
Y258500D02*
D03*
Y268500D02*
D03*
Y278500D02*
D03*
Y288500D02*
D03*
Y298500D02*
D03*
X352500Y148500D02*
D03*
D03*
Y138500D02*
D03*
Y158500D02*
D03*
Y168500D02*
D03*
Y178500D02*
D03*
Y188500D02*
D03*
Y198500D02*
D03*
Y208500D02*
D03*
Y218500D02*
D03*
Y248500D02*
D03*
Y258500D02*
D03*
Y268500D02*
D03*
Y118500D02*
D03*
Y108500D02*
D03*
X287000Y89500D02*
D03*
X272500Y90000D02*
D03*
D89*
X519000Y88500D02*
D03*
X499000D02*
D03*
X479000D02*
D03*
X489000D02*
D03*
X509000D02*
D03*
X529000D02*
D03*
X539000D02*
D03*
X490500Y183500D02*
D03*
Y193500D02*
D03*
Y213500D02*
D03*
Y223500D02*
D03*
Y203500D02*
D03*
D90*
X469000Y88500D02*
D03*
D91*
X490500Y233500D02*
D03*
D92*
X407000Y126122D02*
D03*
Y102500D02*
D03*
D93*
X425504Y114311D02*
D03*
D94*
X646500Y126500D02*
D03*
X390548Y149510D02*
D03*
X635000Y301000D02*
D03*
D95*
X618500Y237000D02*
D03*
X581535Y188859D02*
D03*
X570623Y189877D02*
D03*
X555500Y278000D02*
D03*
X535000Y269500D02*
D03*
X472500Y252500D02*
D03*
X525500Y267500D02*
D03*
X543000Y228000D02*
D03*
X656000Y259000D02*
D03*
X576000Y170500D02*
D03*
X597500Y177500D02*
D03*
X476500Y199000D02*
D03*
X548000Y201500D02*
D03*
X607000Y153500D02*
D03*
X518500Y164000D02*
D03*
X514500Y210000D02*
D03*
X489000Y173000D02*
D03*
X520000D02*
D03*
X472000Y263500D02*
D03*
X493500D02*
D03*
X518516Y249340D02*
D03*
X510500Y252000D02*
D03*
X505541Y227539D02*
D03*
X470000Y149000D02*
D03*
X503000D02*
D03*
X469000Y173000D02*
D03*
X573368Y126298D02*
D03*
X558000Y138000D02*
D03*
X525500Y126500D02*
D03*
X530000Y306500D02*
D03*
X574049Y288127D02*
D03*
X596500Y286500D02*
D03*
X552374Y185520D02*
D03*
X556500Y149000D02*
D03*
X615500Y274500D02*
D03*
X562500Y250500D02*
D03*
X543500Y260000D02*
D03*
X533500Y258500D02*
D03*
X524000D02*
D03*
X540000Y190500D02*
D03*
X666000Y279000D02*
D03*
Y266500D02*
D03*
X590781Y151466D02*
D03*
X579500Y152000D02*
D03*
X509500Y304500D02*
D03*
X480943Y304584D02*
D03*
X458000Y312500D02*
D03*
X499500Y237000D02*
D03*
X476500Y221500D02*
D03*
X475500Y213500D02*
D03*
X515000Y216000D02*
D03*
X524000Y211000D02*
D03*
X488500Y162000D02*
D03*
X546022Y169623D02*
D03*
X525500Y239000D02*
D03*
X563500Y208000D02*
D03*
X549500Y228000D02*
D03*
X538500Y298000D02*
D03*
X516500Y297000D02*
D03*
X494000Y297500D02*
D03*
X491000Y306000D02*
D03*
X509000Y283500D02*
D03*
X505500Y274500D02*
D03*
X636500Y234500D02*
D03*
X613500Y205500D02*
D03*
D96*
X453000Y116000D02*
D03*
X461500Y156500D02*
D03*
X444500Y157000D02*
D03*
X453000D02*
D03*
X455500Y95000D02*
D03*
X445500Y94500D02*
D03*
D97*
X535000Y269500D02*
X547000D01*
X555500Y278000D01*
X509500Y267500D02*
X525500D01*
X472500Y252500D02*
X494500D01*
X509500Y267500D01*
X476500Y199000D02*
X476749Y198751D01*
X477819Y198600D02*
X510698D01*
X477668Y198751D02*
X477819Y198600D01*
X476749Y198751D02*
X477668D01*
X510698Y198600D02*
X513597Y201500D01*
X548000D01*
X489000Y173000D02*
X520000D01*
M02*
