G04*
G04 #@! TF.GenerationSoftware,Altium Limited,Altium Designer,21.4.1 (30)*
G04*
G04 Layer_Physical_Order=1*
G04 Layer_Color=255*
%FSLAX25Y25*%
%MOIN*%
G70*
G04*
G04 #@! TF.SameCoordinates,5141BEB0-0B1F-41B6-A3F9-944F83B17515*
G04*
G04*
G04 #@! TF.FilePolarity,Positive*
G04*
G01*
G75*
%ADD16R,0.03937X0.03543*%
%ADD17R,0.03150X0.03543*%
%ADD18R,0.03543X0.02953*%
%ADD19O,0.00984X0.06102*%
%ADD20O,0.06102X0.00984*%
%ADD21R,0.03347X0.03543*%
%ADD22R,0.03543X0.03347*%
%ADD23R,0.02953X0.04331*%
%ADD24R,0.03347X0.04331*%
%ADD25R,0.04724X0.03937*%
%ADD26R,0.07480X0.05315*%
%ADD27R,0.04606X0.07087*%
%ADD28R,0.06102X0.05315*%
G04:AMPARAMS|DCode=29|XSize=17.72mil|YSize=55.12mil|CornerRadius=1.95mil|HoleSize=0mil|Usage=FLASHONLY|Rotation=90.000|XOffset=0mil|YOffset=0mil|HoleType=Round|Shape=RoundedRectangle|*
%AMROUNDEDRECTD29*
21,1,0.01772,0.05122,0,0,90.0*
21,1,0.01382,0.05512,0,0,90.0*
1,1,0.00390,0.02561,0.00691*
1,1,0.00390,0.02561,-0.00691*
1,1,0.00390,-0.02561,-0.00691*
1,1,0.00390,-0.02561,0.00691*
%
%ADD29ROUNDEDRECTD29*%
%ADD30R,0.04000X0.05000*%
%ADD31R,0.12795X0.08465*%
%ADD32R,0.03740X0.08465*%
%ADD33R,0.03985X0.04562*%
%ADD34R,0.06213X0.06127*%
%ADD35R,0.03543X0.03937*%
%ADD36R,0.02953X0.03543*%
%ADD37R,0.03591X0.03772*%
%ADD38R,0.03772X0.03591*%
%ADD39R,0.05118X0.05906*%
%ADD40R,0.03197X0.02593*%
%ADD41R,0.04724X0.07087*%
%ADD42R,0.02756X0.02362*%
%ADD43R,0.02593X0.03197*%
%ADD44R,0.05000X0.04000*%
%ADD45R,0.07480X0.05118*%
%ADD46R,0.02756X0.03543*%
%ADD68C,0.05512*%
%ADD69R,0.05512X0.05512*%
%ADD70R,0.05512X0.05512*%
%ADD76R,0.06102X0.06102*%
%ADD77R,0.06102X0.06102*%
%ADD79C,0.06102*%
%ADD80C,0.04331*%
%ADD83C,0.01000*%
%ADD84C,0.02500*%
%ADD85C,0.05000*%
%ADD86C,0.07500*%
%ADD87C,0.08976*%
%ADD88C,0.06000*%
%ADD89C,0.06299*%
G04:AMPARAMS|DCode=90|XSize=62.99mil|YSize=62.99mil|CornerRadius=15.75mil|HoleSize=0mil|Usage=FLASHONLY|Rotation=0.000|XOffset=0mil|YOffset=0mil|HoleType=Round|Shape=RoundedRectangle|*
%AMROUNDEDRECTD90*
21,1,0.06299,0.03150,0,0,0.0*
21,1,0.03150,0.06299,0,0,0.0*
1,1,0.03150,0.01575,-0.01575*
1,1,0.03150,-0.01575,-0.01575*
1,1,0.03150,-0.01575,0.01575*
1,1,0.03150,0.01575,0.01575*
%
%ADD90ROUNDEDRECTD90*%
G04:AMPARAMS|DCode=91|XSize=62.99mil|YSize=62.99mil|CornerRadius=15.75mil|HoleSize=0mil|Usage=FLASHONLY|Rotation=270.000|XOffset=0mil|YOffset=0mil|HoleType=Round|Shape=RoundedRectangle|*
%AMROUNDEDRECTD91*
21,1,0.06299,0.03150,0,0,270.0*
21,1,0.03150,0.06299,0,0,270.0*
1,1,0.03150,-0.01575,-0.01575*
1,1,0.03150,-0.01575,0.01575*
1,1,0.03150,0.01575,0.01575*
1,1,0.03150,0.01575,-0.01575*
%
%ADD91ROUNDEDRECTD91*%
%ADD92R,0.08268X0.05906*%
%ADD93R,0.05906X0.08268*%
%ADD94C,0.24000*%
%ADD95C,0.02800*%
%ADD96C,0.05000*%
G36*
X704225Y68774D02*
X254275D01*
Y324225D01*
X268000D01*
Y291500D01*
X348500D01*
Y295828D01*
X349296Y296043D01*
X349300Y296043D01*
X350044Y295299D01*
X350956Y294773D01*
X351973Y294500D01*
X353027D01*
X354044Y294773D01*
X354956Y295299D01*
X355701Y296044D01*
X356227Y296956D01*
X356500Y297973D01*
Y299027D01*
X356227Y300044D01*
X355701Y300956D01*
X354956Y301701D01*
X354044Y302227D01*
X353027Y302500D01*
X351973D01*
X350956Y302227D01*
X350044Y301701D01*
X349300Y300957D01*
X349296Y300957D01*
X348500Y301172D01*
Y324225D01*
X704225D01*
Y68774D01*
D02*
G37*
%LPC*%
G36*
X539968Y314921D02*
X537500D01*
Y312650D01*
X539968D01*
Y314921D01*
D02*
G37*
G36*
X536500D02*
X534031D01*
Y312650D01*
X536500D01*
Y314921D01*
D02*
G37*
G36*
X458477Y314900D02*
X457523D01*
X456640Y314535D01*
X455965Y313860D01*
X455600Y312977D01*
Y312023D01*
X455965Y311140D01*
X456640Y310465D01*
X457523Y310100D01*
X458477D01*
X459360Y310465D01*
X459424Y310530D01*
X463728D01*
Y307441D01*
X466500D01*
X469272D01*
Y309386D01*
Y314732D01*
X463728D01*
Y313589D01*
X460147D01*
X460035Y313860D01*
X459360Y314535D01*
X458477Y314900D01*
D02*
G37*
G36*
X469272Y306441D02*
X467000D01*
Y304268D01*
X469272D01*
Y306441D01*
D02*
G37*
G36*
X466000D02*
X463728D01*
Y304268D01*
X466000D01*
Y306441D01*
D02*
G37*
G36*
X482112Y317474D02*
X474010D01*
Y310159D01*
X476532D01*
Y307467D01*
X476648Y306881D01*
X476980Y306385D01*
X478544Y304821D01*
Y304107D01*
X478909Y303225D01*
X479584Y302550D01*
X480466Y302184D01*
X481421D01*
X482303Y302550D01*
X482978Y303225D01*
X483344Y304107D01*
Y305062D01*
X482978Y305944D01*
X482303Y306619D01*
X481421Y306984D01*
X480706D01*
X479590Y308100D01*
Y310159D01*
X482112D01*
Y317474D01*
D02*
G37*
G36*
X567809Y306256D02*
X566820D01*
X565865Y306000D01*
X565009Y305505D01*
X564310Y304806D01*
X563815Y303950D01*
X563559Y302994D01*
Y302006D01*
X563815Y301050D01*
X564310Y300194D01*
X565009Y299495D01*
X565865Y299000D01*
X566820Y298744D01*
X567809D01*
X568765Y299000D01*
X569621Y299495D01*
X570320Y300194D01*
X570815Y301050D01*
X571071Y302006D01*
Y302994D01*
X570815Y303950D01*
X570320Y304806D01*
X569621Y305505D01*
X568765Y306000D01*
X567809Y306256D01*
D02*
G37*
G36*
X468575Y297118D02*
X466500D01*
Y294847D01*
X468575D01*
Y297118D01*
D02*
G37*
G36*
X465500D02*
X463425D01*
Y294847D01*
X465500D01*
Y297118D01*
D02*
G37*
G36*
X263027Y302500D02*
X261973D01*
X260956Y302227D01*
X260044Y301701D01*
X259299Y300956D01*
X258773Y300044D01*
X258500Y299026D01*
Y297973D01*
X258773Y296956D01*
X259299Y296044D01*
X260044Y295299D01*
X260956Y294773D01*
X261973Y294500D01*
X263027D01*
X264044Y294773D01*
X264956Y295299D01*
X265701Y296044D01*
X266227Y296956D01*
X266500Y297973D01*
Y299026D01*
X266227Y300044D01*
X265701Y300956D01*
X264956Y301701D01*
X264044Y302227D01*
X263027Y302500D01*
D02*
G37*
G36*
X546575Y296118D02*
X544500D01*
Y293847D01*
X546575D01*
Y296118D01*
D02*
G37*
G36*
X543500D02*
X541425D01*
Y293847D01*
X543500D01*
Y296118D01*
D02*
G37*
G36*
X533500D02*
X531425D01*
Y293847D01*
X533500D01*
Y296118D01*
D02*
G37*
G36*
X468575Y293847D02*
X466500D01*
Y291575D01*
X468575D01*
Y293847D01*
D02*
G37*
G36*
X465500D02*
X463425D01*
Y291575D01*
X465500D01*
Y293847D01*
D02*
G37*
G36*
X480734Y293065D02*
X474010D01*
Y289291D01*
X473595Y288876D01*
X468575D01*
Y290425D01*
X463425D01*
Y284882D01*
X468575D01*
Y285817D01*
X474228D01*
X474814Y285933D01*
X475310Y286265D01*
X476173Y287128D01*
X480734D01*
Y293065D01*
D02*
G37*
G36*
X636023Y314000D02*
X633977D01*
X631956Y313680D01*
X630010Y313048D01*
X628187Y312119D01*
X626531Y310916D01*
X625084Y309469D01*
X623881Y307814D01*
X622952Y305990D01*
X622320Y304044D01*
X622000Y302023D01*
Y299977D01*
X622320Y297956D01*
X622952Y296010D01*
X623881Y294186D01*
X625084Y292531D01*
X626531Y291084D01*
X628187Y289881D01*
X630010Y288952D01*
X631956Y288320D01*
X633977Y288000D01*
X636023D01*
X638044Y288320D01*
X639990Y288952D01*
X641814Y289881D01*
X643469Y291084D01*
X644916Y292531D01*
X646119Y294186D01*
X647048Y296010D01*
X647680Y297956D01*
X648000Y299977D01*
Y302023D01*
X647680Y304044D01*
X647048Y305990D01*
X646119Y307814D01*
X644916Y309469D01*
X643469Y310916D01*
X641814Y312119D01*
X639990Y313048D01*
X638044Y313680D01*
X636023Y314000D01*
D02*
G37*
G36*
X263027Y292500D02*
X261973D01*
X260956Y292227D01*
X260044Y291701D01*
X259299Y290956D01*
X258773Y290044D01*
X258500Y289026D01*
Y287973D01*
X258773Y286956D01*
X259299Y286044D01*
X260044Y285299D01*
X260956Y284772D01*
X261973Y284500D01*
X263027D01*
X264044Y284772D01*
X264956Y285299D01*
X265701Y286044D01*
X266227Y286956D01*
X266500Y287973D01*
Y289026D01*
X266227Y290044D01*
X265701Y290956D01*
X264956Y291701D01*
X264044Y292227D01*
X263027Y292500D01*
D02*
G37*
G36*
X682933Y285518D02*
Y282264D01*
X686188D01*
X685933Y283213D01*
X685438Y284070D01*
X684739Y284769D01*
X683883Y285264D01*
X682933Y285518D01*
D02*
G37*
G36*
X681933Y285518D02*
X680983Y285264D01*
X680127Y284769D01*
X679428Y284070D01*
X678933Y283213D01*
X678679Y282264D01*
X681933D01*
Y285518D01*
D02*
G37*
G36*
X556000Y280391D02*
Y278500D01*
X557891D01*
X557535Y279360D01*
X556859Y280035D01*
X556000Y280391D01*
D02*
G37*
G36*
X555000D02*
X554141Y280035D01*
X553465Y279360D01*
X553109Y278500D01*
X555000D01*
Y280391D01*
D02*
G37*
G36*
X681933Y281264D02*
X678679D01*
X678933Y280314D01*
X679428Y279458D01*
X680127Y278758D01*
X680983Y278264D01*
X681933Y278009D01*
Y281264D01*
D02*
G37*
G36*
X686188D02*
X682933D01*
Y278009D01*
X683883Y278264D01*
X684739Y278758D01*
X685438Y279458D01*
X685933Y280314D01*
X686188Y281264D01*
D02*
G37*
G36*
X606272Y279941D02*
X604000D01*
Y277768D01*
X606272D01*
Y279941D01*
D02*
G37*
G36*
X603000D02*
X600728D01*
Y277768D01*
X603000D01*
Y279941D01*
D02*
G37*
G36*
X652441Y282953D02*
X651641Y282953D01*
X644960D01*
Y277210D01*
X641780Y274029D01*
X639378D01*
Y275272D01*
X634622D01*
Y269728D01*
X639378D01*
Y270971D01*
X642413D01*
X642999Y271087D01*
X643495Y271419D01*
X647123Y275047D01*
X651641D01*
X652079Y275047D01*
X652879Y275047D01*
X659559D01*
Y277471D01*
X664135D01*
X664641Y276965D01*
X665523Y276600D01*
X666477D01*
X667359Y276965D01*
X668035Y277641D01*
X668400Y278523D01*
Y279477D01*
X668035Y280360D01*
X667359Y281035D01*
X666477Y281400D01*
X665523D01*
X664641Y281035D01*
X664135Y280529D01*
X659559D01*
Y282953D01*
X652879D01*
X652441Y282953D01*
D02*
G37*
G36*
X557891Y277500D02*
X556000D01*
Y275609D01*
X556859Y275965D01*
X557535Y276641D01*
X557891Y277500D01*
D02*
G37*
G36*
X555000D02*
X553109D01*
X553465Y276641D01*
X554141Y275965D01*
X555000Y275609D01*
Y277500D01*
D02*
G37*
G36*
X263027Y282500D02*
X261973D01*
X260956Y282227D01*
X260044Y281701D01*
X259299Y280956D01*
X258773Y280044D01*
X258500Y279027D01*
Y277973D01*
X258773Y276956D01*
X259299Y276044D01*
X260044Y275299D01*
X260956Y274773D01*
X261973Y274500D01*
X263027D01*
X264044Y274773D01*
X264956Y275299D01*
X265701Y276044D01*
X266227Y276956D01*
X266500Y277973D01*
Y279027D01*
X266227Y280044D01*
X265701Y280956D01*
X264956Y281701D01*
X264044Y282227D01*
X263027Y282500D01*
D02*
G37*
G36*
X610175Y275866D02*
X608114D01*
Y274457D01*
X611393D01*
Y274648D01*
X611301Y275114D01*
X611037Y275509D01*
X610641Y275773D01*
X610175Y275866D01*
D02*
G37*
G36*
X607114D02*
X605053D01*
X604587Y275773D01*
X604192Y275509D01*
X603928Y275114D01*
X603835Y274648D01*
Y274457D01*
X607114D01*
Y275866D01*
D02*
G37*
G36*
X535500Y271891D02*
Y270000D01*
X537391D01*
X537035Y270860D01*
X536360Y271535D01*
X535500Y271891D01*
D02*
G37*
G36*
X534500D02*
X533640Y271535D01*
X532965Y270860D01*
X532609Y270000D01*
X534500D01*
Y271891D01*
D02*
G37*
G36*
X495892Y275348D02*
X486411D01*
Y268034D01*
X495892D01*
Y275348D01*
D02*
G37*
G36*
X526000Y269891D02*
Y268000D01*
X527891D01*
X527535Y268860D01*
X526860Y269535D01*
X526000Y269891D01*
D02*
G37*
G36*
X525000D02*
X524141Y269535D01*
X523465Y268860D01*
X523109Y268000D01*
X525000D01*
Y269891D01*
D02*
G37*
G36*
X537391Y269000D02*
X535500D01*
Y267109D01*
X536360Y267465D01*
X537035Y268141D01*
X537391Y269000D01*
D02*
G37*
G36*
X534500D02*
X532609D01*
X532965Y268141D01*
X533640Y267465D01*
X534500Y267109D01*
Y269000D01*
D02*
G37*
G36*
X527891Y267000D02*
X526000D01*
Y265109D01*
X526860Y265465D01*
X527535Y266141D01*
X527891Y267000D01*
D02*
G37*
G36*
X525000D02*
X523109D01*
X523465Y266141D01*
X524141Y265465D01*
X525000Y265109D01*
Y267000D01*
D02*
G37*
G36*
X652681Y270453D02*
X651881Y270453D01*
X645201D01*
Y264710D01*
X645020Y264529D01*
X639331D01*
Y265772D01*
X634575D01*
Y260228D01*
X639331D01*
Y261471D01*
X645653D01*
X646239Y261587D01*
X646735Y261919D01*
X647364Y262547D01*
X651881D01*
X652319Y262547D01*
X653119Y262547D01*
X659799D01*
Y264971D01*
X664135D01*
X664641Y264465D01*
X665523Y264100D01*
X666477D01*
X667359Y264465D01*
X668035Y265141D01*
X668400Y266023D01*
Y266977D01*
X668035Y267860D01*
X667359Y268535D01*
X666477Y268900D01*
X665523D01*
X664641Y268535D01*
X664135Y268029D01*
X659799D01*
Y270453D01*
X653119D01*
X652681Y270453D01*
D02*
G37*
G36*
X353027Y272500D02*
X351973D01*
X350956Y272227D01*
X350044Y271701D01*
X349299Y270956D01*
X348773Y270044D01*
X348500Y269027D01*
Y267973D01*
X348773Y266956D01*
X349299Y266044D01*
X350044Y265299D01*
X350956Y264773D01*
X351973Y264500D01*
X353027D01*
X354044Y264773D01*
X354956Y265299D01*
X355701Y266044D01*
X356227Y266956D01*
X356500Y267973D01*
Y269027D01*
X356227Y270044D01*
X355701Y270956D01*
X354956Y271701D01*
X354044Y272227D01*
X353027Y272500D01*
D02*
G37*
G36*
X263027Y272500D02*
X261973D01*
X260956Y272227D01*
X260044Y271701D01*
X259299Y270956D01*
X258773Y270044D01*
X258500Y269026D01*
Y267973D01*
X258773Y266956D01*
X259299Y266044D01*
X260044Y265299D01*
X260956Y264773D01*
X261973Y264500D01*
X263027D01*
X264044Y264773D01*
X264956Y265299D01*
X265701Y266044D01*
X266227Y266956D01*
X266500Y267973D01*
Y269026D01*
X266227Y270044D01*
X265701Y270956D01*
X264956Y271701D01*
X264044Y272227D01*
X263027Y272500D01*
D02*
G37*
G36*
X472500Y265891D02*
Y264000D01*
X474391D01*
X474035Y264860D01*
X473359Y265535D01*
X472500Y265891D01*
D02*
G37*
G36*
X471500D02*
X470641Y265535D01*
X469965Y264860D01*
X469609Y264000D01*
X471500D01*
Y265891D01*
D02*
G37*
G36*
X517075Y265772D02*
X515000D01*
Y263500D01*
X517075D01*
Y265772D01*
D02*
G37*
G36*
X514000D02*
X511925D01*
Y263500D01*
X514000D01*
Y265772D01*
D02*
G37*
G36*
X525931Y317474D02*
X501238D01*
Y314309D01*
Y311144D01*
X504039D01*
Y299202D01*
X500344Y295507D01*
X500012Y295010D01*
X499896Y294425D01*
Y265772D01*
X498000D01*
Y263000D01*
X497000D01*
Y265772D01*
X494925D01*
X494925Y265772D01*
Y265772D01*
X494149Y265829D01*
X494000Y265891D01*
Y263500D01*
Y261109D01*
X494125Y261161D01*
X494925Y260627D01*
Y260228D01*
X497568D01*
X497960Y259428D01*
X497688Y259079D01*
X494925D01*
Y253535D01*
X497045D01*
Y252862D01*
X497162Y252277D01*
X497493Y251781D01*
X526725Y222549D01*
X527222Y222217D01*
X527731Y221654D01*
X527846Y221071D01*
X527639Y220700D01*
X526698Y220575D01*
X498592Y248681D01*
X498592Y248681D01*
X491575Y255698D01*
Y259079D01*
X488812D01*
X488541Y259428D01*
X488932Y260228D01*
X491575D01*
Y260986D01*
X492375Y261368D01*
X493000Y261109D01*
Y263500D01*
Y265891D01*
X492375Y265632D01*
X491575Y265772D01*
Y265772D01*
X489500D01*
Y263000D01*
X488500D01*
Y265772D01*
X486425D01*
Y263145D01*
X485625Y262718D01*
X485529Y262782D01*
Y275867D01*
X498481Y288819D01*
X498813Y289315D01*
X498929Y289900D01*
Y311144D01*
X500238D01*
Y314309D01*
Y317474D01*
X485073D01*
Y311144D01*
X486717D01*
Y309278D01*
X486687Y309233D01*
X486571Y308648D01*
Y303400D01*
X486687Y302815D01*
X487019Y302319D01*
X491600Y297737D01*
Y297023D01*
X491965Y296141D01*
X492640Y295465D01*
X493523Y295100D01*
X494477D01*
X495071Y295346D01*
X495871Y294931D01*
Y290533D01*
X482919Y277581D01*
X482587Y277085D01*
X482471Y276500D01*
Y261504D01*
X482587Y260919D01*
X482919Y260422D01*
X486425Y256916D01*
Y253535D01*
X489412D01*
X490679Y252269D01*
X490373Y251529D01*
X487134D01*
X478901Y259762D01*
Y272561D01*
X480734D01*
Y278498D01*
X474010D01*
Y272561D01*
X475843D01*
Y259128D01*
X475959Y258543D01*
X476291Y258047D01*
X485419Y248919D01*
X485915Y248587D01*
X486500Y248471D01*
X490867D01*
X499198Y240139D01*
X498869Y239336D01*
X498140Y239035D01*
X497465Y238359D01*
X497100Y237477D01*
Y236523D01*
X497465Y235641D01*
X497971Y235135D01*
Y226558D01*
X495385Y223973D01*
X494582Y224300D01*
X494367Y225102D01*
X493820Y226048D01*
X493048Y226820D01*
X492102Y227367D01*
X491046Y227650D01*
X489954D01*
X488898Y227367D01*
X487952Y226820D01*
X487180Y226048D01*
X486633Y225102D01*
X486350Y224046D01*
Y222954D01*
X486633Y221898D01*
X487180Y220952D01*
X487690Y220441D01*
X487808Y219779D01*
X487676Y219415D01*
X484769Y216507D01*
X484437Y216011D01*
X484321Y215426D01*
Y208150D01*
X484437Y207564D01*
X484769Y207068D01*
X486671Y205167D01*
X486633Y205102D01*
X486350Y204046D01*
Y202954D01*
X486633Y201898D01*
X487180Y200952D01*
X487952Y200180D01*
X488898Y199633D01*
X489954Y199350D01*
X491046D01*
X492102Y199633D01*
X493048Y200180D01*
X493820Y200952D01*
X494367Y201898D01*
X494650Y202954D01*
Y204046D01*
X494367Y205102D01*
X493820Y206048D01*
X493048Y206821D01*
X492102Y207367D01*
X491046Y207650D01*
X489954D01*
X488898Y207367D01*
X488834Y207329D01*
X487380Y208783D01*
Y209711D01*
X488180Y210048D01*
X488898Y209633D01*
X489954Y209350D01*
X491046D01*
X492102Y209633D01*
X493048Y210179D01*
X493820Y210952D01*
X494367Y211898D01*
X494386Y211971D01*
X505031D01*
Y209579D01*
X510968D01*
Y209596D01*
X511768Y209996D01*
X512100Y209747D01*
Y209523D01*
X512465Y208641D01*
X513140Y207965D01*
X514023Y207600D01*
X514977D01*
X515860Y207965D01*
X516535Y208641D01*
X516900Y209523D01*
Y210477D01*
X516535Y211360D01*
X516208Y211686D01*
X516073Y211821D01*
X516515Y212487D01*
X516700Y212450D01*
X517100Y212371D01*
X521104D01*
X521639Y211571D01*
X521600Y211477D01*
Y210523D01*
X521965Y209641D01*
X522641Y208965D01*
X523523Y208600D01*
X524477D01*
X524679Y208684D01*
X525059Y208430D01*
X525645Y208313D01*
X526662D01*
X526916Y207874D01*
X526662Y207435D01*
X525906D01*
X525320Y207318D01*
X524824Y206987D01*
X502867Y185029D01*
X494386D01*
X494367Y185102D01*
X493820Y186048D01*
X493048Y186820D01*
X492102Y187367D01*
X491046Y187650D01*
X489954D01*
X488898Y187367D01*
X487952Y186820D01*
X487180Y186048D01*
X486633Y185102D01*
X486350Y184046D01*
Y182954D01*
X486633Y181898D01*
X487180Y180952D01*
X487952Y180180D01*
X488898Y179633D01*
X489954Y179350D01*
X491046D01*
X492102Y179633D01*
X493048Y180180D01*
X493820Y180952D01*
X494367Y181898D01*
X494386Y181971D01*
X502676D01*
X503008Y181171D01*
X493919Y172081D01*
X493587Y171585D01*
X493471Y171000D01*
Y159634D01*
X479419Y145581D01*
X479087Y145085D01*
X478971Y144500D01*
Y128842D01*
X479087Y128257D01*
X479419Y127761D01*
X483476Y123703D01*
X483244Y122837D01*
Y121848D01*
X483500Y120893D01*
X483994Y120036D01*
X484694Y119337D01*
X485550Y118843D01*
X486506Y118587D01*
X487495D01*
X488450Y118843D01*
X489306Y119337D01*
X490005Y120036D01*
X490500Y120893D01*
X490756Y121848D01*
Y122837D01*
X490500Y123792D01*
X490005Y124649D01*
X489306Y125348D01*
X488450Y125842D01*
X487495Y126098D01*
X486506D01*
X485639Y125866D01*
X482029Y129476D01*
Y143772D01*
X482487Y144141D01*
X483244Y143808D01*
Y138272D01*
X489792D01*
X490124Y137472D01*
X488361Y135709D01*
X487495Y135941D01*
X486506D01*
X485550Y135685D01*
X484694Y135190D01*
X483994Y134491D01*
X483500Y133635D01*
X483244Y132679D01*
Y131691D01*
X483500Y130735D01*
X483994Y129879D01*
X484694Y129180D01*
X485550Y128685D01*
X486506Y128429D01*
X487495D01*
X488450Y128685D01*
X489306Y129180D01*
X490005Y129879D01*
X490500Y130735D01*
X490756Y131691D01*
Y132679D01*
X490524Y133546D01*
X499581Y142604D01*
X499913Y143100D01*
X500029Y143685D01*
Y147810D01*
X500829Y147969D01*
X500965Y147641D01*
X501641Y146965D01*
X502500Y146609D01*
Y149000D01*
X503000D01*
Y149500D01*
X505391D01*
X505035Y150359D01*
X504594Y150800D01*
X504925Y151600D01*
X507500D01*
Y154100D01*
X506500D01*
Y152600D01*
X501500D01*
Y159200D01*
X504000Y156700D01*
X506500Y159200D01*
Y158858D01*
X507142Y159500D01*
X507500D01*
Y160202D01*
X507520Y160300D01*
Y163823D01*
X508662Y164965D01*
X509401Y164659D01*
Y162539D01*
X514599D01*
Y162815D01*
X516393D01*
X516465Y162641D01*
X517140Y161965D01*
X518023Y161600D01*
X518977D01*
X519860Y161965D01*
X520535Y162641D01*
X520900Y163523D01*
Y164477D01*
X520535Y165359D01*
X519860Y166035D01*
X518977Y166400D01*
X518023D01*
X517140Y166035D01*
X516980Y165874D01*
X514599D01*
Y167132D01*
X514599Y167132D01*
Y167868D01*
X514599D01*
X514599Y167932D01*
Y172461D01*
X513029D01*
Y180945D01*
X517292Y185208D01*
X518032Y184902D01*
Y182773D01*
X518032Y182728D01*
Y181972D01*
X518032Y181928D01*
Y179701D01*
X523969D01*
Y181928D01*
X523969Y181972D01*
Y182728D01*
X523969Y182773D01*
Y183971D01*
X525508D01*
X526093Y184087D01*
X526589Y184419D01*
X526659Y184489D01*
X527564Y184455D01*
X527731Y184252D01*
X527846Y183670D01*
X528176Y183176D01*
X528670Y182846D01*
X529252Y182731D01*
X531311D01*
Y184252D01*
X531811D01*
Y184691D01*
X531851Y184699D01*
X535728D01*
X535800Y184713D01*
X535800Y184713D01*
X536314Y184815D01*
X536810Y185147D01*
X539763Y188100D01*
X540477D01*
X541360Y188465D01*
X542035Y189140D01*
X542400Y190023D01*
Y190977D01*
X542035Y191859D01*
X541360Y192535D01*
X540477Y192900D01*
X539523D01*
X538640Y192535D01*
X537965Y191859D01*
X537600Y190977D01*
Y190263D01*
X536924Y189587D01*
X535884Y189665D01*
X535810Y189748D01*
X535891Y190157D01*
X535776Y190740D01*
X535507Y191142D01*
X535776Y191544D01*
X535891Y192126D01*
X535776Y192708D01*
X535507Y193110D01*
X535776Y193512D01*
X535891Y194095D01*
X535776Y194677D01*
X535507Y195079D01*
X535776Y195481D01*
X535891Y196063D01*
X535776Y196645D01*
X535507Y197047D01*
X535776Y197449D01*
X535891Y198031D01*
X535776Y198614D01*
X535507Y199016D01*
X535776Y199418D01*
X535891Y200000D01*
X535776Y200582D01*
X535507Y200984D01*
X535776Y201386D01*
X535891Y201969D01*
X535776Y202551D01*
X535507Y202953D01*
X535776Y203355D01*
X535891Y203937D01*
X535776Y204519D01*
X535507Y204921D01*
X535776Y205323D01*
X535891Y205906D01*
X535776Y206488D01*
X535507Y206890D01*
X535776Y207292D01*
X535891Y207874D01*
X535776Y208456D01*
X535507Y208858D01*
X535776Y209260D01*
X535891Y209842D01*
X535776Y210425D01*
X535507Y210827D01*
X535776Y211229D01*
X535891Y211811D01*
X535776Y212393D01*
X535507Y212795D01*
X535776Y213197D01*
X535891Y213779D01*
X535776Y214362D01*
X535507Y214764D01*
X535776Y215166D01*
X535891Y215748D01*
X535776Y216330D01*
X535507Y216732D01*
X535776Y217134D01*
X535891Y217717D01*
X535776Y218299D01*
X535507Y218701D01*
X535776Y219103D01*
X535891Y219685D01*
X535776Y220267D01*
X535507Y220669D01*
X535776Y221071D01*
X535891Y221654D01*
X535776Y222236D01*
X535507Y222638D01*
X535776Y223040D01*
X535891Y223622D01*
X535776Y224204D01*
X535507Y224606D01*
X535776Y225008D01*
X535891Y225590D01*
X535776Y226173D01*
X535507Y226575D01*
X535776Y226977D01*
X535891Y227559D01*
X535776Y228141D01*
X535507Y228543D01*
X535776Y228945D01*
X535891Y229528D01*
X535776Y230110D01*
X535507Y230512D01*
X535776Y230914D01*
X535891Y231496D01*
X535776Y232078D01*
X535446Y232572D01*
X534952Y232902D01*
X534370Y233017D01*
X533275D01*
X533224Y233274D01*
X532893Y233770D01*
X527900Y238763D01*
Y239477D01*
X527535Y240359D01*
X526860Y241035D01*
X525977Y241400D01*
X525023D01*
X524141Y241035D01*
X523465Y240359D01*
X523100Y239477D01*
Y238523D01*
X523465Y237641D01*
X524141Y236965D01*
X525023Y236600D01*
X525737D01*
X528628Y233709D01*
X528639Y233497D01*
X528451Y232755D01*
X528176Y232572D01*
X527846Y232078D01*
X527782Y231757D01*
X527073Y231449D01*
X526966Y231442D01*
X516029Y242379D01*
Y247302D01*
X516829Y247633D01*
X517157Y247305D01*
X518016Y246949D01*
Y249340D01*
Y251731D01*
X517157Y251375D01*
X516829Y251047D01*
X516029Y251378D01*
Y253535D01*
X517075D01*
Y259079D01*
X514312D01*
X514041Y259428D01*
X514432Y260228D01*
X517075D01*
Y262500D01*
X514500D01*
X511925D01*
Y262287D01*
X511186Y261981D01*
X510529Y262637D01*
Y268034D01*
X519396D01*
Y275348D01*
X510529D01*
Y281635D01*
X511035Y282140D01*
X511400Y283023D01*
Y283977D01*
X511035Y284859D01*
X510359Y285535D01*
X509477Y285900D01*
X508523D01*
X507641Y285535D01*
X506965Y284859D01*
X506600Y283977D01*
Y283023D01*
X506965Y282140D01*
X507471Y281635D01*
Y276969D01*
X506671Y276613D01*
X505977Y276900D01*
X505023D01*
X504141Y276535D01*
X503755Y276149D01*
X502955Y276480D01*
Y293792D01*
X506650Y297487D01*
X506982Y297984D01*
X507098Y298569D01*
Y302376D01*
X507898Y302708D01*
X508141Y302465D01*
X509023Y302100D01*
X509977D01*
X510859Y302465D01*
X511401Y303007D01*
X512032Y302858D01*
X512201Y302762D01*
Y299770D01*
X512317Y299184D01*
X512649Y298688D01*
X514100Y297237D01*
Y296523D01*
X514465Y295640D01*
X515140Y294965D01*
X516023Y294600D01*
X516977D01*
X517860Y294965D01*
X518535Y295640D01*
X518900Y296523D01*
Y297477D01*
X518535Y298359D01*
X517860Y299035D01*
X516977Y299400D01*
X516263D01*
X515260Y300403D01*
Y311144D01*
X516335D01*
Y302986D01*
X516451Y302401D01*
X516783Y301905D01*
X531425Y287262D01*
Y283882D01*
X534412D01*
X554002Y264292D01*
Y241941D01*
X553563Y241580D01*
X552981Y241465D01*
X552579Y241196D01*
X552177Y241465D01*
X551594Y241580D01*
X551012Y241465D01*
X550610Y241196D01*
X550208Y241465D01*
X549626Y241580D01*
X549044Y241465D01*
X548642Y241196D01*
X548240Y241465D01*
X547657Y241580D01*
X547075Y241465D01*
X546673Y241196D01*
X546271Y241465D01*
X545689Y241580D01*
X545107Y241465D01*
X544705Y241196D01*
X544303Y241465D01*
X543720Y241580D01*
X543281Y241941D01*
Y246299D01*
X546272D01*
Y251024D01*
Y255976D01*
X545029D01*
Y258135D01*
X545535Y258641D01*
X545900Y259523D01*
Y260477D01*
X545535Y261360D01*
X544860Y262035D01*
X543977Y262400D01*
X543023D01*
X542140Y262035D01*
X541465Y261360D01*
X541100Y260477D01*
Y259523D01*
X541465Y258641D01*
X541971Y258135D01*
Y255976D01*
X540728D01*
Y251024D01*
Y248462D01*
X540670Y248404D01*
X540339Y247908D01*
X540223Y247323D01*
Y241941D01*
X539783Y241580D01*
X539201Y241465D01*
X538799Y241196D01*
X538397Y241465D01*
X538315Y241481D01*
Y240326D01*
X538262Y240059D01*
Y237540D01*
X538254Y237500D01*
X537815D01*
Y237000D01*
X536294D01*
Y234941D01*
X536409Y234359D01*
X536739Y233865D01*
X537233Y233535D01*
X537815Y233420D01*
X538262Y233053D01*
Y230709D01*
X538378Y230123D01*
X538710Y229627D01*
X539660Y228677D01*
X539699Y228651D01*
X540600Y227750D01*
Y227523D01*
X540965Y226641D01*
X541641Y225965D01*
X542523Y225600D01*
X543477D01*
X544359Y225965D01*
X545035Y226641D01*
X545400Y227523D01*
Y228477D01*
X545168Y229038D01*
X545846Y229491D01*
X547100Y228237D01*
Y227523D01*
X547465Y226641D01*
X548140Y225965D01*
X549023Y225600D01*
X549977D01*
X550859Y225965D01*
X551535Y226641D01*
X551900Y227523D01*
Y228477D01*
X551535Y229360D01*
X550859Y230035D01*
X549977Y230400D01*
X549263D01*
X546898Y232765D01*
X547304Y233490D01*
X547657Y233420D01*
X548240Y233535D01*
X548642Y233804D01*
X549044Y233535D01*
X549626Y233420D01*
X550208Y233535D01*
X550610Y233804D01*
X551012Y233535D01*
X551594Y233420D01*
X552177Y233535D01*
X552579Y233804D01*
X552981Y233535D01*
X553563Y233420D01*
X554145Y233535D01*
X554547Y233804D01*
X554949Y233535D01*
X555532Y233420D01*
X556114Y233535D01*
X556516Y233804D01*
X556918Y233535D01*
X557500Y233420D01*
X558082Y233535D01*
X558484Y233804D01*
X558886Y233535D01*
X559469Y233420D01*
X560051Y233535D01*
X560453Y233804D01*
X560855Y233535D01*
X561437Y233420D01*
X562019Y233535D01*
X562421Y233804D01*
X562823Y233535D01*
X563406Y233420D01*
X563988Y233535D01*
X564390Y233804D01*
X564792Y233535D01*
X565374Y233420D01*
X565956Y233535D01*
X566358Y233804D01*
X566760Y233535D01*
X567343Y233420D01*
X567925Y233535D01*
X568327Y233804D01*
X568729Y233535D01*
X569311Y233420D01*
X569893Y233535D01*
X570295Y233804D01*
X570697Y233535D01*
X571279Y233420D01*
X571862Y233535D01*
X572264Y233804D01*
X572666Y233535D01*
X573248Y233420D01*
X573830Y233535D01*
X574232Y233804D01*
X574634Y233535D01*
X575216Y233420D01*
X575799Y233535D01*
X576201Y233804D01*
X576603Y233535D01*
X577185Y233420D01*
X577767Y233535D01*
X578169Y233804D01*
X578571Y233535D01*
X579153Y233420D01*
X579736Y233535D01*
X580138Y233804D01*
X580540Y233535D01*
X581122Y233420D01*
X581704Y233535D01*
X582106Y233804D01*
X582508Y233535D01*
X583090Y233420D01*
X583673Y233535D01*
X584075Y233804D01*
X584477Y233535D01*
X585059Y233420D01*
X585641Y233535D01*
X586135Y233865D01*
X586465Y234359D01*
X586580Y234941D01*
Y240059D01*
X586465Y240641D01*
X586135Y241135D01*
X585641Y241465D01*
X585059Y241580D01*
X584477Y241465D01*
X584075Y241196D01*
X583673Y241465D01*
X583090Y241580D01*
X582508Y241465D01*
X582106Y241196D01*
X581704Y241465D01*
X581122Y241580D01*
X580540Y241465D01*
X580138Y241196D01*
X579736Y241465D01*
X579414Y241529D01*
X579107Y242238D01*
X579099Y242345D01*
X580025Y243271D01*
X615251D01*
X615837Y243387D01*
X616333Y243719D01*
X625085Y252471D01*
X629169D01*
Y251228D01*
X633925D01*
Y256772D01*
X629169D01*
Y255529D01*
X626785D01*
X626479Y256269D01*
X630438Y260228D01*
X633425D01*
Y265772D01*
X628669D01*
Y262785D01*
X613914Y248029D01*
X609832D01*
X609526Y248768D01*
X630486Y269728D01*
X633472D01*
Y275272D01*
X628716D01*
Y272285D01*
X612193Y255762D01*
X611393Y256093D01*
Y256734D01*
X611301Y257201D01*
X611219Y257323D01*
X611301Y257445D01*
X611393Y257911D01*
Y259293D01*
X611301Y259759D01*
X611219Y259882D01*
X611301Y260004D01*
X611393Y260471D01*
Y261852D01*
X611301Y262319D01*
X611219Y262441D01*
X611301Y262563D01*
X611393Y263030D01*
Y264411D01*
X612025Y265123D01*
X612154D01*
X612739Y265240D01*
X613235Y265571D01*
X620081Y272417D01*
X620413Y272914D01*
X620529Y273499D01*
Y278501D01*
X620413Y279086D01*
X620081Y279583D01*
X618382Y281282D01*
X618382Y281282D01*
X604583Y295081D01*
X604086Y295413D01*
X603501Y295529D01*
X596134D01*
X593719Y297944D01*
X594050Y298744D01*
X600598D01*
Y306256D01*
X593087D01*
Y299708D01*
X592287Y299376D01*
X590524Y301139D01*
X590756Y302006D01*
Y302994D01*
X590500Y303950D01*
X590005Y304806D01*
X589306Y305505D01*
X588450Y306000D01*
X587495Y306256D01*
X586506D01*
X585550Y306000D01*
X584694Y305505D01*
X583994Y304806D01*
X583500Y303950D01*
X583244Y302994D01*
Y302006D01*
X583500Y301050D01*
X583994Y300194D01*
X584694Y299495D01*
X585550Y299000D01*
X586506Y298744D01*
X587495D01*
X588361Y298976D01*
X594419Y292919D01*
X594915Y292587D01*
X595500Y292471D01*
X602868D01*
X606330Y289008D01*
X605975Y288232D01*
X605595Y288232D01*
X600728D01*
Y288029D01*
X598365D01*
X597859Y288535D01*
X596977Y288900D01*
X596023D01*
X595141Y288535D01*
X594465Y287860D01*
X594100Y286977D01*
Y286023D01*
X594465Y285140D01*
X595141Y284465D01*
X596023Y284100D01*
X596977D01*
X597859Y284465D01*
X598365Y284971D01*
X600728D01*
Y282886D01*
Y280941D01*
X603500D01*
X606272D01*
Y282886D01*
Y287499D01*
X606272Y287935D01*
X607047Y288291D01*
X616219Y279119D01*
X616219Y279119D01*
X617471Y277868D01*
Y276969D01*
X616671Y276613D01*
X615977Y276900D01*
X615023D01*
X614141Y276535D01*
X613465Y275859D01*
X613100Y274977D01*
Y274023D01*
X613147Y273910D01*
X612379Y273142D01*
X611467Y273176D01*
X611393Y273266D01*
Y273457D01*
X607614D01*
X603835D01*
Y273266D01*
X603875Y273065D01*
X603140Y272673D01*
X603135Y272673D01*
X578687Y297122D01*
Y299046D01*
X579464Y299495D01*
X580163Y300194D01*
X580657Y301050D01*
X580913Y302006D01*
Y302994D01*
X580657Y303950D01*
X580163Y304806D01*
X579464Y305505D01*
X578607Y306000D01*
X577652Y306256D01*
X576663D01*
X575708Y306000D01*
X574851Y305505D01*
X574152Y304806D01*
X573658Y303950D01*
X573402Y302994D01*
Y302006D01*
X573658Y301050D01*
X574152Y300194D01*
X574851Y299495D01*
X575628Y299046D01*
Y296488D01*
X575744Y295903D01*
X576076Y295407D01*
X581570Y289912D01*
X581264Y289173D01*
X579490D01*
X579454Y289209D01*
X578958Y289540D01*
X578373Y289657D01*
X575913D01*
X575408Y290162D01*
X574526Y290527D01*
X573571D01*
X572689Y290162D01*
X572014Y289487D01*
X571649Y288605D01*
Y287650D01*
X572014Y286768D01*
X572689Y286093D01*
X573571Y285727D01*
X574526D01*
X575408Y286093D01*
X575913Y286598D01*
X577228D01*
Y283827D01*
Y280066D01*
X576489Y279760D01*
X569282Y286967D01*
X569272Y286974D01*
Y289732D01*
X563728D01*
Y284386D01*
Y279268D01*
X567109D01*
X573269Y273107D01*
X572875Y272370D01*
X572648Y272415D01*
X569272D01*
Y274732D01*
X563728D01*
Y269386D01*
Y264268D01*
X567109D01*
X568738Y262639D01*
X569234Y262308D01*
X569819Y262191D01*
X570944D01*
X571250Y261452D01*
X569069Y259272D01*
X560768D01*
Y253728D01*
X561911D01*
Y252854D01*
X561140Y252535D01*
X560465Y251859D01*
X560100Y250977D01*
Y250023D01*
X560465Y249141D01*
X561140Y248465D01*
X562023Y248100D01*
X562977D01*
X563381Y248267D01*
X563834Y247589D01*
X559945Y243700D01*
X559206Y244006D01*
Y265184D01*
X559089Y265770D01*
X558758Y266266D01*
X545529Y279494D01*
Y283882D01*
X546575D01*
Y289425D01*
X543812D01*
X543540Y289775D01*
X543932Y290575D01*
X546575D01*
Y292846D01*
X544000D01*
X541425D01*
Y292633D01*
X540686Y292327D01*
X540029Y292984D01*
Y296135D01*
X540535Y296640D01*
X540900Y297523D01*
Y298477D01*
X540535Y299359D01*
X539859Y300035D01*
X538977Y300400D01*
X538023D01*
X537141Y300035D01*
X536465Y299359D01*
X536100Y298477D01*
Y297523D01*
X536350Y296918D01*
X535993Y296218D01*
X535882Y296118D01*
X534500D01*
Y293347D01*
X534000D01*
Y292846D01*
X531425D01*
Y292633D01*
X530686Y292327D01*
X519394Y303620D01*
Y308388D01*
X524283D01*
X524431Y308358D01*
X525979D01*
X527600Y306737D01*
Y306023D01*
X527965Y305140D01*
X528641Y304465D01*
X529523Y304100D01*
X530477D01*
X531359Y304465D01*
X531865Y304971D01*
X534031D01*
Y303079D01*
X539968D01*
Y308578D01*
X539968Y308622D01*
Y309378D01*
X539968Y309422D01*
Y311650D01*
X537000D01*
X534031D01*
Y309422D01*
X534031Y309378D01*
Y308622D01*
X533459Y308029D01*
X531865D01*
X531359Y308535D01*
X530477Y308900D01*
X529763D01*
X527694Y310969D01*
X527198Y311301D01*
X526612Y311417D01*
X525931D01*
Y317474D01*
D02*
G37*
G36*
X474391Y263000D02*
X472500D01*
Y261109D01*
X473359Y261465D01*
X474035Y262140D01*
X474391Y263000D01*
D02*
G37*
G36*
X471500D02*
X469609D01*
X469965Y262140D01*
X470641Y261465D01*
X471500Y261109D01*
Y263000D01*
D02*
G37*
G36*
X682928Y275677D02*
X681939D01*
X680983Y275421D01*
X680127Y274927D01*
X679428Y274227D01*
X678933Y273371D01*
X678677Y272416D01*
Y271427D01*
X678933Y270472D01*
X679428Y269615D01*
X680127Y268916D01*
X680983Y268421D01*
X681939Y268165D01*
X682928D01*
X683794Y268397D01*
X687471Y264721D01*
Y248133D01*
X681366Y242029D01*
X665592D01*
X665286Y242769D01*
X677877Y255360D01*
X678677Y255029D01*
Y248480D01*
X686189D01*
Y255992D01*
X679641D01*
X679309Y256792D01*
X681072Y258555D01*
X681939Y258323D01*
X682928D01*
X683883Y258579D01*
X684739Y259073D01*
X685438Y259773D01*
X685933Y260629D01*
X686189Y261584D01*
Y262573D01*
X685933Y263528D01*
X685438Y264385D01*
X684739Y265084D01*
X683883Y265579D01*
X682928Y265835D01*
X681939D01*
X680983Y265579D01*
X680127Y265084D01*
X679428Y264385D01*
X678933Y263528D01*
X678677Y262573D01*
Y261584D01*
X678909Y260718D01*
X662721Y244529D01*
X632000D01*
X631415Y244413D01*
X630919Y244081D01*
X616639Y229802D01*
X615839Y230133D01*
Y232609D01*
X617886Y234657D01*
X618023Y234600D01*
X618977D01*
X619860Y234965D01*
X620535Y235641D01*
X620900Y236523D01*
Y237477D01*
X620535Y238359D01*
X619860Y239035D01*
X618977Y239400D01*
X618263D01*
X618081Y239581D01*
X617585Y239913D01*
X617000Y240029D01*
X608921D01*
Y241968D01*
X603422D01*
X603378Y241968D01*
Y241968D01*
X602622D01*
Y241968D01*
X600350D01*
Y239000D01*
Y236032D01*
X602622D01*
Y236032D01*
X603378D01*
Y236032D01*
X603422Y236032D01*
X608921D01*
Y236971D01*
X614829D01*
X615135Y236231D01*
X613676Y234772D01*
X606161D01*
Y233529D01*
X601870D01*
X601285Y233413D01*
X600789Y233081D01*
X598764Y231057D01*
X595504D01*
X595143Y231496D01*
X595028Y232078D01*
X594698Y232572D01*
X594204Y232902D01*
X593622Y233017D01*
X591563D01*
Y231496D01*
X591063D01*
Y231057D01*
X591023Y231049D01*
X588504D01*
X588237Y230996D01*
X587082D01*
X587098Y230914D01*
X587367Y230512D01*
X587098Y230110D01*
X586983Y229528D01*
X587098Y228945D01*
X587367Y228543D01*
X587098Y228141D01*
X586983Y227559D01*
X587098Y226977D01*
X587367Y226575D01*
X587098Y226173D01*
X586983Y225590D01*
X587098Y225008D01*
X587367Y224606D01*
X587098Y224204D01*
X586983Y223622D01*
X587098Y223040D01*
X587367Y222638D01*
X587098Y222236D01*
X586983Y221654D01*
X587098Y221071D01*
X587367Y220669D01*
X587098Y220267D01*
X586983Y219685D01*
X587098Y219103D01*
X587367Y218701D01*
X587098Y218299D01*
X586983Y217717D01*
X587098Y217134D01*
X587367Y216732D01*
X587098Y216330D01*
X586983Y215748D01*
X587098Y215166D01*
X587367Y214764D01*
X587098Y214362D01*
X586983Y213779D01*
X587098Y213197D01*
X587367Y212795D01*
X587098Y212393D01*
X586983Y211811D01*
X587098Y211229D01*
X587367Y210827D01*
X587098Y210425D01*
X586983Y209842D01*
X587098Y209260D01*
X587367Y208858D01*
X587098Y208456D01*
X586983Y207874D01*
X587098Y207292D01*
X587367Y206890D01*
X587098Y206488D01*
X586983Y205906D01*
X587098Y205323D01*
X587367Y204921D01*
X587098Y204519D01*
X586983Y203937D01*
X587098Y203355D01*
X587367Y202953D01*
X587098Y202551D01*
X586983Y201969D01*
X587098Y201386D01*
X587367Y200984D01*
X587098Y200582D01*
X586983Y200000D01*
X587098Y199418D01*
X587367Y199016D01*
X587098Y198614D01*
X586983Y198031D01*
X587098Y197449D01*
X587367Y197047D01*
X587098Y196645D01*
X586983Y196063D01*
X587098Y195481D01*
X587367Y195079D01*
X587098Y194677D01*
X586983Y194095D01*
X587098Y193512D01*
X587367Y193110D01*
X587098Y192708D01*
X586983Y192126D01*
X587098Y191544D01*
X587367Y191142D01*
X587098Y190740D01*
X586983Y190157D01*
X587098Y189575D01*
X587367Y189173D01*
X587098Y188771D01*
X586983Y188189D01*
X586622Y187750D01*
X584807D01*
X583935Y188622D01*
Y189337D01*
X583569Y190219D01*
X582894Y190894D01*
X582012Y191260D01*
X581057D01*
X580175Y190894D01*
X579500Y190219D01*
X579135Y189337D01*
Y188382D01*
X579500Y187500D01*
X580175Y186825D01*
X581057Y186460D01*
X581772D01*
X583092Y185139D01*
X583588Y184808D01*
X584174Y184691D01*
X586622D01*
X586983Y184252D01*
X587098Y183670D01*
X587428Y183176D01*
X587922Y182846D01*
X588504Y182731D01*
X589534D01*
Y173937D01*
X589650Y173352D01*
X589982Y172856D01*
X596702Y166135D01*
Y146611D01*
X596818Y146026D01*
X597150Y145530D01*
X607389Y135290D01*
X607083Y134551D01*
X600449D01*
Y126449D01*
X608551D01*
Y133083D01*
X609290Y133389D01*
X610585Y132095D01*
X610567Y132064D01*
X610291Y131033D01*
Y129967D01*
X610567Y128936D01*
X611101Y128013D01*
X611855Y127258D01*
X612779Y126725D01*
X613809Y126449D01*
X614876D01*
X615906Y126725D01*
X616830Y127258D01*
X617584Y128013D01*
X618118Y128936D01*
X618394Y129967D01*
Y131033D01*
X618118Y132064D01*
X617584Y132987D01*
X616830Y133742D01*
X615906Y134275D01*
X614876Y134551D01*
X613809D01*
X612779Y134275D01*
X612748Y134257D01*
X599761Y147245D01*
Y157579D01*
X601335D01*
X601437Y157064D01*
X601769Y156568D01*
X604600Y153737D01*
Y153023D01*
X604965Y152140D01*
X605641Y151465D01*
X606523Y151100D01*
X607477D01*
X608359Y151465D01*
X609035Y152140D01*
X609400Y153023D01*
Y153737D01*
X609613Y153950D01*
X609944Y154446D01*
X610061Y155032D01*
Y158079D01*
X612968D01*
Y163578D01*
X612968Y163622D01*
Y164378D01*
X612968Y164422D01*
Y166650D01*
X610000D01*
X607031D01*
Y164422D01*
X607031Y164378D01*
Y163622D01*
X607031Y163578D01*
Y159727D01*
X607002Y159579D01*
Y156792D01*
X606202Y156461D01*
X604969Y157694D01*
Y163122D01*
X604969D01*
Y163878D01*
X604969D01*
Y166150D01*
X602000D01*
Y166650D01*
X601500D01*
Y169421D01*
X599031D01*
Y169177D01*
X598292Y168870D01*
X592592Y174571D01*
Y182731D01*
X593622D01*
X594204Y182846D01*
X594698Y183176D01*
X595028Y183670D01*
X595143Y184252D01*
X595028Y184834D01*
X594968Y184924D01*
X595277Y185131D01*
X595609Y185627D01*
X595725Y186213D01*
X595609Y186798D01*
X595277Y187294D01*
X595053Y187444D01*
X595167Y188218D01*
X595504Y188628D01*
X596805D01*
X623971Y161462D01*
Y151759D01*
X623632Y151099D01*
X623171Y151099D01*
X621836D01*
Y148500D01*
Y145901D01*
X623567D01*
X623632Y145901D01*
X624368D01*
X624433Y145901D01*
X626628D01*
Y97284D01*
X626594Y97275D01*
X625670Y96742D01*
X624916Y95987D01*
X624382Y95064D01*
X624106Y94033D01*
Y92967D01*
X624382Y91936D01*
X624916Y91013D01*
X625670Y90258D01*
X626594Y89725D01*
X627624Y89449D01*
X628691D01*
X629721Y89725D01*
X630645Y90258D01*
X631399Y91013D01*
X631933Y91936D01*
X632209Y92967D01*
Y94033D01*
X631933Y95064D01*
X631399Y95987D01*
X630645Y96742D01*
X629721Y97275D01*
X629687Y97284D01*
Y146816D01*
X629570Y147401D01*
X629239Y147897D01*
X628961Y148175D01*
Y151099D01*
X627029D01*
Y159763D01*
X627769Y160069D01*
X635999Y151838D01*
X635693Y151099D01*
X635336D01*
Y148500D01*
Y145901D01*
X637133D01*
X637133Y145901D01*
X637867D01*
Y145901D01*
X637932Y145901D01*
X642461D01*
Y146872D01*
X646465D01*
X667971Y125366D01*
Y98784D01*
X667936Y98775D01*
X667013Y98242D01*
X666258Y97487D01*
X665725Y96564D01*
X665449Y95533D01*
Y94467D01*
X665725Y93436D01*
X666258Y92513D01*
X667013Y91758D01*
X667936Y91225D01*
X668967Y90949D01*
X670033D01*
X671064Y91225D01*
X671987Y91758D01*
X672742Y92513D01*
X673275Y93436D01*
X673551Y94467D01*
Y95533D01*
X673275Y96564D01*
X672742Y97487D01*
X671987Y98242D01*
X671064Y98775D01*
X671029Y98784D01*
Y126000D01*
X670913Y126585D01*
X670581Y127081D01*
X648828Y148835D01*
X649159Y149635D01*
X656666D01*
X656901Y148867D01*
Y148133D01*
X656901Y148067D01*
Y146336D01*
X659500D01*
X662099D01*
Y148067D01*
X662099Y148133D01*
Y148867D01*
X662334Y149635D01*
X675202D01*
X679243Y145595D01*
X679225Y145564D01*
X678949Y144533D01*
Y143467D01*
X679225Y142436D01*
X679758Y141513D01*
X680513Y140758D01*
X681436Y140225D01*
X682467Y139949D01*
X683533D01*
X684564Y140225D01*
X685488Y140758D01*
X686242Y141513D01*
X686775Y142436D01*
X687051Y143467D01*
Y144533D01*
X686775Y145564D01*
X686242Y146487D01*
X685488Y147242D01*
X684564Y147775D01*
X683533Y148051D01*
X682467D01*
X681436Y147775D01*
X681405Y147757D01*
X676917Y152246D01*
X676421Y152577D01*
X675836Y152694D01*
X662099D01*
Y153461D01*
X656901D01*
Y152694D01*
X646969D01*
X635374Y164288D01*
X635681Y165028D01*
X640984D01*
Y173130D01*
X632882D01*
Y167826D01*
X632143Y167520D01*
X620699Y178964D01*
X621000Y179692D01*
Y182000D01*
X622000D01*
Y179703D01*
X624099D01*
Y181824D01*
X624838Y182130D01*
X629128Y177840D01*
X629624Y177508D01*
X630209Y177392D01*
X633149D01*
X633158Y177358D01*
X633691Y176434D01*
X634446Y175680D01*
X635369Y175146D01*
X636400Y174870D01*
X637466D01*
X638497Y175146D01*
X639421Y175680D01*
X640175Y176434D01*
X640708Y177358D01*
X640984Y178388D01*
Y179455D01*
X640708Y180485D01*
X640175Y181409D01*
X639421Y182163D01*
X638497Y182696D01*
X637466Y182972D01*
X636400D01*
X635369Y182696D01*
X634446Y182163D01*
X633691Y181409D01*
X633158Y180485D01*
X633149Y180451D01*
X630843D01*
X624099Y187195D01*
Y189625D01*
X621064D01*
X613545Y197144D01*
X613049Y197476D01*
X612463Y197592D01*
X595504D01*
X595143Y198031D01*
X595028Y198614D01*
X594759Y199016D01*
X595028Y199418D01*
X595143Y200000D01*
X595504Y200439D01*
X609969D01*
X610554Y200555D01*
X611050Y200887D01*
X613263Y203100D01*
X613977D01*
X614859Y203465D01*
X615535Y204140D01*
X615900Y205023D01*
Y205977D01*
X615535Y206859D01*
X616136Y207340D01*
X634299Y189176D01*
X634795Y188845D01*
X635381Y188728D01*
X657367D01*
X673204Y172891D01*
X673700Y172559D01*
X674285Y172443D01*
X684546D01*
X684995Y171666D01*
X685694Y170967D01*
X686550Y170473D01*
X687505Y170217D01*
X688494D01*
X689450Y170473D01*
X690306Y170967D01*
X691006Y171666D01*
X691500Y172523D01*
X691756Y173478D01*
Y174467D01*
X691500Y175422D01*
X691006Y176279D01*
X690306Y176978D01*
X689450Y177472D01*
X688494Y177728D01*
X687505D01*
X686550Y177472D01*
X685694Y176978D01*
X684995Y176279D01*
X684546Y175502D01*
X674919D01*
X660731Y189689D01*
X661037Y190428D01*
X663367D01*
X671061Y182734D01*
X671557Y182402D01*
X672143Y182286D01*
X684546D01*
X684995Y181509D01*
X685694Y180809D01*
X686550Y180315D01*
X687505Y180059D01*
X688494D01*
X689450Y180315D01*
X690306Y180809D01*
X691006Y181509D01*
X691500Y182365D01*
X691756Y183320D01*
Y184309D01*
X691500Y185265D01*
X691006Y186121D01*
X690306Y186820D01*
X689450Y187315D01*
X688494Y187571D01*
X687505D01*
X686550Y187315D01*
X685694Y186820D01*
X684995Y186121D01*
X684546Y185344D01*
X672776D01*
X666731Y191389D01*
X667037Y192128D01*
X684546D01*
X684995Y191351D01*
X685694Y190652D01*
X686550Y190157D01*
X687505Y189902D01*
X688494D01*
X689450Y190157D01*
X690306Y190652D01*
X691006Y191351D01*
X691500Y192208D01*
X691756Y193163D01*
Y194152D01*
X691500Y195107D01*
X691006Y195964D01*
X690306Y196663D01*
X689450Y197157D01*
X688494Y197413D01*
X687505D01*
X686550Y197157D01*
X685694Y196663D01*
X684995Y195964D01*
X684546Y195187D01*
X637999D01*
X633454Y199732D01*
X633760Y200471D01*
X654680D01*
Y199500D01*
X654758Y199110D01*
X654979Y198779D01*
X655000Y198765D01*
Y198500D01*
X655602D01*
X655700Y198480D01*
X660200D01*
X660208Y198482D01*
X661000Y198500D01*
D01*
X661194Y198487D01*
X661300Y198480D01*
X661773Y198480D01*
X667900D01*
X667999Y198500D01*
X668900D01*
Y199401D01*
X668920Y199500D01*
Y200471D01*
X685279D01*
X685645Y200543D01*
X685694Y200495D01*
X686550Y200000D01*
X687505Y199744D01*
X688494D01*
X689450Y200000D01*
X690306Y200495D01*
X691006Y201194D01*
X691500Y202050D01*
X691756Y203006D01*
Y203994D01*
X691500Y204950D01*
X691006Y205806D01*
X690306Y206505D01*
X689450Y207000D01*
X688494Y207256D01*
X687505D01*
X686550Y207000D01*
X685694Y206505D01*
X684995Y205806D01*
X684500Y204950D01*
X684244Y203994D01*
Y203529D01*
X668920D01*
Y204500D01*
X668900Y204598D01*
Y205500D01*
X667999D01*
X667900Y205520D01*
X661773D01*
X661300Y205520D01*
X661194Y205513D01*
X661000Y205500D01*
D01*
X660208Y205518D01*
X660200Y205520D01*
X655700D01*
X655602Y205500D01*
X655000D01*
Y205235D01*
X654979Y205221D01*
X654758Y204890D01*
X654680Y204500D01*
Y203529D01*
X632061D01*
X620142Y215448D01*
X620448Y216187D01*
X621811D01*
X624710Y213289D01*
X625206Y212957D01*
X625791Y212841D01*
X632882D01*
Y205028D01*
X640984D01*
Y210309D01*
X641736Y210971D01*
X654680D01*
Y210750D01*
X654758Y210360D01*
X654979Y210029D01*
X655000Y210015D01*
Y209750D01*
X655602D01*
X655700Y209730D01*
X660200D01*
X660208Y209732D01*
X661000Y209750D01*
D01*
X661194Y209737D01*
X661300Y209730D01*
X661773Y209730D01*
X667900D01*
X667999Y209750D01*
X668900D01*
Y210651D01*
X668920Y210750D01*
Y211813D01*
X684546D01*
X684995Y211036D01*
X685694Y210337D01*
X686550Y209843D01*
X687505Y209587D01*
X688494D01*
X689450Y209843D01*
X690306Y210337D01*
X691006Y211036D01*
X691500Y211893D01*
X691756Y212848D01*
Y213837D01*
X691500Y214792D01*
X691006Y215649D01*
X690306Y216348D01*
X689450Y216843D01*
X688494Y217098D01*
X687505D01*
X686550Y216843D01*
X685694Y216348D01*
X684995Y215649D01*
X684546Y214872D01*
X668920D01*
Y215750D01*
X668900Y215848D01*
Y216750D01*
X667999D01*
X667900Y216770D01*
X661773D01*
X661300Y216770D01*
X661194Y216763D01*
X661000Y216750D01*
D01*
X660208Y216768D01*
X660200Y216770D01*
X655700D01*
X655602Y216750D01*
X655000D01*
Y216485D01*
X654979Y216471D01*
X654758Y216140D01*
X654680Y215750D01*
Y214029D01*
X642369D01*
X640947Y215452D01*
X640573Y215701D01*
X640408Y216004D01*
X640289Y216631D01*
X640708Y217358D01*
X640984Y218388D01*
Y219455D01*
X640708Y220485D01*
X640175Y221409D01*
X639421Y222163D01*
X639407Y222171D01*
X639622Y222971D01*
X654680D01*
Y222000D01*
X654758Y221610D01*
X654979Y221279D01*
X655000Y221265D01*
Y221000D01*
X655602D01*
X655700Y220980D01*
X660200D01*
X660208Y220982D01*
X661000Y221000D01*
D01*
X661194Y220987D01*
X661300Y220980D01*
X661773Y220980D01*
X667900D01*
X667999Y221000D01*
X668900D01*
Y221901D01*
X668920Y222000D01*
Y222971D01*
X684244D01*
Y219429D01*
X691756D01*
Y226941D01*
X684244D01*
Y226029D01*
X682073D01*
X681858Y226829D01*
X682069Y226951D01*
X682659Y227541D01*
X683076Y228262D01*
X683291Y229067D01*
Y229901D01*
X683076Y230706D01*
X682659Y231428D01*
X682069Y232017D01*
X681348Y232434D01*
X680543Y232650D01*
X679709D01*
X678904Y232434D01*
X678182Y232017D01*
X677593Y231428D01*
X677176Y230706D01*
X676961Y229901D01*
Y229067D01*
X677176Y228262D01*
X677593Y227541D01*
X678182Y226951D01*
X678394Y226829D01*
X678179Y226029D01*
X668920D01*
Y227000D01*
X668900Y227098D01*
Y228000D01*
X667999D01*
X667900Y228020D01*
X661773D01*
X661300Y228020D01*
X661194Y228013D01*
X661000Y228000D01*
D01*
X660208Y228018D01*
X660200Y228020D01*
X655700D01*
X655602Y228000D01*
X655000D01*
Y227735D01*
X654979Y227721D01*
X654758Y227390D01*
X654680Y227000D01*
Y226029D01*
X626715D01*
X626129Y225913D01*
X625633Y225581D01*
X621266Y221214D01*
X595504D01*
X595143Y221654D01*
X595028Y222236D01*
X594759Y222638D01*
X595028Y223040D01*
X595143Y223622D01*
X595504Y224061D01*
X618090D01*
X618676Y224178D01*
X619172Y224509D01*
X633634Y238971D01*
X682000D01*
X682585Y239087D01*
X683081Y239419D01*
X690081Y246419D01*
X690413Y246915D01*
X690529Y247500D01*
Y265354D01*
X690413Y265940D01*
X690081Y266436D01*
X685957Y270560D01*
X686189Y271427D01*
Y272416D01*
X685933Y273371D01*
X685438Y274227D01*
X684739Y274927D01*
X683883Y275421D01*
X682928Y275677D01*
D02*
G37*
G36*
X656477Y261400D02*
X655523D01*
X654640Y261035D01*
X653965Y260360D01*
X653600Y259477D01*
Y258523D01*
X653712Y258253D01*
X653177Y257453D01*
X652181Y257453D01*
X651381Y257453D01*
X644701D01*
Y255529D01*
X639831D01*
Y256772D01*
X635075D01*
Y251228D01*
X639831D01*
Y252471D01*
X644701D01*
Y249547D01*
X651381D01*
X651819Y249547D01*
X652619Y249547D01*
X659299D01*
Y257453D01*
X658823D01*
X658288Y258253D01*
X658400Y258523D01*
Y259477D01*
X658035Y260360D01*
X657360Y261035D01*
X656477Y261400D01*
D02*
G37*
G36*
X353027Y262500D02*
X351973D01*
X350956Y262227D01*
X350044Y261701D01*
X349299Y260956D01*
X348773Y260044D01*
X348500Y259027D01*
Y257973D01*
X348773Y256956D01*
X349299Y256044D01*
X350044Y255299D01*
X350956Y254773D01*
X351973Y254500D01*
X353027D01*
X354044Y254773D01*
X354956Y255299D01*
X355701Y256044D01*
X356227Y256956D01*
X356500Y257973D01*
Y259027D01*
X356227Y260044D01*
X355701Y260956D01*
X354956Y261701D01*
X354044Y262227D01*
X353027Y262500D01*
D02*
G37*
G36*
X263027Y262500D02*
X261973D01*
X260956Y262227D01*
X260044Y261701D01*
X259299Y260956D01*
X258773Y260044D01*
X258500Y259027D01*
Y257973D01*
X258773Y256956D01*
X259299Y256044D01*
X260044Y255299D01*
X260956Y254772D01*
X261973Y254500D01*
X263027D01*
X264044Y254772D01*
X264956Y255299D01*
X265701Y256044D01*
X266227Y256956D01*
X266500Y257973D01*
Y259027D01*
X266227Y260044D01*
X265701Y260956D01*
X264956Y261701D01*
X264044Y262227D01*
X263027Y262500D01*
D02*
G37*
G36*
X473000Y254891D02*
Y253000D01*
X474891D01*
X474535Y253859D01*
X473860Y254535D01*
X473000Y254891D01*
D02*
G37*
G36*
X472000D02*
X471140Y254535D01*
X470465Y253859D01*
X470109Y253000D01*
X472000D01*
Y254891D01*
D02*
G37*
G36*
X417723Y262988D02*
X416278D01*
X414882Y262614D01*
X413630Y261892D01*
X412608Y260870D01*
X411886Y259618D01*
X411512Y258223D01*
Y256778D01*
X411886Y255382D01*
X412608Y254130D01*
X413630Y253108D01*
X414882Y252386D01*
X416278Y252012D01*
X417723D01*
X419118Y252386D01*
X420370Y253108D01*
X421392Y254130D01*
X422114Y255382D01*
X422488Y256778D01*
Y258223D01*
X422114Y259618D01*
X421392Y260870D01*
X420370Y261892D01*
X419118Y262614D01*
X417723Y262988D01*
D02*
G37*
G36*
X524477Y260900D02*
X523523D01*
X522641Y260535D01*
X521965Y259859D01*
X521600Y258977D01*
Y258023D01*
X521965Y257140D01*
X522471Y256635D01*
Y255421D01*
X521531D01*
Y250423D01*
X520731Y250264D01*
X520551Y250699D01*
X519876Y251375D01*
X519017Y251731D01*
Y249340D01*
Y246949D01*
X519876Y247305D01*
X520551Y247981D01*
X520731Y248416D01*
X521531Y248257D01*
Y246850D01*
X527468D01*
Y249078D01*
X527468Y249122D01*
Y249878D01*
X527468Y249922D01*
Y255421D01*
X525529D01*
Y256635D01*
X526035Y257140D01*
X526400Y258023D01*
Y258977D01*
X526035Y259859D01*
X525359Y260535D01*
X524477Y260900D01*
D02*
G37*
G36*
X474891Y252000D02*
X473000D01*
Y250109D01*
X473860Y250465D01*
X474535Y251140D01*
X474891Y252000D01*
D02*
G37*
G36*
X472000D02*
X470109D01*
X470465Y251140D01*
X471140Y250465D01*
X472000Y250109D01*
Y252000D01*
D02*
G37*
G36*
X533977Y260900D02*
X533023D01*
X532140Y260535D01*
X531465Y259859D01*
X531100Y258977D01*
Y258023D01*
X531465Y257140D01*
X531885Y256721D01*
X531763Y255921D01*
X530532D01*
Y250422D01*
X530532Y250378D01*
Y249622D01*
X530532Y249578D01*
Y247350D01*
X536469D01*
Y249578D01*
X536469Y249622D01*
Y250378D01*
X536469Y250422D01*
Y255921D01*
X535237D01*
X535115Y256721D01*
X535535Y257140D01*
X535900Y258023D01*
Y258977D01*
X535535Y259859D01*
X534860Y260535D01*
X533977Y260900D01*
D02*
G37*
G36*
X353027Y252500D02*
X351973D01*
X350956Y252227D01*
X350044Y251701D01*
X349299Y250956D01*
X348773Y250044D01*
X348500Y249027D01*
Y247973D01*
X348773Y246956D01*
X349299Y246044D01*
X350044Y245299D01*
X350956Y244773D01*
X351973Y244500D01*
X353027D01*
X354044Y244773D01*
X354956Y245299D01*
X355701Y246044D01*
X356227Y246956D01*
X356500Y247973D01*
Y249027D01*
X356227Y250044D01*
X355701Y250956D01*
X354956Y251701D01*
X354044Y252227D01*
X353027Y252500D01*
D02*
G37*
G36*
X263027Y252500D02*
X261973D01*
X260956Y252227D01*
X260044Y251701D01*
X259299Y250956D01*
X258773Y250044D01*
X258500Y249026D01*
Y247973D01*
X258773Y246956D01*
X259299Y246044D01*
X260044Y245299D01*
X260956Y244773D01*
X261973Y244500D01*
X263027D01*
X264044Y244773D01*
X264956Y245299D01*
X265701Y246044D01*
X266227Y246956D01*
X266500Y247973D01*
Y249026D01*
X266227Y250044D01*
X265701Y250956D01*
X264956Y251701D01*
X264044Y252227D01*
X263027Y252500D01*
D02*
G37*
G36*
X536469Y246350D02*
X534000D01*
Y244079D01*
X536469D01*
Y246350D01*
D02*
G37*
G36*
X533000D02*
X530532D01*
Y244079D01*
X533000D01*
Y246350D01*
D02*
G37*
G36*
X527468Y245850D02*
X525000D01*
Y243579D01*
X527468D01*
Y245850D01*
D02*
G37*
G36*
X524000D02*
X521531D01*
Y243579D01*
X524000D01*
Y245850D01*
D02*
G37*
G36*
X599350Y241968D02*
X597079D01*
Y239500D01*
X599350D01*
Y241968D01*
D02*
G37*
G36*
X537315Y241481D02*
X537233Y241465D01*
X536739Y241135D01*
X536409Y240641D01*
X536294Y240059D01*
Y238000D01*
X537315D01*
Y241481D01*
D02*
G37*
G36*
X599350Y238500D02*
X597079D01*
Y236032D01*
X599350D01*
Y238500D01*
D02*
G37*
G36*
X646032Y237599D02*
X645297D01*
X645232Y237599D01*
X640703D01*
Y236029D01*
X638365D01*
X637859Y236535D01*
X636977Y236900D01*
X636023D01*
X635141Y236535D01*
X634465Y235859D01*
X634100Y234977D01*
Y234023D01*
X634465Y233140D01*
X635141Y232465D01*
X636023Y232100D01*
X636977D01*
X637859Y232465D01*
X638365Y232971D01*
X640703D01*
Y232401D01*
X645232D01*
X645297Y232401D01*
X646032D01*
X646097Y232401D01*
X647828D01*
Y235000D01*
Y237599D01*
X646097D01*
X646032Y237599D01*
D02*
G37*
G36*
X648828Y237599D02*
Y235500D01*
X650625D01*
Y237599D01*
X648828D01*
D02*
G37*
G36*
X353027Y242500D02*
X351973D01*
X350956Y242227D01*
X350044Y241701D01*
X349299Y240956D01*
X348773Y240044D01*
X348500Y239027D01*
Y237973D01*
X348773Y236956D01*
X349299Y236044D01*
X350044Y235299D01*
X350956Y234773D01*
X351973Y234500D01*
X353027D01*
X354044Y234773D01*
X354956Y235299D01*
X355701Y236044D01*
X356227Y236956D01*
X356500Y237973D01*
Y239027D01*
X356227Y240044D01*
X355701Y240956D01*
X354956Y241701D01*
X354044Y242227D01*
X353027Y242500D01*
D02*
G37*
G36*
X263027Y242500D02*
X261973D01*
X260956Y242227D01*
X260044Y241701D01*
X259299Y240956D01*
X258773Y240044D01*
X258500Y239026D01*
Y237973D01*
X258773Y236956D01*
X259299Y236044D01*
X260044Y235299D01*
X260956Y234772D01*
X261973Y234500D01*
X263027D01*
X264044Y234772D01*
X264956Y235299D01*
X265701Y236044D01*
X266227Y236956D01*
X266500Y237973D01*
Y239026D01*
X266227Y240044D01*
X265701Y240956D01*
X264956Y241701D01*
X264044Y242227D01*
X263027Y242500D01*
D02*
G37*
G36*
X492075Y237672D02*
X491000D01*
Y234000D01*
X494672D01*
Y235075D01*
X494583Y235747D01*
X494324Y236373D01*
X493911Y236911D01*
X493373Y237324D01*
X492747Y237583D01*
X492075Y237672D01*
D02*
G37*
G36*
X490000D02*
X488925D01*
X488253Y237583D01*
X487627Y237324D01*
X487089Y236911D01*
X486676Y236373D01*
X486417Y235747D01*
X486328Y235075D01*
Y234000D01*
X490000D01*
Y237672D01*
D02*
G37*
G36*
X650625Y234500D02*
X648828D01*
Y232401D01*
X650625D01*
Y234500D01*
D02*
G37*
G36*
X590563Y233017D02*
X588504D01*
X587922Y232902D01*
X587428Y232572D01*
X587098Y232078D01*
X587082Y231996D01*
X590563D01*
Y233017D01*
D02*
G37*
G36*
X494672Y233000D02*
X491000D01*
Y229328D01*
X492075D01*
X492747Y229417D01*
X493373Y229676D01*
X493911Y230089D01*
X494324Y230627D01*
X494583Y231253D01*
X494672Y231925D01*
Y233000D01*
D02*
G37*
G36*
X490000D02*
X486328D01*
Y231925D01*
X486417Y231253D01*
X486676Y230627D01*
X487089Y230089D01*
X487627Y229676D01*
X488253Y229417D01*
X488925Y229328D01*
X490000D01*
Y233000D01*
D02*
G37*
G36*
X353027Y232500D02*
X351973D01*
X350956Y232227D01*
X350044Y231701D01*
X349299Y230956D01*
X348773Y230044D01*
X348500Y229027D01*
Y227973D01*
X348773Y226956D01*
X349299Y226044D01*
X350044Y225299D01*
X350956Y224773D01*
X351973Y224500D01*
X353027D01*
X354044Y224773D01*
X354956Y225299D01*
X355701Y226044D01*
X356227Y226956D01*
X356500Y227973D01*
Y229027D01*
X356227Y230044D01*
X355701Y230956D01*
X354956Y231701D01*
X354044Y232227D01*
X353027Y232500D01*
D02*
G37*
G36*
X263027Y232500D02*
X261973D01*
X260956Y232227D01*
X260044Y231701D01*
X259299Y230956D01*
X258773Y230044D01*
X258500Y229027D01*
Y227973D01*
X258773Y226956D01*
X259299Y226044D01*
X260044Y225299D01*
X260956Y224773D01*
X261973Y224500D01*
X263027D01*
X264044Y224773D01*
X264956Y225299D01*
X265701Y226044D01*
X266227Y226956D01*
X266500Y227973D01*
Y229027D01*
X266227Y230044D01*
X265701Y230956D01*
X264956Y231701D01*
X264044Y232227D01*
X263027Y232500D01*
D02*
G37*
G36*
X353027Y292500D02*
X351973D01*
X350956Y292227D01*
X350044Y291701D01*
X349299Y290956D01*
X348773Y290044D01*
X348500Y289027D01*
Y287973D01*
X348773Y286956D01*
X349299Y286044D01*
X350044Y285299D01*
X350956Y284773D01*
X351973Y284500D01*
X353027D01*
X354044Y284773D01*
X354956Y285299D01*
X355247Y285590D01*
X420419Y220419D01*
X420915Y220087D01*
X421500Y219971D01*
X474635D01*
X475140Y219465D01*
X476023Y219100D01*
X476977D01*
X477859Y219465D01*
X478535Y220141D01*
X478900Y221023D01*
Y221977D01*
X478535Y222860D01*
X477859Y223535D01*
X476977Y223900D01*
X476023D01*
X475140Y223535D01*
X474635Y223029D01*
X422133D01*
X356538Y288625D01*
X356500Y288650D01*
Y289027D01*
X356227Y290044D01*
X355701Y290956D01*
X354956Y291701D01*
X354044Y292227D01*
X353027Y292500D01*
D02*
G37*
G36*
Y222500D02*
X351973D01*
X350956Y222227D01*
X350044Y221701D01*
X349299Y220956D01*
X348773Y220044D01*
X348500Y219027D01*
Y217973D01*
X348773Y216956D01*
X349299Y216044D01*
X350044Y215299D01*
X350956Y214773D01*
X351973Y214500D01*
X353027D01*
X354044Y214773D01*
X354956Y215299D01*
X355701Y216044D01*
X356227Y216956D01*
X356500Y217973D01*
Y219027D01*
X356227Y220044D01*
X355701Y220956D01*
X354956Y221701D01*
X354044Y222227D01*
X353027Y222500D01*
D02*
G37*
G36*
X263027Y222500D02*
X261973D01*
X260956Y222227D01*
X260044Y221701D01*
X259299Y220956D01*
X258773Y220044D01*
X258500Y219026D01*
Y217973D01*
X258773Y216956D01*
X259299Y216044D01*
X260044Y215299D01*
X260956Y214773D01*
X261973Y214500D01*
X263027D01*
X264044Y214773D01*
X264956Y215299D01*
X265701Y216044D01*
X266227Y216956D01*
X266500Y217973D01*
Y219026D01*
X266227Y220044D01*
X265701Y220956D01*
X264956Y221701D01*
X264044Y222227D01*
X263027Y222500D01*
D02*
G37*
G36*
X353027Y282500D02*
X351973D01*
X350956Y282227D01*
X350044Y281701D01*
X349299Y280956D01*
X348773Y280044D01*
X348500Y279027D01*
Y277973D01*
X348773Y276956D01*
X349299Y276044D01*
X350044Y275299D01*
X350956Y274773D01*
X351973Y274500D01*
X353027D01*
X354044Y274773D01*
X354057Y274780D01*
X416419Y212419D01*
X416915Y212087D01*
X417500Y211971D01*
X473635D01*
X474141Y211465D01*
X475023Y211100D01*
X475977D01*
X476860Y211465D01*
X477535Y212140D01*
X477900Y213023D01*
Y213977D01*
X477535Y214860D01*
X476860Y215535D01*
X475977Y215900D01*
X475023D01*
X474141Y215535D01*
X473635Y215029D01*
X418133D01*
X356220Y276943D01*
X356227Y276956D01*
X356500Y277973D01*
Y279027D01*
X356227Y280044D01*
X355701Y280956D01*
X354956Y281701D01*
X354044Y282227D01*
X353027Y282500D01*
D02*
G37*
G36*
Y212500D02*
X351973D01*
X350956Y212227D01*
X350044Y211701D01*
X349299Y210956D01*
X348773Y210044D01*
X348500Y209027D01*
Y207973D01*
X348773Y206956D01*
X349299Y206044D01*
X350044Y205299D01*
X350956Y204773D01*
X351973Y204500D01*
X353027D01*
X354044Y204773D01*
X354956Y205299D01*
X355701Y206044D01*
X356227Y206956D01*
X356500Y207973D01*
Y209027D01*
X356227Y210044D01*
X355701Y210956D01*
X354956Y211701D01*
X354044Y212227D01*
X353027Y212500D01*
D02*
G37*
G36*
X263027Y212500D02*
X261973D01*
X260956Y212227D01*
X260044Y211701D01*
X259299Y210956D01*
X258773Y210044D01*
X258500Y209027D01*
Y207973D01*
X258773Y206956D01*
X259299Y206044D01*
X260044Y205299D01*
X260956Y204772D01*
X261973Y204500D01*
X263027D01*
X264044Y204772D01*
X264956Y205299D01*
X265701Y206044D01*
X266227Y206956D01*
X266500Y207973D01*
Y209027D01*
X266227Y210044D01*
X265701Y210956D01*
X264956Y211701D01*
X264044Y212227D01*
X263027Y212500D01*
D02*
G37*
G36*
X548500Y203891D02*
Y202000D01*
X550391D01*
X550035Y202859D01*
X549360Y203535D01*
X548500Y203891D01*
D02*
G37*
G36*
X547500D02*
X546640Y203535D01*
X545965Y202859D01*
X545609Y202000D01*
X547500D01*
Y203891D01*
D02*
G37*
G36*
X477000Y201391D02*
Y199500D01*
X478891D01*
X478535Y200360D01*
X477859Y201035D01*
X477000Y201391D01*
D02*
G37*
G36*
X476000D02*
X475140Y201035D01*
X474465Y200360D01*
X474109Y199500D01*
X476000D01*
Y201391D01*
D02*
G37*
G36*
X550391Y201000D02*
X548500D01*
Y199109D01*
X549360Y199465D01*
X550035Y200141D01*
X550391Y201000D01*
D02*
G37*
G36*
X547500D02*
X545609D01*
X545965Y200141D01*
X546640Y199465D01*
X547500Y199109D01*
Y201000D01*
D02*
G37*
G36*
X478891Y198500D02*
X477000D01*
Y196609D01*
X477859Y196965D01*
X478535Y197641D01*
X478891Y198500D01*
D02*
G37*
G36*
X476000D02*
X474109D01*
X474465Y197641D01*
X475140Y196965D01*
X476000Y196609D01*
Y198500D01*
D02*
G37*
G36*
X353027Y202500D02*
X351973D01*
X350956Y202227D01*
X350044Y201701D01*
X349299Y200956D01*
X348773Y200044D01*
X348500Y199027D01*
Y197973D01*
X348773Y196956D01*
X349299Y196044D01*
X350044Y195299D01*
X350956Y194773D01*
X351973Y194500D01*
X353027D01*
X354044Y194773D01*
X354956Y195299D01*
X355701Y196044D01*
X356227Y196956D01*
X356500Y197973D01*
Y199027D01*
X356227Y200044D01*
X355701Y200956D01*
X354956Y201701D01*
X354044Y202227D01*
X353027Y202500D01*
D02*
G37*
G36*
X263027Y202500D02*
X261973D01*
X260956Y202227D01*
X260044Y201701D01*
X259299Y200956D01*
X258773Y200044D01*
X258500Y199027D01*
Y197973D01*
X258773Y196956D01*
X259299Y196044D01*
X260044Y195299D01*
X260956Y194773D01*
X261973Y194500D01*
X263027D01*
X264044Y194773D01*
X264956Y195299D01*
X265701Y196044D01*
X266227Y196956D01*
X266500Y197973D01*
Y199027D01*
X266227Y200044D01*
X265701Y200956D01*
X264956Y201701D01*
X264044Y202227D01*
X263027Y202500D01*
D02*
G37*
G36*
X491046Y197650D02*
X489954D01*
X488898Y197367D01*
X487952Y196820D01*
X487180Y196048D01*
X486633Y195102D01*
X486350Y194046D01*
Y192954D01*
X486633Y191898D01*
X487180Y190952D01*
X487952Y190180D01*
X488898Y189633D01*
X489954Y189350D01*
X491046D01*
X492102Y189633D01*
X493048Y190180D01*
X493820Y190952D01*
X494367Y191898D01*
X494650Y192954D01*
Y194046D01*
X494367Y195102D01*
X493820Y196048D01*
X493048Y196820D01*
X492102Y197367D01*
X491046Y197650D01*
D02*
G37*
G36*
X353027Y192500D02*
X351973D01*
X350956Y192227D01*
X350044Y191701D01*
X349299Y190956D01*
X348773Y190044D01*
X348500Y189027D01*
Y187973D01*
X348773Y186956D01*
X349299Y186044D01*
X350044Y185299D01*
X350956Y184773D01*
X351973Y184500D01*
X353027D01*
X354044Y184773D01*
X354956Y185299D01*
X355701Y186044D01*
X356227Y186956D01*
X356500Y187973D01*
Y189027D01*
X356227Y190044D01*
X355701Y190956D01*
X354956Y191701D01*
X354044Y192227D01*
X353027Y192500D01*
D02*
G37*
G36*
X263027Y192500D02*
X261973D01*
X260956Y192227D01*
X260044Y191701D01*
X259299Y190956D01*
X258773Y190044D01*
X258500Y189026D01*
Y187973D01*
X258773Y186956D01*
X259299Y186044D01*
X260044Y185299D01*
X260956Y184773D01*
X261973Y184500D01*
X263027D01*
X264044Y184773D01*
X264956Y185299D01*
X265701Y186044D01*
X266227Y186956D01*
X266500Y187973D01*
Y189026D01*
X266227Y190044D01*
X265701Y190956D01*
X264956Y191701D01*
X264044Y192227D01*
X263027Y192500D01*
D02*
G37*
G36*
X535792Y183752D02*
X532311D01*
Y182731D01*
X534370D01*
X534952Y182846D01*
X535446Y183176D01*
X535776Y183670D01*
X535792Y183752D01*
D02*
G37*
G36*
X418484Y182387D02*
X417902Y182271D01*
X417723Y182319D01*
X416278D01*
X414882Y181945D01*
X413630Y181222D01*
X412608Y180201D01*
X411886Y178949D01*
X411512Y177553D01*
Y176108D01*
X411886Y174712D01*
X412608Y173461D01*
X413630Y172439D01*
X414882Y171716D01*
X416278Y171343D01*
X417723D01*
X419118Y171716D01*
X419646Y172021D01*
X426749Y164919D01*
X427245Y164587D01*
X427831Y164471D01*
X472122D01*
Y163819D01*
X476878D01*
Y168181D01*
X472122D01*
Y167529D01*
X428464D01*
X421809Y174184D01*
X422114Y174712D01*
X422488Y176108D01*
Y177553D01*
X422114Y178949D01*
X421392Y180201D01*
X420370Y181222D01*
X419840Y181528D01*
X419566Y181939D01*
X419069Y182270D01*
X418484Y182387D01*
D02*
G37*
G36*
X563977Y210400D02*
X563023D01*
X562141Y210035D01*
X561465Y209360D01*
X561100Y208477D01*
Y207523D01*
X561465Y206641D01*
X561876Y206230D01*
Y182689D01*
X561437Y182328D01*
X560855Y182213D01*
X560453Y181944D01*
X560051Y182213D01*
X559469Y182328D01*
X558886Y182213D01*
X558484Y181944D01*
X558082Y182213D01*
X557500Y182328D01*
X556945Y182880D01*
X556613Y183376D01*
X554774Y185214D01*
Y185997D01*
X554409Y186880D01*
X553734Y187555D01*
X552852Y187920D01*
X551897D01*
X551015Y187555D01*
X550340Y186880D01*
X549974Y185997D01*
Y185043D01*
X550340Y184161D01*
X551015Y183485D01*
X551791Y183164D01*
X551899Y182794D01*
X551900Y182670D01*
X551633Y182321D01*
X551594Y182328D01*
X551012Y182213D01*
X550610Y181944D01*
X550208Y182213D01*
X549626Y182328D01*
X549044Y182213D01*
X548642Y181944D01*
X548240Y182213D01*
X547657Y182328D01*
X547075Y182213D01*
X546673Y181944D01*
X546271Y182213D01*
X545689Y182328D01*
X545107Y182213D01*
X544705Y181944D01*
X544303Y182213D01*
X543720Y182328D01*
X543138Y182213D01*
X542736Y181944D01*
X542334Y182213D01*
X541752Y182328D01*
X541170Y182213D01*
X540768Y181944D01*
X540366Y182213D01*
X539783Y182328D01*
X539201Y182213D01*
X538799Y181944D01*
X538397Y182213D01*
X537815Y182328D01*
X537233Y182213D01*
X536739Y181883D01*
X536409Y181389D01*
X536294Y180807D01*
Y178288D01*
X536286Y178248D01*
Y176338D01*
X505419Y145471D01*
X505087Y144975D01*
X504971Y144390D01*
Y106633D01*
X490666Y92329D01*
X490602Y92367D01*
X489546Y92650D01*
X488454D01*
X487398Y92367D01*
X486452Y91821D01*
X485679Y91048D01*
X485133Y90102D01*
X484850Y89046D01*
Y87954D01*
X485133Y86898D01*
X485679Y85952D01*
X486452Y85180D01*
X487398Y84633D01*
X488454Y84350D01*
X489546D01*
X490602Y84633D01*
X491548Y85180D01*
X492320Y85952D01*
X492867Y86898D01*
X493150Y87954D01*
Y89046D01*
X492867Y90102D01*
X492829Y90166D01*
X507171Y104508D01*
X507971Y104176D01*
Y99634D01*
X500667Y92329D01*
X500602Y92367D01*
X499546Y92650D01*
X498454D01*
X497398Y92367D01*
X496452Y91821D01*
X495680Y91048D01*
X495133Y90102D01*
X494850Y89046D01*
Y87954D01*
X495133Y86898D01*
X495680Y85952D01*
X496452Y85180D01*
X497398Y84633D01*
X498454Y84350D01*
X499546D01*
X500602Y84633D01*
X501548Y85180D01*
X502320Y85952D01*
X502867Y86898D01*
X503150Y87954D01*
Y89046D01*
X502867Y90102D01*
X502829Y90166D01*
X510581Y97919D01*
X510913Y98415D01*
X511029Y99000D01*
Y143781D01*
X512231Y144983D01*
X512971Y144677D01*
Y94634D01*
X510667Y92329D01*
X510602Y92367D01*
X509546Y92650D01*
X508454D01*
X507398Y92367D01*
X506452Y91821D01*
X505680Y91048D01*
X505133Y90102D01*
X504850Y89046D01*
Y87954D01*
X505133Y86898D01*
X505680Y85952D01*
X506452Y85180D01*
X507398Y84633D01*
X508454Y84350D01*
X509546D01*
X510602Y84633D01*
X511548Y85180D01*
X512321Y85952D01*
X512867Y86898D01*
X513150Y87954D01*
Y89046D01*
X512867Y90102D01*
X512829Y90166D01*
X515581Y92919D01*
X515913Y93415D01*
X516029Y94000D01*
Y146377D01*
X538931Y169279D01*
X539734Y168971D01*
X539793Y168456D01*
X517919Y146581D01*
X517587Y146085D01*
X517471Y145500D01*
Y92386D01*
X517398Y92367D01*
X516452Y91821D01*
X515680Y91048D01*
X515133Y90102D01*
X514850Y89046D01*
Y87954D01*
X515133Y86898D01*
X515680Y85952D01*
X516452Y85180D01*
X517398Y84633D01*
X518454Y84350D01*
X519546D01*
X520602Y84633D01*
X521548Y85180D01*
X522321Y85952D01*
X522867Y86898D01*
X523150Y87954D01*
Y89046D01*
X522867Y90102D01*
X522321Y91048D01*
X521548Y91821D01*
X520602Y92367D01*
X520529Y92386D01*
Y93762D01*
X521269Y94069D01*
X525171Y90166D01*
X525133Y90102D01*
X524850Y89046D01*
Y87954D01*
X525133Y86898D01*
X525679Y85952D01*
X526452Y85180D01*
X527398Y84633D01*
X528454Y84350D01*
X529546D01*
X530602Y84633D01*
X531548Y85180D01*
X532320Y85952D01*
X532867Y86898D01*
X533150Y87954D01*
Y89046D01*
X532867Y90102D01*
X532320Y91048D01*
X531548Y91821D01*
X530602Y92367D01*
X529546Y92650D01*
X528454D01*
X527398Y92367D01*
X527333Y92329D01*
X522529Y97133D01*
Y125310D01*
X523329Y125469D01*
X523465Y125141D01*
X524141Y124465D01*
X525023Y124100D01*
X525977D01*
X526860Y124465D01*
X527535Y125141D01*
X527900Y126023D01*
Y126977D01*
X527535Y127859D01*
X527029Y128365D01*
Y130889D01*
X528296D01*
Y136614D01*
Y140223D01*
X532311Y144238D01*
X534142D01*
X534290Y144268D01*
X540941D01*
Y151386D01*
X537730D01*
Y155067D01*
X544232Y161569D01*
X544971Y161263D01*
Y151386D01*
X544059D01*
Y144268D01*
X547270D01*
Y138976D01*
X547386Y138391D01*
X547718Y137895D01*
X558390Y127223D01*
Y123705D01*
X569886D01*
Y124769D01*
X571503D01*
X572008Y124264D01*
X572890Y123898D01*
X573845D01*
X574727Y124264D01*
X575402Y124939D01*
X575768Y125821D01*
Y126776D01*
X575402Y127658D01*
X574727Y128333D01*
X573845Y128698D01*
X572890D01*
X572008Y128333D01*
X571503Y127828D01*
X569886D01*
Y129296D01*
X560643D01*
X550329Y139610D01*
Y144268D01*
X553539D01*
Y147786D01*
X554339Y147945D01*
X554465Y147641D01*
X555140Y146965D01*
X556023Y146600D01*
X556780D01*
X556836Y146545D01*
X557332Y146213D01*
X557917Y146097D01*
X558413D01*
Y143083D01*
X565138D01*
Y143083D01*
X565649Y143295D01*
X567333Y141611D01*
Y140772D01*
X561661D01*
Y139529D01*
X559865D01*
X559360Y140035D01*
X558477Y140400D01*
X557523D01*
X556640Y140035D01*
X555965Y139359D01*
X555600Y138477D01*
Y137523D01*
X555965Y136641D01*
X556640Y135965D01*
X557523Y135600D01*
X558477D01*
X559360Y135965D01*
X559865Y136471D01*
X561661D01*
Y135228D01*
X571339D01*
Y140772D01*
X570392D01*
Y142244D01*
X570384Y142283D01*
X570995Y143083D01*
X572424D01*
X575147Y140359D01*
X575643Y140028D01*
X576228Y139912D01*
X576728D01*
Y138799D01*
X581239D01*
Y102902D01*
X578861Y100524D01*
X577994Y100756D01*
X577005D01*
X576050Y100500D01*
X575194Y100005D01*
X574495Y99306D01*
X574000Y98450D01*
X573744Y97495D01*
Y96505D01*
X574000Y95550D01*
X574495Y94694D01*
X575194Y93994D01*
X576050Y93500D01*
X577005Y93244D01*
X577994D01*
X578950Y93500D01*
X579806Y93994D01*
X580506Y94694D01*
X581000Y95550D01*
X581256Y96505D01*
Y97495D01*
X581024Y98361D01*
X583850Y101187D01*
X584181Y101683D01*
X584298Y102269D01*
Y165477D01*
X585037Y165783D01*
X585702Y165118D01*
Y100390D01*
X585036Y100005D01*
X584337Y99306D01*
X583843Y98450D01*
X583587Y97495D01*
Y96505D01*
X583843Y95550D01*
X584337Y94694D01*
X585036Y93994D01*
X585893Y93500D01*
X586848Y93244D01*
X587837D01*
X588792Y93500D01*
X589649Y93994D01*
X590348Y94694D01*
X590842Y95550D01*
X591098Y96505D01*
Y97495D01*
X590842Y98450D01*
X590348Y99306D01*
X589649Y100005D01*
X588792Y100500D01*
X588761Y100508D01*
Y149047D01*
X589561Y149374D01*
X590304Y149066D01*
X591259D01*
X592141Y149432D01*
X592816Y150107D01*
X593181Y150989D01*
Y151944D01*
X592816Y152826D01*
X592141Y153501D01*
X592029Y153547D01*
Y155579D01*
X593469D01*
Y161122D01*
X593469D01*
Y161878D01*
X593469D01*
Y164150D01*
X590500D01*
Y164650D01*
X590000D01*
Y167421D01*
X587724D01*
X584620Y170526D01*
Y173807D01*
X585059Y174168D01*
X585641Y174283D01*
X586135Y174613D01*
X586465Y175107D01*
X586580Y175689D01*
Y180807D01*
X586465Y181389D01*
X586135Y181883D01*
X585641Y182213D01*
X585059Y182328D01*
X584477Y182213D01*
X584075Y181944D01*
X583673Y182213D01*
X583090Y182328D01*
X582508Y182213D01*
X582106Y181944D01*
X581704Y182213D01*
X581122Y182328D01*
X580540Y182213D01*
X580138Y181944D01*
X579736Y182213D01*
X579654Y182229D01*
Y181074D01*
X579600Y180807D01*
Y178288D01*
X579592Y178248D01*
X578653D01*
Y182229D01*
X578571Y182213D01*
X578169Y181944D01*
X577767Y182213D01*
X577185Y182328D01*
X576746Y182689D01*
Y185284D01*
X576629Y185869D01*
X576298Y186365D01*
X573023Y189640D01*
Y190355D01*
X572657Y191237D01*
X571982Y191912D01*
X571100Y192277D01*
X570145D01*
X569263Y191912D01*
X568588Y191237D01*
X568223Y190355D01*
Y189400D01*
X568588Y188518D01*
X569263Y187843D01*
X570145Y187477D01*
X570860D01*
X573687Y184650D01*
Y182689D01*
X573248Y182328D01*
X572666Y182213D01*
X572264Y181944D01*
X571862Y182213D01*
X571279Y182328D01*
X570697Y182213D01*
X570295Y181944D01*
X569893Y182213D01*
X569311Y182328D01*
X568729Y182213D01*
X568327Y181944D01*
X567925Y182213D01*
X567343Y182328D01*
X566760Y182213D01*
X566358Y181944D01*
X565956Y182213D01*
X565374Y182328D01*
X564935Y182689D01*
Y206041D01*
X565535Y206641D01*
X565900Y207523D01*
Y208477D01*
X565535Y209360D01*
X564859Y210035D01*
X563977Y210400D01*
D02*
G37*
G36*
X598000Y179891D02*
Y178000D01*
X599891D01*
X599535Y178859D01*
X598860Y179535D01*
X598000Y179891D01*
D02*
G37*
G36*
X597000D02*
X596140Y179535D01*
X595465Y178859D01*
X595109Y178000D01*
X597000D01*
Y179891D01*
D02*
G37*
G36*
X523969Y178701D02*
X521500D01*
Y176429D01*
X523969D01*
Y178701D01*
D02*
G37*
G36*
X520500D02*
X518032D01*
Y176429D01*
X520500D01*
Y178701D01*
D02*
G37*
G36*
X599891Y177000D02*
X598000D01*
Y175109D01*
X598860Y175465D01*
X599535Y176140D01*
X599891Y177000D01*
D02*
G37*
G36*
X597000D02*
X595109D01*
X595465Y176140D01*
X596140Y175465D01*
X597000Y175109D01*
Y177000D01*
D02*
G37*
G36*
X478878Y175969D02*
X478122D01*
X478078Y175969D01*
X472579D01*
Y174529D01*
X470865D01*
X470360Y175035D01*
X469477Y175400D01*
X468523D01*
X467640Y175035D01*
X466965Y174360D01*
X466600Y173477D01*
Y172523D01*
X466965Y171641D01*
X467640Y170965D01*
X468523Y170600D01*
X469477D01*
X470360Y170965D01*
X470865Y171471D01*
X472579D01*
Y170031D01*
X478078D01*
X478122Y170031D01*
X478878D01*
X478922Y170031D01*
X482455D01*
X486971Y165516D01*
Y163865D01*
X486765Y163659D01*
X484752D01*
Y164441D01*
X479996D01*
Y160079D01*
X484752D01*
Y160600D01*
X486505D01*
X487141Y159965D01*
X488023Y159600D01*
X488977D01*
X489859Y159965D01*
X490535Y160641D01*
X490900Y161523D01*
Y162477D01*
X490535Y163359D01*
X490029Y163865D01*
Y166150D01*
X489913Y166735D01*
X489581Y167231D01*
X484421Y172391D01*
Y175969D01*
X478922D01*
X478878Y175969D01*
D02*
G37*
G36*
X353027Y182500D02*
X351973D01*
X350956Y182227D01*
X350044Y181701D01*
X349299Y180956D01*
X348773Y180044D01*
X348500Y179027D01*
Y177973D01*
X348773Y176956D01*
X349299Y176044D01*
X350044Y175299D01*
X350956Y174773D01*
X351973Y174500D01*
X353027D01*
X354044Y174773D01*
X354956Y175299D01*
X355701Y176044D01*
X356227Y176956D01*
X356500Y177973D01*
Y179027D01*
X356227Y180044D01*
X355701Y180956D01*
X354956Y181701D01*
X354044Y182227D01*
X353027Y182500D01*
D02*
G37*
G36*
X263027Y182500D02*
X261973D01*
X260956Y182227D01*
X260044Y181701D01*
X259299Y180956D01*
X258773Y180044D01*
X258500Y179026D01*
Y177973D01*
X258773Y176956D01*
X259299Y176044D01*
X260044Y175299D01*
X260956Y174773D01*
X261973Y174500D01*
X263027D01*
X264044Y174773D01*
X264956Y175299D01*
X265701Y176044D01*
X266227Y176956D01*
X266500Y177973D01*
Y179026D01*
X266227Y180044D01*
X265701Y180956D01*
X264956Y181701D01*
X264044Y182227D01*
X263027Y182500D01*
D02*
G37*
G36*
X520500Y175391D02*
Y173500D01*
X522391D01*
X522035Y174360D01*
X521359Y175035D01*
X520500Y175391D01*
D02*
G37*
G36*
X519500D02*
X518641Y175035D01*
X517965Y174360D01*
X517609Y173500D01*
X519500D01*
Y175391D01*
D02*
G37*
G36*
X489500D02*
Y173500D01*
X491391D01*
X491035Y174360D01*
X490359Y175035D01*
X489500Y175391D01*
D02*
G37*
G36*
X488500D02*
X487640Y175035D01*
X486965Y174360D01*
X486609Y173500D01*
X488500D01*
Y175391D01*
D02*
G37*
G36*
X522391Y172500D02*
X520500D01*
Y170609D01*
X521359Y170965D01*
X522035Y171641D01*
X522391Y172500D01*
D02*
G37*
G36*
X519500D02*
X517609D01*
X517965Y171641D01*
X518641Y170965D01*
X519500Y170609D01*
Y172500D01*
D02*
G37*
G36*
X491391D02*
X489500D01*
Y170609D01*
X490359Y170965D01*
X491035Y171641D01*
X491391Y172500D01*
D02*
G37*
G36*
X488500D02*
X486609D01*
X486965Y171641D01*
X487640Y170965D01*
X488500Y170609D01*
Y172500D01*
D02*
G37*
G36*
X612968Y169921D02*
X610500D01*
Y167650D01*
X612968D01*
Y169921D01*
D02*
G37*
G36*
X609500D02*
X607031D01*
Y167650D01*
X609500D01*
Y169921D01*
D02*
G37*
G36*
X604969Y169421D02*
X602500D01*
Y167150D01*
X604969D01*
Y169421D01*
D02*
G37*
G36*
X593469Y167421D02*
X591000D01*
Y165150D01*
X593469D01*
Y167421D01*
D02*
G37*
G36*
X353027Y172500D02*
X351973D01*
X350956Y172227D01*
X350044Y171701D01*
X349299Y170956D01*
X348773Y170044D01*
X348500Y169027D01*
Y167973D01*
X348773Y166956D01*
X349299Y166044D01*
X350044Y165299D01*
X350956Y164773D01*
X351973Y164500D01*
X353027D01*
X354044Y164773D01*
X354956Y165299D01*
X355701Y166044D01*
X356227Y166956D01*
X356500Y167973D01*
Y169027D01*
X356227Y170044D01*
X355701Y170956D01*
X354956Y171701D01*
X354044Y172227D01*
X353027Y172500D01*
D02*
G37*
G36*
X263027Y172500D02*
X261973D01*
X260956Y172227D01*
X260044Y171701D01*
X259299Y170956D01*
X258773Y170044D01*
X258500Y169027D01*
Y167973D01*
X258773Y166956D01*
X259299Y166044D01*
X260044Y165299D01*
X260956Y164772D01*
X261973Y164500D01*
X263027D01*
X264044Y164772D01*
X264956Y165299D01*
X265701Y166044D01*
X266227Y166956D01*
X266500Y167973D01*
Y169027D01*
X266227Y170044D01*
X265701Y170956D01*
X264956Y171701D01*
X264044Y172227D01*
X263027Y172500D01*
D02*
G37*
G36*
X476878Y160701D02*
X475000D01*
Y159020D01*
X476878D01*
Y160701D01*
D02*
G37*
G36*
X474000D02*
X472122D01*
Y159020D01*
X474000D01*
Y160701D01*
D02*
G37*
G36*
X476878Y158020D02*
X475000D01*
Y156339D01*
X476878D01*
Y158020D01*
D02*
G37*
G36*
X474000D02*
X472122D01*
Y156339D01*
X474000D01*
Y158020D01*
D02*
G37*
G36*
X507500Y157600D02*
X506500D01*
Y155100D01*
X507500D01*
Y157600D01*
D02*
G37*
G36*
X353027Y162500D02*
X351973D01*
X350956Y162227D01*
X350044Y161701D01*
X349299Y160956D01*
X348773Y160044D01*
X348500Y159027D01*
Y157973D01*
X348773Y156956D01*
X349299Y156044D01*
X350044Y155299D01*
X350956Y154773D01*
X351973Y154500D01*
X353027D01*
X354044Y154773D01*
X354956Y155299D01*
X355701Y156044D01*
X356227Y156956D01*
X356500Y157973D01*
Y159027D01*
X356227Y160044D01*
X355701Y160956D01*
X354956Y161701D01*
X354044Y162227D01*
X353027Y162500D01*
D02*
G37*
G36*
X263027Y162500D02*
X261973D01*
X260956Y162227D01*
X260044Y161701D01*
X259299Y160956D01*
X258773Y160044D01*
X258500Y159027D01*
Y157973D01*
X258773Y156956D01*
X259299Y156044D01*
X260044Y155299D01*
X260956Y154772D01*
X261973Y154500D01*
X263027D01*
X264044Y154772D01*
X264956Y155299D01*
X265701Y156044D01*
X266227Y156956D01*
X266500Y157973D01*
Y159027D01*
X266227Y160044D01*
X265701Y160956D01*
X264956Y161701D01*
X264044Y162227D01*
X263027Y162500D01*
D02*
G37*
G36*
X453461Y160500D02*
X452539D01*
X451649Y160261D01*
X450851Y159801D01*
X450199Y159149D01*
X449739Y158351D01*
X449500Y157461D01*
Y156539D01*
X449739Y155649D01*
X450199Y154851D01*
X450706Y154344D01*
Y153150D01*
X448347D01*
X447272Y154224D01*
Y154823D01*
X447301Y154851D01*
X447761Y155649D01*
X448000Y156539D01*
Y157461D01*
X447761Y158351D01*
X447301Y159149D01*
X446649Y159801D01*
X445851Y160261D01*
X444961Y160500D01*
X444039D01*
X443149Y160261D01*
X442351Y159801D01*
X441699Y159149D01*
X441238Y158351D01*
X441000Y157461D01*
Y156539D01*
X441238Y155649D01*
X441699Y154851D01*
X442351Y154199D01*
X442684Y154007D01*
Y153274D01*
X442859Y152396D01*
X443356Y151652D01*
X445102Y149905D01*
Y142685D01*
X459898D01*
Y149905D01*
X462644Y152652D01*
X463141Y153396D01*
X463143Y153407D01*
X463649Y153699D01*
X464301Y154351D01*
X464761Y155149D01*
X465000Y156039D01*
Y156961D01*
X464761Y157851D01*
X464301Y158649D01*
X463649Y159301D01*
X462851Y159762D01*
X461961Y160000D01*
X461039D01*
X460149Y159762D01*
X459351Y159301D01*
X458699Y158649D01*
X458239Y157851D01*
X458000Y156961D01*
Y156039D01*
X458239Y155149D01*
X458390Y154886D01*
X456653Y153150D01*
X455294D01*
Y154344D01*
X455801Y154851D01*
X456261Y155649D01*
X456500Y156539D01*
Y157461D01*
X456261Y158351D01*
X455801Y159149D01*
X455149Y159801D01*
X454351Y160261D01*
X453461Y160500D01*
D02*
G37*
G36*
X470500Y151391D02*
Y149500D01*
X472391D01*
X472035Y150359D01*
X471359Y151035D01*
X470500Y151391D01*
D02*
G37*
G36*
X469500D02*
X468641Y151035D01*
X467965Y150359D01*
X467609Y149500D01*
X469500D01*
Y151391D01*
D02*
G37*
G36*
X634336Y151099D02*
X632539D01*
Y149000D01*
X634336D01*
Y151099D01*
D02*
G37*
G36*
X620836D02*
X619039D01*
Y149000D01*
X620836D01*
Y151099D01*
D02*
G37*
G36*
X505391Y148500D02*
X503500D01*
Y146609D01*
X504359Y146965D01*
X505035Y147641D01*
X505391Y148500D01*
D02*
G37*
G36*
X472391D02*
X470500D01*
Y146609D01*
X471359Y146965D01*
X472035Y147641D01*
X472391Y148500D01*
D02*
G37*
G36*
X469500D02*
X467609D01*
X467965Y147641D01*
X468641Y146965D01*
X469500Y146609D01*
Y148500D01*
D02*
G37*
G36*
X634336Y148000D02*
X632539D01*
Y145901D01*
X634336D01*
Y148000D01*
D02*
G37*
G36*
X620836D02*
X619039D01*
Y145901D01*
X620836D01*
Y148000D01*
D02*
G37*
G36*
X353027Y152500D02*
X351973D01*
X350956Y152227D01*
X350044Y151701D01*
X349299Y150956D01*
X348773Y150044D01*
X348500Y149027D01*
Y147973D01*
X348773Y146956D01*
X349299Y146044D01*
X350044Y145299D01*
X350956Y144773D01*
X351973Y144500D01*
X353027D01*
X354044Y144773D01*
X354956Y145299D01*
X355701Y146044D01*
X356227Y146956D01*
X356500Y147973D01*
Y149027D01*
X356227Y150044D01*
X355701Y150956D01*
X354956Y151701D01*
X354044Y152227D01*
X353027Y152500D01*
D02*
G37*
G36*
X263027Y152500D02*
X261973D01*
X260956Y152227D01*
X260044Y151701D01*
X259299Y150956D01*
X258773Y150044D01*
X258500Y149027D01*
Y147973D01*
X258773Y146956D01*
X259299Y146044D01*
X260044Y145299D01*
X260956Y144773D01*
X261973Y144500D01*
X263027D01*
X264044Y144773D01*
X264956Y145299D01*
X265701Y146044D01*
X266227Y146956D01*
X266500Y147973D01*
Y149027D01*
X266227Y150044D01*
X265701Y150956D01*
X264956Y151701D01*
X264044Y152227D01*
X263027Y152500D01*
D02*
G37*
G36*
X662099Y145336D02*
X660000D01*
Y143539D01*
X662099D01*
Y145336D01*
D02*
G37*
G36*
X659000D02*
X656901D01*
Y143539D01*
X659000D01*
Y145336D01*
D02*
G37*
G36*
X391571Y162510D02*
X389524D01*
X387503Y162190D01*
X385557Y161557D01*
X383734Y160628D01*
X382079Y159426D01*
X380632Y157979D01*
X379429Y156323D01*
X378500Y154500D01*
X377868Y152554D01*
X377548Y150533D01*
Y148487D01*
X377868Y146466D01*
X378500Y144519D01*
X379429Y142696D01*
X380632Y141041D01*
X382079Y139594D01*
X383734Y138391D01*
X385557Y137462D01*
X387503Y136830D01*
X389524Y136510D01*
X391571D01*
X393592Y136830D01*
X395538Y137462D01*
X397361Y138391D01*
X399016Y139594D01*
X400463Y141041D01*
X401666Y142696D01*
X402595Y144519D01*
X403228Y146466D01*
X403548Y148487D01*
Y150533D01*
X403228Y152554D01*
X402595Y154500D01*
X401666Y156323D01*
X400463Y157979D01*
X399016Y159426D01*
X397361Y160628D01*
X395538Y161557D01*
X393592Y162190D01*
X391571Y162510D01*
D02*
G37*
G36*
X353027Y142500D02*
X351973D01*
X350956Y142227D01*
X350044Y141701D01*
X349299Y140956D01*
X348773Y140044D01*
X348500Y139027D01*
Y137973D01*
X348773Y136956D01*
X349299Y136044D01*
X350044Y135299D01*
X350956Y134773D01*
X351973Y134500D01*
X353027D01*
X354044Y134773D01*
X354956Y135299D01*
X355701Y136044D01*
X356227Y136956D01*
X356500Y137973D01*
Y139027D01*
X356227Y140044D01*
X355701Y140956D01*
X354956Y141701D01*
X354044Y142227D01*
X353027Y142500D01*
D02*
G37*
G36*
X263027Y142500D02*
X261973D01*
X260956Y142227D01*
X260044Y141701D01*
X259299Y140956D01*
X258773Y140044D01*
X258500Y139026D01*
Y137973D01*
X258773Y136956D01*
X259299Y136044D01*
X260044Y135299D01*
X260956Y134773D01*
X261973Y134500D01*
X263027D01*
X264044Y134773D01*
X264956Y135299D01*
X265701Y136044D01*
X266227Y136956D01*
X266500Y137973D01*
Y139026D01*
X266227Y140044D01*
X265701Y140956D01*
X264956Y141701D01*
X264044Y142227D01*
X263027Y142500D01*
D02*
G37*
G36*
X687051Y138209D02*
X678949D01*
Y130106D01*
X687051D01*
Y138209D01*
D02*
G37*
G36*
X446315Y130315D02*
X440575D01*
Y129874D01*
X412134D01*
Y130075D01*
X401866D01*
Y125414D01*
X365314Y88861D01*
X359776D01*
X359769Y88873D01*
X359070Y89572D01*
X358213Y90067D01*
X357258Y90323D01*
X356269D01*
X355314Y90067D01*
X354458Y89572D01*
X353758Y88873D01*
X353264Y88017D01*
X353008Y87061D01*
Y86072D01*
X353011Y86059D01*
X347747Y80794D01*
X284950D01*
X276452Y89293D01*
X276500Y89473D01*
Y90527D01*
X276227Y91544D01*
X275701Y92456D01*
X274956Y93201D01*
X274044Y93727D01*
X273027Y94000D01*
X271973D01*
X270956Y93727D01*
X270044Y93201D01*
X269299Y92456D01*
X268773Y91544D01*
X268500Y90527D01*
Y89473D01*
X268773Y88456D01*
X269299Y87544D01*
X270044Y86799D01*
X270956Y86273D01*
X271973Y86000D01*
X273027D01*
X273207Y86048D01*
X282378Y76878D01*
X283122Y76380D01*
X284000Y76206D01*
X348697D01*
X349575Y76381D01*
X350319Y76878D01*
X356256Y82815D01*
X356269Y82811D01*
X357258D01*
X358213Y83067D01*
X359070Y83561D01*
X359769Y84261D01*
X359776Y84273D01*
X366264D01*
X367142Y84447D01*
X367886Y84945D01*
X404790Y121848D01*
X405756Y121795D01*
X405833Y121695D01*
X406825Y120934D01*
X407980Y120455D01*
X409221Y120292D01*
X440575D01*
Y119850D01*
X441151D01*
Y112781D01*
X439008D01*
Y106219D01*
Y99710D01*
X439706D01*
Y97119D01*
X439881Y96241D01*
X440378Y95497D01*
X442060Y93815D01*
X442239Y93149D01*
X442699Y92351D01*
X443351Y91699D01*
X444149Y91238D01*
X445039Y91000D01*
X445961D01*
X446851Y91238D01*
X447649Y91699D01*
X448301Y92351D01*
X448762Y93149D01*
X449000Y94039D01*
Y94961D01*
X448762Y95851D01*
X448301Y96649D01*
X447649Y97301D01*
X446851Y97761D01*
X445961Y98000D01*
X445039D01*
X444294Y98626D01*
Y99710D01*
X444992D01*
Y106219D01*
Y109537D01*
X445067Y109611D01*
X445564Y110355D01*
X445739Y111233D01*
Y119850D01*
X446315D01*
Y121298D01*
X446833Y121695D01*
X447594Y122687D01*
X448073Y123843D01*
X448236Y125083D01*
X448073Y126323D01*
X447594Y127478D01*
X446833Y128470D01*
X446315Y128868D01*
Y130315D01*
D02*
G37*
G36*
X353027Y132500D02*
X351973D01*
X350956Y132227D01*
X350044Y131701D01*
X349299Y130956D01*
X348773Y130044D01*
X348500Y129027D01*
Y127973D01*
X348773Y126956D01*
X349299Y126044D01*
X350044Y125299D01*
X350956Y124773D01*
X351973Y124500D01*
X353027D01*
X354044Y124773D01*
X354956Y125299D01*
X355701Y126044D01*
X356227Y126956D01*
X356500Y127973D01*
Y129027D01*
X356227Y130044D01*
X355701Y130956D01*
X354956Y131701D01*
X354044Y132227D01*
X353027Y132500D01*
D02*
G37*
G36*
X263027Y132500D02*
X261973D01*
X260956Y132227D01*
X260044Y131701D01*
X259299Y130956D01*
X258773Y130044D01*
X258500Y129026D01*
Y127973D01*
X258773Y126956D01*
X259299Y126044D01*
X260044Y125299D01*
X260956Y124773D01*
X261973Y124500D01*
X263027D01*
X264044Y124773D01*
X264956Y125299D01*
X265701Y126044D01*
X266227Y126956D01*
X266500Y127973D01*
Y129026D01*
X266227Y130044D01*
X265701Y130956D01*
X264956Y131701D01*
X264044Y132227D01*
X263027Y132500D01*
D02*
G37*
G36*
X553539Y129732D02*
X544059D01*
Y122614D01*
X553539D01*
Y129732D01*
D02*
G37*
G36*
X540941D02*
X531461D01*
Y122614D01*
X540941D01*
Y129732D01*
D02*
G37*
G36*
X353027Y122500D02*
X351973D01*
X350956Y122227D01*
X350044Y121701D01*
X349299Y120956D01*
X348773Y120044D01*
X348500Y119027D01*
Y117973D01*
X348773Y116956D01*
X349299Y116044D01*
X350044Y115299D01*
X350956Y114773D01*
X351973Y114500D01*
X353027D01*
X354044Y114773D01*
X354956Y115299D01*
X355701Y116044D01*
X356227Y116956D01*
X356500Y117973D01*
Y119027D01*
X356227Y120044D01*
X355701Y120956D01*
X354956Y121701D01*
X354044Y122227D01*
X353027Y122500D01*
D02*
G37*
G36*
X263027Y122500D02*
X261973D01*
X260956Y122227D01*
X260044Y121701D01*
X259299Y120956D01*
X258773Y120044D01*
X258500Y119027D01*
Y117973D01*
X258773Y116956D01*
X259299Y116044D01*
X260044Y115299D01*
X260956Y114772D01*
X261973Y114500D01*
X263027D01*
X264044Y114772D01*
X264956Y115299D01*
X265701Y116044D01*
X266227Y116956D01*
X266500Y117973D01*
Y119027D01*
X266227Y120044D01*
X265701Y120956D01*
X264956Y121701D01*
X264044Y122227D01*
X263027Y122500D01*
D02*
G37*
G36*
X647523Y139500D02*
X645477D01*
X643456Y139180D01*
X641510Y138548D01*
X639686Y137619D01*
X638031Y136416D01*
X636584Y134969D01*
X635381Y133314D01*
X634452Y131490D01*
X633820Y129544D01*
X633500Y127523D01*
Y125477D01*
X633820Y123456D01*
X634452Y121510D01*
X635381Y119686D01*
X636584Y118031D01*
X638031Y116584D01*
X639686Y115381D01*
X641510Y114452D01*
X643456Y113820D01*
X645477Y113500D01*
X647523D01*
X649544Y113820D01*
X651490Y114452D01*
X653313Y115381D01*
X654969Y116584D01*
X656416Y118031D01*
X657619Y119686D01*
X658548Y121510D01*
X659180Y123456D01*
X659500Y125477D01*
Y127523D01*
X659180Y129544D01*
X658548Y131490D01*
X657619Y133314D01*
X656416Y134969D01*
X654969Y136416D01*
X653313Y137619D01*
X651490Y138548D01*
X649544Y139180D01*
X647523Y139500D01*
D02*
G37*
G36*
X487500Y116254D02*
Y113000D01*
X490754D01*
X490500Y113950D01*
X490005Y114806D01*
X489306Y115506D01*
X488450Y116000D01*
X487500Y116254D01*
D02*
G37*
G36*
X486500D02*
X485550Y116000D01*
X484694Y115506D01*
X483994Y114806D01*
X483500Y113950D01*
X483246Y113000D01*
X486500D01*
Y116254D01*
D02*
G37*
G36*
X429457Y119445D02*
X421551D01*
Y109177D01*
X429457D01*
Y119445D01*
D02*
G37*
G36*
X490754Y112000D02*
X487500D01*
Y108746D01*
X488450Y109000D01*
X489306Y109494D01*
X490005Y110194D01*
X490500Y111050D01*
X490754Y112000D01*
D02*
G37*
G36*
X486500D02*
X483246D01*
X483500Y111050D01*
X483994Y110194D01*
X484694Y109494D01*
X485550Y109000D01*
X486500Y108746D01*
Y112000D01*
D02*
G37*
G36*
X466008Y110563D02*
X462402D01*
Y107000D01*
X466008D01*
Y110563D01*
D02*
G37*
G36*
X353027Y112500D02*
X351973D01*
X350956Y112227D01*
X350044Y111701D01*
X349299Y110956D01*
X348773Y110044D01*
X348500Y109027D01*
Y107973D01*
X348773Y106956D01*
X349299Y106044D01*
X350044Y105299D01*
X350956Y104773D01*
X351973Y104500D01*
X353027D01*
X354044Y104773D01*
X354956Y105299D01*
X355701Y106044D01*
X356227Y106956D01*
X356500Y107973D01*
Y109027D01*
X356227Y110044D01*
X355701Y110956D01*
X354956Y111701D01*
X354044Y112227D01*
X353027Y112500D01*
D02*
G37*
G36*
X466008Y106000D02*
X462402D01*
Y102437D01*
X466008D01*
Y106000D01*
D02*
G37*
G36*
X412134Y106453D02*
X401866D01*
Y98547D01*
X412134D01*
Y106453D01*
D02*
G37*
G36*
X597680Y100756D02*
X596691D01*
X595735Y100500D01*
X594879Y100005D01*
X594180Y99306D01*
X593685Y98450D01*
X593429Y97495D01*
Y96505D01*
X593685Y95550D01*
X594180Y94694D01*
X594879Y93994D01*
X595735Y93500D01*
X596691Y93244D01*
X597680D01*
X598635Y93500D01*
X599491Y93994D01*
X600190Y94694D01*
X600685Y95550D01*
X600941Y96505D01*
Y97495D01*
X600685Y98450D01*
X600190Y99306D01*
X599491Y100005D01*
X598635Y100500D01*
X597680Y100756D01*
D02*
G37*
G36*
X571413D02*
X563902D01*
Y93244D01*
X571413D01*
Y100756D01*
D02*
G37*
G36*
X455370Y130315D02*
X449630D01*
Y119850D01*
X450456D01*
Y118406D01*
X450199Y118149D01*
X449739Y117351D01*
X449500Y116461D01*
Y115539D01*
X449739Y114649D01*
X450199Y113851D01*
X450851Y113199D01*
X451649Y112739D01*
X452539Y112500D01*
X452667D01*
X452804Y112363D01*
Y110563D01*
X450992D01*
Y102437D01*
X453005D01*
Y97455D01*
X452699Y97149D01*
X452239Y96351D01*
X452000Y95461D01*
Y94539D01*
X452239Y93649D01*
X452699Y92851D01*
X453351Y92199D01*
X454149Y91738D01*
X455039Y91500D01*
X455961D01*
X456851Y91738D01*
X457649Y92199D01*
X458301Y92851D01*
X458762Y93649D01*
X459000Y94539D01*
Y95461D01*
X458762Y96351D01*
X458301Y97149D01*
X457649Y97801D01*
X457593Y97833D01*
Y102437D01*
X461402D01*
Y106500D01*
Y110563D01*
X457392D01*
Y113313D01*
X457218Y114191D01*
X456720Y114936D01*
X456419Y115237D01*
X456500Y115539D01*
Y116461D01*
X456261Y117351D01*
X455801Y118149D01*
X455149Y118801D01*
X455044Y118861D01*
Y119850D01*
X455370D01*
Y130315D01*
D02*
G37*
G36*
X683394Y99051D02*
X675291D01*
Y90949D01*
X683394D01*
Y99051D01*
D02*
G37*
G36*
X642051Y97551D02*
X633949D01*
Y89449D01*
X642051D01*
Y97551D01*
D02*
G37*
G36*
X479546Y92650D02*
X479500D01*
Y89000D01*
X483150D01*
Y89046D01*
X482867Y90102D01*
X482320Y91048D01*
X481548Y91821D01*
X480602Y92367D01*
X479546Y92650D01*
D02*
G37*
G36*
X478500D02*
X478454D01*
X477398Y92367D01*
X476452Y91821D01*
X475679Y91048D01*
X475133Y90102D01*
X474850Y89046D01*
Y89000D01*
X478500D01*
Y92650D01*
D02*
G37*
G36*
X347421Y90321D02*
Y87067D01*
X350676D01*
X350421Y88017D01*
X349927Y88873D01*
X349227Y89572D01*
X348371Y90067D01*
X347421Y90321D01*
D02*
G37*
G36*
X346421Y90321D02*
X345472Y90067D01*
X344615Y89572D01*
X343916Y88873D01*
X343421Y88017D01*
X343167Y87067D01*
X346421D01*
Y90321D01*
D02*
G37*
G36*
X287527Y93500D02*
X286473D01*
X285456Y93227D01*
X284544Y92701D01*
X283799Y91956D01*
X283273Y91044D01*
X283000Y90027D01*
Y88973D01*
X283273Y87956D01*
X283799Y87044D01*
X284544Y86299D01*
X285456Y85773D01*
X286473Y85500D01*
X287527D01*
X288544Y85773D01*
X289456Y86299D01*
X290201Y87044D01*
X290727Y87956D01*
X291000Y88973D01*
Y90027D01*
X290727Y91044D01*
X290201Y91956D01*
X289456Y92701D01*
X288544Y93227D01*
X287527Y93500D01*
D02*
G37*
G36*
X539546Y92650D02*
X538454D01*
X537398Y92367D01*
X536452Y91821D01*
X535679Y91048D01*
X535133Y90102D01*
X534850Y89046D01*
Y87954D01*
X535133Y86898D01*
X535679Y85952D01*
X536452Y85180D01*
X537398Y84633D01*
X538454Y84350D01*
X539546D01*
X540602Y84633D01*
X541548Y85180D01*
X542320Y85952D01*
X542867Y86898D01*
X543150Y87954D01*
Y89046D01*
X542867Y90102D01*
X542320Y91048D01*
X541548Y91821D01*
X540602Y92367D01*
X539546Y92650D01*
D02*
G37*
G36*
X483150Y88000D02*
X479500D01*
Y84350D01*
X479546D01*
X480602Y84633D01*
X481548Y85180D01*
X482320Y85952D01*
X482867Y86898D01*
X483150Y87954D01*
Y88000D01*
D02*
G37*
G36*
X478500D02*
X474850D01*
Y87954D01*
X475133Y86898D01*
X475679Y85952D01*
X476452Y85180D01*
X477398Y84633D01*
X478454Y84350D01*
X478500D01*
Y88000D01*
D02*
G37*
G36*
X470575Y92672D02*
X467425D01*
X466753Y92583D01*
X466127Y92324D01*
X465589Y91911D01*
X465176Y91373D01*
X464917Y90747D01*
X464828Y90075D01*
Y86925D01*
X464917Y86253D01*
X465176Y85627D01*
X465589Y85089D01*
X466127Y84676D01*
X466753Y84417D01*
X467425Y84328D01*
X470575D01*
X471247Y84417D01*
X471873Y84676D01*
X472411Y85089D01*
X472824Y85627D01*
X473083Y86253D01*
X473172Y86925D01*
Y90075D01*
X473083Y90747D01*
X472824Y91373D01*
X472411Y91911D01*
X471873Y92324D01*
X471247Y92583D01*
X470575Y92672D01*
D02*
G37*
G36*
X350676Y86067D02*
X347421D01*
Y82812D01*
X348371Y83067D01*
X349227Y83561D01*
X349927Y84261D01*
X350421Y85117D01*
X350676Y86067D01*
D02*
G37*
G36*
X346421D02*
X343167D01*
X343421Y85117D01*
X343916Y84261D01*
X344615Y83561D01*
X345472Y83067D01*
X346421Y82812D01*
Y86067D01*
D02*
G37*
G36*
X337573Y90323D02*
X336584D01*
X335629Y90067D01*
X334773Y89572D01*
X334073Y88873D01*
X333579Y88017D01*
X333323Y87061D01*
Y86072D01*
X333579Y85117D01*
X334073Y84261D01*
X334773Y83561D01*
X335629Y83067D01*
X336584Y82811D01*
X337573D01*
X338528Y83067D01*
X339385Y83561D01*
X340084Y84261D01*
X340579Y85117D01*
X340835Y86072D01*
Y87061D01*
X340579Y88017D01*
X340084Y88873D01*
X339385Y89572D01*
X338528Y90067D01*
X337573Y90323D01*
D02*
G37*
G36*
X330992D02*
X323480D01*
Y82811D01*
X330992D01*
Y90323D01*
D02*
G37*
%LPD*%
G36*
X506500Y160300D02*
X504000Y157800D01*
X501500Y160300D01*
Y164800D01*
X506500D01*
Y160300D01*
D02*
G37*
G36*
X667900Y222000D02*
X661300D01*
X663800Y224500D01*
X661300Y227000D01*
X667900D01*
Y222000D01*
D02*
G37*
G36*
X662700Y224500D02*
X660200Y222000D01*
X655700D01*
Y227000D01*
X660200D01*
X662700Y224500D01*
D02*
G37*
G36*
X667900Y210750D02*
X661300D01*
X663800Y213250D01*
X661300Y215750D01*
X667900D01*
Y210750D01*
D02*
G37*
G36*
X662700Y213250D02*
X660200Y210750D01*
X655700D01*
Y215750D01*
X660200D01*
X662700Y213250D01*
D02*
G37*
G36*
X667900Y199500D02*
X661300D01*
X663800Y202000D01*
X661300Y204500D01*
X667900D01*
Y199500D01*
D02*
G37*
G36*
X662700Y202000D02*
X660200Y199500D01*
X655700D01*
Y204500D01*
X660200D01*
X662700Y202000D01*
D02*
G37*
G36*
X577685Y174267D02*
X577767Y174283D01*
X578169Y174552D01*
X578571Y174283D01*
X579153Y174168D01*
X579593Y173807D01*
Y169457D01*
X579709Y168871D01*
X580041Y168375D01*
X580844Y167572D01*
X580513Y166772D01*
X580000D01*
Y164000D01*
X579500D01*
Y163500D01*
X576532D01*
Y161860D01*
X574587D01*
X574587Y167337D01*
X574587Y167622D01*
X574919Y167907D01*
X575500Y168057D01*
Y170000D01*
X573609D01*
X573965Y169141D01*
X574003Y169103D01*
X574253Y168389D01*
X574253Y168389D01*
D01*
X574057Y167917D01*
X573909Y167917D01*
X567862D01*
Y167917D01*
X567351Y167706D01*
X562966Y172090D01*
Y173807D01*
X563406Y174168D01*
X563988Y174283D01*
X564390Y174552D01*
X564792Y174283D01*
X565374Y174168D01*
X565956Y174283D01*
X566358Y174552D01*
X566760Y174283D01*
X567343Y174168D01*
X567925Y174283D01*
X568327Y174552D01*
X568729Y174283D01*
X569311Y174168D01*
X569893Y174283D01*
X570295Y174552D01*
X570697Y174283D01*
X571279Y174168D01*
X571862Y174283D01*
X572264Y174552D01*
X572666Y174283D01*
X572748Y174267D01*
Y175422D01*
X572801Y175689D01*
Y178248D01*
X573695D01*
Y175689D01*
X573748Y175422D01*
Y174267D01*
X573830Y174283D01*
X574232Y174552D01*
X574634Y174283D01*
X575216Y174168D01*
X575799Y174283D01*
X576201Y174552D01*
X576603Y174283D01*
X576685Y174267D01*
Y175422D01*
X576738Y175689D01*
Y178248D01*
X577685D01*
Y174267D01*
D02*
G37*
G36*
X556918Y174283D02*
X557500Y174168D01*
X557939Y173807D01*
Y170031D01*
X558055Y169446D01*
X558384Y168955D01*
Y165236D01*
X558413Y165088D01*
Y158831D01*
X560246D01*
Y155370D01*
X560363Y154785D01*
X560694Y154288D01*
X562074Y152908D01*
X561768Y152169D01*
X558413D01*
Y151526D01*
X557613Y151137D01*
X556977Y151400D01*
X556263D01*
X555529Y152134D01*
Y154429D01*
X555969D01*
Y159972D01*
X555969D01*
Y160728D01*
X555969D01*
Y163000D01*
X553000D01*
Y164000D01*
X555969D01*
Y166272D01*
X553252D01*
X552945Y167011D01*
X554644Y168710D01*
X554976Y169206D01*
X555092Y169791D01*
Y173807D01*
X555532Y174168D01*
X556114Y174283D01*
X556516Y174552D01*
X556918Y174283D01*
D02*
G37*
%LPC*%
G36*
X576500Y172891D02*
Y171000D01*
X578391D01*
X578035Y171860D01*
X577359Y172535D01*
X576500Y172891D01*
D02*
G37*
G36*
X575500D02*
X574641Y172535D01*
X573965Y171860D01*
X573609Y171000D01*
X575500D01*
Y172891D01*
D02*
G37*
G36*
X578391Y170000D02*
X576500D01*
Y168109D01*
X577359Y168465D01*
X578035Y169141D01*
X578391Y170000D01*
D02*
G37*
G36*
X579000Y166772D02*
X576532D01*
Y164500D01*
X579000D01*
Y166772D01*
D02*
G37*
%LPD*%
D16*
X537000Y312150D02*
D03*
Y305850D02*
D03*
X610000Y160850D02*
D03*
Y167150D02*
D03*
X553000Y157201D02*
D03*
Y163500D02*
D03*
X508000Y218650D02*
D03*
X602000Y160350D02*
D03*
X524500Y252650D02*
D03*
X533500Y253150D02*
D03*
X521000Y185500D02*
D03*
X579500Y157701D02*
D03*
X590500Y158350D02*
D03*
X602000Y166650D02*
D03*
X524500Y246350D02*
D03*
X533500Y246850D02*
D03*
X521000Y179201D02*
D03*
X579500Y164000D02*
D03*
X590500Y164650D02*
D03*
X508000Y212350D02*
D03*
D17*
X514500Y256307D02*
D03*
Y263000D02*
D03*
X497500Y256307D02*
D03*
Y263000D02*
D03*
X534000Y286653D02*
D03*
Y293347D02*
D03*
X544000Y286653D02*
D03*
Y293347D02*
D03*
X489000Y256307D02*
D03*
Y263000D02*
D03*
X506000Y256307D02*
D03*
Y263000D02*
D03*
X466000Y287653D02*
D03*
Y294346D02*
D03*
D18*
X543500Y253500D02*
D03*
Y248776D02*
D03*
X579500Y146000D02*
D03*
Y141276D02*
D03*
D19*
X537815Y178248D02*
D03*
X539783D02*
D03*
X541752D02*
D03*
X543720D02*
D03*
X545689D02*
D03*
X547657D02*
D03*
X549626D02*
D03*
X551594D02*
D03*
X553563D02*
D03*
X559469D02*
D03*
X561437D02*
D03*
X563406D02*
D03*
X565374D02*
D03*
X567343D02*
D03*
X569311D02*
D03*
X571279D02*
D03*
X581122D02*
D03*
X583090D02*
D03*
X585059D02*
D03*
Y237500D02*
D03*
X583090D02*
D03*
X581122D02*
D03*
X579153D02*
D03*
X577185D02*
D03*
X575216D02*
D03*
X573248D02*
D03*
X571279D02*
D03*
X569311D02*
D03*
X567343D02*
D03*
X565374D02*
D03*
X563406D02*
D03*
X561437D02*
D03*
X559469D02*
D03*
X557500D02*
D03*
X555532D02*
D03*
X553563D02*
D03*
X551594D02*
D03*
X549626D02*
D03*
X547657D02*
D03*
X545689D02*
D03*
X543720D02*
D03*
X541752D02*
D03*
X537815D02*
D03*
X579153Y178248D02*
D03*
X577185D02*
D03*
X573248D02*
D03*
X557500D02*
D03*
X539783Y237500D02*
D03*
X575216Y178248D02*
D03*
X555532D02*
D03*
D20*
X591063Y184252D02*
D03*
Y190157D02*
D03*
Y192126D02*
D03*
Y194095D02*
D03*
Y196063D02*
D03*
Y198031D02*
D03*
Y200000D02*
D03*
Y201969D02*
D03*
Y203937D02*
D03*
Y205906D02*
D03*
Y207874D02*
D03*
Y209842D02*
D03*
Y211811D02*
D03*
Y213779D02*
D03*
Y215748D02*
D03*
Y217717D02*
D03*
Y219685D02*
D03*
Y221654D02*
D03*
Y223622D02*
D03*
Y225590D02*
D03*
Y227559D02*
D03*
Y229528D02*
D03*
X531811Y231496D02*
D03*
Y229528D02*
D03*
Y227559D02*
D03*
Y225590D02*
D03*
Y223622D02*
D03*
Y221654D02*
D03*
Y219685D02*
D03*
Y217717D02*
D03*
Y215748D02*
D03*
Y213779D02*
D03*
Y211811D02*
D03*
Y209842D02*
D03*
Y207874D02*
D03*
Y205906D02*
D03*
Y203937D02*
D03*
Y201969D02*
D03*
Y200000D02*
D03*
Y198031D02*
D03*
Y196063D02*
D03*
Y194095D02*
D03*
Y192126D02*
D03*
Y190157D02*
D03*
Y188189D02*
D03*
Y184252D02*
D03*
X591063Y231496D02*
D03*
Y188189D02*
D03*
X531811Y186221D02*
D03*
X591063D02*
D03*
D21*
X568559Y256500D02*
D03*
X563441D02*
D03*
D22*
X566500Y272059D02*
D03*
Y266941D02*
D03*
Y287059D02*
D03*
Y281941D02*
D03*
X466500Y306941D02*
D03*
Y312059D02*
D03*
X603500Y285559D02*
D03*
Y280441D02*
D03*
X580000Y286500D02*
D03*
Y281382D02*
D03*
D23*
X517864Y314309D02*
D03*
D24*
X513730D02*
D03*
X505069D02*
D03*
X496408D02*
D03*
X492077D02*
D03*
X487746D02*
D03*
X500738D02*
D03*
X509400D02*
D03*
D25*
X477372Y275530D02*
D03*
Y290096D02*
D03*
D26*
X491152Y271691D02*
D03*
X514655D02*
D03*
D27*
X522628Y312931D02*
D03*
D28*
X478061Y313817D02*
D03*
D29*
X607614Y256043D02*
D03*
Y258602D02*
D03*
Y261161D02*
D03*
Y263720D02*
D03*
Y266280D02*
D03*
Y268839D02*
D03*
Y271398D02*
D03*
Y273957D02*
D03*
X584386Y256043D02*
D03*
Y258602D02*
D03*
Y261161D02*
D03*
Y263720D02*
D03*
Y266280D02*
D03*
Y268839D02*
D03*
Y271398D02*
D03*
Y273957D02*
D03*
D30*
X665900Y202000D02*
D03*
X658000D02*
D03*
Y213250D02*
D03*
X665900D02*
D03*
X658000Y224500D02*
D03*
X665900D02*
D03*
D31*
X452500Y147917D02*
D03*
D32*
X461555Y125083D02*
D03*
X452500D02*
D03*
X443445D02*
D03*
D33*
X442000Y102990D02*
D03*
Y109500D02*
D03*
D34*
X455098Y106500D02*
D03*
X461902D02*
D03*
D35*
X475350Y173000D02*
D03*
X606150Y239000D02*
D03*
X599850D02*
D03*
X481650Y173000D02*
D03*
D36*
X613362Y232000D02*
D03*
X564138Y138000D02*
D03*
X608638Y232000D02*
D03*
X568862Y138000D02*
D03*
D37*
X525500Y133776D02*
D03*
Y139500D02*
D03*
D38*
X567000Y126500D02*
D03*
X561276D02*
D03*
D39*
X655740Y253500D02*
D03*
X656240Y266500D02*
D03*
X656000Y279000D02*
D03*
X648260Y253500D02*
D03*
X648760Y266500D02*
D03*
X648520Y279000D02*
D03*
D40*
X512000Y164836D02*
D03*
X659500Y145836D02*
D03*
X621500Y182000D02*
D03*
X659500Y151164D02*
D03*
X621500Y187328D02*
D03*
X512000Y170164D02*
D03*
D41*
X561776Y147626D02*
D03*
X571224Y163374D02*
D03*
Y147626D02*
D03*
X561776Y163374D02*
D03*
D42*
X474500Y158520D02*
D03*
Y166000D02*
D03*
X482374Y162260D02*
D03*
D43*
X621336Y148500D02*
D03*
X634836D02*
D03*
X648328Y235000D02*
D03*
X626664Y148500D02*
D03*
X640164D02*
D03*
X643000Y235000D02*
D03*
D44*
X504000Y154600D02*
D03*
Y162500D02*
D03*
D45*
X548799Y147827D02*
D03*
Y126173D02*
D03*
X536201D02*
D03*
Y147827D02*
D03*
D46*
X631547Y254000D02*
D03*
X637453D02*
D03*
X631047Y263000D02*
D03*
X636953D02*
D03*
X631094Y272500D02*
D03*
X637000D02*
D03*
D68*
X682433Y281764D02*
D03*
Y271921D02*
D03*
Y262079D02*
D03*
X356764Y86567D02*
D03*
X346921D02*
D03*
X337079D02*
D03*
X597185Y97000D02*
D03*
X487000Y112500D02*
D03*
X688000Y173972D02*
D03*
Y183815D02*
D03*
Y193658D02*
D03*
Y203500D02*
D03*
Y213342D02*
D03*
X587000Y302500D02*
D03*
X577157D02*
D03*
X567315D02*
D03*
X577500Y97000D02*
D03*
X587343D02*
D03*
X487000Y132185D02*
D03*
Y122343D02*
D03*
D69*
X682433Y252236D02*
D03*
X487000Y142028D02*
D03*
X688000Y223185D02*
D03*
D70*
X327236Y86567D02*
D03*
X596842Y302500D02*
D03*
X567658Y97000D02*
D03*
D76*
X638000Y93500D02*
D03*
X679343Y95000D02*
D03*
X604500Y130500D02*
D03*
D77*
X683000Y134158D02*
D03*
X636933Y169079D02*
D03*
Y209079D02*
D03*
D79*
X628158Y93500D02*
D03*
X669500Y95000D02*
D03*
X683000Y144000D02*
D03*
X614342Y130500D02*
D03*
X636933Y178921D02*
D03*
Y218921D02*
D03*
D80*
X680126Y229484D02*
D03*
D83*
X603500Y238500D02*
X617000D01*
X618500Y237000D01*
X613362Y232295D02*
X618067Y237000D01*
X613362Y232000D02*
Y232295D01*
X618067Y237000D02*
X618500D01*
X581535Y188859D02*
X584174Y186221D01*
X591063D01*
X569560Y185061D02*
X569560D01*
X573240Y181381D01*
X575216Y180799D02*
Y185284D01*
X570623Y189877D02*
X575216Y185284D01*
X628158Y93500D02*
Y146816D01*
X627461Y147401D02*
X627572D01*
X626664Y148198D02*
X627461Y147401D01*
X627572D02*
X628158Y146816D01*
X626664Y148198D02*
Y148500D01*
X669500Y95000D02*
Y126000D01*
X647099Y148401D02*
X669500Y126000D01*
X640625Y148401D02*
X647099D01*
X639644Y149987D02*
X640013D01*
Y149013D02*
Y149987D01*
Y149013D02*
X640625Y148401D01*
X625500Y149966D02*
Y162096D01*
X597874Y192126D02*
X639032Y150968D01*
Y150599D02*
Y150968D01*
X591063Y192126D02*
X597874D01*
X639032Y150599D02*
X639644Y149987D01*
X597438Y190157D02*
X625500Y162096D01*
X591063Y190157D02*
X597438D01*
X548559Y147827D02*
X548799D01*
Y138976D02*
Y147827D01*
X546500Y162728D02*
X553563Y169791D01*
X546500Y149886D02*
X548559Y147827D01*
X546500Y149886D02*
Y162728D01*
X484000Y261504D02*
Y276500D01*
X497400Y289900D01*
X484000Y261504D02*
X489000Y256504D01*
Y256110D02*
X497510Y247600D01*
X486500Y250000D02*
X491500D01*
X497510Y247600D02*
X497510D01*
X477372Y259128D02*
X486500Y250000D01*
X489000Y256110D02*
Y256504D01*
X491500Y250000D02*
X525744Y215756D01*
X477372Y259128D02*
Y275530D01*
X542513Y228000D02*
X543000D01*
X540741Y229759D02*
X540754D01*
X542513Y228000D01*
X539791Y230709D02*
X540741Y229759D01*
X539791Y230709D02*
Y237492D01*
X539783Y237500D02*
X539791Y237492D01*
X656000Y253760D02*
Y259000D01*
X655740Y253500D02*
X656000Y253760D01*
X417000Y176831D02*
X427831Y166000D01*
X474500D01*
X465500Y287347D02*
X474228D01*
X476978Y290096D01*
X554197Y164650D02*
X557500Y167953D01*
X554000Y164650D02*
X554197D01*
X557500Y167953D02*
Y178248D01*
X551594Y171095D02*
Y178248D01*
X536201Y155701D02*
X551594Y171095D01*
X559469Y170031D02*
X559913Y169586D01*
X559469Y170031D02*
Y178248D01*
X581122Y169457D02*
Y178248D01*
X587231Y97111D02*
Y165751D01*
X583090Y169892D02*
Y178248D01*
X591063Y173937D02*
X598232Y166769D01*
Y146611D02*
Y166769D01*
X581122Y169457D02*
X582768Y167810D01*
X583090Y169892D02*
X587231Y165751D01*
X591063Y173937D02*
Y184252D01*
X573240Y178256D02*
Y181381D01*
X602850Y157650D02*
X607000Y153500D01*
X602000Y160350D02*
X602850Y159500D01*
Y157650D02*
Y159500D01*
X608532Y155032D02*
Y159579D01*
X607000Y153500D02*
X608532Y155032D01*
Y159579D02*
X609803Y160850D01*
X610000D01*
X518156Y164344D02*
X518500Y164000D01*
X512491Y164344D02*
X518156D01*
X512000Y164836D02*
X512491Y164344D01*
X512042Y212350D02*
X514392Y210000D01*
X514500D01*
X508000Y212350D02*
X512042D01*
X352573Y278427D02*
X417500Y213500D01*
X475500D01*
X354084Y288269D02*
X354810Y287543D01*
X355457D02*
X421500Y221500D01*
X476500D01*
X354084Y288269D02*
Y288916D01*
X354810Y287543D02*
X355457D01*
X586811Y188189D02*
X591063D01*
X583500Y191500D02*
X586811Y188189D01*
X578653Y178248D02*
X578653Y178248D01*
X577185Y178248D02*
X578653D01*
X573240Y178256D02*
X573248Y178248D01*
X489500Y263500D02*
X493500D01*
X489000Y263000D02*
X489500Y263500D01*
X506000Y259964D02*
X506586Y259379D01*
X508113D01*
X510500Y252000D02*
Y256992D01*
X506000Y259964D02*
Y263000D01*
X508113Y259379D02*
X510500Y256992D01*
X509000Y262004D02*
X514500Y256504D01*
X509000Y262004D02*
Y283500D01*
X514500Y256307D02*
Y256504D01*
X578031Y160331D02*
X579500Y158862D01*
Y152000D02*
Y158862D01*
X571224Y162193D02*
Y163374D01*
Y162193D02*
X573087Y160331D01*
X578031D01*
X505541Y227539D02*
X508000Y225080D01*
Y218650D02*
Y225080D01*
X418484Y180516D02*
Y180857D01*
X503000Y149000D02*
X504000Y150000D01*
Y154600D01*
X469000Y173000D02*
X475350D01*
X601803Y181650D02*
X602000D01*
X600531Y182921D02*
Y183118D01*
Y182921D02*
X601803Y181650D01*
X595461Y188189D02*
X600531Y183118D01*
X591063Y188189D02*
X595461D01*
X591063Y186221D02*
X591071Y186213D01*
X594196D01*
X567202Y126298D02*
X573368D01*
X567000Y126500D02*
X567202Y126298D01*
X558000Y138000D02*
X564138D01*
X525500Y126500D02*
Y133776D01*
X530000Y306500D02*
X536350D01*
X537000Y305850D01*
X524431Y309888D02*
X526612D01*
X530000Y306500D01*
X574049Y288127D02*
X578373D01*
X580000Y286500D01*
X596500D02*
X602559D01*
X603500Y285559D01*
X552323Y185503D02*
X555532Y182295D01*
X552340Y185520D02*
X552374D01*
X552323Y185503D02*
X552340Y185520D01*
X555532Y178248D02*
Y182295D01*
X557917Y147626D02*
X561776D01*
X556543Y149000D02*
X557917Y147626D01*
X556500Y149000D02*
X556543D01*
X554000Y151500D02*
Y158350D01*
Y151500D02*
X556500Y149000D01*
X619000Y273499D02*
Y278501D01*
X617300Y280201D02*
X619000Y278501D01*
X612154Y266653D02*
X619000Y273499D01*
X615500Y274100D02*
Y274500D01*
X612798Y271398D02*
X615500Y274100D01*
X595500Y294000D02*
X603501D01*
X617300Y280201D01*
X617300D01*
X607987Y266653D02*
X612154D01*
X607614Y271398D02*
X612798D01*
X562500Y250987D02*
X563441Y251928D01*
Y256500D01*
X562500Y250500D02*
Y250987D01*
X543500Y253500D02*
Y260000D01*
X533500Y253150D02*
Y258500D01*
X524000Y253150D02*
Y258500D01*
Y253150D02*
X524500Y252650D01*
X535728Y186228D02*
X540000Y190500D01*
X531811Y186221D02*
X531819Y186228D01*
X535728D01*
X525508Y185500D02*
X526228Y186221D01*
X521000Y185500D02*
X525508D01*
X526228Y186221D02*
X531811D01*
X656000Y279000D02*
X666000D01*
X656240Y266500D02*
X666000D01*
X590500Y151747D02*
X590781Y151466D01*
X590500Y151747D02*
Y158350D01*
X579500Y146000D02*
Y152000D01*
X522628Y311691D02*
Y312931D01*
Y311691D02*
X524431Y309888D01*
X509400Y314309D02*
X509500Y314209D01*
Y304500D02*
Y314209D01*
X478061Y307467D02*
X480943Y304584D01*
X478061Y307467D02*
Y313817D01*
X458000Y312500D02*
X458441Y312059D01*
X466500D01*
X537000Y305850D02*
X537150Y306000D01*
X476978Y290096D02*
X477372D01*
X587000Y302500D02*
X595500Y294000D01*
X497510Y247600D02*
X527386Y217724D01*
X529260D01*
X517100Y213900D02*
X525201D01*
X515000Y216000D02*
X517100Y213900D01*
X525201D02*
X527290Y211811D01*
X525744Y215756D02*
X531803D01*
X492075Y218500D02*
X499500Y225924D01*
Y237000D01*
X531803Y215756D02*
X531811Y215748D01*
X541752Y247323D02*
X543205Y248776D01*
X541752Y237500D02*
Y247323D01*
X543205Y248776D02*
X543500D01*
X591063Y229528D02*
X599398D01*
X601870Y232000D02*
X608638D01*
X599398Y229528D02*
X601870Y232000D01*
X527290Y211811D02*
X531811D01*
X524000Y211000D02*
X524487D01*
X525645Y209842D01*
X531811D01*
X481650Y172803D02*
X482921Y171531D01*
X488500Y162000D02*
Y166150D01*
X481650Y172803D02*
Y173000D01*
X482921Y171531D02*
X483118D01*
X488500Y166150D01*
X482504Y162130D02*
X488370D01*
X482374Y162260D02*
X482504Y162130D01*
X509500Y99000D02*
Y144415D01*
X514500Y94000D02*
Y147011D01*
X546022Y169623D02*
Y170110D01*
X539776Y178240D02*
X539783Y178248D01*
X543122Y170824D02*
X545689Y173391D01*
X509500Y144415D02*
X539776Y174690D01*
X541422Y171528D02*
X543720Y173827D01*
X543122Y167122D02*
Y170824D01*
X541422Y167922D02*
Y171528D01*
X521000Y145000D02*
X543122Y167122D01*
X514500Y147011D02*
X541752Y174263D01*
X543720Y173827D02*
Y178248D01*
X546022Y170110D02*
X547657Y171746D01*
X541752Y174263D02*
Y178248D01*
X547657Y171746D02*
Y178248D01*
X539776Y174690D02*
Y178240D01*
X545689Y173391D02*
Y178248D01*
X519000Y145500D02*
X541422Y167922D01*
X536201Y147827D02*
Y155701D01*
X553563Y169791D02*
Y178248D01*
X504500Y162500D02*
X506000Y164000D01*
X511198Y169664D02*
X511500D01*
X506000Y164466D02*
X511198Y169664D01*
X506000Y164000D02*
Y164466D01*
X504000Y162500D02*
X504500D01*
X511500Y181579D02*
X525984Y196063D01*
X531811D01*
X511500Y169664D02*
Y181579D01*
X487000Y132185D02*
X498500Y143685D01*
Y171500D02*
X525032Y198031D01*
X498500Y143685D02*
Y171500D01*
X480500Y144500D02*
X495000Y159000D01*
Y171000D02*
X524000Y200000D01*
X495000Y159000D02*
Y171000D01*
X503500Y183500D02*
X525906Y205906D01*
X531811D01*
X490500Y183500D02*
X503500D01*
X524000Y200000D02*
X531811D01*
X488925Y218500D02*
X492075D01*
X485850Y215426D02*
X488925Y218500D01*
X485850Y208150D02*
Y215426D01*
Y208150D02*
X490500Y203500D01*
X525500Y239000D02*
X531811Y232689D01*
Y231496D02*
Y232689D01*
X490500Y213500D02*
X506850D01*
X508000Y212350D01*
X563406Y207906D02*
X563500Y208000D01*
X563406Y178248D02*
Y207906D01*
X543728Y233772D02*
Y237492D01*
X543720Y237500D02*
X543728Y237492D01*
Y233772D02*
X549500Y228000D01*
X544000Y278861D02*
Y286653D01*
X538500Y292350D02*
X544000Y286850D01*
Y286653D02*
Y286850D01*
X538500Y292350D02*
Y298000D01*
X513730Y299770D02*
X516500Y297000D01*
X513730Y299770D02*
Y314309D01*
X555532Y237500D02*
Y264925D01*
X534000Y286457D02*
X555532Y264925D01*
X534000Y286457D02*
Y286653D01*
X544000Y278861D02*
X557676Y265184D01*
Y238000D02*
Y265184D01*
X517864Y302986D02*
X534000Y286850D01*
X517864Y302986D02*
Y314309D01*
X534000Y286653D02*
Y286850D01*
X497400Y289900D02*
Y313316D01*
X496408Y314309D02*
X497400Y313316D01*
X488100Y303400D02*
X494000Y297500D01*
X488100Y303400D02*
Y308648D01*
X491000Y306487D02*
X492500Y307987D01*
Y314232D01*
X491000Y306000D02*
Y306487D01*
X488100Y308648D02*
X488246Y308794D01*
Y314309D01*
X492500Y314232D02*
X492577Y314309D01*
X506000Y254248D02*
Y256153D01*
Y247841D02*
Y254248D01*
X503125Y272125D02*
X505500Y274500D01*
X503125Y259379D02*
Y272125D01*
X501425Y294425D02*
X505569Y298569D01*
X503125Y259379D02*
X506000Y256504D01*
Y256307D02*
Y256504D01*
X501425Y260429D02*
Y294425D01*
X497500Y256504D02*
X501425Y260429D01*
X505569Y298569D02*
Y314309D01*
X497500Y256307D02*
Y256504D01*
X527807Y223630D02*
X531803D01*
X498575Y252862D02*
X527807Y223630D01*
X531803D02*
X531811Y223622D01*
X498575Y252862D02*
Y255232D01*
X497500Y256307D02*
X498575Y255232D01*
X528678Y227567D02*
X529260D01*
X528242Y225598D02*
X531803D01*
X506000Y247841D02*
X528242Y225598D01*
X514500Y241745D02*
X528678Y227567D01*
X531803Y225598D02*
X531811Y225590D01*
X505500Y254748D02*
X506000Y254248D01*
X514500Y241745D02*
Y256307D01*
X625500Y149966D02*
X627079Y148388D01*
X659500Y151164D02*
X675836D01*
X683000Y144000D01*
X603406Y194095D02*
X646336Y151164D01*
X659500D01*
X598232Y146611D02*
X614342Y130500D01*
X591063Y194095D02*
X603406D01*
X621802Y187328D02*
X630209Y178921D01*
X636933D01*
X621198Y187328D02*
X621500D01*
X621802D01*
X591063Y196063D02*
X612463D01*
X621198Y187328D01*
X636500Y234500D02*
X642500D01*
X643000Y235000D01*
X621900Y219685D02*
X626715Y224500D01*
X656500D01*
X591063Y201969D02*
X609969D01*
X613500Y205500D01*
X615796Y209842D02*
X635381Y190258D01*
X591063Y209842D02*
X615796D01*
X635381Y190258D02*
X658000D01*
X631427Y202000D02*
X657000D01*
X617679Y215748D02*
X631427Y202000D01*
X636622Y191957D02*
X664000D01*
X617243Y213779D02*
X637365Y193658D01*
X688000D01*
X616769Y211811D02*
X636622Y191957D01*
X591063Y211811D02*
X616769D01*
X658000Y190258D02*
X674285Y173972D01*
X688000D01*
X686685Y224500D02*
X688000Y223185D01*
X665900Y224500D02*
X686685D01*
X665900Y213250D02*
X665992Y213342D01*
X688000D01*
X685279Y202000D02*
X686779Y203500D01*
X665900Y202000D02*
X685279D01*
X686779Y203500D02*
X688000D01*
X672143Y183815D02*
X688000D01*
X664000Y191957D02*
X672143Y183815D01*
X591063Y213779D02*
X617243D01*
X591063Y215748D02*
X617679D01*
X591063Y217717D02*
X622445D01*
X625791Y214370D02*
X639865D01*
X622445Y217717D02*
X625791Y214370D01*
X639865D02*
X641736Y212500D01*
X658000D01*
X591063Y219685D02*
X621900D01*
X646520Y254000D02*
X648520Y252000D01*
X637453Y254000D02*
X646520D01*
X636953Y263000D02*
X645653D01*
X648760Y266106D01*
Y266500D01*
X642413Y272500D02*
X648520Y278606D01*
X637000Y272500D02*
X642413D01*
X648520Y278606D02*
Y279000D01*
X689000Y247500D02*
Y265354D01*
X682433Y271921D02*
X689000Y265354D01*
X633000Y240500D02*
X682000D01*
X689000Y247500D01*
X591063Y225590D02*
X618090D01*
X633000Y240500D01*
X663354Y243000D02*
X682433Y262079D01*
X632000Y243000D02*
X663354D01*
X616559Y227559D02*
X632000Y243000D01*
X591063Y227559D02*
X616559D01*
X624451Y254000D02*
X631547D01*
X579391Y244800D02*
X615251D01*
X575224Y240633D02*
X579391Y244800D01*
X578283Y248500D02*
X607094D01*
X573256Y241069D02*
X578687Y246500D01*
X575224Y237508D02*
Y240633D01*
X571287Y241504D02*
X578283Y248500D01*
X578687Y246500D02*
X614547D01*
X573256Y237508D02*
Y241069D01*
X571287Y237508D02*
Y241504D01*
X575216Y237500D02*
X575224Y237508D01*
X615251Y244800D02*
X624451Y254000D01*
X614547Y246500D02*
X629775Y261728D01*
X630169D01*
X631047Y262606D01*
Y263000D01*
X573248Y237500D02*
X573256Y237508D01*
X631094Y272106D02*
Y272500D01*
X630216Y271228D02*
X631094Y272106D01*
X629823Y271228D02*
X630216D01*
X607094Y248500D02*
X629823Y271228D01*
X571279Y237500D02*
X571287Y237508D01*
X582441Y280500D02*
X587000D01*
X590500Y274705D02*
Y277000D01*
X587000Y280500D02*
X590500Y277000D01*
X587566Y271771D02*
X590500Y274705D01*
X581500Y281441D02*
X582441Y280500D01*
X607614Y266280D02*
X607987Y266653D01*
X604434Y269212D02*
X607241D01*
X577157Y296488D02*
Y302500D01*
X607241Y269212D02*
X607614Y268839D01*
X577157Y296488D02*
X604434Y269212D01*
X584386Y271398D02*
X584759Y271771D01*
X587566D01*
X579701Y268839D02*
X584386D01*
X566598Y281941D02*
X579701Y268839D01*
X566500Y281941D02*
X566598D01*
X567673Y285886D02*
X568201D01*
X566500Y287059D02*
X567673Y285886D01*
X580130Y273957D02*
X584386D01*
X568201Y285886D02*
X580130Y273957D01*
X567673Y270886D02*
X572648D01*
X566500Y272059D02*
X567673Y270886D01*
X577254Y266280D02*
X584386D01*
X572648Y270886D02*
X577254Y266280D01*
X569819Y263720D02*
X584386D01*
X566598Y266941D02*
X569819Y263720D01*
X566500Y266941D02*
X566598D01*
X568559Y256598D02*
X573122Y261161D01*
X568559Y256500D02*
Y256598D01*
X573122Y261161D02*
X584386D01*
X561437Y240625D02*
X572112Y251300D01*
X561437Y237500D02*
Y240625D01*
X591000Y253000D02*
X601721Y263720D01*
X607614D01*
X601661Y261161D02*
X607614D01*
X591800Y251300D02*
X601661Y261161D01*
X572112Y251300D02*
X591800D01*
X559476Y241069D02*
X571408Y253000D01*
X591000D01*
X559476Y237508D02*
Y241069D01*
X559469Y237500D02*
X559476Y237508D01*
X480500Y128842D02*
Y144500D01*
Y128842D02*
X487000Y122343D01*
X525032Y198031D02*
X531811D01*
X509000Y88500D02*
X514500Y94000D01*
X519000Y88500D02*
Y145500D01*
X521000Y96500D02*
Y145000D01*
X534142Y145768D02*
X536201Y147827D01*
X521000Y96500D02*
X529000Y88500D01*
X499000D02*
X509500Y99000D01*
X506500Y106000D02*
Y144390D01*
X537815Y175705D01*
X489000Y88500D02*
X506500Y106000D01*
X537815Y175705D02*
Y178248D01*
X587231Y97111D02*
X587343Y97000D01*
X577500D02*
X582768Y102269D01*
Y167810D01*
X571224Y146445D02*
Y147626D01*
X579335Y141441D02*
X579500Y141276D01*
X576228Y141441D02*
X579335D01*
X571224Y146445D02*
X576228Y141441D01*
X571224Y147626D02*
Y155630D01*
X567562Y159292D02*
X571224Y155630D01*
X559913Y165236D02*
Y169586D01*
X567562Y159292D02*
Y165331D01*
X561437Y171457D02*
X567562Y165331D01*
X559913Y165236D02*
X561776Y163374D01*
X561437Y171457D02*
Y178248D01*
X561776Y155370D02*
Y163374D01*
X565438Y145669D02*
Y151708D01*
X568862Y138000D02*
Y142244D01*
X565438Y145669D02*
X568862Y142244D01*
X561776Y155370D02*
X565438Y151708D01*
X561185Y126500D02*
X561276D01*
X559890Y127796D02*
X561185Y126500D01*
X559890Y127796D02*
Y127886D01*
X548799Y138976D02*
X559890Y127886D01*
X525500Y139500D02*
Y139591D01*
X531677Y145768D01*
X534142D01*
D84*
X455299Y106299D02*
X455500Y106500D01*
X453000Y115412D02*
X455098Y113313D01*
Y106500D02*
Y113313D01*
X453000Y115412D02*
Y116000D01*
X284000Y78500D02*
X348697D01*
X356764Y86567D01*
X272500Y90000D02*
X284000Y78500D01*
X452750Y116250D02*
Y124833D01*
X452500Y125083D02*
X452750Y124833D01*
Y116250D02*
X453000Y116000D01*
X454665Y147917D02*
X461022Y154274D01*
Y156022D01*
X452500Y147917D02*
X454665D01*
X461022Y156022D02*
X461500Y156500D01*
X444978Y153274D02*
X450335Y147917D01*
X444500Y157000D02*
X444978Y156522D01*
X450335Y147917D02*
X452500D01*
X444978Y153274D02*
Y156522D01*
X453000Y148417D02*
Y157000D01*
X452500Y147917D02*
X453000Y148417D01*
X455299Y95201D02*
X455500Y95000D01*
X455299Y95201D02*
Y106299D01*
X455098Y106500D02*
X455500D01*
X444141Y94978D02*
X445022D01*
X442000Y97119D02*
Y102990D01*
Y97119D02*
X444141Y94978D01*
X445022D02*
X445500Y94500D01*
X443445Y111233D02*
Y125083D01*
X442000Y109789D02*
X443445Y111233D01*
X442000Y109500D02*
Y109789D01*
X356764Y86567D02*
X366264D01*
X405819Y126122D01*
X407000D01*
D85*
X408181D02*
X409221Y125083D01*
X407000Y126122D02*
X408181D01*
D86*
X409221Y125083D02*
X443445D01*
D87*
X417000Y176831D02*
D03*
Y257500D02*
D03*
D88*
X262500Y158500D02*
D03*
Y148500D02*
D03*
X352500Y128500D02*
D03*
Y228500D02*
D03*
Y238500D02*
D03*
Y278500D02*
D03*
Y288500D02*
D03*
Y298500D02*
D03*
X262500Y148500D02*
D03*
Y168500D02*
D03*
Y118500D02*
D03*
Y128500D02*
D03*
Y138500D02*
D03*
Y178500D02*
D03*
Y188500D02*
D03*
Y198500D02*
D03*
Y208500D02*
D03*
Y218500D02*
D03*
Y228500D02*
D03*
Y238500D02*
D03*
Y248500D02*
D03*
Y258500D02*
D03*
Y268500D02*
D03*
Y278500D02*
D03*
Y288500D02*
D03*
Y298500D02*
D03*
X352500Y148500D02*
D03*
D03*
Y138500D02*
D03*
Y158500D02*
D03*
Y168500D02*
D03*
Y178500D02*
D03*
Y188500D02*
D03*
Y198500D02*
D03*
Y208500D02*
D03*
Y218500D02*
D03*
Y248500D02*
D03*
Y258500D02*
D03*
Y268500D02*
D03*
Y118500D02*
D03*
Y108500D02*
D03*
X287000Y89500D02*
D03*
X272500Y90000D02*
D03*
D89*
X519000Y88500D02*
D03*
X499000D02*
D03*
X479000D02*
D03*
X489000D02*
D03*
X509000D02*
D03*
X529000D02*
D03*
X539000D02*
D03*
X490500Y183500D02*
D03*
Y193500D02*
D03*
Y213500D02*
D03*
Y223500D02*
D03*
Y203500D02*
D03*
D90*
X469000Y88500D02*
D03*
D91*
X490500Y233500D02*
D03*
D92*
X407000Y126122D02*
D03*
Y102500D02*
D03*
D93*
X425504Y114311D02*
D03*
D94*
X646500Y126500D02*
D03*
X390548Y149510D02*
D03*
X635000Y301000D02*
D03*
D95*
X618500Y237000D02*
D03*
X581535Y188859D02*
D03*
X570623Y189877D02*
D03*
X555500Y278000D02*
D03*
X535000Y269500D02*
D03*
X472500Y252500D02*
D03*
X525500Y267500D02*
D03*
X543000Y228000D02*
D03*
X656000Y259000D02*
D03*
X576000Y170500D02*
D03*
X597500Y177500D02*
D03*
X476500Y199000D02*
D03*
X548000Y201500D02*
D03*
X607000Y153500D02*
D03*
X518500Y164000D02*
D03*
X514500Y210000D02*
D03*
X489000Y173000D02*
D03*
X520000D02*
D03*
X472000Y263500D02*
D03*
X493500D02*
D03*
X518516Y249340D02*
D03*
X510500Y252000D02*
D03*
X505541Y227539D02*
D03*
X470000Y149000D02*
D03*
X503000D02*
D03*
X469000Y173000D02*
D03*
X573368Y126298D02*
D03*
X558000Y138000D02*
D03*
X525500Y126500D02*
D03*
X530000Y306500D02*
D03*
X574049Y288127D02*
D03*
X596500Y286500D02*
D03*
X552374Y185520D02*
D03*
X556500Y149000D02*
D03*
X615500Y274500D02*
D03*
X562500Y250500D02*
D03*
X543500Y260000D02*
D03*
X533500Y258500D02*
D03*
X524000D02*
D03*
X540000Y190500D02*
D03*
X666000Y279000D02*
D03*
Y266500D02*
D03*
X590781Y151466D02*
D03*
X579500Y152000D02*
D03*
X509500Y304500D02*
D03*
X480943Y304584D02*
D03*
X458000Y312500D02*
D03*
X499500Y237000D02*
D03*
X476500Y221500D02*
D03*
X475500Y213500D02*
D03*
X515000Y216000D02*
D03*
X524000Y211000D02*
D03*
X488500Y162000D02*
D03*
X546022Y169623D02*
D03*
X525500Y239000D02*
D03*
X563500Y208000D02*
D03*
X549500Y228000D02*
D03*
X538500Y298000D02*
D03*
X516500Y297000D02*
D03*
X494000Y297500D02*
D03*
X491000Y306000D02*
D03*
X509000Y283500D02*
D03*
X505500Y274500D02*
D03*
X636500Y234500D02*
D03*
X613500Y205500D02*
D03*
D96*
X453000Y116000D02*
D03*
X461500Y156500D02*
D03*
X444500Y157000D02*
D03*
X453000D02*
D03*
X455500Y95000D02*
D03*
X445500Y94500D02*
D03*
M02*
