G04*
G04 #@! TF.GenerationSoftware,Altium Limited,Altium Designer,21.4.1 (30)*
G04*
G04 Layer_Color=8388736*
%FSLAX25Y25*%
%MOIN*%
G70*
G04*
G04 #@! TF.SameCoordinates,5141BEB0-0B1F-41B6-A3F9-944F83B17515*
G04*
G04*
G04 #@! TF.FilePolarity,Negative*
G04*
G01*
G75*
%ADD17R,0.03150X0.03543*%
%ADD18R,0.03543X0.02953*%
%ADD21R,0.03347X0.03543*%
%ADD22R,0.03543X0.03347*%
%ADD31R,0.12795X0.08465*%
%ADD32R,0.03740X0.08465*%
%ADD33R,0.03985X0.04562*%
%ADD34R,0.06213X0.06127*%
%ADD36R,0.02953X0.03543*%
%ADD37R,0.03591X0.03772*%
%ADD38R,0.03772X0.03591*%
%ADD40R,0.03197X0.02593*%
%ADD41R,0.04724X0.07087*%
%ADD43R,0.02593X0.03197*%
%ADD45R,0.07480X0.05118*%
%ADD47R,0.01900X0.00900*%
%ADD48R,0.00400X0.00400*%
%ADD49R,0.00900X0.01900*%
%ADD50R,0.04737X0.04343*%
%ADD51O,0.01784X0.06902*%
%ADD52O,0.06902X0.01784*%
%ADD53R,0.03753X0.05131*%
%ADD54R,0.04147X0.05131*%
%ADD55R,0.05524X0.04737*%
%ADD56R,0.08280X0.06115*%
%ADD57R,0.05406X0.07887*%
%ADD58R,0.06902X0.06115*%
G04:AMPARAMS|DCode=59|XSize=25.72mil|YSize=63.12mil|CornerRadius=5.95mil|HoleSize=0mil|Usage=FLASHONLY|Rotation=90.000|XOffset=0mil|YOffset=0mil|HoleType=Round|Shape=RoundedRectangle|*
%AMROUNDEDRECTD59*
21,1,0.02572,0.05122,0,0,90.0*
21,1,0.01382,0.06312,0,0,90.0*
1,1,0.01190,0.02561,0.00691*
1,1,0.01190,0.02561,-0.00691*
1,1,0.01190,-0.02561,-0.00691*
1,1,0.01190,-0.02561,0.00691*
%
%ADD59ROUNDEDRECTD59*%
%ADD60R,0.04800X0.05800*%
%ADD61R,0.04343X0.04737*%
%ADD62R,0.05918X0.06706*%
%ADD63R,0.03556X0.03162*%
%ADD64R,0.05800X0.04800*%
%ADD65R,0.03556X0.04343*%
%ADD66C,0.09776*%
%ADD67C,0.06800*%
%ADD68C,0.05512*%
%ADD69R,0.05512X0.05512*%
%ADD70R,0.05512X0.05512*%
%ADD71C,0.07099*%
G04:AMPARAMS|DCode=72|XSize=70.99mil|YSize=70.99mil|CornerRadius=19.75mil|HoleSize=0mil|Usage=FLASHONLY|Rotation=0.000|XOffset=0mil|YOffset=0mil|HoleType=Round|Shape=RoundedRectangle|*
%AMROUNDEDRECTD72*
21,1,0.07099,0.03150,0,0,0.0*
21,1,0.03150,0.07099,0,0,0.0*
1,1,0.03950,0.01575,-0.01575*
1,1,0.03950,-0.01575,-0.01575*
1,1,0.03950,-0.01575,0.01575*
1,1,0.03950,0.01575,0.01575*
%
%ADD72ROUNDEDRECTD72*%
G04:AMPARAMS|DCode=73|XSize=70.99mil|YSize=70.99mil|CornerRadius=19.75mil|HoleSize=0mil|Usage=FLASHONLY|Rotation=270.000|XOffset=0mil|YOffset=0mil|HoleType=Round|Shape=RoundedRectangle|*
%AMROUNDEDRECTD73*
21,1,0.07099,0.03150,0,0,270.0*
21,1,0.03150,0.07099,0,0,270.0*
1,1,0.03950,-0.01575,-0.01575*
1,1,0.03950,-0.01575,0.01575*
1,1,0.03950,0.01575,0.01575*
1,1,0.03950,0.01575,-0.01575*
%
%ADD73ROUNDEDRECTD73*%
%ADD74R,0.09068X0.06706*%
%ADD75R,0.06706X0.09068*%
%ADD76R,0.06102X0.06102*%
%ADD77R,0.06102X0.06102*%
%ADD78C,0.24800*%
%ADD79C,0.06102*%
%ADD80C,0.04331*%
%ADD81C,0.03600*%
%ADD82C,0.05800*%
G36*
X667952Y227397D02*
X668004Y227387D01*
X668053Y227370D01*
X668100Y227347D01*
X668144Y227318D01*
X668183Y227283D01*
X668218Y227244D01*
X668247Y227200D01*
X668270Y227153D01*
X668287Y227104D01*
X668297Y227052D01*
X668301Y227000D01*
Y222000D01*
X668297Y221948D01*
X668287Y221896D01*
X668270Y221847D01*
X668247Y221800D01*
X668218Y221756D01*
X668183Y221717D01*
X668144Y221682D01*
X668100Y221653D01*
X668053Y221630D01*
X668004Y221613D01*
X667952Y221603D01*
X667900Y221599D01*
X661300D01*
X661248Y221603D01*
X661196Y221613D01*
X661147Y221630D01*
X661100Y221653D01*
X661056Y221682D01*
X661017Y221717D01*
X660982Y221756D01*
X660953Y221800D01*
X660930Y221847D01*
X660913Y221896D01*
X660903Y221948D01*
X660899Y222000D01*
X660903Y222052D01*
X660913Y222104D01*
X660930Y222153D01*
X660939Y222172D01*
X660483Y221717D01*
X660444Y221682D01*
X660400Y221653D01*
X660353Y221630D01*
X660304Y221613D01*
X660252Y221603D01*
X660200Y221599D01*
X655700D01*
X655648Y221603D01*
X655596Y221613D01*
X655547Y221630D01*
X655500Y221653D01*
X655456Y221682D01*
X655417Y221717D01*
X655382Y221756D01*
X655353Y221800D01*
X655330Y221847D01*
X655313Y221896D01*
X655303Y221948D01*
X655299Y222000D01*
Y227000D01*
X655303Y227052D01*
X655313Y227104D01*
X655330Y227153D01*
X655353Y227200D01*
X655382Y227244D01*
X655417Y227283D01*
X655456Y227318D01*
X655500Y227347D01*
X655547Y227370D01*
X655596Y227387D01*
X655648Y227397D01*
X655700Y227401D01*
X660200D01*
X660252Y227397D01*
X660304Y227387D01*
X660353Y227370D01*
X660400Y227347D01*
X660444Y227318D01*
X660483Y227283D01*
X660939Y226828D01*
X660930Y226847D01*
X660913Y226896D01*
X660903Y226948D01*
X660899Y227000D01*
X660903Y227052D01*
X660913Y227104D01*
X660930Y227153D01*
X660953Y227200D01*
X660982Y227244D01*
X661017Y227283D01*
X661056Y227318D01*
X661100Y227347D01*
X661147Y227370D01*
X661196Y227387D01*
X661248Y227397D01*
X661300Y227401D01*
X667900D01*
X667952Y227397D01*
D02*
G37*
G36*
Y216147D02*
X668004Y216137D01*
X668053Y216120D01*
X668100Y216097D01*
X668144Y216068D01*
X668183Y216033D01*
X668218Y215994D01*
X668247Y215950D01*
X668270Y215903D01*
X668287Y215854D01*
X668297Y215802D01*
X668301Y215750D01*
Y210750D01*
X668297Y210698D01*
X668287Y210646D01*
X668270Y210597D01*
X668247Y210550D01*
X668218Y210506D01*
X668183Y210467D01*
X668144Y210432D01*
X668100Y210403D01*
X668053Y210380D01*
X668004Y210363D01*
X667952Y210353D01*
X667900Y210349D01*
X661300D01*
X661248Y210353D01*
X661196Y210363D01*
X661147Y210380D01*
X661100Y210403D01*
X661056Y210432D01*
X661017Y210467D01*
X660982Y210506D01*
X660953Y210550D01*
X660930Y210597D01*
X660913Y210646D01*
X660903Y210698D01*
X660899Y210750D01*
X660903Y210802D01*
X660913Y210854D01*
X660930Y210903D01*
X660939Y210922D01*
X660483Y210467D01*
X660444Y210432D01*
X660400Y210403D01*
X660353Y210380D01*
X660304Y210363D01*
X660252Y210353D01*
X660200Y210349D01*
X655700D01*
X655648Y210353D01*
X655596Y210363D01*
X655547Y210380D01*
X655500Y210403D01*
X655456Y210432D01*
X655417Y210467D01*
X655382Y210506D01*
X655353Y210550D01*
X655330Y210597D01*
X655313Y210646D01*
X655303Y210698D01*
X655299Y210750D01*
Y215750D01*
X655303Y215802D01*
X655313Y215854D01*
X655330Y215903D01*
X655353Y215950D01*
X655382Y215994D01*
X655417Y216033D01*
X655456Y216068D01*
X655500Y216097D01*
X655547Y216120D01*
X655596Y216137D01*
X655648Y216147D01*
X655700Y216151D01*
X660200D01*
X660252Y216147D01*
X660304Y216137D01*
X660353Y216120D01*
X660400Y216097D01*
X660444Y216068D01*
X660483Y216033D01*
X660939Y215578D01*
X660930Y215597D01*
X660913Y215646D01*
X660903Y215698D01*
X660899Y215750D01*
X660903Y215802D01*
X660913Y215854D01*
X660930Y215903D01*
X660953Y215950D01*
X660982Y215994D01*
X661017Y216033D01*
X661056Y216068D01*
X661100Y216097D01*
X661147Y216120D01*
X661196Y216137D01*
X661248Y216147D01*
X661300Y216151D01*
X667900D01*
X667952Y216147D01*
D02*
G37*
G36*
Y204897D02*
X668004Y204887D01*
X668053Y204870D01*
X668100Y204847D01*
X668144Y204818D01*
X668183Y204783D01*
X668218Y204744D01*
X668247Y204700D01*
X668270Y204653D01*
X668287Y204604D01*
X668297Y204552D01*
X668301Y204500D01*
Y199500D01*
X668297Y199448D01*
X668287Y199396D01*
X668270Y199347D01*
X668247Y199300D01*
X668218Y199256D01*
X668183Y199217D01*
X668144Y199182D01*
X668100Y199153D01*
X668053Y199130D01*
X668004Y199113D01*
X667952Y199103D01*
X667900Y199099D01*
X661300D01*
X661248Y199103D01*
X661196Y199113D01*
X661147Y199130D01*
X661100Y199153D01*
X661056Y199182D01*
X661017Y199217D01*
X660982Y199256D01*
X660953Y199300D01*
X660930Y199347D01*
X660913Y199396D01*
X660903Y199448D01*
X660899Y199500D01*
X660903Y199552D01*
X660913Y199604D01*
X660930Y199653D01*
X660939Y199672D01*
X660483Y199217D01*
X660444Y199182D01*
X660400Y199153D01*
X660353Y199130D01*
X660304Y199113D01*
X660252Y199103D01*
X660200Y199099D01*
X655700D01*
X655648Y199103D01*
X655596Y199113D01*
X655547Y199130D01*
X655500Y199153D01*
X655456Y199182D01*
X655417Y199217D01*
X655382Y199256D01*
X655353Y199300D01*
X655330Y199347D01*
X655313Y199396D01*
X655303Y199448D01*
X655299Y199500D01*
Y204500D01*
X655303Y204552D01*
X655313Y204604D01*
X655330Y204653D01*
X655353Y204700D01*
X655382Y204744D01*
X655417Y204783D01*
X655456Y204818D01*
X655500Y204847D01*
X655547Y204870D01*
X655596Y204887D01*
X655648Y204897D01*
X655700Y204901D01*
X660200D01*
X660252Y204897D01*
X660304Y204887D01*
X660353Y204870D01*
X660400Y204847D01*
X660444Y204818D01*
X660483Y204783D01*
X660939Y204328D01*
X660930Y204347D01*
X660913Y204396D01*
X660903Y204448D01*
X660899Y204500D01*
X660903Y204552D01*
X660913Y204604D01*
X660930Y204653D01*
X660953Y204700D01*
X660982Y204744D01*
X661017Y204783D01*
X661056Y204818D01*
X661100Y204847D01*
X661147Y204870D01*
X661196Y204887D01*
X661248Y204897D01*
X661300Y204901D01*
X667900D01*
X667952Y204897D01*
D02*
G37*
G36*
X506552Y165197D02*
X506604Y165187D01*
X506653Y165170D01*
X506700Y165147D01*
X506744Y165118D01*
X506783Y165083D01*
X506818Y165044D01*
X506847Y165000D01*
X506870Y164953D01*
X506887Y164904D01*
X506897Y164852D01*
X506901Y164800D01*
Y160300D01*
X506897Y160248D01*
X506887Y160196D01*
X506870Y160147D01*
X506847Y160100D01*
X506818Y160056D01*
X506783Y160017D01*
X506328Y159561D01*
X506347Y159570D01*
X506396Y159587D01*
X506448Y159597D01*
X506500Y159601D01*
X506552Y159597D01*
X506604Y159587D01*
X506653Y159570D01*
X506700Y159547D01*
X506744Y159518D01*
X506783Y159483D01*
X506818Y159444D01*
X506847Y159400D01*
X506870Y159353D01*
X506887Y159304D01*
X506897Y159252D01*
X506901Y159200D01*
Y152600D01*
X506897Y152548D01*
X506887Y152496D01*
X506870Y152447D01*
X506847Y152400D01*
X506818Y152356D01*
X506783Y152317D01*
X506744Y152282D01*
X506700Y152253D01*
X506653Y152230D01*
X506604Y152213D01*
X506552Y152203D01*
X506500Y152199D01*
X501500D01*
X501448Y152203D01*
X501396Y152213D01*
X501347Y152230D01*
X501300Y152253D01*
X501256Y152282D01*
X501217Y152317D01*
X501182Y152356D01*
X501153Y152400D01*
X501130Y152447D01*
X501113Y152496D01*
X501103Y152548D01*
X501099Y152600D01*
Y159200D01*
X501103Y159252D01*
X501113Y159304D01*
X501130Y159353D01*
X501153Y159400D01*
X501182Y159444D01*
X501217Y159483D01*
X501256Y159518D01*
X501300Y159547D01*
X501347Y159570D01*
X501396Y159587D01*
X501448Y159597D01*
X501500Y159601D01*
X501552Y159597D01*
X501604Y159587D01*
X501653Y159570D01*
X501672Y159561D01*
X501217Y160017D01*
X501182Y160056D01*
X501153Y160100D01*
X501130Y160147D01*
X501113Y160196D01*
X501103Y160248D01*
X501099Y160300D01*
Y164800D01*
X501103Y164852D01*
X501113Y164904D01*
X501130Y164953D01*
X501153Y165000D01*
X501182Y165044D01*
X501217Y165083D01*
X501256Y165118D01*
X501300Y165147D01*
X501347Y165170D01*
X501396Y165187D01*
X501448Y165197D01*
X501500Y165201D01*
X506500D01*
X506552Y165197D01*
D02*
G37*
%LPC*%
G36*
X663061Y224672D02*
X663070Y224653D01*
X663087Y224604D01*
X663097Y224552D01*
X663101Y224500D01*
X663097Y224448D01*
X663087Y224396D01*
X663070Y224347D01*
X663061Y224328D01*
X663233Y224500D01*
X663061Y224672D01*
D02*
G37*
G36*
Y213422D02*
X663070Y213403D01*
X663087Y213354D01*
X663097Y213302D01*
X663101Y213250D01*
X663097Y213198D01*
X663087Y213146D01*
X663070Y213097D01*
X663061Y213078D01*
X663233Y213250D01*
X663061Y213422D01*
D02*
G37*
G36*
Y202172D02*
X663070Y202153D01*
X663087Y202104D01*
X663097Y202052D01*
X663101Y202000D01*
X663097Y201948D01*
X663087Y201896D01*
X663070Y201847D01*
X663061Y201828D01*
X663233Y202000D01*
X663061Y202172D01*
D02*
G37*
G36*
X504172Y157439D02*
X504153Y157430D01*
X504104Y157413D01*
X504052Y157403D01*
X504000Y157399D01*
X503948Y157403D01*
X503896Y157413D01*
X503847Y157430D01*
X503828Y157439D01*
X504000Y157267D01*
X504172Y157439D01*
D02*
G37*
%LPD*%
D17*
X514500Y256307D02*
D03*
Y263000D02*
D03*
X497500Y256307D02*
D03*
Y263000D02*
D03*
X534000Y286653D02*
D03*
Y293347D02*
D03*
X544000Y286653D02*
D03*
Y293347D02*
D03*
X489000Y256307D02*
D03*
Y263000D02*
D03*
X506000Y256307D02*
D03*
Y263000D02*
D03*
X466000Y287653D02*
D03*
Y294346D02*
D03*
D18*
X543500Y253500D02*
D03*
Y248776D02*
D03*
X579500Y146000D02*
D03*
Y141276D02*
D03*
D21*
X568559Y256500D02*
D03*
X563441D02*
D03*
D22*
X566500Y272059D02*
D03*
Y266941D02*
D03*
Y287059D02*
D03*
Y281941D02*
D03*
X466500Y306941D02*
D03*
Y312059D02*
D03*
X603500Y285559D02*
D03*
Y280441D02*
D03*
X580000Y286500D02*
D03*
Y281382D02*
D03*
D31*
X452500Y147917D02*
D03*
D32*
X461555Y125083D02*
D03*
X452500D02*
D03*
X443445D02*
D03*
D33*
X442000Y102990D02*
D03*
Y109500D02*
D03*
D34*
X455098Y106500D02*
D03*
X461902D02*
D03*
D36*
X613362Y232000D02*
D03*
X564138Y138000D02*
D03*
X608638Y232000D02*
D03*
X568862Y138000D02*
D03*
D37*
X525500Y133776D02*
D03*
Y139500D02*
D03*
D38*
X567000Y126500D02*
D03*
X561276D02*
D03*
D40*
X512000Y164836D02*
D03*
X659500Y145836D02*
D03*
X621500Y182000D02*
D03*
X659500Y151164D02*
D03*
X621500Y187328D02*
D03*
X512000Y170164D02*
D03*
D41*
X561776Y147626D02*
D03*
X571224Y163374D02*
D03*
Y147626D02*
D03*
X561776Y163374D02*
D03*
D43*
X621336Y148500D02*
D03*
X634836D02*
D03*
X648328Y235000D02*
D03*
X626664Y148500D02*
D03*
X640164D02*
D03*
X643000Y235000D02*
D03*
D45*
X548799Y147827D02*
D03*
Y126173D02*
D03*
X536201D02*
D03*
Y147827D02*
D03*
D47*
X660950Y199550D02*
D03*
X660450Y204450D02*
D03*
Y215700D02*
D03*
X660950Y210800D02*
D03*
X660450Y226950D02*
D03*
X660950Y222050D02*
D03*
D48*
X663100Y202000D02*
D03*
Y213250D02*
D03*
Y224500D02*
D03*
X504000Y157400D02*
D03*
D49*
X506450Y160050D02*
D03*
X501550Y159550D02*
D03*
D50*
X537000Y312150D02*
D03*
Y305850D02*
D03*
X610000Y160850D02*
D03*
Y167150D02*
D03*
X553000Y157201D02*
D03*
Y163500D02*
D03*
X508000Y218650D02*
D03*
X602000Y160350D02*
D03*
X524500Y252650D02*
D03*
X533500Y253150D02*
D03*
X521000Y185500D02*
D03*
X579500Y157701D02*
D03*
X590500Y158350D02*
D03*
X602000Y166650D02*
D03*
X524500Y246350D02*
D03*
X533500Y246850D02*
D03*
X521000Y179201D02*
D03*
X579500Y164000D02*
D03*
X590500Y164650D02*
D03*
X508000Y212350D02*
D03*
D51*
X537815Y178248D02*
D03*
X539783D02*
D03*
X541752D02*
D03*
X543720D02*
D03*
X545689D02*
D03*
X547657D02*
D03*
X549626D02*
D03*
X551594D02*
D03*
X553563D02*
D03*
X559469D02*
D03*
X561437D02*
D03*
X563406D02*
D03*
X565374D02*
D03*
X567343D02*
D03*
X569311D02*
D03*
X571279D02*
D03*
X581122D02*
D03*
X583090D02*
D03*
X585059D02*
D03*
Y237500D02*
D03*
X583090D02*
D03*
X581122D02*
D03*
X579153D02*
D03*
X577185D02*
D03*
X575216D02*
D03*
X573248D02*
D03*
X571279D02*
D03*
X569311D02*
D03*
X567343D02*
D03*
X565374D02*
D03*
X563406D02*
D03*
X561437D02*
D03*
X559469D02*
D03*
X557500D02*
D03*
X555532D02*
D03*
X553563D02*
D03*
X551594D02*
D03*
X549626D02*
D03*
X547657D02*
D03*
X545689D02*
D03*
X543720D02*
D03*
X541752D02*
D03*
X537815D02*
D03*
X579153Y178248D02*
D03*
X577185D02*
D03*
X573248D02*
D03*
X557500D02*
D03*
X539783Y237500D02*
D03*
X575216Y178248D02*
D03*
X555532D02*
D03*
D52*
X591063Y184252D02*
D03*
Y190157D02*
D03*
Y192126D02*
D03*
Y194095D02*
D03*
Y196063D02*
D03*
Y198031D02*
D03*
Y200000D02*
D03*
Y201969D02*
D03*
Y203937D02*
D03*
Y205906D02*
D03*
Y207874D02*
D03*
Y209842D02*
D03*
Y211811D02*
D03*
Y213779D02*
D03*
Y215748D02*
D03*
Y217717D02*
D03*
Y219685D02*
D03*
Y221654D02*
D03*
Y223622D02*
D03*
Y225590D02*
D03*
Y227559D02*
D03*
Y229528D02*
D03*
X531811Y231496D02*
D03*
Y229528D02*
D03*
Y227559D02*
D03*
Y225590D02*
D03*
Y223622D02*
D03*
Y221654D02*
D03*
Y219685D02*
D03*
Y217717D02*
D03*
Y215748D02*
D03*
Y213779D02*
D03*
Y211811D02*
D03*
Y209842D02*
D03*
Y207874D02*
D03*
Y205906D02*
D03*
Y203937D02*
D03*
Y201969D02*
D03*
Y200000D02*
D03*
Y198031D02*
D03*
Y196063D02*
D03*
Y194095D02*
D03*
Y192126D02*
D03*
Y190157D02*
D03*
Y188189D02*
D03*
Y184252D02*
D03*
X591063Y231496D02*
D03*
Y188189D02*
D03*
X531811Y186221D02*
D03*
X591063D02*
D03*
D53*
X517864Y314309D02*
D03*
D54*
X513730D02*
D03*
X505069D02*
D03*
X496408D02*
D03*
X492077D02*
D03*
X487746D02*
D03*
X500738D02*
D03*
X509400D02*
D03*
D55*
X477372Y275530D02*
D03*
Y290096D02*
D03*
D56*
X491152Y271691D02*
D03*
X514655D02*
D03*
D57*
X522628Y312931D02*
D03*
D58*
X478061Y313817D02*
D03*
D59*
X607614Y256043D02*
D03*
Y258602D02*
D03*
Y261161D02*
D03*
Y263720D02*
D03*
Y266280D02*
D03*
Y268839D02*
D03*
Y271398D02*
D03*
Y273957D02*
D03*
X584386Y256043D02*
D03*
Y258602D02*
D03*
Y261161D02*
D03*
Y263720D02*
D03*
Y266280D02*
D03*
Y268839D02*
D03*
Y271398D02*
D03*
Y273957D02*
D03*
D60*
X665900Y202000D02*
D03*
X658000D02*
D03*
Y213250D02*
D03*
X665900D02*
D03*
X658000Y224500D02*
D03*
X665900D02*
D03*
D61*
X475350Y173000D02*
D03*
X606150Y239000D02*
D03*
X599850D02*
D03*
X481650Y173000D02*
D03*
D62*
X655740Y253500D02*
D03*
X656240Y266500D02*
D03*
X656000Y279000D02*
D03*
X648260Y253500D02*
D03*
X648760Y266500D02*
D03*
X648520Y279000D02*
D03*
D63*
X474500Y158520D02*
D03*
Y166000D02*
D03*
X482374Y162260D02*
D03*
D64*
X504000Y154600D02*
D03*
Y162500D02*
D03*
D65*
X631547Y254000D02*
D03*
X637453D02*
D03*
X631047Y263000D02*
D03*
X636953D02*
D03*
X631094Y272500D02*
D03*
X637000D02*
D03*
D66*
X417000Y176831D02*
D03*
Y257500D02*
D03*
D67*
X262500Y158500D02*
D03*
Y148500D02*
D03*
X352500Y128500D02*
D03*
Y228500D02*
D03*
Y238500D02*
D03*
Y278500D02*
D03*
Y288500D02*
D03*
Y298500D02*
D03*
X262500Y148500D02*
D03*
Y168500D02*
D03*
Y118500D02*
D03*
Y128500D02*
D03*
Y138500D02*
D03*
Y178500D02*
D03*
Y188500D02*
D03*
Y198500D02*
D03*
Y208500D02*
D03*
Y218500D02*
D03*
Y228500D02*
D03*
Y238500D02*
D03*
Y248500D02*
D03*
Y258500D02*
D03*
Y268500D02*
D03*
Y278500D02*
D03*
Y288500D02*
D03*
Y298500D02*
D03*
X352500Y148500D02*
D03*
D03*
Y138500D02*
D03*
Y158500D02*
D03*
Y168500D02*
D03*
Y178500D02*
D03*
Y188500D02*
D03*
Y198500D02*
D03*
Y208500D02*
D03*
Y218500D02*
D03*
Y248500D02*
D03*
Y258500D02*
D03*
Y268500D02*
D03*
Y118500D02*
D03*
Y108500D02*
D03*
X287000Y89500D02*
D03*
X272500Y90000D02*
D03*
D68*
X682433Y281764D02*
D03*
Y271921D02*
D03*
Y262079D02*
D03*
X356764Y86567D02*
D03*
X346921D02*
D03*
X337079D02*
D03*
X597185Y97000D02*
D03*
X487000Y112500D02*
D03*
X688000Y173972D02*
D03*
Y183815D02*
D03*
Y193658D02*
D03*
Y203500D02*
D03*
Y213342D02*
D03*
X587000Y302500D02*
D03*
X577157D02*
D03*
X567315D02*
D03*
X577500Y97000D02*
D03*
X587343D02*
D03*
X487000Y132185D02*
D03*
Y122343D02*
D03*
D69*
X682433Y252236D02*
D03*
X487000Y142028D02*
D03*
X688000Y223185D02*
D03*
D70*
X327236Y86567D02*
D03*
X596842Y302500D02*
D03*
X567658Y97000D02*
D03*
D71*
X519000Y88500D02*
D03*
X499000D02*
D03*
X479000D02*
D03*
X489000D02*
D03*
X509000D02*
D03*
X529000D02*
D03*
X539000D02*
D03*
X490500Y183500D02*
D03*
Y193500D02*
D03*
Y213500D02*
D03*
Y223500D02*
D03*
Y203500D02*
D03*
D72*
X469000Y88500D02*
D03*
D73*
X490500Y233500D02*
D03*
D74*
X407000Y126122D02*
D03*
Y102500D02*
D03*
D75*
X425504Y114311D02*
D03*
D76*
X638000Y93500D02*
D03*
X679343Y95000D02*
D03*
X604500Y130500D02*
D03*
D77*
X683000Y134158D02*
D03*
X636933Y169079D02*
D03*
Y209079D02*
D03*
D78*
X646500Y126500D02*
D03*
X390548Y149510D02*
D03*
X635000Y301000D02*
D03*
D79*
X628158Y93500D02*
D03*
X669500Y95000D02*
D03*
X683000Y144000D02*
D03*
X614342Y130500D02*
D03*
X636933Y178921D02*
D03*
Y218921D02*
D03*
D80*
X680126Y229484D02*
D03*
D81*
X618500Y237000D02*
D03*
X581535Y188859D02*
D03*
X570623Y189877D02*
D03*
X555500Y278000D02*
D03*
X535000Y269500D02*
D03*
X472500Y252500D02*
D03*
X525500Y267500D02*
D03*
X543000Y228000D02*
D03*
X656000Y259000D02*
D03*
X576000Y170500D02*
D03*
X597500Y177500D02*
D03*
X476500Y199000D02*
D03*
X548000Y201500D02*
D03*
X607000Y153500D02*
D03*
X518500Y164000D02*
D03*
X514500Y210000D02*
D03*
X489000Y173000D02*
D03*
X520000D02*
D03*
X472000Y263500D02*
D03*
X493500D02*
D03*
X518516Y249340D02*
D03*
X510500Y252000D02*
D03*
X505541Y227539D02*
D03*
X470000Y149000D02*
D03*
X503000D02*
D03*
X469000Y173000D02*
D03*
X573368Y126298D02*
D03*
X558000Y138000D02*
D03*
X525500Y126500D02*
D03*
X530000Y306500D02*
D03*
X574049Y288127D02*
D03*
X596500Y286500D02*
D03*
X552374Y185520D02*
D03*
X556500Y149000D02*
D03*
X615500Y274500D02*
D03*
X562500Y250500D02*
D03*
X543500Y260000D02*
D03*
X533500Y258500D02*
D03*
X524000D02*
D03*
X540000Y190500D02*
D03*
X666000Y279000D02*
D03*
Y266500D02*
D03*
X590781Y151466D02*
D03*
X579500Y152000D02*
D03*
X509500Y304500D02*
D03*
X480943Y304584D02*
D03*
X458000Y312500D02*
D03*
X499500Y237000D02*
D03*
X476500Y221500D02*
D03*
X475500Y213500D02*
D03*
X515000Y216000D02*
D03*
X524000Y211000D02*
D03*
X488500Y162000D02*
D03*
X546022Y169623D02*
D03*
X525500Y239000D02*
D03*
X563500Y208000D02*
D03*
X549500Y228000D02*
D03*
X538500Y298000D02*
D03*
X516500Y297000D02*
D03*
X494000Y297500D02*
D03*
X491000Y306000D02*
D03*
X509000Y283500D02*
D03*
X505500Y274500D02*
D03*
X636500Y234500D02*
D03*
X613500Y205500D02*
D03*
D82*
X453000Y116000D02*
D03*
X461500Y156500D02*
D03*
X444500Y157000D02*
D03*
X453000D02*
D03*
X455500Y95000D02*
D03*
X445500Y94500D02*
D03*
M02*
