M48
;Layer_Color=9474304
;FILE_FORMAT=2:5
INCH,LZ
;TYPE=PLATED
T1F00S00C0.01300
T2F00S00C0.01400
T3F00S00C0.02800
T4F00S00C0.03543
T5F00S00C0.03937
T7F00S00C0.04000
T8F00S00C0.04331
T9F00S00C0.05984
T10F00S00C0.14500
;TYPE=NON_PLATED
T11F00S00C0.04331
%
T01
X047Y0149
X0503
X05255Y01265
X0558Y0138
X05565Y0149
X05795Y0152
X0590781Y0151466
X0607Y01535
X0573368Y0126298
X06365Y02345
X0656Y0259
X0666Y02665
Y0279
X06155Y02745
X05965Y02865
X0574049Y0288127
X05385Y0298
X053Y03065
X05095Y03045
X05165Y0297
X0509Y02835
X05055Y02745
X04935Y02635
X0472
X04765Y02215
X04755Y02135
X04765Y0199
X0469Y0173
X04885Y0162
X05185Y0164
X0546022Y0169623
X0552374Y018552
X054Y01905
X0570623Y0189877
X0581535Y0188859
X05635Y0208
X05495Y0228
X0543
X05255Y0239
X0518516Y024934
X05105Y0252
X0524Y02585
X05335
X05435Y026
X05625Y02505
X06185Y0237
X06135Y02055
X0524Y0211
X05145Y021
X0515Y0216
X0505541Y0227539
X04995Y0237
X0494Y02975
X0491Y0306
X0480943Y0304584
X0458Y03125
T02
X0489Y0173
X052
X0548Y02015
X0576Y01705
X05975Y01775
X05555Y0278
X0535Y02695
X05255Y02675
X04725Y02525
T03
X04455Y00945
X04555Y0095
X0453Y0116
Y0157
X04445
X04615Y01565
T04
X0327236Y0086567
X0337079
X0346921
X0356764
X0487Y01125
Y0122343
Y0132185
Y0142028
X0567658Y0097
X05775
X0587343
X0597185
X0688Y0173972
Y0183815
Y0193658
Y02035
Y0213342
Y0223185
X0682433Y0252236
Y0262079
Y0271921
Y0281764
X0596842Y03025
X0587
X0577157
X0567315
T05
X06045Y01305
X0614342
X0628158Y00935
X0638
X06695Y0095
X0679343
X0683Y0134158
Y0144
X0636933Y0169079
Y0178921
Y0209079
Y0218921
T07
X02725Y009
X0287Y00895
X02625Y01185
Y01285
Y01385
Y01485
X03525Y01485
Y01385
Y01285
Y01185
Y01085
Y01585
Y01685
Y01785
Y01885
Y01985
Y02085
Y02185
Y02285
Y02385
Y02485
Y02585
Y02685
Y02785
Y02885
Y02985
X02625Y02985
Y02885
Y02785
Y02685
Y02585
Y02485
Y02385
Y02285
Y02185
Y02085
Y01985
Y01885
Y01785
Y01685
Y01585
T08
X0469Y00885
X0479
X0489
X0499
X0509
X0519
X0529
X0539
X04905Y01835
Y01935
Y02035
Y02135
Y02235
Y02335
T09
X0417Y0176831
Y02575
T10
X0390548Y014951
X06465Y01265
X0635Y0301
T11
X0680126Y0229484
M30
